<svg width="435" height="246" viewBox="0 0 435 246" fill="none" xmlns="http://www.w3.org/2000/svg">
<g clip-path="url(#clip0_407_896)">
<path d="M110.067 19.2443C106.843 16.0112 103.013 13.4463 98.7978 11.6963C94.5822 9.94621 90.0632 9.04541 85.4993 9.04541C80.9355 9.04541 76.4165 9.94621 72.2009 11.6963C67.9853 13.4463 64.1559 16.0112 60.9318 19.2443C54.3549 13.0274 45.6154 9.62194 36.5699 9.75129C27.5244 9.88063 18.8857 13.5346 12.4889 19.937C6.09216 26.3393 2.44138 34.9856 2.31214 44.039C2.18291 53.0924 5.58542 61.8395 11.7969 68.4221L60.9318 117.6L110.067 68.4221C113.297 65.1953 115.86 61.3625 117.608 57.1433C119.357 52.924 120.257 48.401 120.257 43.8332C120.257 39.2654 119.357 34.7424 117.608 30.5231C115.86 26.3039 113.297 22.4711 110.067 19.2443Z" fill="#FF6584"/>
<path d="M258.788 215.85H0.947941C0.631048 215.859 0.313977 215.841 0 215.798L121.916 4.32748C122.469 3.35142 123.209 2.49399 124.093 1.80415C124.978 1.11431 125.989 0.60558 127.07 0.307007C128.151 0.00843432 129.279 -0.0741309 130.392 0.0640268C131.505 0.202184 132.579 0.558359 133.554 1.11221C134.907 1.85951 136.02 2.97411 136.767 4.32748L218.606 146.221L222.503 153.021L258.788 215.85Z" fill="#FF5757"/>
<path opacity="0.2" d="M258.788 215.85H170.735L213.972 152.968L217.079 148.488L218.659 146.221L222.556 152.968L258.788 215.85Z" fill="black"/>
<path d="M402.401 215.587H179.319L222.556 152.757L225.663 148.224L281.96 66.3137C285.646 60.9373 294.546 60.6211 298.865 65.3122C299.172 65.6089 299.438 65.9458 299.655 66.3137L402.401 215.587Z" fill="#6F6F8C"/>
<path d="M435 165.987C435 188.02 421.887 195.715 405.772 195.715C389.657 195.715 376.543 188.02 376.543 165.987C376.543 143.955 405.772 115.913 405.772 115.913C405.772 115.913 435 143.955 435 165.987Z" fill="#E6E6E6"/>
<path d="M404.719 192.342L404.982 173.894L417.463 151.07L405.035 170.995L405.193 162.719L413.777 146.221L405.245 160.505L405.456 145.589L414.672 132.464L405.509 143.269L405.666 115.913L404.719 152.125L404.771 150.596L395.45 136.312L404.613 153.495L403.771 170.151L403.718 169.677L392.975 154.602L403.718 171.258L403.613 173.314L403.56 173.367V173.525L401.348 215.798H404.35L404.666 193.976L415.409 177.372L404.719 192.342Z" fill="#3F3D56"/>
<path d="M177.95 212.951C177.051 212.206 176.451 211.163 176.257 210.011C176.064 208.86 176.291 207.677 176.896 206.679C177.002 206.468 177.318 206.679 177.212 206.837C176.65 207.77 176.441 208.874 176.625 209.949C176.808 211.023 177.372 211.995 178.213 212.688C178.248 212.723 178.268 212.77 178.268 212.819C178.268 212.869 178.248 212.916 178.213 212.951C178.178 212.986 178.131 213.006 178.081 213.006C178.032 213.006 177.985 212.986 177.95 212.951Z" fill="white"/>
<path d="M150.934 242.363H154.725L156.516 227.815H150.934V242.363Z" fill="#FFB6B6"/>
<path d="M149.985 241.098H151.039L155.199 239.411L157.411 241.098C158.668 241.098 159.874 241.598 160.762 242.488C161.651 243.377 162.151 244.584 162.151 245.842V246H149.985V241.098Z" fill="#2F2E41"/>
<path d="M165.574 239.991L169.208 240.782L174.158 227.025L168.734 225.76L165.574 239.991Z" fill="#FFB6B6"/>
<path d="M164.889 238.568L165.942 238.779L170.366 238.041L172.157 240.149C173.376 240.426 174.437 241.175 175.108 242.231C175.779 243.288 176.005 244.567 175.738 245.789L175.685 245.947L163.836 243.259L164.889 238.568Z" fill="#2F2E41"/>
<path d="M144.035 167.516L147.458 205.73C147.458 205.73 146.194 228.659 150.302 236.723H156.253L159.202 203.622L159.57 181.378L172.368 200.143L164.205 236.196L171.578 236.829L184.796 197.718L170.261 160.98L144.035 167.516Z" fill="#2F2E41"/>
<path d="M147.616 106.636C152.473 106.636 156.41 102.695 156.41 97.834C156.41 92.9725 152.473 89.0315 147.616 89.0315C142.758 89.0315 138.821 92.9725 138.821 97.834C138.821 102.695 142.758 106.636 147.616 106.636Z" fill="#FFB8B8"/>
<path d="M163.046 115.017L155.831 111.907L152.303 108.165L143.508 109.588L141.191 113.594L133.66 120.604L142.507 160.558L142.244 169.255C142.244 169.255 147.879 171.785 172.367 165.935C172.683 165.882 172.051 165.566 172.051 165.566L163.046 115.017Z" fill="#3F3D56"/>
<path d="M138.452 102.841C138.4 102.736 138.347 102.683 138.294 102.578C138.294 102.63 138.242 102.683 138.242 102.736L138.452 102.841Z" fill="#2F2E41"/>
<path d="M156.358 91.4035C155.772 90.1136 154.717 89.0957 153.408 88.5572C152.126 88.03 150.688 88.03 149.406 88.5572C148.282 87.7798 146.975 87.3076 145.614 87.1867C144.931 87.1337 144.244 87.2448 143.612 87.5106C142.98 87.7765 142.421 88.1895 141.98 88.7153C141.77 89.0315 141.559 89.2951 141.348 89.5586C140.664 90.1911 139.663 90.0857 138.768 89.9803L139.979 91.0345C139.505 91.1399 139.031 91.298 138.505 91.4035C139.084 91.7724 139.663 92.0887 140.19 92.4576C138.557 93.4591 137.82 95.6202 137.978 97.5705C138.274 99.4085 139.015 101.146 140.137 102.631C140.558 101.735 140.453 100.628 140.453 99.6261C140.453 98.6246 140.611 97.3596 141.506 96.7271C142.112 96.3774 142.813 96.2297 143.508 96.3054C147.029 96.322 150.546 96.5508 154.04 96.9907C154.519 97.0071 154.987 97.1334 155.41 97.3596C156.2 97.8867 156.358 98.9936 156.41 99.9424C156.839 98.363 157.034 96.7292 156.989 95.0931C157.046 93.8321 156.83 92.5737 156.358 91.4035Z" fill="#2F2E41"/>
<path d="M159.096 194.292C166.746 194.292 172.947 188.086 172.947 180.429C172.947 172.773 166.746 166.567 159.096 166.567C151.447 166.567 145.246 172.773 145.246 180.429C145.246 188.086 151.447 194.292 159.096 194.292Z" fill="white"/>
<path d="M159.096 166.304C158.391 166.302 157.687 166.355 156.99 166.462C156.634 166.506 156.282 166.577 155.937 166.672C154.126 167.087 152.415 167.856 150.902 168.935C149.389 170.013 148.104 171.38 147.121 172.957C146.137 174.534 145.474 176.29 145.171 178.125C144.867 179.959 144.928 181.835 145.351 183.645C146.04 186.595 147.644 189.252 149.933 191.235C150.168 191.441 150.415 191.635 150.67 191.815C153.68 194.059 157.457 195.014 161.171 194.47C164.884 193.926 168.23 191.928 170.472 188.916C172.713 185.903 173.668 182.123 173.124 178.406C172.581 174.689 170.585 171.341 167.575 169.097C165.114 167.295 162.146 166.317 159.096 166.304ZM159.096 193.976C156.213 193.992 153.403 193.066 151.091 191.34L150.354 190.761C147.619 188.441 145.913 185.132 145.607 181.557C145.301 177.982 146.421 174.431 148.722 171.68C150.674 169.339 153.369 167.739 156.358 167.147L157.411 166.989C157.938 166.936 158.517 166.883 159.044 166.883C160.821 166.88 162.582 167.227 164.225 167.904C165.868 168.582 167.362 169.577 168.622 170.832C169.881 172.088 170.881 173.579 171.564 175.221C172.248 176.864 172.601 178.624 172.604 180.403C172.608 182.182 172.261 183.944 171.584 185.589C170.907 187.234 169.913 188.729 168.659 189.99C167.405 191.25 165.914 192.251 164.274 192.935C162.633 193.619 160.874 193.972 159.096 193.976Z" fill="#3F3D56"/>
<path d="M165.89 177.689H152.303C152.067 177.682 151.843 177.585 151.677 177.419C151.51 177.252 151.414 177.028 151.407 176.793V176.74C151.414 176.504 151.51 176.28 151.677 176.114C151.843 175.947 152.067 175.85 152.303 175.844H165.89C166.125 175.85 166.349 175.947 166.515 176.114C166.682 176.28 166.778 176.504 166.785 176.74V176.793C166.778 177.028 166.682 177.252 166.515 177.419C166.349 177.585 166.125 177.682 165.89 177.689Z" fill="#FF5757"/>
<path d="M165.89 181.378H152.303C152.067 181.372 151.843 181.275 151.677 181.108C151.51 180.942 151.414 180.718 151.407 180.482V180.429C151.414 180.194 151.51 179.97 151.677 179.803C151.843 179.637 152.067 179.54 152.303 179.533H165.89C166.125 179.54 166.349 179.637 166.515 179.803C166.682 179.97 166.778 180.194 166.785 180.429V180.482C166.778 180.718 166.682 180.942 166.515 181.108C166.349 181.275 166.125 181.372 165.89 181.378Z" fill="#FF5757"/>
<path d="M165.89 185.068H152.303C152.067 185.061 151.843 184.965 151.677 184.798C151.51 184.632 151.414 184.407 151.407 184.172V184.119C151.414 183.884 151.51 183.66 151.677 183.493C151.843 183.326 152.067 183.23 152.303 183.223H165.89C166.125 183.23 166.349 183.326 166.515 183.493C166.682 183.66 166.778 183.884 166.785 184.119V184.172C166.778 184.407 166.682 184.632 166.515 184.798C166.349 184.965 166.125 185.061 165.89 185.068Z" fill="#FF5757"/>
<path d="M313.874 241.889H309.924L308.028 226.603H313.874V241.889Z" fill="#9E616A"/>
<path d="M295.179 241.889H291.229L289.333 226.603H295.179V241.889Z" fill="#9E616A"/>
<path d="M295.284 246H283.119V245.842C283.119 244.584 283.618 243.377 284.507 242.488C285.396 241.598 286.601 241.098 287.858 241.098L290.07 239.411L294.231 241.098H295.284V246Z" fill="#2F2E41"/>
<path d="M314.506 246H302.341V245.842C302.341 244.584 302.84 243.377 303.729 242.488C304.618 241.598 305.823 241.098 307.081 241.098L309.292 239.411L313.453 241.098H314.506V246Z" fill="#2F2E41"/>
<path d="M291.282 151.597L285.278 188.178L286.911 193.607L284.751 197.455L287.911 231.399L286.647 234.193L290.228 236.407H297.496L297.865 205.677L299.655 201.144V198.667L303.289 179.955L303.974 206.204L305.027 210.737L304.132 213.953L305.29 216.219L308.397 237.092H316.56L315.928 232.243C316.634 231.884 317.203 231.302 317.546 230.588C317.888 229.873 317.986 229.065 317.824 228.29L317.35 226.181L318.403 219.856L320.352 184.699L319.825 156.341L310.293 149.067L291.282 151.597Z" fill="#2F2E41"/>
<path d="M305.079 104.581C309.267 104.581 312.663 101.182 312.663 96.9905C312.663 92.7986 309.267 89.4004 305.079 89.4004C300.891 89.4004 297.496 92.7986 297.496 96.9905C297.496 101.182 300.891 104.581 305.079 104.581Z" fill="#9E616A"/>
<path d="M288.49 166.092C289.09 165.477 289.421 164.648 289.411 163.789C289.401 162.929 289.051 162.108 288.438 161.507C288.311 161.369 288.169 161.245 288.016 161.138L290.965 150.016L285.278 151.914L283.329 162.192C282.902 162.943 282.784 163.831 283 164.667C283.217 165.504 283.75 166.223 284.488 166.672C285.12 167.052 285.863 167.202 286.592 167.096C287.322 166.991 287.992 166.636 288.49 166.092Z" fill="#9E616A"/>
<path d="M291.598 112.593L290.386 112.329L289.333 112.909C289.333 112.909 286.437 116.757 286.437 120.341C286.437 123.925 282.908 158.081 282.908 158.081L289.333 160.98L294.494 134.204L291.598 112.593Z" fill="#E6E6E6"/>
<path d="M311.662 91.4561C311.662 91.4561 313.663 87.661 309.292 87.3448C309.292 87.3448 305.553 83.9714 301.814 86.7123C301.119 86.7718 300.453 87.0189 299.887 87.4273C299.322 87.8358 298.877 88.3902 298.602 89.0315C298.602 89.0315 296.969 88.399 296.6 90.0857C296.6 90.0857 295.389 93.5118 296.6 96.6216C297.812 99.7315 298.18 100.048 298.18 100.048C298.18 100.048 296.232 93.5645 300.971 93.1955C305.711 92.8266 311.03 89.8748 311.451 93.6699C311.873 97.465 312.452 98.4138 312.452 98.4138C312.452 98.4138 316.244 92.9847 311.662 91.4561Z" fill="#2F2E41"/>
<path d="M339.363 197.507C338.8 197.508 338.257 197.302 337.836 196.928L314.927 176.529C314.467 176.112 314.188 175.532 314.149 174.912C314.11 174.292 314.313 173.681 314.717 173.208L329.41 156.71C329.827 156.25 330.406 155.971 331.026 155.931C331.645 155.892 332.256 156.096 332.727 156.5L355.636 176.898C356.096 177.315 356.375 177.896 356.415 178.516C356.454 179.136 356.25 179.747 355.847 180.219L341.154 196.717C340.733 197.182 340.147 197.466 339.521 197.507H339.363Z" fill="white"/>
<path d="M339.363 197.665C339.063 197.674 338.764 197.622 338.483 197.513C338.203 197.405 337.947 197.242 337.73 197.033L314.822 176.634C314.336 176.188 314.043 175.57 314.004 174.911C313.964 174.252 314.182 173.604 314.611 173.103L329.304 156.605C329.75 156.119 330.368 155.825 331.026 155.786C331.684 155.746 332.332 155.965 332.833 156.394L355.741 176.793C356.227 177.239 356.52 177.857 356.56 178.516C356.599 179.175 356.381 179.823 355.952 180.324L341.259 196.822C340.807 197.313 340.186 197.615 339.521 197.665H339.363ZM331.095 156.341C330.827 156.339 330.561 156.394 330.315 156.503C330.07 156.613 329.851 156.773 329.673 156.974L314.98 173.472C314.647 173.85 314.477 174.345 314.506 174.848C314.536 175.352 314.763 175.823 315.138 176.16L338.046 196.559C338.425 196.892 338.919 197.062 339.422 197.032C339.925 197.003 340.396 196.776 340.732 196.4L355.425 179.902C355.758 179.524 355.928 179.029 355.899 178.526C355.869 178.022 355.642 177.551 355.267 177.214L332.359 156.816C332.003 156.52 331.557 156.353 331.095 156.341Z" fill="#3F3D56"/>
<path d="M347.684 181.853C347.433 181.845 347.191 181.752 346.999 181.589L328.989 165.565C328.888 165.479 328.806 165.373 328.746 165.255C328.687 165.137 328.651 165.008 328.641 164.876C328.632 164.743 328.648 164.611 328.689 164.485C328.731 164.359 328.797 164.243 328.883 164.142C328.97 164.042 329.075 163.959 329.193 163.9C329.312 163.84 329.44 163.805 329.572 163.795C329.704 163.785 329.837 163.801 329.963 163.843C330.089 163.884 330.205 163.95 330.305 164.037L348.316 180.06C348.417 180.147 348.499 180.252 348.559 180.371C348.619 180.489 348.654 180.618 348.664 180.75C348.674 180.882 348.658 181.015 348.616 181.141C348.574 181.267 348.508 181.383 348.421 181.484C348.336 181.598 348.224 181.691 348.096 181.755C347.968 181.819 347.827 181.853 347.684 181.853Z" fill="#FF5757"/>
<path d="M344.208 185.753C343.957 185.745 343.715 185.653 343.523 185.49L325.512 169.466C325.412 169.379 325.33 169.274 325.27 169.156C325.211 169.037 325.175 168.908 325.165 168.776C325.156 168.644 325.172 168.511 325.213 168.385C325.255 168.26 325.321 168.143 325.407 168.043C325.494 167.942 325.599 167.86 325.717 167.801C325.835 167.741 325.964 167.705 326.096 167.695C326.228 167.686 326.361 167.702 326.487 167.743C326.612 167.785 326.729 167.851 326.829 167.937L344.84 183.961C344.941 184.047 345.023 184.153 345.083 184.271C345.143 184.389 345.178 184.518 345.188 184.651C345.198 184.783 345.181 184.916 345.14 185.042C345.098 185.168 345.032 185.284 344.945 185.384C344.859 185.499 344.748 185.592 344.62 185.656C344.492 185.72 344.351 185.753 344.208 185.753Z" fill="#FF5757"/>
<path d="M340.785 189.601C340.534 189.593 340.292 189.5 340.101 189.337L322.09 173.314C321.887 173.139 321.762 172.891 321.743 172.624C321.723 172.357 321.81 172.093 321.984 171.89C322.159 171.688 322.407 171.563 322.673 171.543C322.94 171.523 323.204 171.61 323.406 171.785L341.417 187.809C341.518 187.895 341.6 188 341.66 188.119C341.72 188.237 341.755 188.366 341.765 188.498C341.775 188.631 341.759 188.764 341.717 188.889C341.675 189.015 341.609 189.132 341.523 189.232C341.445 189.355 341.335 189.454 341.205 189.519C341.075 189.584 340.93 189.613 340.785 189.601Z" fill="#FF5757"/>
<path d="M320.246 166.778C320.035 166.405 319.901 165.994 319.85 165.568C319.8 165.142 319.834 164.711 319.952 164.299C320.069 163.887 320.268 163.503 320.535 163.168C320.803 162.833 321.134 162.555 321.51 162.35C321.671 162.249 321.85 162.177 322.037 162.139V150.596L327.04 153.917L326.25 164.353C326.459 165.124 326.378 165.944 326.023 166.659C325.668 167.374 325.063 167.934 324.323 168.233C323.584 168.532 322.76 168.549 322.009 168.281C321.257 168.012 320.63 167.478 320.246 166.778Z" fill="#9E616A"/>
<path d="M320.668 115.755L322.88 113.594L324.512 114.754C324.512 114.754 326.145 116.704 327.409 122.502C328.673 128.3 327.409 160.242 327.409 160.242L320.299 159.293L321.247 142.531L318.351 128.353L320.668 115.755Z" fill="#E6E6E6"/>
<path d="M323.985 114.121L316.454 110.537L311.346 105.793L302.025 105.74L299.023 109.641L291.123 112.329L292.44 139.685L291.545 141.793C291.545 141.793 292.177 142.373 292.44 142.69C292.703 143.006 292.019 145.641 292.019 145.641L291.65 148.54L292.703 149.278L291.334 150.912L290.965 153.495C290.965 153.495 315.191 147.486 319.772 157.448C320.036 157.975 319.404 152.81 319.404 152.81L318.824 149.015L319.404 145.641L320.299 144.745L318.772 143.217L319.72 136.048L323.985 114.121Z" fill="#FF5757"/>
<path d="M153.619 174.737C153.953 173.876 153.935 172.919 153.571 172.072C153.207 171.224 152.524 170.553 151.671 170.204C151.485 170.127 151.29 170.074 151.091 170.046L149.406 157.764L144.561 161.981L146.878 172.997C146.757 173.851 146.954 174.72 147.432 175.438C147.911 176.155 148.636 176.671 149.471 176.886C150.306 177.102 151.19 177.001 151.955 176.605C152.721 176.208 153.313 175.543 153.619 174.737Z" fill="#FFB8B8"/>
<path d="M134.66 120.394L133.344 120.657L132.554 121.659C132.554 121.659 131.29 126.719 132.712 130.198C134.134 133.676 144.719 169.097 144.719 169.097L152.303 169.308L146.404 140.634L134.66 120.394Z" fill="#3F3D56"/>
<path d="M164.573 172.945C164.258 172.614 164.012 172.225 163.849 171.798C163.687 171.372 163.61 170.917 163.625 170.461C163.64 170.004 163.745 169.555 163.935 169.14C164.125 168.725 164.396 168.352 164.731 168.043C164.876 167.904 165.035 167.78 165.205 167.674L162.204 155.656L168.26 157.764L170.208 168.833C170.663 169.646 170.779 170.604 170.533 171.502C170.287 172.399 169.697 173.164 168.892 173.63C168.197 174.008 167.397 174.146 166.616 174.022C165.835 173.898 165.117 173.519 164.573 172.945Z" fill="#FFB8B8"/>
<path d="M161.888 115.439L163.204 115.175L164.31 115.808C164.31 115.808 167.365 120.025 167.312 123.82C167.259 127.615 170.63 164.406 170.63 164.406L163.678 167.463L158.517 138.631L161.888 115.439Z" fill="#3F3D56"/>
</g>
<defs>
<clipPath id="clip0_407_896">
<rect width="435" height="246" fill="white"/>
</clipPath>
</defs>
</svg>
