<svg width="138" height="108" viewBox="0 0 138 108" fill="none" xmlns="http://www.w3.org/2000/svg">
<g clip-path="url(#clip0_407_509)">
<path d="M29.1049 79.5398H45.2553C45.8307 79.5393 46.4007 79.6521 46.9324 79.8715C47.4642 80.0909 47.9473 80.4127 48.3543 80.8185C48.7612 81.2243 49.0839 81.7062 49.3039 82.2365C49.5239 82.7668 49.637 83.3352 49.6365 83.9091C49.637 84.483 49.5239 85.0513 49.3039 85.5816C49.0839 86.112 48.7612 86.5938 48.3543 86.9996C47.9473 87.4054 47.4642 87.7272 46.9324 87.9467C46.4007 88.1661 45.8307 88.2788 45.2553 88.2783H29.1049C28.5294 88.2788 27.9595 88.1661 27.4277 87.9467C26.8959 87.7272 26.4128 87.4054 26.0059 86.9996C25.5989 86.5938 25.2762 86.112 25.0562 85.5816C24.8362 85.0513 24.7232 84.483 24.7236 83.9091C24.7232 83.3352 24.8362 82.7668 25.0562 82.2365C25.2762 81.7062 25.5989 81.2243 26.0059 80.8185C26.4128 80.4127 26.8959 80.0909 27.4277 79.8715C27.9595 79.6521 28.5294 79.5393 29.1049 79.5398Z" fill="#3F3D56"/>
<path d="M40.359 86.0508V93.3158C38.6996 93.4702 37.028 93.4357 35.3765 93.213V86.0337H40.359V86.0508Z" fill="#3F3D56"/>
<path d="M57.1277 88.7238L56.7153 88.7752C51.286 89.649 46.3378 92.5619 40.8742 93.2472C40.6977 93.2737 40.5199 93.2908 40.3416 93.2986C40.2729 93.2986 40.1869 93.3158 40.1182 93.3158C38.7781 92.0136 37.4551 90.6257 36.2009 89.2035C35.5136 88.4325 34.8608 87.6271 34.2422 86.839C32.6444 84.7657 31.287 82.641 30.3936 80.5506C30.4795 79.5568 29.861 77.2266 29.5517 75.4617C29.4315 74.7249 29.3627 74.0738 29.4143 73.6455C29.7751 71.2466 31.7509 71.5208 32.3523 69.1562C32.9013 68.7105 33.4811 68.304 34.0876 67.9397C34.1907 67.8883 34.2938 67.8198 34.3969 67.7684L40.9601 63.2449L43.4686 65.6951L47.2828 69.4304L51.4235 73.4741L47.9185 77.0209C47.9185 77.0209 50.8565 80.3964 54.2756 84.8856C55.2206 86.1022 56.1827 87.3873 57.1277 88.7238Z" fill="#2F2E41"/>
<path d="M113.723 86.0508V107.04C112.102 107.539 110.431 107.861 108.74 108V86.0508H113.723Z" fill="#3F3D56"/>
<path d="M104.016 84.3374H120.166C120.741 84.337 121.311 84.4497 121.843 84.6691C122.375 84.8885 122.858 85.2103 123.265 85.6161C123.672 86.0219 123.995 86.5038 124.215 87.0341C124.435 87.5644 124.548 88.1328 124.547 88.7067C124.548 89.2806 124.435 89.8489 124.215 90.3793C123.995 90.9096 123.672 91.3914 123.265 91.7972C122.858 92.203 122.375 92.5249 121.843 92.7443C121.311 92.9637 120.741 93.0764 120.166 93.0759H104.016C103.44 93.0764 102.87 92.9637 102.338 92.7443C101.807 92.5249 101.323 92.203 100.916 91.7972C100.51 91.3914 100.187 90.9096 99.9669 90.3793C99.7468 89.8489 99.6338 89.2806 99.6343 88.7067C99.6338 88.1328 99.7468 87.5644 99.9669 87.0341C100.187 86.5038 100.51 86.0219 100.916 85.6161C101.323 85.2103 101.807 84.8885 102.338 84.6691C102.87 84.4497 103.44 84.337 104.016 84.3374Z" fill="#3F3D56"/>
<path d="M80.8723 95.5946C79.996 95.0634 79.1198 94.5665 78.2263 94.0525C78.1139 93.9961 78.0049 93.9332 77.8999 93.864L78.4841 93.607L80.0819 92.9216H80.0991L80.1163 92.973L80.8723 95.5946Z" fill="#FFB6B6"/>
<path d="M83.3465 97.1196C83.0544 96.9483 82.7795 96.7598 82.5046 96.5884C82.0407 96.2972 81.594 96.023 81.1301 95.7489C81.0442 95.6975 80.9755 95.6461 80.8896 95.5947C80.0133 95.0635 79.1371 94.5666 78.2437 94.0526C78.1312 93.9962 78.0222 93.9333 77.9172 93.8641C76.1829 92.9036 74.3993 92.0342 72.5738 91.2596C71.3711 90.7627 70.1685 90.3001 68.9314 89.9232L67.9692 88.3125L63.6052 81.0647L62.6602 79.4712C62.6602 79.4712 59.413 80.4307 54.8084 81.3559C53.1246 81.6986 51.2862 82.0242 49.3447 82.2983C47.2658 82.5896 45.0838 82.8295 42.919 82.9495C41.8881 83.0009 40.8572 83.0351 39.8435 83.018C37.2148 83.0009 34.7063 82.761 32.5071 82.1784C31.7683 81.493 29.5519 80.5506 27.9712 79.6939C27.3012 79.3341 26.7514 78.9914 26.4593 78.683C24.7927 76.9181 26.2188 75.5474 24.724 73.6112C24.7069 72.9071 24.7413 72.2027 24.8271 71.5037L24.8786 71.1438L25.3425 63.1935L28.8303 62.7308L34.1393 62.0283L39.8779 61.2744L40.5136 66.2091C40.5136 66.2091 44.9807 65.9864 50.6505 66.0549C59.7566 66.1749 71.9209 67.083 73.5875 70.9725C73.7422 71.3323 73.8968 71.7093 74.0514 72.0691C74.4122 72.943 74.7902 73.8339 75.151 74.7249C76.4568 77.9462 77.711 81.2017 78.845 84.2688C79.5494 86.1879 80.2195 88.0212 80.838 89.7518C81.3363 91.1397 81.783 92.4591 82.2125 93.6585C82.5905 94.7551 82.9341 95.7831 83.2434 96.6913C83.2511 96.8391 83.2861 96.9843 83.3465 97.1196Z" fill="#2F2E41"/>
<path d="M51.2861 48.9891L40.2729 39.668L47.4375 32.4373L52.4373 40.5932L70.9587 44.2771C71.515 43.8572 72.1817 43.6078 72.8777 43.5593C73.5737 43.5108 74.2687 43.6654 74.8781 44.0041C75.4875 44.3429 75.9849 44.8512 76.3095 45.467C76.6342 46.0828 76.7721 46.7795 76.7065 47.4722C76.6409 48.1649 76.3746 48.8236 75.94 49.3679C75.5055 49.9122 74.9215 50.3186 74.2593 50.5375C73.597 50.7565 72.8853 50.7785 72.2107 50.6009C71.5362 50.4233 70.928 50.0538 70.4604 49.5374L51.2861 48.9891Z" fill="#A0616A"/>
<path d="M30.5657 27.4169C29.2943 31.5463 41.4071 41.3814 41.4071 41.3814C41.5445 40.3876 48.417 48.9377 48.8809 48.1667C50.2039 45.9734 51.6643 40.5247 53.2106 39.8393C54.0869 39.4452 49.0527 33.9279 49.0527 33.9279C49.0527 33.9279 46.4927 30.5353 43.108 26.2517C42.1717 25.0214 40.9391 24.0466 39.5246 23.4176C38.11 22.7886 36.5591 22.5258 35.0156 22.6535C34.9985 22.6535 31.8371 23.3046 30.5657 27.4169Z" fill="#3F3D56"/>
<path d="M35.9087 18.2842C40.0174 18.2842 43.3482 14.9625 43.3482 10.865C43.3482 6.76749 40.0174 3.4458 35.9087 3.4458C31.8 3.4458 28.4692 6.76749 28.4692 10.865C28.4692 14.9625 31.8 18.2842 35.9087 18.2842Z" fill="#A0616A"/>
<path d="M39.6372 23.2018C41.235 24.1442 42.1972 25.8919 42.747 27.6739C43.7633 30.9633 44.3748 34.3637 44.5682 37.8003L45.1524 48.0981L52.3513 70.013C46.1145 75.2733 22.6449 71.2124 22.6449 71.2124C22.6449 71.2124 21.9233 70.9725 22.6449 70.2529C23.3665 69.5333 24.0709 70.1672 23.3493 69.4476C22.6277 68.7279 23.126 69.5333 23.3665 68.8136C23.607 68.094 23.3665 68.5737 23.126 68.3338C22.8854 68.094 24.9815 65.935 24.9815 65.935L23.0572 53.3584L20.6519 27.9823C23.5383 24.3841 29.3284 22.2765 29.3284 22.2765L30.8232 19.5864L38.3142 20.1861L39.6372 23.2018Z" fill="#3F3D56"/>
<path d="M42.0427 6.92393C42.625 7.34789 43.0532 7.94932 43.2625 8.63738C43.3456 7.51393 43.3513 6.38612 43.2797 5.26189C43.1938 4.47371 42.644 4.30237 41.9911 4.09675C41.4069 3.90827 40.7541 3.70266 40.5822 2.93161C38.2456 0.669867 34.1736 0.772674 31.3731 1.56086C29.8439 1.98922 28.9505 2.55465 28.8818 2.88021L28.8646 2.94875L28.7959 2.98302C27.6104 3.56559 27.387 5.43324 27.4042 6.88966C27.4386 9.63117 28.3835 12.7496 28.9162 13.0067C28.9505 13.0238 28.9505 13.0067 28.9677 13.0067C29.7752 12.3555 30.7546 13.0581 31.1841 13.435C31.4378 11.7289 32.2579 10.1569 33.5131 8.9703C34.7683 7.78373 36.3862 7.05115 38.1081 6.88966C38.6689 6.83311 39.2255 6.74155 39.7747 6.61551C40.0568 6.54923 40.3443 6.50908 40.6338 6.49557C41.1357 6.49539 41.6262 6.64453 42.0427 6.92393Z" fill="#2F2E41"/>
<path d="M32.6618 60.1779L30.3767 59.0128C30.2439 58.9144 30.1538 58.769 30.1251 58.6065C30.0963 58.444 30.131 58.2767 30.222 58.1389C30.3 58.0313 30.4105 57.9516 30.5374 57.9115C30.6642 57.8714 30.8006 57.873 30.9265 57.9162L33.2116 59.0813C33.3444 59.1797 33.4344 59.3251 33.4632 59.4876C33.4919 59.6501 33.4572 59.8174 33.3662 59.9552C33.2892 60.0638 33.1787 60.1444 33.0515 60.1846C32.9244 60.2248 32.7875 60.2225 32.6618 60.1779Z" fill="#E58411"/>
<path d="M24.9989 57.0594L21.2534 43.1463L31.2701 41.2615L30.7375 50.8054L43.8812 64.3073C44.5763 64.2806 45.2642 64.4562 45.861 64.8126C46.4579 65.169 46.9379 65.6909 47.2425 66.3146C47.5472 66.9383 47.6633 67.6369 47.5768 68.3253C47.4903 69.0136 47.2049 69.6621 46.7553 70.1915C46.3058 70.7209 45.7115 71.1085 45.0449 71.307C44.3783 71.5055 43.6683 71.5064 43.0012 71.3095C42.3342 71.1126 41.7389 70.7265 41.2881 70.1981C40.8373 69.6698 40.5503 69.022 40.4621 68.3339L24.9989 57.0594Z" fill="#A0616A"/>
<path d="M20.2397 27.571C16.8378 30.244 21.2019 45.2024 21.2019 45.2024C21.8719 44.4656 22.6623 55.3802 23.487 55.0204C25.8408 53.958 30.1361 50.3255 31.7855 50.6168C32.7305 50.7882 31.734 43.3861 31.734 43.3861C31.734 43.3861 31.545 39.1539 31.2014 33.7052C31.1345 32.163 30.6772 30.6628 29.8721 29.3445C29.0669 28.0262 27.9401 26.9327 26.5968 26.166C26.5968 26.1489 23.6416 24.8981 20.2397 27.571Z" fill="#3F3D56"/>
<path d="M138 65.8666L2.02739 65.7124C1.26639 64.0977 0.589686 62.4449 0 60.7605L134.787 60.8976C136.077 62.4021 137.158 64.0736 138 65.8666Z" fill="#3F3D56"/>
<path d="M94.6859 101.814C93.9815 102.157 93.2771 102.483 92.5555 102.791C91.3699 102.123 90.1844 101.42 89.0161 100.701L93.3458 98.7988L94.6859 101.814Z" fill="#FFB6B6"/>
<path d="M126.283 78.2032C125.578 79.1456 124.857 80.0709 124.101 80.979C123.413 81.8186 122.709 82.6239 121.97 83.4292C121.661 83.7548 121.369 84.0975 121.06 84.423C120.493 85.0399 119.908 85.6396 119.307 86.2221C118.225 86.5648 116.06 87.1474 113.723 87.7128C112.022 88.1069 110.235 88.501 108.741 88.7409C107.901 88.8923 107.051 88.984 106.198 89.015C105.184 89.015 104.153 88.9979 103.122 88.9465C101.954 88.878 100.786 88.7923 99.6345 88.6723C96.6449 88.3639 93.7413 87.867 91.2328 87.3701C90.3222 87.1817 89.446 87.0103 88.6556 86.8218C87.1437 86.4791 85.8894 86.1707 84.9788 85.9308C83.9479 85.6567 83.3638 85.4853 83.3638 85.4853L80.7866 89.769L79.4465 91.9964L78.4671 93.6242L78.2094 94.0526C78.097 93.9962 77.988 93.9333 77.883 93.8641C76.1486 92.9036 74.365 92.0342 72.5396 91.2597C71.3369 90.7628 70.1342 90.3001 68.8971 89.9232C68.4332 89.769 67.9522 89.6319 67.4883 89.5119C67.6429 89.1178 67.7804 88.7238 67.935 88.3125C68.2099 87.5586 68.502 86.8047 68.7941 86.0508C69.4298 84.4059 70.0827 82.7267 70.7527 81.0475C71.3025 79.6768 71.8695 78.306 72.4365 76.9695C72.6942 76.3527 73.2268 75.8044 73.9828 75.3246C74.34 75.0979 74.7132 74.8975 75.0996 74.7249C77.2301 73.7483 80.3914 73.1143 83.862 72.7202L84.7211 72.6174C87.5904 72.309 90.6486 72.1548 93.5007 72.0862C94.9268 72.0519 96.3013 72.0348 97.5899 72.0348H98.7926C99.8578 72.0348 100.82 72.052 101.679 72.0691C101.84 72.0659 102 72.0716 102.16 72.0862H102.469C104.342 72.1376 105.493 72.189 105.493 72.189L105.94 68.7107L106.026 68.0082L106.112 67.34L106.129 67.2543H106.198L107.435 67.2372L117.829 67.0316L123.516 66.9116L122.623 70.7669L121.128 77.1237C121.3 78.1518 126.334 77.3636 126.283 78.2032Z" fill="#2F2E41"/>
<path d="M95.9745 101.181C95.5449 101.403 95.1154 101.609 94.6859 101.815C93.9814 102.157 93.277 102.483 92.5554 102.791C91.3699 102.123 90.1844 101.42 89.0161 100.701C87.1089 99.5185 85.219 98.302 83.329 97.1197C83.037 96.9484 82.7621 96.7599 82.4872 96.5885C81.714 95.4405 80.9065 94.224 80.1162 92.9903C80.099 92.9732 80.099 92.956 80.0818 92.9389C79.8756 92.6305 79.6694 92.3049 79.4633 91.9794C78.1747 89.9747 76.8861 87.8842 75.6318 85.7424L78.8104 84.2689L84.7035 81.5274L85.7172 81.0476L88.6381 86.7876L91.2496 91.9108L91.8338 93.0588L95.9745 101.181Z" fill="#2F2E41"/>
<path d="M96.8679 73.6111L111.902 59.1496L116.077 47.3783L109.926 44.7053C106.764 47.721 103.362 57.1106 103.362 57.1106L93.0193 70.2356C92.9334 70.2699 92.8646 70.287 92.7787 70.3213C92.4143 70.4716 92.0837 70.693 91.8063 70.9726C91.5289 71.2521 91.3103 71.5842 91.1635 71.9492C91.0166 72.3142 90.9444 72.7048 90.9511 73.0981C90.9578 73.4913 91.0433 73.8793 91.2025 74.2391C91.3617 74.5989 91.5915 74.9234 91.8782 75.1934C92.165 75.4634 92.503 75.6735 92.8723 75.8113C93.2417 75.9492 93.635 76.012 94.029 75.9961C94.4231 75.9801 94.81 75.8858 95.1669 75.7186C95.6048 75.5375 95.99 75.2496 96.2872 74.8814C96.5844 74.5131 96.784 74.0764 96.8679 73.6111Z" fill="#FFB8B8"/>
<path d="M108.19 46.0419L115.991 48.5093H116.025C118.929 48.0295 121.334 43.3004 122.846 39.4109C123.345 38.1318 123.336 36.7114 122.823 35.4383C122.309 34.1652 121.328 33.135 120.08 32.5571C119.156 32.1359 118.133 31.9801 117.125 32.1073C116.117 32.2344 115.165 32.6394 114.376 33.2768L110.372 36.5323L108.19 46.0419Z" fill="#E58411"/>
<path d="M126.248 78.3745L126.3 78.3059C128.739 75.0847 125.406 67.1172 124.908 65.9692L127.176 65.3009L126.781 61.0002L126.592 59.0811L128.344 57.4191V57.3848L129.547 48.8005L131.128 43.1118C131.726 40.9648 131.738 38.6975 131.164 36.5439C130.591 34.3904 129.451 32.4285 127.863 30.8607L124.633 27.6566L120.75 21.6081L114.256 21.4368L111.936 25.6004C109.76 26.0385 107.809 27.2264 106.423 28.9558C105.038 30.6852 104.307 32.8457 104.359 35.0586L104.583 46.0761L102.246 59.7322L102.177 62.2167L99.8921 64.6327L100.322 67.0658L98.6035 67.7511L97.7616 71.2123C97.4352 71.6064 95.3219 74.2794 95.3047 75.0161C95.3047 75.1361 95.3734 75.2389 95.5624 75.3588C96.9369 76.3355 104.565 78.443 108.019 77.1751C111.678 75.8214 126.042 78.3573 126.179 78.3916L126.248 78.3745Z" fill="#FF5757"/>
<path d="M116.953 19.6035C121.707 19.6035 125.561 15.7602 125.561 11.0192C125.561 6.27816 121.707 2.43481 116.953 2.43481C112.199 2.43481 108.345 6.27816 108.345 11.0192C108.345 15.7602 112.199 19.6035 116.953 19.6035Z" fill="#FFB8B8"/>
<path d="M115.905 19.7234C117.239 19.7436 118.572 19.6519 119.891 19.4492C121.197 19.1922 124.117 17.0504 124.925 15.7653C125.526 14.8058 125.921 13.3151 126.128 12.2356C126.424 10.8022 126.414 9.32238 126.097 7.89322C125.78 6.46406 125.164 5.11778 124.289 3.94257C123.962 3.44384 123.496 3.05089 122.949 2.8117L122.794 2.7603C122.007 2.55928 121.299 2.12283 120.767 1.50948C120.661 1.38685 120.546 1.27229 120.423 1.16679C119.821 0.652294 119.101 0.293357 118.327 0.121595C117.073 -0.20396 115.269 0.121595 112.967 1.09826C111.798 1.59516 110.544 1.40668 109.565 1.20106C109.509 1.19293 109.452 1.19799 109.398 1.21584C109.344 1.2337 109.296 1.26384 109.256 1.30387C108.84 1.69119 108.295 1.91099 107.726 1.92071C107.383 1.93784 107.005 2.41761 106.575 3.05158C106.472 3.18866 106.352 3.36 106.266 3.46281L106.249 3.27433L106.06 3.49708C105.575 4.03473 105.323 4.74147 105.359 5.46349C105.394 6.18551 105.714 6.86437 106.249 7.35232C106.55 7.6263 106.908 7.83102 107.297 7.95203C107.651 8.04509 108.014 8.10249 108.379 8.12337C108.605 8.13502 108.829 8.16366 109.049 8.20904C109.75 8.35033 110.403 8.67104 110.942 9.13967C111.481 9.6083 111.889 10.2087 112.125 10.882C112.172 11.0152 112.244 11.1378 112.339 11.2428C112.434 11.3478 112.548 11.433 112.676 11.4936C112.804 11.5541 112.942 11.5888 113.084 11.5956C113.225 11.6024 113.366 11.5811 113.499 11.5331C113.584 11.5036 113.665 11.4633 113.74 11.4132C113.968 11.2371 114.236 11.1187 114.52 11.0679C114.804 11.0172 115.097 11.0357 115.372 11.1219C115.612 11.2514 115.796 11.465 115.888 11.7216C116.013 12.0008 116.216 12.2386 116.472 12.407C117.348 12.8696 117.417 14.8743 117.107 16.5535C116.798 18.1813 116.197 19.3464 115.63 19.3978C115.2 19.4492 115.149 19.4664 115.114 19.552L115.08 19.6206L115.132 19.6891C115.388 19.7176 115.647 19.7291 115.905 19.7234Z" fill="#2F2E41"/>
<path d="M110.321 43.4547L107.005 36.8579C102.194 37.1835 92.6241 42.735 92.6241 42.735L74.5323 46.556C73.9976 46.3501 73.4179 46.2882 72.8516 46.3765C72.2853 46.4649 71.7523 46.7004 71.3062 47.0594C70.8602 47.4184 70.5167 47.8881 70.3105 48.4215C70.1042 48.9548 70.0424 49.5329 70.1313 50.0976C70.2201 50.6624 70.4565 51.1938 70.8167 51.6385C71.1768 52.0832 71.648 52.4255 72.1829 52.6309C72.7178 52.8364 73.2975 52.8978 73.8637 52.8089C74.43 52.72 74.9628 52.4841 75.4085 52.1247L98.4142 50.4798L110.321 43.4547Z" fill="#FFB8B8"/>
<path d="M108.981 44.534L117.657 38.1086L119.186 32.6256C119.48 31.5472 119.467 30.4086 119.148 29.3373C118.83 28.266 118.218 27.3043 117.382 26.56C116.24 25.5624 114.76 25.0341 113.242 25.0818C111.725 25.1295 110.281 25.7496 109.204 26.817C105.94 30.0725 102.228 34.596 103.019 37.7316V37.7659L108.981 44.534Z" fill="#FF5757"/>
<path d="M98.2597 61.72H75.0649V64.8042H98.2597V61.72Z" fill="white"/>
<path d="M38.9843 61.72H15.7896V64.8042H38.9843V61.72Z" fill="white"/>
<path d="M41.6817 46.8815V61.5657C41.6808 61.6582 41.6984 61.75 41.7334 61.8356C41.7685 61.9213 41.8204 61.9991 41.886 62.0645C41.9516 62.1299 42.0296 62.1816 42.1154 62.2166C42.2013 62.2516 42.2933 62.2691 42.3861 62.2682H64.2063C64.2991 62.2691 64.3911 62.2516 64.477 62.2166C64.5629 62.1816 64.6409 62.1299 64.7065 62.0645C64.7721 61.9991 64.8239 61.9213 64.859 61.8356C64.8941 61.75 64.9117 61.6582 64.9108 61.5657V46.8815C64.9117 46.789 64.8941 46.6972 64.859 46.6116C64.8239 46.5259 64.7721 46.4481 64.7065 46.3827C64.6409 46.3173 64.5629 46.2656 64.477 46.2306C64.3911 46.1956 64.2991 46.1781 64.2063 46.179H42.3861C42.1996 46.1799 42.0209 46.2542 41.889 46.3857C41.7571 46.5173 41.6826 46.6955 41.6817 46.8815Z" fill="#3F3D56"/>
<path d="M42.1973 47.0701V61.3945C42.1982 61.4942 42.2383 61.5895 42.309 61.66C42.3797 61.7305 42.4753 61.7705 42.5753 61.7714H64.0346C64.1346 61.7705 64.2302 61.7305 64.3009 61.66C64.3716 61.5895 64.4117 61.4942 64.4126 61.3945V47.0701C64.4117 46.9704 64.3716 46.875 64.3009 46.8045C64.2302 46.734 64.1346 46.694 64.0346 46.6931H42.5753C42.4753 46.694 42.3797 46.734 42.309 46.8045C42.2383 46.875 42.1982 46.9704 42.1973 47.0701Z" fill="#FF5757"/>
<path d="M41.2351 64.4272C41.2747 64.4753 41.3245 64.5141 41.381 64.5408C41.4374 64.5675 41.4991 64.5813 41.5616 64.5814H64.9281C64.9846 64.5818 65.0407 64.5711 65.093 64.5497C65.1453 64.5283 65.1929 64.4968 65.2328 64.4569C65.2728 64.4171 65.3044 64.3697 65.3259 64.3175C65.3473 64.2653 65.3581 64.2094 65.3576 64.153C65.3603 64.1234 65.3543 64.0937 65.3405 64.0674L64.9796 62.3539C64.9619 62.2843 64.9277 62.22 64.8798 62.1663C64.832 62.1127 64.772 62.0712 64.7047 62.0455C64.6553 62.026 64.6031 62.0144 64.5501 62.0112H41.9224C41.8693 62.0144 41.8171 62.026 41.7677 62.0455C41.7005 62.0712 41.6405 62.1127 41.5926 62.1663C41.5448 62.22 41.5106 62.2843 41.4928 62.3539L41.132 64.0674C41.1224 64.1312 41.1266 64.1964 41.1443 64.2584C41.1621 64.3205 41.1931 64.3781 41.2351 64.4272Z" fill="#2F2E41"/>
<path d="M64.3097 62.7479H63.7599C63.7484 62.7486 63.7369 62.7469 63.7262 62.7429C63.7154 62.7389 63.7056 62.7326 63.6975 62.7245C63.6893 62.7164 63.683 62.7066 63.679 62.6959C63.6749 62.6851 63.6732 62.6737 63.674 62.6622V62.4052C63.6732 62.3937 63.6749 62.3823 63.679 62.3715C63.683 62.3608 63.6893 62.351 63.6975 62.3429C63.7056 62.3348 63.7154 62.3285 63.7262 62.3245C63.7369 62.3205 63.7484 62.3188 63.7599 62.3195H64.3097C64.3212 62.3188 64.3327 62.3205 64.3435 62.3245C64.3542 62.3285 64.364 62.3348 64.3722 62.3429C64.3803 62.351 64.3866 62.3608 64.3906 62.3715C64.3947 62.3823 64.3964 62.3937 64.3956 62.4052V62.6622C64.3964 62.6737 64.3947 62.6851 64.3906 62.6959C64.3866 62.7066 64.3803 62.7164 64.3722 62.7245C64.364 62.7326 64.3542 62.7389 64.3435 62.7429C64.3327 62.7469 64.3212 62.7486 64.3097 62.7479Z" fill="#3F3D56"/>
<path d="M62.8834 62.7479H62.3336C62.3222 62.7486 62.3107 62.7469 62.2999 62.7429C62.2891 62.7389 62.2793 62.7326 62.2712 62.7245C62.2631 62.7164 62.2568 62.7066 62.2527 62.6959C62.2487 62.6851 62.247 62.6737 62.2477 62.6622V62.4052C62.247 62.3937 62.2487 62.3823 62.2527 62.3715C62.2568 62.3608 62.2631 62.351 62.2712 62.3429C62.2793 62.3348 62.2891 62.3285 62.2999 62.3245C62.3107 62.3205 62.3222 62.3188 62.3336 62.3195H62.8834C62.8949 62.3188 62.9064 62.3205 62.9172 62.3245C62.928 62.3285 62.9377 62.3348 62.9459 62.3429C62.954 62.351 62.9603 62.3608 62.9644 62.3715C62.9684 62.3823 62.9701 62.3937 62.9694 62.4052V62.6622C62.9678 62.6844 62.9582 62.7053 62.9424 62.721C62.9266 62.7368 62.9057 62.7463 62.8834 62.7479Z" fill="#3F3D56"/>
<path d="M61.4401 62.7479H60.8903C60.8788 62.7486 60.8673 62.7469 60.8565 62.7429C60.8458 62.7389 60.836 62.7326 60.8279 62.7245C60.8197 62.7164 60.8134 62.7066 60.8094 62.6959C60.8053 62.6851 60.8036 62.6737 60.8044 62.6622V62.4052C60.8036 62.3937 60.8053 62.3823 60.8094 62.3715C60.8134 62.3608 60.8197 62.351 60.8279 62.3429C60.836 62.3348 60.8458 62.3285 60.8565 62.3245C60.8673 62.3205 60.8788 62.3188 60.8903 62.3195H61.4401C61.4516 62.3188 61.4631 62.3205 61.4738 62.3245C61.4846 62.3285 61.4944 62.3348 61.5025 62.3429C61.5106 62.351 61.5169 62.3608 61.521 62.3715C61.525 62.3823 61.5267 62.3937 61.526 62.4052V62.6622C61.5267 62.6737 61.525 62.6851 61.521 62.6959C61.5169 62.7066 61.5106 62.7164 61.5025 62.7245C61.4944 62.7326 61.4846 62.7389 61.4738 62.7429C61.4631 62.7469 61.4516 62.7486 61.4401 62.7479Z" fill="#3F3D56"/>
<path d="M59.9972 62.7479H59.4474C59.4359 62.7486 59.4244 62.7469 59.4137 62.7429C59.4029 62.7389 59.3931 62.7326 59.385 62.7245C59.3769 62.7164 59.3705 62.7066 59.3665 62.6959C59.3624 62.6851 59.3607 62.6737 59.3615 62.6622V62.4052C59.3607 62.3937 59.3624 62.3823 59.3665 62.3715C59.3705 62.3608 59.3769 62.351 59.385 62.3429C59.3931 62.3348 59.4029 62.3285 59.4137 62.3245C59.4244 62.3205 59.4359 62.3188 59.4474 62.3195H59.9972C60.0087 62.3188 60.0202 62.3205 60.031 62.3245C60.0417 62.3285 60.0515 62.3348 60.0597 62.3429C60.0678 62.351 60.0741 62.3608 60.0781 62.3715C60.0822 62.3823 60.0839 62.3937 60.0831 62.4052V62.6622C60.0839 62.6737 60.0822 62.6851 60.0781 62.6959C60.0741 62.7066 60.0678 62.7164 60.0597 62.7245C60.0515 62.7326 60.0417 62.7389 60.031 62.7429C60.0202 62.7469 60.0087 62.7486 59.9972 62.7479Z" fill="#3F3D56"/>
<path d="M58.5539 62.7479H58.0041C57.9926 62.7486 57.9811 62.7469 57.9703 62.7429C57.9595 62.7389 57.9498 62.7326 57.9416 62.7245C57.9335 62.7164 57.9272 62.7066 57.9231 62.6959C57.9191 62.6851 57.9174 62.6737 57.9181 62.6622V62.4052C57.9174 62.3937 57.9191 62.3823 57.9231 62.3715C57.9272 62.3608 57.9335 62.351 57.9416 62.3429C57.9498 62.3348 57.9595 62.3285 57.9703 62.3245C57.9811 62.3205 57.9926 62.3188 58.0041 62.3195H58.5539C58.5653 62.3188 58.5768 62.3205 58.5876 62.3245C58.5984 62.3285 58.6082 62.3348 58.6163 62.3429C58.6244 62.351 58.6307 62.3608 58.6348 62.3715C58.6388 62.3823 58.6405 62.3937 58.6398 62.4052V62.6622C58.6405 62.6737 58.6388 62.6851 58.6348 62.6959C58.6307 62.7066 58.6244 62.7164 58.6163 62.7245C58.6082 62.7326 58.5984 62.7389 58.5876 62.7429C58.5768 62.7469 58.5653 62.7486 58.5539 62.7479Z" fill="#3F3D56"/>
<path d="M57.1277 62.7479H56.5607C56.5492 62.7486 56.5377 62.7469 56.5269 62.7429C56.5162 62.7389 56.5064 62.7326 56.4983 62.7245C56.4901 62.7164 56.4838 62.7066 56.4798 62.6959C56.4757 62.6851 56.474 62.6737 56.4748 62.6622V62.4052C56.474 62.3937 56.4757 62.3823 56.4798 62.3715C56.4838 62.3608 56.4901 62.351 56.4983 62.3429C56.5064 62.3348 56.5162 62.3285 56.5269 62.3245C56.5377 62.3205 56.5492 62.3188 56.5607 62.3195H57.1105C57.122 62.3188 57.1335 62.3205 57.1443 62.3245C57.155 62.3285 57.1648 62.3348 57.1729 62.3429C57.1811 62.351 57.1874 62.3608 57.1914 62.3715C57.1955 62.3823 57.1972 62.3937 57.1964 62.4052V62.6622C57.1984 62.6826 57.1923 62.7029 57.1795 62.7189C57.1666 62.7349 57.1481 62.7453 57.1277 62.7479Z" fill="#3F3D56"/>
<path d="M55.6847 62.7479H55.1349C55.1234 62.7486 55.1119 62.7469 55.1012 62.7429C55.0904 62.7389 55.0806 62.7326 55.0725 62.7245C55.0643 62.7164 55.058 62.7066 55.054 62.6959C55.0499 62.6851 55.0482 62.6737 55.049 62.6622V62.4052C55.0482 62.3937 55.0499 62.3823 55.054 62.3715C55.058 62.3608 55.0643 62.351 55.0725 62.3429C55.0806 62.3348 55.0904 62.3285 55.1012 62.3245C55.1119 62.3205 55.1234 62.3188 55.1349 62.3195H55.6847C55.6962 62.3188 55.7077 62.3205 55.7185 62.3245C55.7292 62.3285 55.739 62.3348 55.7472 62.3429C55.7553 62.351 55.7616 62.3608 55.7656 62.3715C55.7697 62.3823 55.7714 62.3937 55.7706 62.4052V62.6622C55.7714 62.6737 55.7697 62.6851 55.7656 62.6959C55.7616 62.7066 55.7553 62.7164 55.7472 62.7245C55.739 62.7326 55.7292 62.7389 55.7185 62.7429C55.7077 62.7469 55.6962 62.7486 55.6847 62.7479Z" fill="#3F3D56"/>
<path d="M54.2414 62.7479H53.6916C53.6801 62.7486 53.6686 62.7469 53.6578 62.7429C53.647 62.7389 53.6373 62.7326 53.6291 62.7245C53.621 62.7164 53.6147 62.7066 53.6106 62.6959C53.6066 62.6851 53.6049 62.6737 53.6056 62.6622V62.4052C53.6049 62.3937 53.6066 62.3823 53.6106 62.3715C53.6147 62.3608 53.621 62.351 53.6291 62.3429C53.6373 62.3348 53.647 62.3285 53.6578 62.3245C53.6686 62.3205 53.6801 62.3188 53.6916 62.3195H54.2414C54.2528 62.3188 54.2643 62.3205 54.2751 62.3245C54.2859 62.3285 54.2957 62.3348 54.3038 62.3429C54.3119 62.351 54.3182 62.3608 54.3223 62.3715C54.3263 62.3823 54.328 62.3937 54.3273 62.4052V62.6622C54.328 62.6737 54.3263 62.6851 54.3223 62.6959C54.3182 62.7066 54.3119 62.7164 54.3038 62.7245C54.2957 62.7326 54.2859 62.7389 54.2751 62.7429C54.2643 62.7469 54.2528 62.7486 54.2414 62.7479Z" fill="#3F3D56"/>
<path d="M52.798 62.7479H52.2482C52.2367 62.7486 52.2252 62.7469 52.2144 62.7429C52.2037 62.7389 52.1939 62.7326 52.1858 62.7245C52.1776 62.7164 52.1713 62.7066 52.1673 62.6959C52.1632 62.6851 52.1615 62.6737 52.1623 62.6622V62.4052C52.1615 62.3937 52.1632 62.3823 52.1673 62.3715C52.1713 62.3608 52.1776 62.351 52.1858 62.3429C52.1939 62.3348 52.2037 62.3285 52.2144 62.3245C52.2252 62.3205 52.2367 62.3188 52.2482 62.3195H52.798C52.8095 62.3188 52.821 62.3205 52.8317 62.3245C52.8425 62.3285 52.8523 62.3348 52.8604 62.3429C52.8686 62.351 52.8749 62.3608 52.8789 62.3715C52.883 62.3823 52.8847 62.3937 52.8839 62.4052V62.6622C52.8847 62.6737 52.883 62.6851 52.8789 62.6959C52.8749 62.7066 52.8686 62.7164 52.8604 62.7245C52.8523 62.7326 52.8425 62.7389 52.8317 62.7429C52.821 62.7469 52.8095 62.7486 52.798 62.7479Z" fill="#3F3D56"/>
<path d="M51.3722 62.7479H50.8224C50.8109 62.7486 50.7994 62.7469 50.7887 62.7429C50.7779 62.7389 50.7681 62.7326 50.76 62.7245C50.7518 62.7164 50.7455 62.7066 50.7415 62.6959C50.7374 62.6851 50.7357 62.6737 50.7365 62.6622V62.4052C50.7357 62.3937 50.7374 62.3823 50.7415 62.3715C50.7455 62.3608 50.7518 62.351 50.76 62.3429C50.7681 62.3348 50.7779 62.3285 50.7887 62.3245C50.7994 62.3205 50.8109 62.3188 50.8224 62.3195H51.3722C51.3837 62.3188 51.3952 62.3205 51.406 62.3245C51.4167 62.3285 51.4265 62.3348 51.4347 62.3429C51.4428 62.351 51.4491 62.3608 51.4531 62.3715C51.4572 62.3823 51.4589 62.3937 51.4581 62.4052V62.6622C51.4409 62.7136 51.4066 62.7479 51.3722 62.7479Z" fill="#3F3D56"/>
<path d="M49.9289 62.7479H49.3791C49.3676 62.7486 49.3561 62.7469 49.3453 62.7429C49.3345 62.7389 49.3248 62.7326 49.3166 62.7245C49.3085 62.7164 49.3022 62.7066 49.2981 62.6959C49.2941 62.6851 49.2924 62.6737 49.2931 62.6622V62.4052C49.2924 62.3937 49.2941 62.3823 49.2981 62.3715C49.3022 62.3608 49.3085 62.351 49.3166 62.3429C49.3248 62.3348 49.3345 62.3285 49.3453 62.3245C49.3561 62.3205 49.3676 62.3188 49.3791 62.3195H49.9289C49.9403 62.3188 49.9518 62.3205 49.9626 62.3245C49.9734 62.3285 49.9832 62.3348 49.9913 62.3429C49.9994 62.351 50.0057 62.3608 50.0098 62.3715C50.0138 62.3823 50.0155 62.3937 50.0148 62.4052V62.6622C50.0132 62.6844 50.0036 62.7053 49.9878 62.721C49.972 62.7368 49.9511 62.7463 49.9289 62.7479Z" fill="#3F3D56"/>
<path d="M48.4855 62.7479H47.9357C47.9242 62.7486 47.9127 62.7469 47.9019 62.7429C47.8912 62.7389 47.8814 62.7326 47.8733 62.7245C47.8651 62.7164 47.8588 62.7066 47.8548 62.6959C47.8507 62.6851 47.849 62.6737 47.8498 62.6622V62.4052C47.849 62.3937 47.8507 62.3823 47.8548 62.3715C47.8588 62.3608 47.8651 62.351 47.8733 62.3429C47.8814 62.3348 47.8912 62.3285 47.9019 62.3245C47.9127 62.3205 47.9242 62.3188 47.9357 62.3195H48.4855C48.497 62.3188 48.5085 62.3205 48.5192 62.3245C48.53 62.3285 48.5398 62.3348 48.5479 62.3429C48.5561 62.351 48.5624 62.3608 48.5664 62.3715C48.5705 62.3823 48.5722 62.3937 48.5714 62.4052V62.6622C48.5722 62.6737 48.5705 62.6851 48.5664 62.6959C48.5624 62.7066 48.5561 62.7164 48.5479 62.7245C48.5398 62.7326 48.53 62.7389 48.5192 62.7429C48.5085 62.7469 48.497 62.7486 48.4855 62.7479Z" fill="#3F3D56"/>
<path d="M47.0421 62.7479H46.4923C46.4809 62.7486 46.4693 62.7469 46.4586 62.7429C46.4478 62.7389 46.438 62.7326 46.4299 62.7245C46.4218 62.7164 46.4155 62.7066 46.4114 62.6959C46.4074 62.6851 46.4057 62.6737 46.4064 62.6622V62.4052C46.4057 62.3937 46.4074 62.3823 46.4114 62.3715C46.4155 62.3608 46.4218 62.351 46.4299 62.3429C46.438 62.3348 46.4478 62.3285 46.4586 62.3245C46.4693 62.3205 46.4809 62.3188 46.4923 62.3195H47.0421C47.0536 62.3188 47.0651 62.3205 47.0759 62.3245C47.0867 62.3285 47.0964 62.3348 47.1046 62.3429C47.1127 62.351 47.119 62.3608 47.1231 62.3715C47.1271 62.3823 47.1288 62.3937 47.1281 62.4052V62.6622C47.1288 62.6737 47.1271 62.6851 47.1231 62.6959C47.119 62.7066 47.1127 62.7164 47.1046 62.7245C47.0964 62.7326 47.0867 62.7389 47.0759 62.7429C47.0651 62.7469 47.0536 62.7486 47.0421 62.7479Z" fill="#3F3D56"/>
<path d="M45.5993 62.7479H45.0495C45.038 62.7486 45.0265 62.7469 45.0157 62.7429C45.0049 62.7389 44.9952 62.7326 44.987 62.7245C44.9789 62.7164 44.9726 62.7066 44.9685 62.6959C44.9645 62.6851 44.9628 62.6737 44.9636 62.6622V62.4052C44.9628 62.3937 44.9645 62.3823 44.9685 62.3715C44.9726 62.3608 44.9789 62.351 44.987 62.3429C44.9952 62.3348 45.0049 62.3285 45.0157 62.3245C45.0265 62.3205 45.038 62.3188 45.0495 62.3195H45.5993C45.6107 62.3188 45.6223 62.3205 45.633 62.3245C45.6438 62.3285 45.6536 62.3348 45.6617 62.3429C45.6698 62.351 45.6761 62.3608 45.6802 62.3715C45.6842 62.3823 45.6859 62.3937 45.6852 62.4052V62.6622C45.6859 62.6737 45.6842 62.6851 45.6802 62.6959C45.6761 62.7066 45.6698 62.7164 45.6617 62.7245C45.6536 62.7326 45.6438 62.7389 45.633 62.7429C45.6223 62.7469 45.6107 62.7486 45.5993 62.7479Z" fill="#3F3D56"/>
<path d="M44.173 62.7479H43.6232C43.6117 62.7486 43.6002 62.7469 43.5894 62.7429C43.5787 62.7389 43.5689 62.7326 43.5608 62.7245C43.5526 62.7164 43.5463 62.7066 43.5423 62.6959C43.5382 62.6851 43.5365 62.6737 43.5373 62.6622V62.4052C43.5365 62.3937 43.5382 62.3823 43.5423 62.3715C43.5463 62.3608 43.5526 62.351 43.5608 62.3429C43.5689 62.3348 43.5787 62.3285 43.5894 62.3245C43.6002 62.3205 43.6117 62.3188 43.6232 62.3195H44.173C44.1845 62.3188 44.196 62.3205 44.2067 62.3245C44.2175 62.3285 44.2273 62.3348 44.2354 62.3429C44.2436 62.351 44.2499 62.3608 44.2539 62.3715C44.2579 62.3823 44.2597 62.3937 44.2589 62.4052V62.6622C44.2573 62.6844 44.2477 62.7053 44.232 62.721C44.2162 62.7368 44.1952 62.7463 44.173 62.7479Z" fill="#3F3D56"/>
<path d="M42.7296 62.7479H42.1798C42.1684 62.7486 42.1568 62.7469 42.1461 62.7429C42.1353 62.7389 42.1255 62.7326 42.1174 62.7245C42.1093 62.7164 42.103 62.7066 42.0989 62.6959C42.0949 62.6851 42.0932 62.6737 42.0939 62.6622V62.4052C42.0932 62.3937 42.0949 62.3823 42.0989 62.3715C42.103 62.3608 42.1093 62.351 42.1174 62.3429C42.1255 62.3348 42.1353 62.3285 42.1461 62.3245C42.1568 62.3205 42.1684 62.3188 42.1798 62.3195H42.7296C42.7411 62.3188 42.7526 62.3205 42.7634 62.3245C42.7742 62.3285 42.7839 62.3348 42.7921 62.3429C42.8002 62.351 42.8065 62.3608 42.8106 62.3715C42.8146 62.3823 42.8163 62.3937 42.8155 62.4052V62.6622C42.8163 62.6737 42.8146 62.6851 42.8106 62.6959C42.8065 62.7066 42.8002 62.7164 42.7921 62.7245C42.7839 62.7326 42.7742 62.7389 42.7634 62.7429C42.7526 62.7469 42.7411 62.7486 42.7296 62.7479Z" fill="#3F3D56"/>
<path d="M64.3268 63.4676H63.777C63.7655 63.4684 63.754 63.4667 63.7432 63.4626C63.7325 63.4586 63.7227 63.4523 63.7146 63.4442C63.7064 63.4361 63.7001 63.4263 63.6961 63.4156C63.692 63.4049 63.6903 63.3934 63.6911 63.3819V63.1249C63.6903 63.1135 63.692 63.102 63.6961 63.0913C63.7001 63.0805 63.7064 63.0708 63.7146 63.0626C63.7227 63.0545 63.7325 63.0483 63.7432 63.0442C63.754 63.0402 63.7655 63.0385 63.777 63.0392H64.3268C64.3383 63.0385 64.3498 63.0402 64.3605 63.0442C64.3713 63.0483 64.3811 63.0545 64.3892 63.0626C64.3974 63.0708 64.4037 63.0805 64.4077 63.0913C64.4118 63.102 64.4135 63.1135 64.4127 63.1249V63.3819C64.4135 63.3934 64.4118 63.4049 64.4077 63.4156C64.4037 63.4263 64.3974 63.4361 64.3892 63.4442C64.3811 63.4523 64.3713 63.4586 64.3605 63.4626C64.3498 63.4667 64.3383 63.4684 64.3268 63.4676Z" fill="#3F3D56"/>
<path d="M62.9005 63.4676H62.3507C62.3393 63.4684 62.3277 63.4667 62.317 63.4626C62.3062 63.4586 62.2964 63.4523 62.2883 63.4442C62.2802 63.4361 62.2739 63.4263 62.2698 63.4156C62.2658 63.4049 62.2641 63.3934 62.2648 63.3819V63.1249C62.2641 63.1135 62.2658 63.102 62.2698 63.0913C62.2739 63.0805 62.2802 63.0708 62.2883 63.0626C62.2964 63.0545 62.3062 63.0483 62.317 63.0442C62.3277 63.0402 62.3393 63.0385 62.3507 63.0392H62.9005C62.912 63.0385 62.9235 63.0402 62.9343 63.0442C62.945 63.0483 62.9548 63.0545 62.9629 63.0626C62.9711 63.0708 62.9774 63.0805 62.9814 63.0913C62.9855 63.102 62.9872 63.1135 62.9864 63.1249V63.3819C62.9848 63.4041 62.9753 63.425 62.9595 63.4407C62.9437 63.4565 62.9228 63.466 62.9005 63.4676Z" fill="#3F3D56"/>
<path d="M61.4572 63.4676H60.9074C60.8959 63.4684 60.8844 63.4667 60.8736 63.4626C60.8629 63.4586 60.8531 63.4523 60.8449 63.4442C60.8368 63.4361 60.8305 63.4263 60.8265 63.4156C60.8224 63.4049 60.8207 63.3934 60.8215 63.3819V63.1249C60.8207 63.1135 60.8224 63.102 60.8265 63.0913C60.8305 63.0805 60.8368 63.0708 60.8449 63.0626C60.8531 63.0545 60.8629 63.0483 60.8736 63.0442C60.8844 63.0402 60.8959 63.0385 60.9074 63.0392H61.4572C61.4687 63.0385 61.4802 63.0402 61.4909 63.0442C61.5017 63.0483 61.5115 63.0545 61.5196 63.0626C61.5277 63.0708 61.534 63.0805 61.5381 63.0913C61.5421 63.102 61.5438 63.1135 61.5431 63.1249V63.3819C61.5438 63.3934 61.5421 63.4049 61.5381 63.4156C61.534 63.4263 61.5277 63.4361 61.5196 63.4442C61.5115 63.4523 61.5017 63.4586 61.4909 63.4626C61.4802 63.4667 61.4687 63.4684 61.4572 63.4676Z" fill="#3F3D56"/>
<path d="M60.0143 63.4676H59.4645C59.453 63.4684 59.4415 63.4667 59.4307 63.4626C59.42 63.4586 59.4102 63.4523 59.4021 63.4442C59.3939 63.4361 59.3876 63.4263 59.3836 63.4156C59.3795 63.4049 59.3778 63.3934 59.3786 63.3819V63.1249C59.3778 63.1135 59.3795 63.102 59.3836 63.0913C59.3876 63.0805 59.3939 63.0708 59.4021 63.0626C59.4102 63.0545 59.42 63.0483 59.4307 63.0442C59.4415 63.0402 59.453 63.0385 59.4645 63.0392H60.0143C60.0258 63.0385 60.0373 63.0402 60.0481 63.0442C60.0588 63.0483 60.0686 63.0545 60.0767 63.0626C60.0849 63.0708 60.0912 63.0805 60.0952 63.0913C60.0993 63.102 60.101 63.1135 60.1002 63.1249V63.3819C60.101 63.3934 60.0993 63.4049 60.0952 63.4156C60.0912 63.4263 60.0849 63.4361 60.0767 63.4442C60.0686 63.4523 60.0588 63.4586 60.0481 63.4626C60.0373 63.4667 60.0258 63.4684 60.0143 63.4676Z" fill="#3F3D56"/>
<path d="M58.5709 63.4676H58.0211C58.0097 63.4684 57.9982 63.4667 57.9874 63.4626C57.9766 63.4586 57.9668 63.4523 57.9587 63.4442C57.9506 63.4361 57.9443 63.4263 57.9402 63.4156C57.9362 63.4049 57.9345 63.3934 57.9352 63.3819V63.1249C57.9345 63.1135 57.9362 63.102 57.9402 63.0913C57.9443 63.0805 57.9506 63.0708 57.9587 63.0626C57.9668 63.0545 57.9766 63.0483 57.9874 63.0442C57.9982 63.0402 58.0097 63.0385 58.0211 63.0392H58.5709C58.5824 63.0385 58.5939 63.0402 58.6047 63.0442C58.6155 63.0483 58.6252 63.0545 58.6334 63.0626C58.6415 63.0708 58.6478 63.0805 58.6519 63.0913C58.6559 63.102 58.6576 63.1135 58.6569 63.1249V63.3819C58.6576 63.3934 58.6559 63.4049 58.6519 63.4156C58.6478 63.4263 58.6415 63.4361 58.6334 63.4442C58.6252 63.4523 58.6155 63.4586 58.6047 63.4626C58.5939 63.4667 58.5824 63.4684 58.5709 63.4676Z" fill="#3F3D56"/>
<path d="M57.1452 63.4676H56.5954C56.5839 63.4684 56.5724 63.4667 56.5616 63.4626C56.5508 63.4586 56.5411 63.4523 56.5329 63.4442C56.5248 63.4361 56.5185 63.4263 56.5144 63.4156C56.5104 63.4049 56.5087 63.3934 56.5095 63.3819V63.1249C56.5087 63.1135 56.5104 63.102 56.5144 63.0913C56.5185 63.0805 56.5248 63.0708 56.5329 63.0626C56.5411 63.0545 56.5508 63.0483 56.5616 63.0442C56.5724 63.0402 56.5839 63.0385 56.5954 63.0392H57.1452C57.1566 63.0385 57.1681 63.0402 57.1789 63.0442C57.1897 63.0483 57.1995 63.0545 57.2076 63.0626C57.2157 63.0708 57.222 63.0805 57.2261 63.0913C57.2301 63.102 57.2318 63.1135 57.2311 63.1249V63.3819C57.2139 63.4333 57.1795 63.4676 57.1452 63.4676Z" fill="#3F3D56"/>
<path d="M55.7018 63.4676H55.152C55.1405 63.4684 55.129 63.4667 55.1182 63.4626C55.1075 63.4586 55.0977 63.4523 55.0896 63.4442C55.0814 63.4361 55.0751 63.4263 55.0711 63.4156C55.067 63.4049 55.0653 63.3934 55.0661 63.3819V63.1249C55.0653 63.1135 55.067 63.102 55.0711 63.0913C55.0751 63.0805 55.0814 63.0708 55.0896 63.0626C55.0977 63.0545 55.1075 63.0483 55.1182 63.0442C55.129 63.0402 55.1405 63.0385 55.152 63.0392H55.7018C55.7133 63.0385 55.7248 63.0402 55.7356 63.0442C55.7463 63.0483 55.7561 63.0545 55.7642 63.0626C55.7724 63.0708 55.7787 63.0805 55.7827 63.0913C55.7868 63.102 55.7885 63.1135 55.7877 63.1249V63.3819C55.7861 63.4041 55.7766 63.425 55.7608 63.4407C55.745 63.4565 55.7241 63.466 55.7018 63.4676Z" fill="#3F3D56"/>
<path d="M54.2585 63.4676H53.7086C53.6972 63.4684 53.6857 63.4667 53.6749 63.4626C53.6641 63.4586 53.6543 63.4523 53.6462 63.4442C53.6381 63.4361 53.6318 63.4263 53.6277 63.4156C53.6237 63.4049 53.622 63.3934 53.6227 63.3819V63.1249C53.622 63.1135 53.6237 63.102 53.6277 63.0913C53.6318 63.0805 53.6381 63.0708 53.6462 63.0626C53.6543 63.0545 53.6641 63.0483 53.6749 63.0442C53.6857 63.0402 53.6972 63.0385 53.7086 63.0392H54.2585C54.2699 63.0385 54.2814 63.0402 54.2922 63.0442C54.303 63.0483 54.3128 63.0545 54.3209 63.0626C54.329 63.0708 54.3353 63.0805 54.3394 63.0913C54.3434 63.102 54.3451 63.1135 54.3444 63.1249V63.3819C54.3451 63.3934 54.3434 63.4049 54.3394 63.4156C54.3353 63.4263 54.329 63.4361 54.3209 63.4442C54.3128 63.4523 54.303 63.4586 54.2922 63.4626C54.2814 63.4667 54.2699 63.4684 54.2585 63.4676Z" fill="#3F3D56"/>
<path d="M52.8151 63.4676H52.2653C52.2538 63.4684 52.2423 63.4667 52.2315 63.4626C52.2208 63.4586 52.211 63.4523 52.2028 63.4442C52.1947 63.4361 52.1884 63.4263 52.1844 63.4156C52.1803 63.4049 52.1786 63.3934 52.1794 63.3819V63.1249C52.1786 63.1135 52.1803 63.102 52.1844 63.0913C52.1884 63.0805 52.1947 63.0708 52.2028 63.0626C52.211 63.0545 52.2208 63.0483 52.2315 63.0442C52.2423 63.0402 52.2538 63.0385 52.2653 63.0392H52.8151C52.8266 63.0385 52.8381 63.0402 52.8488 63.0442C52.8596 63.0483 52.8694 63.0545 52.8775 63.0626C52.8857 63.0708 52.892 63.0805 52.896 63.0913C52.9001 63.102 52.9018 63.1135 52.901 63.1249V63.3819C52.9018 63.3934 52.9001 63.4049 52.896 63.4156C52.892 63.4263 52.8857 63.4361 52.8775 63.4442C52.8694 63.4523 52.8596 63.4586 52.8488 63.4626C52.8381 63.4667 52.8266 63.4684 52.8151 63.4676Z" fill="#3F3D56"/>
<path d="M51.3722 63.4676H50.8224C50.8109 63.4684 50.7994 63.4667 50.7887 63.4626C50.7779 63.4586 50.7681 63.4523 50.76 63.4442C50.7518 63.4361 50.7455 63.4263 50.7415 63.4156C50.7374 63.4049 50.7357 63.3934 50.7365 63.3819V63.1249C50.7357 63.1135 50.7374 63.102 50.7415 63.0913C50.7455 63.0805 50.7518 63.0708 50.76 63.0626C50.7681 63.0545 50.7779 63.0483 50.7887 63.0442C50.7994 63.0402 50.8109 63.0385 50.8224 63.0392H51.3722C51.3837 63.0385 51.3952 63.0402 51.406 63.0442C51.4167 63.0483 51.4265 63.0545 51.4347 63.0626C51.4428 63.0708 51.4491 63.0805 51.4531 63.0913C51.4572 63.102 51.4589 63.1135 51.4581 63.1249V63.3819C51.4589 63.3934 51.4572 63.4049 51.4531 63.4156C51.4491 63.4263 51.4428 63.4361 51.4347 63.4442C51.4265 63.4523 51.4167 63.4586 51.406 63.4626C51.3952 63.4667 51.3837 63.4684 51.3722 63.4676Z" fill="#3F3D56"/>
<path d="M49.946 63.4676H49.3961C49.3847 63.4684 49.3732 63.4667 49.3624 63.4626C49.3516 63.4586 49.3418 63.4523 49.3337 63.4442C49.3256 63.4361 49.3193 63.4263 49.3152 63.4156C49.3112 63.4049 49.3095 63.3934 49.3102 63.3819V63.1249C49.3095 63.1135 49.3112 63.102 49.3152 63.0913C49.3193 63.0805 49.3256 63.0708 49.3337 63.0626C49.3418 63.0545 49.3516 63.0483 49.3624 63.0442C49.3732 63.0402 49.3847 63.0385 49.3961 63.0392H49.946C49.9574 63.0385 49.9689 63.0402 49.9797 63.0442C49.9905 63.0483 50.0003 63.0545 50.0084 63.0626C50.0165 63.0708 50.0228 63.0805 50.0269 63.0913C50.0309 63.102 50.0326 63.1135 50.0319 63.1249V63.3819C50.0303 63.4041 50.0207 63.425 50.0049 63.4407C49.9891 63.4565 49.9682 63.466 49.946 63.4676Z" fill="#3F3D56"/>
<path d="M48.5026 63.4676H47.9528C47.9413 63.4684 47.9298 63.4667 47.919 63.4626C47.9083 63.4586 47.8985 63.4523 47.8903 63.4442C47.8822 63.4361 47.8759 63.4263 47.8719 63.4156C47.8678 63.4049 47.8661 63.3934 47.8669 63.3819V63.1249C47.8661 63.1135 47.8678 63.102 47.8719 63.0913C47.8759 63.0805 47.8822 63.0708 47.8903 63.0626C47.8985 63.0545 47.9083 63.0483 47.919 63.0442C47.9298 63.0402 47.9413 63.0385 47.9528 63.0392H48.5026C48.5141 63.0385 48.5256 63.0402 48.5363 63.0442C48.5471 63.0483 48.5569 63.0545 48.565 63.0626C48.5732 63.0708 48.5795 63.0805 48.5835 63.0913C48.5876 63.102 48.5893 63.1135 48.5885 63.1249V63.3819C48.5893 63.3934 48.5876 63.4049 48.5835 63.4156C48.5795 63.4263 48.5732 63.4361 48.565 63.4442C48.5569 63.4523 48.5471 63.4586 48.5363 63.4626C48.5256 63.4667 48.5141 63.4684 48.5026 63.4676Z" fill="#3F3D56"/>
<path d="M47.0597 63.4676H46.5099C46.4984 63.4684 46.4869 63.4667 46.4762 63.4626C46.4654 63.4586 46.4556 63.4523 46.4475 63.4442C46.4393 63.4361 46.433 63.4263 46.429 63.4156C46.4249 63.4049 46.4232 63.3934 46.424 63.3819V63.1249C46.4232 63.1135 46.4249 63.102 46.429 63.0913C46.433 63.0805 46.4393 63.0708 46.4475 63.0626C46.4556 63.0545 46.4654 63.0483 46.4762 63.0442C46.4869 63.0402 46.4984 63.0385 46.5099 63.0392H47.0597C47.0712 63.0385 47.0827 63.0402 47.0935 63.0442C47.1042 63.0483 47.114 63.0545 47.1222 63.0626C47.1303 63.0708 47.1366 63.0805 47.1406 63.0913C47.1447 63.102 47.1464 63.1135 47.1456 63.1249V63.3819C47.1464 63.3934 47.1447 63.4049 47.1406 63.4156C47.1366 63.4263 47.1303 63.4361 47.1222 63.4442C47.114 63.4523 47.1042 63.4586 47.0935 63.4626C47.0827 63.4667 47.0712 63.4684 47.0597 63.4676Z" fill="#3F3D56"/>
<path d="M45.6164 63.4676H45.0666C45.0551 63.4684 45.0436 63.4667 45.0328 63.4626C45.022 63.4586 45.0123 63.4523 45.0041 63.4442C44.996 63.4361 44.9897 63.4263 44.9856 63.4156C44.9816 63.4049 44.9799 63.3934 44.9806 63.3819V63.1249C44.9799 63.1135 44.9816 63.102 44.9856 63.0913C44.9897 63.0805 44.996 63.0708 45.0041 63.0626C45.0123 63.0545 45.022 63.0483 45.0328 63.0442C45.0436 63.0402 45.0551 63.0385 45.0666 63.0392H45.6164C45.6278 63.0385 45.6393 63.0402 45.6501 63.0442C45.6609 63.0483 45.6707 63.0545 45.6788 63.0626C45.6869 63.0708 45.6932 63.0805 45.6973 63.0913C45.7013 63.102 45.703 63.1135 45.7023 63.1249V63.3819C45.703 63.3934 45.7013 63.4049 45.6973 63.4156C45.6932 63.4263 45.6869 63.4361 45.6788 63.4442C45.6707 63.4523 45.6609 63.4586 45.6501 63.4626C45.6393 63.4667 45.6278 63.4684 45.6164 63.4676Z" fill="#3F3D56"/>
<path d="M44.1901 63.4676H43.6403C43.6288 63.4684 43.6173 63.4667 43.6065 63.4626C43.5958 63.4586 43.586 63.4523 43.5779 63.4442C43.5697 63.4361 43.5634 63.4263 43.5594 63.4156C43.5553 63.4049 43.5536 63.3934 43.5544 63.3819V63.1249C43.5536 63.1135 43.5553 63.102 43.5594 63.0913C43.5634 63.0805 43.5697 63.0708 43.5779 63.0626C43.586 63.0545 43.5958 63.0483 43.6065 63.0442C43.6173 63.0402 43.6288 63.0385 43.6403 63.0392H44.1901C44.2016 63.0385 44.2131 63.0402 44.2238 63.0442C44.2346 63.0483 44.2444 63.0545 44.2525 63.0626C44.2606 63.0708 44.2669 63.0805 44.271 63.0913C44.275 63.102 44.2767 63.1135 44.276 63.1249V63.3819C44.2744 63.4041 44.2648 63.425 44.249 63.4407C44.2333 63.4565 44.2123 63.466 44.1901 63.4676Z" fill="#3F3D56"/>
<path d="M42.7472 63.4676H42.1974C42.1859 63.4684 42.1744 63.4667 42.1637 63.4626C42.1529 63.4586 42.1431 63.4523 42.135 63.4442C42.1268 63.4361 42.1205 63.4263 42.1165 63.4156C42.1124 63.4049 42.1107 63.3934 42.1115 63.3819V63.1249C42.1107 63.1135 42.1124 63.102 42.1165 63.0913C42.1205 63.0805 42.1268 63.0708 42.135 63.0626C42.1431 63.0545 42.1529 63.0483 42.1637 63.0442C42.1744 63.0402 42.1859 63.0385 42.1974 63.0392H42.7472C42.7587 63.0385 42.7702 63.0402 42.781 63.0442C42.7917 63.0483 42.8015 63.0545 42.8096 63.0626C42.8178 63.0708 42.8241 63.0805 42.8281 63.0913C42.8322 63.102 42.8339 63.1135 42.8331 63.1249V63.3819C42.8339 63.3934 42.8322 63.4049 42.8281 63.4156C42.8241 63.4263 42.8178 63.4361 42.8096 63.4442C42.8015 63.4523 42.7917 63.4586 42.781 63.4626C42.7702 63.4667 42.7587 63.4684 42.7472 63.4676Z" fill="#3F3D56"/>
<path d="M57.42 64.3414H51.8361C51.8246 64.3422 51.8131 64.3405 51.8023 64.3364C51.7916 64.3324 51.7818 64.3261 51.7737 64.318C51.7655 64.3099 51.7592 64.3001 51.7552 64.2894C51.7511 64.2787 51.7494 64.2672 51.7502 64.2557V63.9816C51.7494 63.9702 51.7511 63.9587 51.7552 63.9479C51.7592 63.9372 51.7655 63.9274 51.7737 63.9193C51.7818 63.9112 51.7916 63.9049 51.8023 63.9009C51.8131 63.8969 51.8246 63.8952 51.8361 63.8959H57.42C57.4315 63.8952 57.443 63.8969 57.4537 63.9009C57.4645 63.9049 57.4743 63.9112 57.4824 63.9193C57.4906 63.9274 57.4969 63.9372 57.5009 63.9479C57.505 63.9587 57.5067 63.9702 57.5059 63.9816V64.2386C57.5078 64.2635 57.4999 64.2882 57.4839 64.3074C57.4678 64.3266 57.4449 64.3388 57.42 64.3414Z" fill="#3F3D56"/>
</g>
<defs>
<clipPath id="clip0_407_509">
<rect width="138" height="108" fill="white"/>
</clipPath>
</defs>
</svg>
