<svg width="116" height="130" viewBox="0 0 116 130" fill="none" xmlns="http://www.w3.org/2000/svg">
<g clip-path="url(#clip0_407_946)">
<path d="M81.9677 89.6113C81.9677 89.6113 92.4567 90.0572 92.4567 92.6812C92.4567 95.3052 80.6523 92.6812 80.6523 92.6812L81.9677 89.6113Z" fill="#A0616A"/>
<path d="M66.2165 130L46.537 128.679L45.6657 118.149L41.2925 127.376L22.04 124.735C22.4842 108.048 29.4711 91.8066 29.9153 89.6114C30.3594 87.4162 31.4015 78.3437 31.4015 78.3437C33.3148 74.2791 43.3254 73.8847 51.1835 74.262C54.4293 74.4163 57.3163 74.6907 59.11 74.8965C60.2887 75.0338 60.9891 75.1195 60.9891 75.1195C64.1324 78.3609 66.1482 82.7856 67.3952 87.7249C71.8539 105.51 66.2165 130 66.2165 130Z" fill="#FF5757"/>
<path d="M44.351 28.128C50.3892 28.128 55.2841 23.2138 55.2841 17.1519C55.2841 11.09 50.3892 6.17578 44.351 6.17578C38.3129 6.17578 33.418 11.09 33.418 17.1519C33.418 23.2138 38.3129 28.128 44.351 28.128Z" fill="#A0616A"/>
<path d="M36.9197 19.793C36.9197 19.793 33.8618 33.4102 29.0444 37.3547C24.227 41.2993 47.8527 37.3547 47.8527 37.3547C47.8527 37.3547 42.6083 28.5739 46.5373 24.6293C50.4664 20.6848 36.9197 19.793 36.9197 19.793Z" fill="#A0616A"/>
<path d="M59.2133 75.9941L51.953 76.8002L31.6756 79.064C31.6756 79.064 31.5731 78.8068 31.4022 78.3265C29.9331 74.2963 22.8266 54.6593 22.0408 48.7596C21.1695 42.174 30.3431 34.2677 30.3431 34.2677C30.3431 34.2677 39.0895 32.5184 41.7203 32.5184C44.3511 32.5184 54.84 36.463 54.84 36.463L58.7691 71.8266L59.1108 74.8794L59.2133 75.9941Z" fill="#D0CDE1"/>
<path opacity="0.15" d="M67.3618 87.7249L52.6534 79.064C52.6534 79.064 52.3972 78.2237 51.953 76.8002C51.7309 76.0971 51.4747 75.2224 51.1672 74.262C49.476 68.7911 46.6231 59.7701 44.334 53.1673C40.832 43.0658 57.8979 71.175 57.8979 71.175L58.752 71.8438L59.0937 74.8966C60.2724 75.0338 60.9728 75.1195 60.9728 75.1195C64.099 78.3609 66.1318 82.7856 67.3618 87.7249Z" fill="black"/>
<path d="M47.853 37.3548C47.853 37.3548 43.4798 43.0658 46.9818 53.1673C50.4838 63.2687 55.2841 79.064 55.2841 79.064L80.6523 93.9847L84.1543 89.5942L60.5286 71.1578C60.5286 71.1578 59.6574 37.7836 55.2841 36.463C50.9109 35.1425 47.853 37.3548 47.853 37.3548Z" fill="#D0CDE1"/>
<path d="M26.209 75.7712C26.209 75.7712 32.3247 88.4966 34.9554 87.1932C37.5862 85.8898 28.3956 72.7013 28.3956 72.7013L26.209 75.7712Z" fill="#A0616A"/>
<path d="M25.5424 40.8706L2.3608 60.1817C2.3608 60.1817 -6.38567 66.3215 9.79188 70.7119C25.9694 75.1023 27.2848 77.7435 27.2848 77.7435C27.2848 77.7435 29.0273 72.0325 31.2139 72.9071L12.4227 63.6975L27.729 54.4707L25.5424 40.8706Z" fill="#D0CDE1"/>
<path d="M16.2319 26.1558C17.4448 25.5555 20.1268 24.3378 22.4159 22.8629C22.2622 18.078 22.843 13.739 24.5684 11.4409C25.525 9.24569 27.5579 7.05046 29.1466 5.30115C33.0415 1.04791 41.6513 -1.33597 43.1888 0.790652C54.7369 1.0136 55.9498 10.1032 55.9498 10.1032C55.8814 13.9105 51.9524 14.0306 48.5016 13.8934C48.8091 16.4831 47.9891 19.1928 45.5975 20.3761C41.0363 22.6571 39.6697 25.6412 41.9588 27.6993C44.2479 29.7573 48.3308 35.2453 42.8642 36.6174C37.3977 37.9894 36.7144 40.7334 38.3031 41.8825C39.8918 43.0315 34.6644 39.8244 34.6644 39.8244C34.6644 39.8244 33.759 45.3125 28.9758 43.9405C28.5487 43.8204 28.1216 43.4946 27.6946 43.0315C26.3963 44.455 25.2517 45.2953 24.3805 45.3125C19.4093 45.3468 20.0072 39.8073 20.0072 39.8073C20.0072 39.8073 14.0965 41.4709 15.9415 40.802C17.7865 40.1331 17.8719 37.3034 12.9691 34.5079C8.06627 31.7124 13.4816 27.5278 16.2319 26.1558Z" fill="black"/>
<path d="M77.2862 40.5105L77.2008 40.4933L77.3887 41.2308C77.5719 42.2633 77.8404 43.2787 78.1916 44.2664L83.8632 65.927C84.0457 66.6166 84.4237 67.2382 84.9514 67.7161C85.4791 68.1941 86.1336 68.508 86.8356 68.6196L98.4178 70.4204C99.1665 70.5409 99.934 70.4219 100.612 70.0802C101.289 69.7386 101.842 69.1916 102.193 68.5167L113.195 47.8851C113.541 47.3148 113.855 46.725 114.134 46.1186L114.51 45.4154H114.459C115.625 42.6457 116.139 39.6429 115.959 36.6412C115.779 33.6394 114.912 30.72 113.423 28.1104C111.935 25.5008 109.866 23.2717 107.378 21.5968C104.89 19.922 102.051 18.8467 99.0811 18.4548C96.1113 18.0629 93.0914 18.3651 90.2571 19.3377C87.4227 20.3103 84.8505 21.927 82.7409 24.0618C80.6313 26.1966 79.0415 28.7918 78.0953 31.645C77.1491 34.4982 76.8723 37.5322 77.2862 40.5105Z" fill="#FF5757"/>
<path d="M99.1354 71.8438C98.9294 71.8437 98.7237 71.8265 98.5205 71.7924L86.4257 69.9059C85.6563 69.7876 84.9385 69.4449 84.3614 68.9205C83.7844 68.396 83.3735 67.7129 83.18 66.956L77.2522 44.3178C76.8854 43.2797 76.6054 42.2127 76.4151 41.1279L76.2614 40.1332C75.9187 37.4518 76.1056 34.729 76.8114 32.1203C77.5172 29.5115 78.728 27.0678 80.3746 24.9289C82.0213 22.79 84.0716 20.9978 86.4083 19.6546C88.7451 18.3113 91.3225 17.4435 93.9935 17.1005C95.9008 16.8575 97.8324 16.8805 99.7333 17.1691L99.6821 17.5121C94.3957 16.6995 89.0041 18.0253 84.6902 21.1987C80.3763 24.3721 77.4924 29.1339 76.6714 34.4393C76.381 36.3824 76.3638 38.3568 76.6201 40.3047L76.7397 41.0421C76.9263 42.1148 77.2006 43.1702 77.5597 44.1978L83.5045 66.8874C83.687 67.577 84.0651 68.1986 84.5928 68.6766C85.1204 69.1545 85.775 69.4684 86.477 69.58L98.5717 71.4665C99.3182 71.5846 100.083 71.4664 100.759 71.1283C101.436 70.7903 101.991 70.2491 102.347 69.58L102.655 69.7344C102.307 70.3676 101.798 70.8966 101.179 71.2673C100.561 71.638 99.8556 71.837 99.1354 71.8438Z" fill="#D0CDE1"/>
<path d="M102.198 45.4184L94.8389 65.5974L95.2559 65.7507L102.615 45.5717L102.198 45.4184Z" fill="#D0CDE1"/>
<path d="M90.1752 43.5549L89.7314 43.5745L90.6726 65.0428L91.1163 65.0232L90.1752 43.5549Z" fill="#D0CDE1"/>
<path d="M98.1106 82.0996L82.5993 79.6986C82.5416 79.6895 82.4863 79.6688 82.4367 79.6378C82.3872 79.6068 82.3444 79.566 82.3109 79.518C82.2774 79.4699 82.2539 79.4156 82.2418 79.3582C82.2297 79.3008 82.2293 79.2416 82.2406 79.1841C82.2475 79.1268 82.2661 79.0716 82.2952 79.0219C82.3244 78.9722 82.3634 78.9291 82.4099 78.8953C82.4564 78.8615 82.5094 78.8377 82.5655 78.8254C82.6216 78.8131 82.6797 78.8126 82.736 78.8239L98.2473 81.2249C98.3627 81.2411 98.467 81.3025 98.5375 81.3957C98.6079 81.4889 98.6387 81.6063 98.6231 81.7223C98.6038 81.8399 98.5393 81.9453 98.4435 82.0158C98.3477 82.0863 98.2282 82.1164 98.1106 82.0996Z" fill="#FF5757"/>
<path d="M98.5035 78.7896L82.9922 76.3885C82.935 76.3806 82.8799 76.3615 82.8301 76.3323C82.7802 76.303 82.7366 76.2642 82.7017 76.218C82.6668 76.1718 82.6413 76.1192 82.6267 76.0631C82.612 76.007 82.6085 75.9486 82.6164 75.8912C82.6242 75.8337 82.6433 75.7784 82.6724 75.7284C82.7016 75.6783 82.7403 75.6345 82.7863 75.5995C82.8323 75.5645 82.8847 75.5389 82.9405 75.5242C82.9964 75.5095 83.0546 75.506 83.1118 75.5139L98.6231 77.9149C98.7385 77.9311 98.8428 77.9925 98.9133 78.0857C98.9837 78.1789 99.0145 78.2963 98.9989 78.4122C98.9965 78.4718 98.9809 78.5302 98.9534 78.583C98.9259 78.6359 98.8871 78.682 98.8398 78.7181C98.7924 78.7541 98.7377 78.7792 98.6796 78.7916C98.6215 78.8039 98.5613 78.8033 98.5035 78.7896Z" fill="#FF5757"/>
<path d="M98.8968 75.4968L83.3855 73.0958C83.3277 73.0867 83.2724 73.066 83.2229 73.035C83.1733 73.004 83.1305 72.9632 83.097 72.9152C83.0635 72.8671 83.04 72.8128 83.0279 72.7554C83.0159 72.698 83.0154 72.6388 83.0267 72.5813C83.0336 72.524 83.0522 72.4688 83.0814 72.4191C83.1105 72.3695 83.1495 72.3264 83.1961 72.2925C83.2426 72.2587 83.2956 72.2349 83.3517 72.2226C83.4078 72.2103 83.4658 72.2098 83.5221 72.2211L99.0334 74.6221C99.149 74.6403 99.2526 74.7038 99.3215 74.7987C99.3903 74.8936 99.4188 75.0121 99.4007 75.1281C99.3826 75.244 99.3193 75.3481 99.2248 75.4172C99.1303 75.4864 99.0123 75.515 98.8968 75.4968Z" fill="#FF5757"/>
<path d="M89.8767 84.0204C92.9516 84.5006 95.702 83.1629 96.0436 81.0363L84.9056 79.3213C84.5639 81.4479 86.8018 83.5402 89.8767 84.0204Z" fill="#FF5757"/>
<path d="M95.4461 41.1793C94.7799 41.0763 94.2332 40.5447 93.9428 40.2017C93.8403 40.0816 93.7549 39.9616 93.6524 39.8415C93.3108 39.4128 92.9691 38.984 92.5079 38.7782C91.5 38.298 90.3042 38.9669 89.2621 39.67L89.0059 39.3099C90.1504 38.521 91.4658 37.8007 92.6787 38.3666C93.2253 38.6239 93.6012 39.1041 93.977 39.55C94.0624 39.67 94.1649 39.7901 94.2503 39.893C94.5578 40.2531 95.1899 40.8534 95.8561 40.7162C96.1368 40.6311 96.3981 40.4912 96.6248 40.3046C96.7966 40.1743 96.9796 40.0595 97.1715 39.9616C97.5569 39.7775 97.9879 39.7119 98.4104 39.7729C98.8328 39.834 99.2279 40.0189 99.546 40.3046C99.6628 40.4104 99.7713 40.5251 99.8706 40.6476C100.076 40.8705 100.264 41.0935 100.503 41.1621C100.861 41.2822 101.237 41.0764 101.647 40.8534C102.057 40.6304 102.501 40.3903 102.98 40.4589H103.031C103.902 40.5961 104.295 41.5566 104.534 42.2769L104.107 42.4141C103.8 41.4365 103.424 40.9391 102.928 40.8877C102.57 40.8534 102.228 41.042 101.852 41.2478C101.391 41.5051 100.896 41.7624 100.366 41.5909C100.007 41.4708 99.7681 41.1964 99.5289 40.9391C99.4435 40.8362 99.341 40.7333 99.2385 40.6304C98.9863 40.4054 98.6739 40.2595 98.3399 40.2107C98.006 40.1619 97.6651 40.2125 97.3594 40.356C97.1901 40.4426 97.0299 40.5461 96.8811 40.6647C96.6063 40.8913 96.2857 41.0551 95.9415 41.1449C95.7822 41.1995 95.6114 41.2113 95.4461 41.1793Z" fill="#D0CDE1"/>
</g>
<defs>
<clipPath id="clip0_407_946">
<rect width="116" height="130" fill="white"/>
</clipPath>
</defs>
</svg>
