<svg width="131" height="114" viewBox="0 0 131 114" fill="none" xmlns="http://www.w3.org/2000/svg">
<g clip-path="url(#clip0_407_966)">
<path d="M116.169 98.8466H16.1099C14.2923 98.8466 12.5492 99.5718 11.264 100.863C9.97885 102.153 9.25684 103.904 9.25684 105.73C9.26469 106.608 9.42925 107.478 9.74269 108.298C10.2515 109.575 11.1305 110.67 12.2658 111.439C13.4011 112.208 14.7403 112.617 16.1099 112.613H116.169C117.365 112.61 118.539 112.293 119.575 111.694C120.611 111.095 121.473 110.234 122.076 109.197C122.261 108.91 122.408 108.599 122.511 108.273C122.924 107.23 123.077 106.103 122.957 104.988C122.837 103.873 122.447 102.804 121.822 101.875C121.197 100.945 120.355 100.184 119.37 99.6559C118.384 99.1282 117.286 98.8503 116.169 98.8466Z" fill="#CCCCCC"/>
<path d="M64.362 25.0058H65.8962C66.6348 25.0078 67.3426 25.3034 67.8649 25.828C68.3871 26.3525 68.6814 27.0634 68.6835 27.8053H61.5747C61.5734 27.4373 61.6446 27.0726 61.7841 26.7323C61.9237 26.3921 62.129 26.0829 62.3881 25.8227C62.6472 25.5625 62.955 25.3563 63.2937 25.2161C63.6325 25.0759 63.9956 25.0044 64.362 25.0058Z" fill="#CCCCCC"/>
<path d="M66.587 40.904C75.2723 40.904 82.3131 33.8321 82.3131 25.1085C82.3131 16.3849 75.2723 9.31299 66.587 9.31299C57.9017 9.31299 50.8608 16.3849 50.8608 25.1085C50.8608 33.8321 57.9017 40.904 66.587 40.904Z" fill="#FFB8B8"/>
<path d="M49.0193 9.90363C49.1471 8.08008 50.3234 6.23085 54.1335 5.25487C54.1335 5.25487 60.6541 -3.11804 69.5016 1.27388C69.5016 1.27388 73.7976 0.529055 76.9683 4.99803C76.9683 4.99803 80.1136 3.12312 81.4688 6.43632C81.4688 6.43632 85.1766 13.1912 83.7958 20.1001C82.415 27.009 81.7246 27.8566 81.7246 27.8566C81.7246 27.8566 83.4634 13.6021 73.4651 14.5781C63.4669 15.5541 55.412 12.0354 53.1362 19.7662C51.244 26.1871 51.4997 29.526 51.4997 29.526C51.4997 29.526 45.2092 23.1051 47.3572 18.0711C48.4567 15.5027 48.8403 12.7032 49.0193 9.90363Z" fill="#2F2E41"/>
<path d="M23.7808 111.483H110.85C110.262 104.805 109.878 79.3269 109.878 77.6317C109.878 70.2348 103.843 62.1444 103.843 62.1444L101.695 60.9373L83.6679 55.2869L79.014 49.1998C78.5261 48.5636 77.8983 48.0494 77.1796 47.6974C76.461 47.3454 75.671 47.1652 74.8715 47.1708L60.1427 47.2735C58.8444 47.285 57.5964 47.7791 56.6394 48.6604L47.5106 57.1618L34.137 63.5827L34.1114 63.557L33.9836 63.6598L31.989 65.0981L30.7105 66.0227C30.7105 66.0227 27.3607 70.055 24.6757 82.1778C24.2666 84.0527 23.9853 107.63 23.7808 111.483Z" fill="#FF5757"/>
<path d="M131 108.298C130.795 108.478 130.591 108.683 130.361 108.863C129.568 109.582 128.75 110.276 127.931 110.969C126.679 112.022 125.4 113.024 124.121 114H6.90416C4.52606 112.202 2.22467 110.301 0 108.272H131V108.298Z" fill="#CCCCCC"/>
<path d="M88.0407 109.659H44.9536L45.8742 105.319H87.1201L88.0407 109.659Z" fill="#405466"/>
<path d="M101.696 42.4963H30.7364C30.1261 42.4963 29.5407 42.7399 29.1091 43.1734C28.6775 43.6069 28.4351 44.1948 28.4351 44.8079V92.9136C28.4351 93.5267 28.6775 94.1146 29.1091 94.5481C29.5407 94.9816 30.1261 95.2251 30.7364 95.2251H101.696C101.998 95.2251 102.297 95.1653 102.577 95.0492C102.856 94.933 103.109 94.7627 103.323 94.5481C103.537 94.3335 103.706 94.0786 103.822 93.7982C103.938 93.5177 103.997 93.2172 103.997 92.9136V44.7822C103.991 44.1736 103.745 43.5922 103.314 43.1643C102.883 42.7363 102.302 42.4963 101.696 42.4963Z" fill="#405466"/>
<path d="M74.2069 81.022H57.6113C57.3748 81.0246 57.1487 81.1202 56.9814 81.2882C56.8141 81.4562 56.719 81.6833 56.7163 81.9209V108.272H75.0763V81.9209C75.079 81.6861 74.9891 81.4597 74.8262 81.2913C74.6633 81.1228 74.4406 81.026 74.2069 81.022ZM65.9474 95.9956C65.4267 95.9909 64.9286 95.7811 64.5603 95.4112C64.1921 95.0413 63.9831 94.541 63.9785 94.018V90.9873C63.9785 90.4628 64.1859 89.9597 64.5552 89.5889C64.9244 89.218 65.4252 89.0096 65.9474 89.0096C66.4696 89.0096 66.9704 89.218 67.3397 89.5889C67.709 89.9597 67.9164 90.4628 67.9164 90.9873V94.018C67.9117 94.541 67.7028 95.0413 67.3345 95.4112C66.9663 95.7811 66.4682 95.9909 65.9474 95.9956Z" fill="#405466"/>
<path d="M56.665 107.399V109.942C56.665 110.071 56.7162 110.196 56.8073 110.287C56.8985 110.379 57.022 110.43 57.1509 110.43H74.6414C74.7703 110.43 74.8939 110.379 74.985 110.287C75.0761 110.196 75.1273 110.071 75.1273 109.942V107.399H56.665Z" fill="#405466"/>
<path d="M100.187 92.3999C100.809 92.3999 101.312 91.894 101.312 91.2699C101.312 90.6457 100.809 90.1398 100.187 90.1398C99.5657 90.1398 99.062 90.6457 99.062 91.2699C99.062 91.894 99.5657 92.3999 100.187 92.3999Z" fill="#2F2E41"/>
<path d="M39.6863 89.6261C39.5854 89.6287 39.4893 89.6701 39.4179 89.7418C39.3466 89.8135 39.3053 89.91 39.3027 90.0114V92.0404C39.3027 92.1425 39.3431 92.2405 39.4151 92.3128C39.487 92.385 39.5846 92.4256 39.6863 92.4256C39.788 92.4256 39.8856 92.385 39.9575 92.3128C40.0294 92.2405 40.0699 92.1425 40.0699 92.0404V90.0114C40.0673 89.91 40.026 89.8135 39.9546 89.7418C39.8833 89.6701 39.7872 89.6287 39.6863 89.6261Z" fill="#2F2E41"/>
<path d="M41.8084 89.6261C41.7075 89.6287 41.6114 89.6701 41.54 89.7418C41.4686 89.8135 41.4274 89.91 41.4248 90.0114V92.0404C41.4248 92.1425 41.4652 92.2405 41.5371 92.3128C41.6091 92.385 41.7066 92.4256 41.8084 92.4256C41.9101 92.4256 42.0077 92.385 42.0796 92.3128C42.1515 92.2405 42.1919 92.1425 42.1919 92.0404V90.0114C42.1949 89.96 42.187 89.9086 42.1688 89.8605C42.1506 89.8124 42.1224 89.7687 42.0862 89.7323C42.05 89.6959 42.0065 89.6676 41.9586 89.6493C41.9107 89.631 41.8595 89.6231 41.8084 89.6261Z" fill="#2F2E41"/>
<path d="M43.9563 89.6261C43.8554 89.6287 43.7593 89.6701 43.688 89.7418C43.6166 89.8135 43.5753 89.91 43.5728 90.0114V92.0404C43.5728 92.1425 43.6132 92.2405 43.6851 92.3128C43.757 92.385 43.8546 92.4256 43.9563 92.4256C44.058 92.4256 44.1556 92.385 44.2275 92.3128C44.2995 92.2405 44.3399 92.1425 44.3399 92.0404V90.0114C44.3373 89.91 44.2961 89.8135 44.2247 89.7418C44.1533 89.6701 44.0572 89.6287 43.9563 89.6261Z" fill="#2F2E41"/>
<path d="M46.0789 89.6261C45.978 89.6287 45.8819 89.6701 45.8105 89.7418C45.7391 89.8135 45.6979 89.91 45.6953 90.0114V92.0404C45.6953 92.1425 45.7357 92.2405 45.8077 92.3128C45.8796 92.385 45.9772 92.4256 46.0789 92.4256C46.1806 92.4256 46.2782 92.385 46.3501 92.3128C46.422 92.2405 46.4624 92.1425 46.4624 92.0404V90.0114C46.4599 89.91 46.4186 89.8135 46.3472 89.7418C46.2759 89.6701 46.1798 89.6287 46.0789 89.6261Z" fill="#2F2E41"/>
<path d="M47.7664 108.529C51.0429 108.529 53.6989 105.862 53.6989 102.571C53.6989 99.2798 51.0429 96.6121 47.7664 96.6121C44.49 96.6121 41.834 99.2798 41.834 102.571C41.834 105.862 44.49 108.529 47.7664 108.529Z" fill="#FFB8B8"/>
<path d="M89.1683 109.665C92.4447 109.665 95.1008 106.997 95.1008 103.706C95.1008 100.415 92.4447 97.7473 89.1683 97.7473C85.8919 97.7473 83.2358 100.415 83.2358 103.706C83.2358 106.997 85.8919 109.665 89.1683 109.665Z" fill="#FFB8B8"/>
</g>
<defs>
<clipPath id="clip0_407_966">
<rect width="131" height="114" fill="white"/>
</clipPath>
</defs>
</svg>
