<svg width="175" height="128" viewBox="0 0 175 128" fill="none" xmlns="http://www.w3.org/2000/svg">
<path d="M143.935 95.1834V125.787H67.3257C58.6078 125.787 51.4844 118.914 51.4844 110.472C51.4844 102.03 58.5821 95.1577 67.3257 95.1577H143.935V95.1834Z" fill="#F2F2F2"/>
<path d="M145.812 125.555C145.812 125.711 145.782 125.865 145.722 126.008C145.663 126.152 145.576 126.283 145.466 126.393C145.356 126.503 145.226 126.59 145.082 126.65C144.938 126.709 144.784 126.739 144.629 126.739H65.9367C63.8192 126.739 61.7225 126.322 59.7662 125.51C57.8099 124.699 56.0324 123.511 54.5352 122.012C53.0379 120.514 51.8502 118.735 51.0399 116.777C50.2296 114.819 49.8125 112.72 49.8125 110.601C49.8125 108.482 50.2296 106.383 51.0399 104.425C51.8502 102.467 53.0379 100.688 54.5352 99.1896C56.0324 97.6911 57.8099 96.5023 59.7662 95.6913C61.7225 94.8803 63.8192 94.4629 65.9367 94.4629H144.629C144.784 94.4626 144.938 94.4929 145.082 94.5523C145.226 94.6117 145.356 94.6989 145.466 94.8089C145.576 94.9189 145.663 95.0496 145.722 95.1934C145.782 95.3372 145.812 95.4913 145.812 95.6469C145.814 95.803 145.785 95.9581 145.727 96.1028C145.668 96.2476 145.581 96.379 145.471 96.4895C145.36 96.5999 145.229 96.687 145.084 96.7457C144.94 96.8043 144.785 96.8333 144.629 96.8308H65.9367C62.2878 96.8308 58.7883 98.2816 56.2081 100.864C53.6279 103.446 52.1784 106.949 52.1784 110.601C52.1784 114.253 53.6279 117.755 56.2081 120.338C58.7883 122.92 62.2878 124.371 65.9367 124.371H144.629C144.942 124.374 145.24 124.5 145.462 124.721C145.683 124.943 145.808 125.242 145.812 125.555Z" fill="#FF5757"/>
<path d="M143.935 102.236H61.5908C61.5294 102.236 61.4706 102.211 61.4272 102.168C61.3838 102.124 61.3594 102.066 61.3594 102.004C61.3594 101.943 61.3838 101.884 61.4272 101.84C61.4706 101.797 61.5294 101.772 61.5908 101.772H143.909C143.97 101.772 144.029 101.797 144.073 101.84C144.116 101.884 144.14 101.943 144.14 102.004C144.143 102.033 144.14 102.062 144.131 102.09C144.122 102.118 144.108 102.143 144.088 102.165C144.069 102.187 144.045 102.204 144.019 102.216C143.992 102.229 143.964 102.235 143.935 102.236Z" fill="#CCCCCC"/>
<path d="M143.935 107.898H61.5908C61.5294 107.898 61.4706 107.874 61.4272 107.831C61.3838 107.787 61.3594 107.728 61.3594 107.667C61.3594 107.605 61.3838 107.546 61.4272 107.503C61.4706 107.459 61.5294 107.435 61.5908 107.435H143.909C143.97 107.435 144.029 107.459 144.073 107.503C144.116 107.546 144.14 107.605 144.14 107.667C144.143 107.696 144.14 107.725 144.131 107.753C144.122 107.78 144.108 107.806 144.088 107.828C144.069 107.849 144.045 107.867 144.019 107.879C143.992 107.891 143.964 107.898 143.935 107.898Z" fill="#CCCCCC"/>
<path d="M143.935 113.535H61.5908C61.5294 113.535 61.4706 113.511 61.4272 113.467C61.3838 113.424 61.3594 113.365 61.3594 113.303C61.3594 113.242 61.3838 113.183 61.4272 113.14C61.4706 113.096 61.5294 113.072 61.5908 113.072H143.909C143.97 113.072 144.029 113.096 144.073 113.14C144.116 113.183 144.14 113.242 144.14 113.303C144.143 113.332 144.14 113.362 144.131 113.389C144.122 113.417 144.108 113.443 144.088 113.464C144.069 113.486 144.045 113.504 144.019 113.516C143.992 113.528 143.964 113.535 143.935 113.535Z" fill="#CCCCCC"/>
<path d="M143.935 119.197H61.5908C61.5294 119.197 61.4706 119.173 61.4272 119.13C61.3838 119.086 61.3594 119.027 61.3594 118.966C61.3594 118.904 61.3838 118.845 61.4272 118.802C61.4706 118.759 61.5294 118.734 61.5908 118.734H143.909C143.97 118.734 144.029 118.759 144.073 118.802C144.116 118.845 144.14 118.904 144.14 118.966C144.143 118.995 144.14 119.024 144.131 119.052C144.122 119.079 144.108 119.105 144.088 119.127C144.069 119.148 144.045 119.166 144.019 119.178C143.992 119.19 143.964 119.197 143.935 119.197Z" fill="#CCCCCC"/>
<path d="M111.918 91.9661H109.243L107.958 81.5935H111.918V91.9661Z" fill="#FFB8B8"/>
<path d="M107.314 91.1941H112.509V94.4629H104.048C104.05 93.5964 104.394 92.7657 105.006 92.153C105.619 91.5403 106.449 91.1955 107.314 91.1941Z" fill="#2F2E41"/>
<path d="M84.4525 91.9661H81.778L80.4922 81.5935H84.4525V91.9661Z" fill="#FFB8B8"/>
<path d="M79.8495 91.1941H85.0442V94.4629H76.5835C76.5849 93.5964 76.9294 92.7657 77.5416 92.153C78.1538 91.5403 78.9837 91.1955 79.8495 91.1941Z" fill="#2F2E41"/>
<path d="M93.4277 14.9565V13.7725C93.4274 12.7753 93.6234 11.7878 94.0045 10.8665C94.3857 9.94512 94.9444 9.10796 95.649 8.40283C96.3535 7.6977 97.1899 7.13843 98.1105 6.75697C99.0311 6.37551 100.018 6.17935 101.014 6.17969C102.01 6.17935 102.997 6.37551 103.918 6.75697C104.838 7.13843 105.675 7.6977 106.379 8.40283C107.084 9.10796 107.642 9.94512 108.024 10.8665C108.405 11.7878 108.601 12.7753 108.6 13.7725V14.9565C108.599 16.4101 108.022 17.8037 106.995 18.8316C105.968 19.8594 104.575 20.4374 103.123 20.4388H98.8796C97.4313 20.432 96.0447 19.8514 95.023 18.824C94.0013 17.7966 93.4277 16.4061 93.4277 14.9565Z" fill="#2F2E41"/>
<path d="M101.014 20.8506C104.209 20.8506 106.8 18.2578 106.8 15.0595C106.8 11.8611 104.209 9.26831 101.014 9.26831C97.8181 9.26831 95.2275 11.8611 95.2275 15.0595C95.2275 18.2578 97.8181 20.8506 101.014 20.8506Z" fill="#FFB8B8"/>
<path d="M69.5886 34.9296C69.7976 34.7296 70.0441 34.5729 70.3139 34.4685C70.5836 34.3641 70.8713 34.3141 71.1604 34.3212C71.4496 34.3284 71.7344 34.3927 71.9987 34.5103C72.2629 34.628 72.5013 34.7967 72.7002 35.0068C72.7855 35.1034 72.8629 35.2067 72.9317 35.3157L77.8949 34.3891L79.2065 37.2718L72.1859 38.5073C71.7108 38.7683 71.1568 38.847 70.6278 38.7285C70.0989 38.61 69.6312 38.3025 69.3126 37.8636C68.994 37.4247 68.8462 36.8846 68.897 36.3444C68.9478 35.8043 69.1937 35.3013 69.5886 34.9296Z" fill="#FFB8B8"/>
<path d="M96.5138 24.4799L96.591 24.5828L88.4646 29.9364L74.7578 34.312C74.5754 34.3675 74.4186 34.4859 74.3151 34.646C74.2116 34.8062 74.168 34.9978 74.192 35.1871L74.5006 37.7609C74.513 37.8696 74.5469 37.9746 74.6004 38.07C74.6538 38.1653 74.7258 38.249 74.812 38.3162C74.8983 38.3833 74.997 38.4325 75.1025 38.4609C75.208 38.4893 75.3181 38.4964 75.4264 38.4816H75.5035L88.4131 35.7018C89.0371 35.574 89.6253 35.3104 90.1361 34.9297L99.2655 28.4436C99.5968 28.2064 99.861 27.8873 100.032 27.5173C100.204 27.1474 100.276 26.7394 100.243 26.333C100.22 26.0261 100.137 25.7268 99.9971 25.4526C99.8576 25.1784 99.6649 24.9347 99.4303 24.7358C99.1957 24.5369 98.9238 24.3868 98.6306 24.2943C98.3374 24.2017 98.0286 24.1686 97.7225 24.1968C97.3258 24.2233 96.9437 24.3567 96.6167 24.5828L96.5138 24.4799Z" fill="#CCCCCC"/>
<path d="M109.295 89.032C109.088 89.0278 108.886 88.9652 108.713 88.8513C108.54 88.7375 108.403 88.5771 108.317 88.3885L95.9991 57.8884C95.9807 57.8461 95.9541 57.8078 95.9208 57.7757C95.8875 57.7437 95.8482 57.7186 95.8052 57.7019C95.7622 57.6851 95.7162 57.677 95.6701 57.6781C95.6239 57.6793 95.5784 57.6895 95.5362 57.7083C95.4426 57.7589 95.3697 57.8409 95.3305 57.9399L85.2754 87.6164C85.2358 87.7488 85.1703 87.872 85.0826 87.9788C84.995 88.0856 84.887 88.174 84.765 88.2386C84.6429 88.3033 84.5092 88.343 84.3717 88.3555C84.2342 88.368 84.0955 88.353 83.9639 88.3113C83.9444 88.3086 83.9263 88.2996 83.9124 88.2856L80.5436 87.0244C80.3564 86.9639 80.1922 86.8477 80.0727 86.6914C79.9533 86.535 79.8843 86.3459 79.875 86.1493C78.3577 72.9197 91.6016 39.5369 91.7302 39.2023L91.7559 39.0994L103.817 41.7762L103.843 41.8019C108.652 47.0526 112.612 80.2037 113.358 86.7928C113.385 87.0288 113.332 87.2673 113.205 87.4686C113.079 87.6698 112.888 87.8219 112.663 87.8995L109.68 88.9548C109.556 89.0004 109.426 89.0265 109.295 89.032Z" fill="#2F2E41"/>
<path d="M98.9053 42.8572C95.9736 42.8572 92.7334 42.2652 91.7304 39.8715L91.7047 39.82L91.7304 39.7685C92.5276 38.4559 93.5563 36.2424 93.0162 35.8306C91.9104 35.0069 91.3704 33.6685 91.4218 31.8154C91.5247 27.8259 94.2506 24.274 98.1852 22.9871C99.2821 22.6322 100.398 22.34 101.528 22.1119C102.359 21.944 103.217 21.9628 104.04 22.1668C104.863 22.3708 105.631 22.755 106.288 23.2917C106.945 23.8284 107.474 24.5042 107.838 25.2705C108.203 26.0367 108.393 26.8743 108.395 27.7229C108.446 31.9955 107.777 37.9411 104.409 42.0078C104.246 42.1898 104.03 42.3159 103.791 42.3681C102.18 42.6723 100.545 42.8359 98.9053 42.8572Z" fill="#CCCCCC"/>
<path d="M97.7993 42.7027C97.9632 42.1338 98.3425 41.6515 98.8564 41.3582C99.3704 41.065 99.9783 40.9841 100.551 41.1327C100.668 41.1597 100.78 41.2031 100.885 41.2614L104.64 37.8381L107.263 39.6141L101.888 44.3757C101.645 44.8138 101.262 45.1581 100.801 45.3539C100.34 45.5497 99.8263 45.5859 99.3423 45.4567C98.7812 45.2834 98.3082 44.9009 98.021 44.3883C97.7338 43.8757 97.6544 43.2722 97.7993 42.7027Z" fill="#FFB8B8"/>
<path d="M104.048 42.7285C103.805 42.7305 103.569 42.6487 103.38 42.4969L101.888 41.2872C101.78 41.1993 101.69 41.091 101.624 40.9685C101.558 40.8459 101.516 40.7114 101.502 40.5728C101.487 40.4341 101.501 40.294 101.54 40.1604C101.58 40.0269 101.646 39.9025 101.734 39.7943C101.787 39.728 101.848 39.6676 101.914 39.6142L108.137 34.8525C108.209 34.7956 108.257 34.7137 108.271 34.6231C108.285 34.5325 108.265 34.4399 108.214 34.3635L104.383 29.293C103.938 28.7021 103.716 27.9738 103.753 27.2352C103.791 26.4967 104.086 25.7948 104.588 25.2521C105.122 24.6788 105.851 24.3264 106.632 24.2644C107.413 24.2025 108.188 24.4355 108.806 24.9175L108.832 24.9432L112.843 30.6829C113.584 31.2709 114.064 32.1268 114.179 33.0659C114.295 34.0049 114.037 34.9518 113.46 35.7019C113.262 35.9568 113.028 36.1821 112.766 36.3711L104.717 42.5226C104.517 42.6518 104.286 42.723 104.048 42.7285Z" fill="#CCCCCC"/>
<path d="M95.8965 13.4381V10.5554L101.014 8.31616L105.9 10.5554V13.4124C105.9 13.4733 105.889 13.5337 105.866 13.5901C105.842 13.6464 105.808 13.6976 105.765 13.7407C105.722 13.7838 105.671 13.8179 105.615 13.8411C105.558 13.8643 105.498 13.876 105.437 13.8757H96.3851C96.3238 13.8813 96.262 13.8743 96.2036 13.855C96.1452 13.8357 96.0914 13.8045 96.0455 13.7635C95.9996 13.7224 95.9627 13.6723 95.9371 13.6163C95.9115 13.5604 95.8976 13.4997 95.8965 13.4381Z" fill="#2F2E41"/>
<path d="M100.782 6.56579C100.037 4.14637 101.605 1.39235 103.946 0.440031C106.286 -0.512293 109.089 0.156908 111.043 1.72695C112.998 3.297 114.232 5.66494 114.875 8.11009C115.518 10.5552 115.647 13.1034 115.775 15.6257C118.655 16.1662 120.61 19.5637 119.607 22.3177C118.604 25.0717 114.926 26.4359 112.381 24.9945C109.835 23.5532 109.115 19.6924 110.94 17.4274C111.806 16.3516 112.289 15.0174 112.313 13.6361C112.336 12.2547 111.898 10.905 111.069 9.80048C110.24 8.69594 109.067 7.89965 107.734 7.53755C106.402 7.17546 104.988 7.26825 103.714 7.80123C102.325 8.36748 100.551 6.82317 100.782 6.56579Z" fill="#2F2E41"/>
<path d="M68.534 23.8106C65.1001 23.7874 61.7094 23.0421 58.5818 21.6229C58.3943 21.5385 58.2358 21.4008 58.1261 21.2268C58.0163 21.0529 57.9602 20.8505 57.9646 20.6448V12.0739C57.9632 11.9349 57.9896 11.7971 58.0421 11.6684C58.0946 11.5398 58.1722 11.4229 58.2704 11.3246C58.3685 11.2264 58.4853 11.1487 58.6139 11.0961C58.7424 11.0436 58.8801 11.0172 59.019 11.0186H78.0748C78.2137 11.0172 78.3514 11.0436 78.4799 11.0961C78.6085 11.1487 78.7252 11.2264 78.8234 11.3246C78.9216 11.4229 78.9992 11.5398 79.0517 11.6684C79.1042 11.7971 79.1306 11.9349 79.1292 12.0739V20.6448C79.1301 20.8497 79.0724 21.0506 78.9631 21.2239C78.8538 21.3972 78.6973 21.5356 78.512 21.6229C75.3745 23.0395 71.9759 23.7847 68.534 23.8106Z" fill="#FF5757"/>
<path d="M68.534 16.8613C68.3933 16.8606 68.2539 16.8344 68.1225 16.784L53.0013 10.4009C52.8067 10.3204 52.6407 10.1834 52.5248 10.0074C52.4089 9.83152 52.3484 9.62482 52.3512 9.41411C52.3539 9.2034 52.4198 8.99837 52.5403 8.82555C52.6608 8.65274 52.8303 8.52009 53.027 8.44478L68.1482 2.67936C68.2659 2.62836 68.3928 2.60205 68.5211 2.60205C68.6494 2.60205 68.7763 2.62836 68.894 2.67936L83.8095 8.41904C84.0063 8.49267 84.1766 8.62346 84.2986 8.79463C84.4206 8.9658 84.4888 9.16955 84.4943 9.37974C84.4998 9.58994 84.4425 9.79699 84.3296 9.97435C84.2168 10.1517 84.0536 10.2913 83.8609 10.3752L68.9454 16.7583C68.8209 16.8313 68.6781 16.8671 68.534 16.8613Z" fill="#FF5757"/>
<path d="M59.7132 22.2148C60.4944 22.2148 61.1276 21.581 61.1276 20.7992C61.1276 20.0173 60.4944 19.3835 59.7132 19.3835C58.9321 19.3835 58.2988 20.0173 58.2988 20.7992C58.2988 21.581 58.9321 22.2148 59.7132 22.2148Z" fill="#3F3D56"/>
<path opacity="0.2" d="M83.9127 9.47421L68.9972 15.8573C68.8795 15.9083 68.7525 15.9347 68.6243 15.9347C68.496 15.9347 68.3691 15.9083 68.2514 15.8573L53.1302 9.47421C52.9415 9.4045 52.7856 9.26683 52.693 9.08813C52.5707 9.30406 52.5371 9.55917 52.5996 9.79941C52.662 10.0396 52.8154 10.2461 53.0273 10.3751C53.053 10.4008 53.1044 10.4008 53.1302 10.4265L68.2514 16.8097C68.3691 16.8607 68.496 16.887 68.6243 16.887C68.7525 16.887 68.8795 16.8607 68.9972 16.8097L83.9127 10.4265C84.0272 10.3792 84.131 10.3093 84.2179 10.221C84.3049 10.1327 84.3732 10.0278 84.4188 9.91253C84.4644 9.79725 84.4863 9.67397 84.4833 9.55003C84.4803 9.42608 84.4524 9.30401 84.4013 9.19109C84.3756 9.16535 84.3756 9.11387 84.3498 9.08813C84.2505 9.26144 84.0968 9.39713 83.9127 9.47421Z" fill="black"/>
<path d="M59.8419 20.7735C59.9033 20.7735 59.9622 20.7491 60.0056 20.7056C60.049 20.6622 60.0734 20.6033 60.0734 20.5418V12.6659L67.8397 9.83463C67.9011 9.83463 67.96 9.81022 68.0034 9.76678C68.0468 9.72334 68.0711 9.66442 68.0711 9.60298C68.0711 9.54155 68.0468 9.48263 68.0034 9.43919C67.96 9.39574 67.9011 9.37134 67.8397 9.37134L60.0734 12.2026C59.9497 12.2016 59.8302 12.2476 59.739 12.3313C59.6928 12.373 59.6571 12.425 59.6348 12.4832C59.6125 12.5413 59.6041 12.6039 59.6105 12.6659V20.5418C59.6105 20.6033 59.6348 20.6622 59.6782 20.7056C59.7217 20.7491 59.7805 20.7735 59.8419 20.7735Z" fill="#3F3D56"/>
</svg>
