<svg width="540" height="219" viewBox="0 0 540 219" fill="none" xmlns="http://www.w3.org/2000/svg">
<g clip-path="url(#clip0_407_772)">
<path d="M262.473 123.31L298.15 82.5527C303.386 77.1647 306.272 69.925 306.175 62.4179C306.079 54.9108 303.008 47.7475 297.635 42.4956C292.262 37.2437 285.024 34.3308 277.505 34.3943C269.986 34.4578 262.799 37.4926 257.516 42.8345C254.852 40.2075 251.694 38.1318 248.224 36.7265C244.755 35.3213 241.041 34.6142 237.297 34.6458C233.553 34.6774 229.852 35.4472 226.407 36.9108C222.961 38.3745 219.839 40.5032 217.22 43.1748C214.601 45.8465 212.536 49.0084 211.144 52.479C209.752 55.9496 209.06 59.6606 209.108 63.3989C209.156 67.1372 209.943 70.8292 211.424 74.263C212.905 77.6968 215.051 80.8046 217.738 83.4081L257.393 123.249" fill="#FF5757"/>
<path d="M193.688 43.5066H1.22412V217.778H193.688V43.5066Z" stroke="#FF5757" stroke-width="4" stroke-miterlimit="10"/>
<path d="M538.776 1.22217H346.312V175.493H538.776V1.22217Z" stroke="#FF5757" stroke-width="4" stroke-miterlimit="10"/>
<path d="M193.32 117.505C193.32 117.505 200.603 109.989 213.454 124.471C226.305 138.953 261.922 116.099 261.922 116.099" stroke="#FF5757" stroke-width="2" stroke-miterlimit="10"/>
<path d="M347.169 111.211C347.169 111.211 357.266 108.4 319.386 120.621C281.505 132.842 280.281 134.981 266.94 116.099L302.618 75.3422C307.854 69.9542 310.739 62.7145 310.643 55.2074C310.546 47.7003 307.475 40.5371 302.102 35.2852C296.729 30.0333 289.491 27.1204 281.973 27.1839C274.454 27.2474 267.267 30.2821 261.983 35.624C256.587 30.3957 249.337 27.5146 241.818 27.6111C234.3 27.7075 227.126 30.7737 221.866 36.1388C216.606 41.5038 213.689 48.7307 213.752 56.2382C213.816 63.7457 216.855 70.9223 222.205 76.1977L261.861 116.038" stroke="#FF5757" stroke-width="2" stroke-miterlimit="10"/>
<path d="M523.048 106.873H373.973C373.34 106.873 372.733 107.124 372.285 107.571C371.838 108.017 371.586 108.624 371.586 109.256C371.586 109.888 371.838 110.494 372.285 110.941C372.733 111.388 373.34 111.639 373.973 111.639H378.196V168.65C378.196 169.282 378.447 169.888 378.895 170.335C379.342 170.782 379.949 171.033 380.582 171.033C381.215 171.033 381.822 170.782 382.27 170.335C382.718 169.888 382.969 169.282 382.969 168.65L383.03 111.639H502.609L513.624 168.65C513.624 169.282 513.875 169.888 514.323 170.335C514.771 170.782 515.378 171.033 516.011 171.033C516.644 171.033 517.251 170.782 517.698 170.335C518.146 169.888 518.397 169.282 518.397 168.65L519.132 111.639H523.048C523.363 111.644 523.676 111.585 523.967 111.467C524.259 111.349 524.524 111.174 524.747 110.952C524.97 110.729 525.145 110.465 525.263 110.173C525.382 109.882 525.44 109.57 525.435 109.256C525.435 108.624 525.184 108.017 524.736 107.571C524.288 107.124 523.681 106.873 523.048 106.873Z" fill="#CCCCCC"/>
<path d="M399.798 96.2402V106.323H374.463C373.124 106.363 371.824 105.871 370.848 104.954C369.873 104.037 369.302 102.771 369.261 101.434C369.221 100.097 369.714 98.7988 370.632 97.8248C371.55 96.8507 372.818 96.2807 374.157 96.2402H399.798Z" fill="#F2F2F2"/>
<path d="M400.41 106.261C400.412 106.31 400.404 106.359 400.386 106.404C400.368 106.449 400.341 106.49 400.307 106.525C400.272 106.559 400.231 106.586 400.186 106.604C400.14 106.621 400.092 106.63 400.043 106.628H374.035C372.623 106.628 371.268 106.068 370.27 105.071C369.271 104.074 368.71 102.722 368.71 101.312C368.71 99.9021 369.271 98.5499 370.27 97.5529C371.268 96.5559 372.623 95.9958 374.035 95.9958H400.043C400.141 95.9958 400.234 96.0345 400.303 96.1032C400.372 96.172 400.41 96.2652 400.41 96.3625C400.41 96.4597 400.372 96.553 400.303 96.6217C400.234 96.6905 400.141 96.7291 400.043 96.7291H374.035C372.834 96.7291 371.682 97.2055 370.832 98.0535C369.983 98.9015 369.506 100.052 369.506 101.251C369.506 102.45 369.983 103.6 370.832 104.448C371.682 105.296 372.834 105.773 374.035 105.773H400.043C400.227 105.895 400.41 106.078 400.41 106.261Z" fill="#FF5757"/>
<path d="M399.798 98.6234H372.566C372.549 98.6234 372.534 98.617 372.522 98.6055C372.511 98.5941 372.504 98.5785 372.504 98.5623C372.504 98.5461 372.511 98.5306 372.522 98.5191C372.534 98.5077 372.549 98.5012 372.566 98.5012H399.798C399.814 98.5012 399.83 98.5077 399.841 98.5191C399.853 98.5306 399.859 98.5461 399.859 98.5623C399.859 98.5785 399.853 98.5941 399.841 98.6055C399.83 98.617 399.814 98.6234 399.798 98.6234Z" fill="#CCCCCC"/>
<path d="M399.798 100.456H372.566C372.549 100.456 372.534 100.45 372.522 100.439C372.511 100.427 372.504 100.412 372.504 100.395C372.504 100.379 372.511 100.364 372.522 100.352C372.534 100.341 372.549 100.334 372.566 100.334H399.798C399.814 100.334 399.83 100.341 399.841 100.352C399.853 100.364 399.859 100.379 399.859 100.395C399.859 100.412 399.853 100.427 399.841 100.439C399.83 100.45 399.814 100.456 399.798 100.456Z" fill="#CCCCCC"/>
<path d="M399.798 102.29H372.566C372.549 102.29 372.534 102.283 372.522 102.272C372.511 102.26 372.504 102.245 372.504 102.229C372.504 102.212 372.511 102.197 372.522 102.185C372.534 102.174 372.549 102.167 372.566 102.167H399.798C399.814 102.167 399.83 102.174 399.841 102.185C399.853 102.197 399.859 102.212 399.859 102.229C399.859 102.29 399.859 102.29 399.798 102.29Z" fill="#CCCCCC"/>
<path d="M399.798 104.184H372.566C372.549 104.184 372.534 104.178 372.522 104.166C372.511 104.155 372.504 104.139 372.504 104.123C372.504 104.107 372.511 104.091 372.522 104.08C372.534 104.068 372.549 104.062 372.566 104.062H399.798C399.814 104.062 399.83 104.068 399.841 104.08C399.853 104.091 399.859 104.107 399.859 104.123C399.859 104.139 399.853 104.155 399.841 104.166C399.83 104.178 399.814 104.184 399.798 104.184Z" fill="#CCCCCC"/>
<path d="M395.025 85.6079V95.7513H369.689C369.026 95.7714 368.366 95.6609 367.746 95.4261C367.125 95.1912 366.558 94.8368 366.075 94.3828C365.099 93.4661 364.528 92.1999 364.488 90.8629C364.447 89.5259 364.94 88.2276 365.858 87.2536C366.776 86.2795 368.044 85.7095 369.383 85.669H395.025V85.6079Z" fill="#F2F2F2"/>
<path d="M395.637 95.6291C395.639 95.6777 395.63 95.7262 395.612 95.7714C395.595 95.8167 395.568 95.8578 395.533 95.8922C395.499 95.9266 395.458 95.9535 395.412 95.9713C395.367 95.9892 395.318 95.9975 395.27 95.9958H369.261C367.849 95.9958 366.495 95.4357 365.496 94.4387C364.498 93.4418 363.937 92.0896 363.937 90.6797C363.937 89.2697 364.498 87.9175 365.496 86.9206C366.495 85.9236 367.849 85.3635 369.261 85.3635H395.27C395.367 85.3635 395.461 85.4022 395.529 85.4709C395.598 85.5397 395.637 85.6329 395.637 85.7302C395.637 85.8274 395.598 85.9206 395.529 85.9894C395.461 86.0582 395.367 86.0968 395.27 86.0968H369.261C368.06 86.0968 366.908 86.5732 366.059 87.4212C365.21 88.2692 364.733 89.4193 364.733 90.6186C364.733 91.8178 365.21 92.9679 366.059 93.8159C366.908 94.6639 368.06 95.1403 369.261 95.1403H395.27C395.453 95.2625 395.637 95.4458 395.637 95.6291Z" fill="#3F3D56"/>
<path d="M395.025 87.9911H367.792C367.776 87.9911 367.76 87.9847 367.749 87.9732C367.737 87.9617 367.731 87.9462 367.731 87.93C367.731 87.9138 367.737 87.8983 367.749 87.8868C367.76 87.8753 367.776 87.8689 367.792 87.8689H395.025C395.041 87.8689 395.057 87.8753 395.068 87.8868C395.079 87.8983 395.086 87.9138 395.086 87.93C395.086 87.9462 395.079 87.9617 395.068 87.9732C395.057 87.9847 395.041 87.9911 395.025 87.9911Z" fill="#CCCCCC"/>
<path d="M395.025 89.8241H367.792C367.776 89.8241 367.76 89.8177 367.749 89.8062C367.737 89.7948 367.731 89.7792 367.731 89.763C367.731 89.7468 367.737 89.7313 367.749 89.7198C367.76 89.7083 367.776 89.7019 367.792 89.7019H395.025C395.041 89.7019 395.057 89.7083 395.068 89.7198C395.079 89.7313 395.086 89.7468 395.086 89.763C395.086 89.7792 395.079 89.7948 395.068 89.8062C395.057 89.8177 395.041 89.8241 395.025 89.8241Z" fill="#CCCCCC"/>
<path d="M395.025 91.6573H367.792C367.776 91.6573 367.76 91.6509 367.749 91.6395C367.737 91.628 367.731 91.6125 367.731 91.5963C367.731 91.5801 367.737 91.5645 367.749 91.5531C367.76 91.5416 367.776 91.5352 367.792 91.5352H395.025C395.033 91.5352 395.041 91.5367 395.048 91.5398C395.056 91.5429 395.062 91.5474 395.068 91.5531C395.074 91.5587 395.078 91.5655 395.081 91.5729C395.084 91.5803 395.086 91.5882 395.086 91.5963C395.086 91.6574 395.086 91.6573 395.025 91.6573Z" fill="#CCCCCC"/>
<path d="M395.025 93.5516H367.792C367.776 93.5516 367.76 93.5452 367.749 93.5337C367.737 93.5223 367.731 93.5067 367.731 93.4905C367.731 93.4743 367.737 93.4588 367.749 93.4473C367.76 93.4359 367.776 93.4294 367.792 93.4294H395.025C395.041 93.4294 395.057 93.4359 395.068 93.4473C395.079 93.4588 395.086 93.4743 395.086 93.4905C395.086 93.5067 395.079 93.5223 395.068 93.5337C395.057 93.5452 395.041 93.5516 395.025 93.5516Z" fill="#CCCCCC"/>
<path d="M424.461 142.619V133.82C424.456 133.432 424.3 133.062 424.025 132.788C423.751 132.514 423.38 132.358 422.992 132.353H389.579C389.191 132.358 388.82 132.514 388.545 132.788C388.271 133.062 388.115 133.432 388.11 133.82V142.619H424.461Z" fill="#CCCCCC"/>
<path d="M424.461 145.918H388.11V157.284H424.461V145.918Z" fill="#CCCCCC"/>
<path d="M388.11 160.584V169.383C388.115 169.77 388.271 170.141 388.545 170.415C388.82 170.689 389.191 170.845 389.579 170.849H422.992C423.38 170.845 423.751 170.689 424.025 170.415C424.3 170.141 424.456 169.77 424.461 169.383V160.584H388.11Z" fill="#CCCCCC"/>
<path d="M406.102 138.952C406.71 138.952 407.203 138.46 407.203 137.853C407.203 137.245 406.71 136.753 406.102 136.753C405.493 136.753 405 137.245 405 137.853C405 138.46 405.493 138.952 406.102 138.952Z" fill="white"/>
<path d="M406.102 153.618C406.71 153.618 407.203 153.125 407.203 152.518C407.203 151.91 406.71 151.418 406.102 151.418C405.493 151.418 405 151.91 405 152.518C405 153.125 405.493 153.618 406.102 153.618Z" fill="white"/>
<path d="M406.163 167.977C406.771 167.977 407.264 167.485 407.264 166.877C407.264 166.27 406.771 165.778 406.163 165.778C405.554 165.778 405.061 166.27 405.061 166.877C405.061 167.485 405.554 167.977 406.163 167.977Z" fill="white"/>
<path d="M420.36 122.271V132.414H395.025C393.686 132.455 392.386 131.963 391.41 131.046C390.435 130.129 389.864 128.863 389.823 127.526C389.783 126.189 390.276 124.891 391.194 123.917C392.112 122.943 393.38 122.373 394.719 122.332H420.36V122.271Z" fill="#F2F2F2"/>
<path d="M420.972 132.292C420.974 132.341 420.966 132.389 420.948 132.435C420.93 132.48 420.903 132.521 420.869 132.555C420.834 132.59 420.793 132.617 420.748 132.634C420.702 132.652 420.654 132.661 420.605 132.659H394.597C393.185 132.659 391.83 132.099 390.832 131.102C389.833 130.105 389.272 128.753 389.272 127.343C389.272 125.933 389.833 124.581 390.832 123.584C391.83 122.587 393.185 122.027 394.597 122.027H420.605C420.703 122.027 420.796 122.065 420.865 122.134C420.934 122.203 420.972 122.296 420.972 122.393C420.972 122.49 420.934 122.584 420.865 122.652C420.796 122.721 420.703 122.76 420.605 122.76H394.597C393.396 122.76 392.244 123.236 391.394 124.084C390.545 124.932 390.068 126.082 390.068 127.282C390.068 128.481 390.545 129.631 391.394 130.479C392.244 131.327 393.396 131.803 394.597 131.803H420.605C420.789 131.926 420.972 132.109 420.972 132.292Z" fill="#3F3D56"/>
<path d="M420.36 124.654H393.128C393.111 124.654 393.096 124.648 393.084 124.636C393.073 124.625 393.066 124.609 393.066 124.593C393.066 124.577 393.073 124.561 393.084 124.55C393.096 124.538 393.111 124.532 393.128 124.532H420.36C420.376 124.532 420.392 124.538 420.403 124.55C420.415 124.561 420.421 124.577 420.421 124.593C420.421 124.609 420.415 124.625 420.403 124.636C420.392 124.648 420.376 124.654 420.36 124.654Z" fill="#CCCCCC"/>
<path d="M420.36 126.487H393.128C393.111 126.487 393.096 126.481 393.084 126.469C393.073 126.458 393.066 126.442 393.066 126.426C393.066 126.41 393.073 126.394 393.084 126.383C393.096 126.371 393.111 126.365 393.128 126.365H420.36C420.376 126.365 420.392 126.371 420.403 126.383C420.415 126.394 420.421 126.41 420.421 126.426C420.421 126.442 420.415 126.458 420.403 126.469C420.392 126.481 420.376 126.487 420.36 126.487Z" fill="#CCCCCC"/>
<path d="M420.36 128.32H393.128C393.111 128.32 393.096 128.314 393.084 128.302C393.073 128.291 393.066 128.275 393.066 128.259C393.066 128.243 393.073 128.227 393.084 128.216C393.096 128.204 393.111 128.198 393.128 128.198H420.36C420.368 128.198 420.376 128.2 420.384 128.203C420.391 128.206 420.398 128.21 420.403 128.216C420.409 128.222 420.414 128.228 420.417 128.236C420.42 128.243 420.421 128.251 420.421 128.259C420.421 128.32 420.421 128.32 420.36 128.32Z" fill="#CCCCCC"/>
<path d="M420.36 130.214H393.128C393.111 130.214 393.096 130.208 393.084 130.197C393.073 130.185 393.066 130.17 393.066 130.153C393.066 130.137 393.073 130.122 393.084 130.11C393.096 130.099 393.111 130.092 393.128 130.092H420.36C420.376 130.092 420.392 130.099 420.403 130.11C420.415 130.122 420.421 130.137 420.421 130.153C420.421 130.17 420.415 130.185 420.403 130.197C420.392 130.208 420.376 130.214 420.36 130.214Z" fill="#CCCCCC"/>
<path d="M390.619 82.2473H379.053C378.947 82.2314 378.838 82.253 378.747 82.3084L375.809 83.7749C375.692 83.8383 375.598 83.9383 375.543 84.0596C375.488 84.181 375.474 84.317 375.503 84.4471C375.573 84.5771 375.679 84.6834 375.809 84.7526L378.747 86.2191C378.841 86.2685 378.947 86.2897 379.053 86.2802H390.619C390.771 86.281 390.918 86.2251 391.031 86.1234C391.144 86.0217 391.216 85.8815 391.231 85.7303V82.7972C391.216 82.646 391.144 82.5059 391.031 82.4042C390.918 82.3025 390.771 82.2465 390.619 82.2473Z" fill="#3F3D56"/>
<path d="M391.231 82.7973V85.7303C391.216 85.8816 391.145 86.0217 391.031 86.1234C390.918 86.2251 390.771 86.281 390.619 86.2802H388.293V82.2473H390.619C390.771 82.2466 390.918 82.3025 391.031 82.4042C391.145 82.5059 391.216 82.646 391.231 82.7973Z" fill="#E58411"/>
<path d="M455.916 106.628L454.692 106.139L453.835 100.029H442.697L441.779 106.078L440.678 106.628C440.616 106.664 440.57 106.721 440.547 106.788C440.525 106.856 440.528 106.929 440.555 106.995C440.584 107.032 440.621 107.062 440.664 107.083C440.706 107.105 440.753 107.116 440.8 107.117H455.732C455.795 107.113 455.855 107.086 455.9 107.041C455.945 106.996 455.972 106.936 455.977 106.873C456.038 106.811 455.977 106.689 455.916 106.628Z" fill="#E6E6E6"/>
<path d="M475.682 100.884H421.034C420.889 100.885 420.745 100.857 420.611 100.802C420.477 100.747 420.355 100.666 420.253 100.564C420.151 100.462 420.069 100.34 420.014 100.206C419.959 100.072 419.931 99.9291 419.932 99.7844V92.0852H476.784V99.7844C476.785 99.9291 476.757 100.072 476.702 100.206C476.647 100.34 476.565 100.462 476.463 100.564C476.361 100.666 476.239 100.747 476.105 100.802C475.971 100.857 475.827 100.885 475.682 100.884Z" fill="#CCCCCC"/>
<path d="M476.784 95.6902H419.871V62.7546C419.872 62.4148 420.008 62.0894 420.249 61.8491C420.489 61.6088 420.815 61.473 421.156 61.4714H475.498C475.839 61.473 476.165 61.6088 476.405 61.8491C476.646 62.0894 476.782 62.4148 476.784 62.7546V95.6902Z" fill="#3F3D56"/>
<path d="M473.418 93.3073H423.298C423.169 93.309 423.04 93.2848 422.921 93.2362C422.801 93.1877 422.693 93.1157 422.602 93.0246C422.51 92.9335 422.438 92.8251 422.39 92.7057C422.341 92.5864 422.317 92.4585 422.318 92.3296V64.8935C422.317 64.7647 422.341 64.6368 422.39 64.5175C422.438 64.3981 422.51 64.2897 422.602 64.1985C422.693 64.1074 422.801 64.0355 422.921 63.9869C423.04 63.9384 423.169 63.9142 423.298 63.9158H473.418C473.547 63.9142 473.675 63.9384 473.794 63.9869C473.914 64.0355 474.022 64.1074 474.114 64.1985C474.205 64.2897 474.277 64.3981 474.326 64.5175C474.374 64.6368 474.399 64.7647 474.397 64.8935V92.3296C474.399 92.4585 474.374 92.5864 474.326 92.7057C474.277 92.8251 474.205 92.9335 474.114 93.0246C474.022 93.1157 473.914 93.1877 473.794 93.2362C473.675 93.2848 473.547 93.309 473.418 93.3073Z" fill="white"/>
<path d="M460.199 103.023C460.795 102.487 461.578 102.206 462.379 102.24C463.18 102.274 463.935 102.621 464.483 103.206C464.618 103.322 464.723 103.469 464.789 103.634L471.582 102.412L473.295 106.323L463.688 107.911C462.98 108.283 462.154 108.363 461.388 108.135C460.622 107.906 459.975 107.388 459.587 106.689C459.257 106.099 459.138 105.415 459.25 104.749C459.361 104.083 459.696 103.474 460.199 103.023Z" fill="#FFB6B6"/>
<path d="M466.503 108.034L473.602 107.972H474.52L488.901 107.789C488.901 107.789 492.818 104.062 496.183 100.212L495.694 96.7903C495.209 93.4123 493.539 90.3159 490.982 88.0522C486.086 91.2908 483.271 97.7068 483.271 97.7068L474.336 99.8455L473.418 100.029L467.849 101.373L466.503 108.034Z" fill="#FF5757"/>
<path d="M502.67 129.176H489.451C489.451 129.726 475.009 130.215 475.009 130.215C474.695 130.447 474.408 130.713 474.152 131.009C473.376 131.931 472.963 133.104 472.99 134.309V135.103C472.989 135.777 473.121 136.445 473.379 137.068C473.637 137.691 474.016 138.257 474.493 138.734C474.971 139.211 475.538 139.589 476.162 139.847C476.786 140.104 477.455 140.237 478.13 140.236H502.67C503.345 140.237 504.014 140.104 504.638 139.847C505.262 139.589 505.829 139.211 506.307 138.734C506.784 138.257 507.163 137.691 507.421 137.068C507.679 136.445 507.811 135.777 507.81 135.103V134.309C507.802 132.95 507.258 131.649 506.296 130.688C505.334 129.727 504.031 129.184 502.67 129.176Z" fill="#E4E4E4"/>
<path d="M493.062 140.052H487.738V170.727H493.062V140.052Z" fill="#E4E4E4"/>
<path d="M472.623 170.544C472.623 171.094 480.701 170.788 490.676 170.788C500.651 170.788 508.729 171.155 508.729 170.544C508.729 169.933 500.651 165.411 490.676 165.411C480.701 165.411 472.623 169.994 472.623 170.544Z" fill="#E4E4E4"/>
<path d="M469.012 167.061H465.034L463.137 151.785H469.012V167.061Z" fill="#FFB6B6"/>
<path d="M470.052 170.849H457.262V170.666C457.259 170.015 457.386 169.371 457.634 168.769C457.882 168.168 458.247 167.621 458.708 167.161C459.169 166.701 459.716 166.336 460.319 166.088C460.921 165.841 461.567 165.714 462.219 165.717H470.052V170.849Z" fill="#2F2E41"/>
<path d="M457.323 167.061H453.345L451.448 151.785H457.323V167.061Z" fill="#FFB6B6"/>
<path d="M458.302 170.849H445.512V170.666C445.51 170.015 445.636 169.371 445.885 168.769C446.133 168.168 446.498 167.621 446.959 167.161C447.419 166.701 447.967 166.336 448.569 166.088C449.172 165.841 449.818 165.714 450.469 165.717H458.302V170.849Z" fill="#2F2E41"/>
<path d="M492.817 79.192C496.636 79.192 499.733 76.1006 499.733 72.2872C499.733 68.4737 496.636 65.3823 492.817 65.3823C488.998 65.3823 485.902 68.4737 485.902 72.2872C485.902 76.1006 488.998 79.192 492.817 79.192Z" fill="#FFB6B6"/>
<path d="M503.955 119.399C503.955 119.399 506.281 131.62 497.468 133.148C488.656 134.675 475.988 135.775 475.988 135.775L470.297 162.356L462.647 161.684C462.647 161.684 463.688 129.726 466.197 127.22C468.706 124.715 484.556 117.199 484.556 117.199L503.955 119.399Z" fill="#2F2E41"/>
<path d="M486.759 114.327L482.903 118.177C482.903 118.177 455.12 122.638 454.019 129.054C452.428 138.708 450.469 159.789 450.469 159.789L458.853 159.178L462.158 135.286L475.499 132.231L490.737 123.982L486.759 114.327Z" fill="#2F2E41"/>
<path d="M499.426 68.1319C498.753 66.8487 497.897 64.2823 496.489 63.7934C495.737 63.5372 494.956 63.373 494.164 63.3046L491.838 64.2211L493.123 63.2435C492.877 63.2535 492.63 63.233 492.389 63.1824L490.798 63.7934L491.593 63.1824C490.125 63.1824 488.595 63.3046 487.493 64.2211C486.514 64.9544 485.535 67.8874 485.412 69.1095C485.227 70.2705 485.29 71.4574 485.596 72.5925L486.024 72.9592C486.154 72.6426 486.256 72.3155 486.33 71.9815C486.478 71.3446 486.756 70.7449 487.145 70.2194C487.535 69.6939 488.028 69.2537 488.595 68.9262C489.304 68.6082 490.09 68.5021 490.859 68.6207L494.531 68.7429C495.388 68.804 496.367 68.804 497.04 69.354C497.475 69.761 497.81 70.2629 498.019 70.8205C498.422 71.8753 498.749 72.9576 498.998 74.059C498.998 74.059 499.365 73.5702 499.549 73.9368C499.861 72.9876 500.046 72.0014 500.1 71.0038C500.088 70.0089 499.858 69.0287 499.426 68.1319Z" fill="#2F2E41"/>
<path d="M523.538 75.2811C522.743 75.3299 522 75.692 521.472 76.2879C520.944 76.8837 520.674 77.6645 520.723 78.4586C520.723 78.6419 520.784 78.8252 520.784 79.0086L515.215 83.1026L516.868 87.0744L524.64 81.2083C525.402 80.9643 526.036 80.4285 526.403 79.7183C526.77 79.0081 526.84 78.1815 526.598 77.4198C526.419 76.7625 526.014 76.1886 525.455 75.7979C524.896 75.4072 524.218 75.2244 523.538 75.2811Z" fill="#FFB6B6"/>
<path d="M522.681 83.6527L508.79 99.0511C508.79 99.0511 502.119 96.9125 496.979 94.6516L494.653 87.5634C494.126 85.9269 493.898 84.2089 493.98 82.4917C501.079 80.5974 509.402 87.6245 509.402 87.6245L519.805 79.4976L522.681 83.6527Z" fill="#FF5757"/>
<path d="M490.247 120.56C487.714 119.603 485.089 118.907 482.414 118.482H482.292L482.353 118.36C485.229 108.339 484.495 101.923 483.087 92.2683C482.784 90.1947 483.163 88.0788 484.167 86.2387C485.171 84.3985 486.746 82.9335 488.656 82.0638L496.55 81.575L502.303 83.2859C503.135 83.5225 503.863 84.0298 504.373 84.7272C504.884 85.4247 505.145 86.2723 505.118 87.1355C505.057 90.313 505.179 93.857 505.301 97.5844C505.607 106.017 505.913 114.694 504.078 120.315C502.385 121.689 500.262 122.425 498.08 122.393C495.571 122.393 492.94 121.476 490.247 120.56Z" fill="#FF5757"/>
<path d="M105.075 159.117C107.895 163.432 109.068 168.615 108.379 173.721C108.26 174.833 107.928 175.912 107.4 176.899C106.833 177.893 106.009 178.716 105.014 179.282C104.024 179.778 103.099 180.393 102.26 181.115C101.894 181.492 101.617 181.945 101.447 182.441C101.278 182.938 101.221 183.466 101.281 183.987C101.541 185.272 102.084 186.482 102.872 187.531C103.667 188.753 104.524 190.036 104.585 191.442C104.585 191.625 104.891 191.564 104.891 191.442C104.708 188.936 102.443 187.103 101.77 184.72C101.584 184.177 101.536 183.597 101.633 183.031C101.729 182.465 101.965 181.933 102.321 181.482C103.137 180.714 104.066 180.075 105.075 179.587C106.069 179.053 106.911 178.275 107.523 177.326C108.069 176.36 108.442 175.305 108.624 174.21C109.043 171.78 109.001 169.293 108.502 166.878C107.973 164.066 106.892 161.387 105.32 158.995C105.197 158.751 104.952 158.934 105.075 159.117Z" fill="white"/>
<path d="M105.503 178.976C104.085 177.82 103.183 176.15 102.994 174.332C102.994 174.149 102.688 174.21 102.688 174.332C102.87 176.218 103.795 177.954 105.258 179.16C105.442 179.343 105.687 179.098 105.503 178.976Z" fill="white"/>
<path d="M107.584 164.25C107.208 164.327 106.82 164.318 106.449 164.223C106.078 164.127 105.733 163.949 105.442 163.7C105.32 163.578 105.075 163.761 105.258 163.883C105.592 164.145 105.977 164.334 106.387 164.439C106.798 164.544 107.227 164.563 107.645 164.494C107.677 164.492 107.706 164.478 107.729 164.455C107.751 164.433 107.765 164.404 107.767 164.372C107.767 164.311 107.645 164.25 107.584 164.25Z" fill="white"/>
<path d="M87.3891 113.838C88.6743 111.822 90.8773 110.233 93.264 110.111C95.6507 109.989 98.5269 112.005 99.6897 114.083C101.832 117.932 100.914 121.599 97.915 124.226C97.4866 124.104 96.0791 123.676 95.7119 123.554L95.4671 123.065L95.1611 123.371C91.4893 123.737 87.9399 123.31 85.186 120.621C85.3573 118.215 86.1135 115.887 87.3891 113.838Z" fill="#2F2E41"/>
<path d="M97.2414 140.725L96.7519 144.758L97.0579 150.013L85.3081 148.607L84.2065 140.725H85.6141H97.2414Z" fill="#FFB6B6"/>
<path d="M97.1855 119.267C97.6133 116.636 95.8236 114.156 93.188 113.729C90.5525 113.302 88.0691 115.089 87.6413 117.72C87.2135 120.352 89.0032 122.832 91.6388 123.259C94.2743 123.686 96.7577 121.899 97.1855 119.267Z" fill="#FFB7B7"/>
<path d="M87.0217 127.526L89.7756 125.876L95.3445 125.326L100.24 127.831L100.179 135.47L97.058 143.413L83.9619 141.763L83.4723 138.953C83.4723 138.953 79.8617 134.125 83.7783 131.314L87.0217 127.526Z" fill="#FF5757"/>
<path d="M90.571 111.089C92.129 110.656 93.7953 110.856 95.2058 111.646C96.6162 112.436 97.6561 113.752 98.0982 115.305C98.4149 116.427 98.3936 117.617 98.037 118.727C95.0996 118.971 92.1622 118.666 89.8367 116.588L89.6531 114.816L88.7963 116.344L86.2261 115.61C86.528 114.561 87.0815 113.601 87.8385 112.813C88.5956 112.025 89.5335 111.433 90.571 111.089Z" fill="#2F2E41"/>
<path d="M70.3149 104.795C70.1952 105.047 70.1272 105.321 70.1148 105.6C70.1025 105.878 70.146 106.157 70.2429 106.419C70.3399 106.681 70.4882 106.921 70.6792 107.124C70.8702 107.328 71.1001 107.492 71.3553 107.606C71.4669 107.674 71.5924 107.715 71.7224 107.728L80.7796 124.776L84.4514 121.965L74.4151 106.078C74.5207 105.528 74.4071 104.958 74.0985 104.49C73.7899 104.023 73.3107 103.693 72.7628 103.573C72.2785 103.501 71.7839 103.58 71.346 103.799C70.9081 104.017 70.5482 104.365 70.3149 104.795Z" fill="#FFB6B6"/>
<path d="M85.1857 130.581C85.1857 130.581 84.3289 131.315 83.1662 129.298C82.187 127.648 77.4749 120.316 76.8017 117.749C76.4307 117.752 76.0688 117.635 75.7707 117.414C75.4725 117.194 75.2545 116.882 75.1494 116.527L80.2899 114.572C81.3915 115.122 81.0855 115.916 80.8407 116.283L82.7378 119.155L89.1023 126.243L85.92 130.092L85.1857 130.581Z" fill="#FF5757"/>
<path d="M135.612 64.9545C132.919 62.2659 129.248 60.7994 125.637 59.8828C121.484 58.8622 117.275 58.0869 113.031 57.5608C108.624 56.9498 104.218 56.4609 99.812 56.0943C95.4059 55.7277 90.9385 55.5444 86.5324 55.4833C82.5712 55.3602 78.6062 55.4827 74.6602 55.8499C70.9231 56.176 67.275 57.1695 63.8896 58.7829C60.915 60.2697 58.4143 62.555 56.6683 65.3823C55.0772 68.0098 54.0981 71.1872 54.4653 74.2425C54.6257 75.7709 55.1052 77.2488 55.8728 78.5809C56.7745 80.0406 57.9118 81.3414 59.2386 82.4305C61.9925 84.7525 65.2971 86.4634 67.6838 89.2132C68.3035 89.9576 68.8564 90.7551 69.3361 91.5963C69.6628 92.218 70.1224 92.7603 70.6824 93.185C71.2512 93.5076 71.9023 93.6564 72.555 93.613C73.2077 93.5695 73.8333 93.3357 74.3542 92.9406C75.0627 92.2933 75.6803 91.5534 76.1901 90.7408L78.2096 88.1744C78.3381 87.9453 78.5035 87.7389 78.6992 87.5633C78.8216 87.4411 78.638 87.5633 78.638 87.5022H78.7604C78.8961 87.4476 79.0431 87.4266 79.1888 87.4411L83.5949 86.7079C88.9802 85.8524 94.4267 85.1191 99.8732 84.7525C102.681 84.5083 105.502 84.447 108.318 84.5692C111.99 84.6914 115.54 85.4247 119.211 85.7302C123.128 86.0968 127.228 86.0357 130.9 84.5081C133.837 83.286 136.591 81.2695 138.182 78.4587C138.94 77.1307 139.379 75.6459 139.468 74.1203C139.712 70.6373 137.999 67.3376 135.612 64.9545Z" fill="#E6E6E6"/>
<path d="M84.3291 58.3552H82.2484C75.578 58.4163 68.6628 58.9663 63.461 62.3882C58.8101 65.4434 55.5667 72.2261 58.3205 77.1144C59.6056 79.3753 61.8699 80.9641 64.3178 82.7361C65.2969 83.4083 66.2761 84.1415 67.194 84.8748C69.3722 86.5722 71.1308 88.7464 72.3346 91.2297L77.2303 84.9359L78.1482 84.7526C79.0662 84.5692 100.118 80.5974 111.317 81.8806L114.377 82.2473C118.905 82.8583 123.25 83.4082 127.35 82.5528C131.695 81.6973 136.408 78.3366 136.714 73.8759C136.897 70.8206 134.939 67.4599 131.634 65.3823C128.33 63.3047 124.229 62.3271 120.313 61.5938C108.438 59.4502 96.3962 58.3664 84.3291 58.3552Z" fill="white"/>
<path d="M122.393 68.071H75.0272C74.7512 68.071 74.4866 67.9615 74.2915 67.7667C74.0964 67.5719 73.9868 67.3077 73.9868 67.0322C73.9868 66.7567 74.0964 66.4925 74.2915 66.2977C74.4866 66.1029 74.7512 65.9934 75.0272 65.9934H122.393C122.667 66.0011 122.927 66.113 123.121 66.3062C123.314 66.4994 123.426 66.7591 123.434 67.0322C123.415 67.3016 123.3 67.5552 123.108 67.7461C122.917 67.937 122.663 68.0524 122.393 68.071Z" fill="#FF5757"/>
<path d="M122.393 74.3647H75.0272C74.7512 74.3647 74.4866 74.2552 74.2915 74.0604C74.0964 73.8656 73.9868 73.6014 73.9868 73.3259C73.9868 73.0504 74.0964 72.7862 74.2915 72.5914C74.4866 72.3966 74.7512 72.2871 75.0272 72.2871H122.393C122.667 72.2948 122.927 72.4067 123.121 72.5999C123.314 72.7931 123.426 73.0528 123.434 73.3259C123.415 73.5953 123.3 73.8488 123.108 74.0398C122.917 74.2307 122.663 74.3461 122.393 74.3647Z" fill="#FF5757"/>
<path d="M80.5349 80.6584H75.0272C74.7512 80.6584 74.4866 80.5489 74.2915 80.3541C74.0964 80.1593 73.9868 79.8951 73.9868 79.6196C73.9868 79.3441 74.0964 79.0799 74.2915 78.8851C74.4866 78.6903 74.7512 78.5808 75.0272 78.5808H80.5349C80.8083 78.5885 81.0685 78.7004 81.262 78.8936C81.4554 79.0868 81.5675 79.3465 81.5752 79.6196C81.576 79.7562 81.5497 79.8917 81.4977 80.0181C81.4457 80.1445 81.3691 80.2593 81.2723 80.3559C81.1755 80.4526 81.0605 80.5291 80.9339 80.581C80.8074 80.6329 80.6717 80.6592 80.5349 80.6584Z" fill="#FF5757"/>
<path d="M71.9672 105.406C74.4007 105.406 76.3734 103.436 76.3734 101.006C76.3734 98.5767 74.4007 96.6069 71.9672 96.6069C69.5337 96.6069 67.561 98.5767 67.561 101.006C67.561 103.436 69.5337 105.406 71.9672 105.406Z" fill="#E6E6E6"/>
<path d="M103.3 213.745H100.73L99.5059 203.907H103.3V213.745Z" fill="#FFB6B6"/>
<path d="M104.646 218.206H102.81L102.504 216.495L101.648 218.206H96.7519C96.6071 218.206 96.4635 218.179 96.3294 218.124C96.1954 218.069 96.0737 217.988 95.9712 217.885C95.8688 217.783 95.7877 217.661 95.7326 217.528C95.6775 217.394 95.6496 217.25 95.6504 217.106C95.6551 216.925 95.7018 216.749 95.7868 216.59C95.8718 216.431 95.9927 216.293 96.14 216.189L100.057 213.501V211.729L104.157 211.973L104.646 218.206Z" fill="#2F2E41"/>
<path d="M88.9187 213.745H86.3484L85.1245 203.907H88.9187V213.745Z" fill="#FFB6B6"/>
<path d="M90.265 218.206H88.4291L88.1231 216.495L87.2663 218.206H82.3706C82.2257 218.206 82.0821 218.179 81.9481 218.124C81.8141 218.069 81.6923 217.988 81.5899 217.885C81.4874 217.783 81.4063 217.661 81.3513 217.528C81.2962 217.394 81.2682 217.25 81.2691 217.106C81.2738 216.925 81.3205 216.749 81.4055 216.59C81.4904 216.431 81.6114 216.293 81.7586 216.189L85.6752 213.501V211.729L89.7754 211.973L90.265 218.206Z" fill="#2F2E41"/>
<path d="M104.401 205.252L103.912 189.242C104.234 188.627 104.396 187.942 104.386 187.248C104.375 186.555 104.191 185.875 103.851 185.27L103.789 185.148L103.973 184.293C104.21 183.207 104.103 182.076 103.667 181.054L103.178 166.083C104.83 155.451 96.9967 148.546 96.9967 148.546H85.2469L82.7378 157.162C81.0855 173.355 81.3915 189.059 84.0229 204.335L83.9617 204.396C83.717 204.457 83.5946 204.824 83.717 205.19C83.7467 205.342 83.8327 205.476 83.9575 205.567C84.0823 205.657 84.2369 205.698 84.3901 205.679L90.571 205.435C90.8158 205.374 90.9382 205.007 90.8158 204.64C90.786 204.489 90.7001 204.355 90.5752 204.264C90.4504 204.174 90.2959 204.133 90.1426 204.152L89.7142 204.335L90.6322 188.875L90.5098 186.065L90.6934 182.887L91.6113 168.466L95.2219 186.187L98.8937 205.374C98.8245 205.433 98.7678 205.506 98.7271 205.588C98.6864 205.67 98.6626 205.759 98.6569 205.85C98.6511 205.941 98.6637 206.032 98.6939 206.118C98.7241 206.204 98.7712 206.284 98.8326 206.351C98.9592 206.491 99.134 206.579 99.3221 206.596H104.34C104.518 206.594 104.689 206.523 104.814 206.397C104.94 206.271 105.012 206.101 105.013 205.924C105.022 205.838 105.013 205.752 104.986 205.671C104.959 205.59 104.915 205.515 104.857 205.452C104.8 205.388 104.729 205.338 104.651 205.303C104.572 205.269 104.487 205.251 104.401 205.252Z" fill="#2F2E41"/>
<path d="M98.9553 160.461C99.4306 160.159 99.7675 159.681 99.8935 159.133C100.019 158.584 99.9242 158.008 99.6285 157.528C99.5663 157.412 99.4833 157.309 99.3837 157.223L101.158 137.975L96.5687 138.341L96.2627 157.101C95.8801 157.506 95.667 158.041 95.667 158.598C95.667 159.154 95.8801 159.69 96.2627 160.095C96.5922 160.469 97.0459 160.712 97.5405 160.78C98.0351 160.847 98.5374 160.734 98.9553 160.461Z" fill="#FFB6B6"/>
<path d="M100.118 127.831C100.118 127.831 101.22 127.648 101.097 130.031C100.975 131.925 101.464 143.596 100.669 146.102C100.981 146.295 101.221 146.584 101.354 146.926C101.486 147.268 101.504 147.643 101.403 147.996L96.0179 146.835C95.4059 145.735 95.5283 144.635 95.9567 144.452V141.03L94.7939 129.726L99.3837 127.831H100.118Z" fill="#FF5757"/>
</g>
<defs>
<clipPath id="clip0_407_772">
<rect width="540" height="219" fill="white"/>
</clipPath>
</defs>
</svg>
