<svg width="634" height="498" viewBox="0 0 634 498" fill="none" xmlns="http://www.w3.org/2000/svg">
<g clip-path="url(#clip0_407_645)">
<path d="M59.5425 145.734H486.687C487.776 145.734 488.684 146.188 488.684 146.823V279.581C488.684 280.125 487.776 280.669 486.687 280.669H59.5425V145.734Z" fill="#E6E6E6"/>
<path d="M100.841 59.1647H429.505C434.678 59.1647 438.763 61.4333 438.763 64.1556C438.763 66.8779 434.587 69.1465 429.505 69.1465H100.841C95.6674 69.1465 91.583 66.8779 91.583 64.1556C91.4922 61.3425 95.6674 59.1647 100.841 59.1647Z" fill="#E6E6E6"/>
<path d="M65.1697 83.2118H482.148C487.322 83.2118 491.406 85.4804 491.406 88.2027C491.406 90.925 487.231 93.1936 482.148 93.1936H65.1697C59.9961 93.1936 55.9116 90.925 55.9116 88.2027C55.9116 85.3896 60.0869 83.2118 65.1697 83.2118Z" fill="#E6E6E6"/>
<path d="M61.2669 110.344H478.246C483.419 110.344 487.504 112.613 487.504 115.335C487.504 118.057 483.328 120.326 478.246 120.326H61.2669C56.0933 120.326 52.0088 118.057 52.0088 115.335C52.0088 112.522 56.184 110.344 61.2669 110.344Z" fill="#FF5757"/>
<path d="M73.8833 460.886H84.3214L89.3135 420.596H73.8833V460.886Z" fill="#FFB6B6"/>
<path d="M87.7706 461.793V454.715L85.0476 454.897L73.8834 455.532L71.2512 455.713L69.2543 479.398L69.1636 480.668H76.6064L76.8787 479.398L77.9679 473.681L80.7816 479.398L81.417 480.668H101.022C102.201 480.666 103.331 480.196 104.165 479.363C104.998 478.53 105.468 477.4 105.47 476.222C106.196 472.41 89.8582 464.062 87.7706 461.793Z" fill="#2F2E41"/>
<path d="M599.509 306.804C599.019 305.131 599.212 303.332 600.045 301.802C600.879 300.271 602.285 299.133 603.956 298.637C604.319 298.546 604.683 298.455 605.136 298.364L610.31 275.497L618.751 284.299L612.488 304.716C612.535 305.589 612.406 306.462 612.11 307.284C611.814 308.106 611.357 308.86 610.765 309.503C610.173 310.145 609.458 310.663 608.663 311.025C607.868 311.388 607.008 311.588 606.135 311.613C604.655 311.652 603.203 311.202 602.005 310.332C600.807 309.463 599.93 308.222 599.509 306.804Z" fill="#A0616A"/>
<path d="M611.944 165.788L612.398 167.785L634 233.937L619.478 292.92L607.587 287.384L610.401 235.116C588.98 206.532 582.717 196.278 584.624 166.514L611.944 165.788Z" fill="#FF5757"/>
<path d="M593.518 475.677H582.899L577.816 434.57H593.518V475.677Z" fill="#A0616A"/>
<path d="M593.881 486.748H561.115V486.294C561.115 482.925 562.454 479.693 564.837 477.311C567.22 474.929 570.452 473.59 573.822 473.59L579.813 469.053L590.977 473.59H593.79L593.881 486.748Z" fill="#2F2E41"/>
<path d="M534.974 475.677H524.355L519.272 434.57H534.974V475.677Z" fill="#A0616A"/>
<path d="M535.337 486.748H502.571V486.294C502.571 482.925 503.91 479.693 506.293 477.311C508.676 474.929 511.908 473.59 515.278 473.59L521.269 469.053L532.433 473.59H535.247L535.337 486.748Z" fill="#2F2E41"/>
<path d="M606.407 287.294C606.407 287.294 610.583 297.276 606.407 313.519C602.232 329.762 601.143 370.687 601.143 370.687L594.426 462.701H576.636L576.001 396.458L567.106 325.043L549.225 392.828C549.225 392.828 542.417 443.191 539.785 445.278C537.153 447.365 535.973 462.066 535.973 462.066C530.618 462.882 522.358 460.795 517.547 458.254C519.544 457.347 527.985 289.835 528.258 287.384C529.256 277.584 606.407 287.294 606.407 287.294Z" fill="#2F2E41"/>
<path d="M426.781 213.61C428.256 214.552 430.04 214.881 431.753 214.525C433.467 214.168 434.972 213.156 435.949 211.704C436.13 211.341 436.312 211.069 436.493 210.706L459.911 212.43L454.011 201.813H432.681C431.008 201.231 429.172 201.334 427.574 202.099C425.976 202.864 424.745 204.229 424.149 205.897C423.614 207.287 423.584 208.821 424.065 210.231C424.546 211.641 425.508 212.837 426.781 213.61Z" fill="#A0616A"/>
<path d="M538.787 182.394L543.869 188.383L506.655 214.064L445.842 214.245L448.384 201.269L499.848 191.378C531.979 162.249 548.226 150.18 557.031 155.262L538.787 182.394Z" fill="#FF5757"/>
<path d="M537.243 165.335C538.158 162.033 540.183 159.148 542.977 157.164C545.771 155.181 549.164 154.221 552.583 154.445H552.764C557.303 154.808 563.112 143.828 569.102 144.282C573.368 144.645 577.634 144.917 581.719 145.28C585.349 145.553 588.708 157.258 591.703 157.531C597.24 157.984 598.601 158.347 598.964 158.529C600.507 159.073 606.589 159.436 610.401 163.883C612.125 165.879 618.933 184.754 614.667 204.717C610.401 224.681 605.681 250.452 605.681 250.452C605.681 250.452 609.856 262.975 607.769 268.147C605.681 273.319 609.856 277.04 609.856 279.127C609.856 281.214 608.767 291.74 608.767 291.74C608.767 291.74 533.976 299.635 527.441 291.74C527.259 291.468 536.154 248.002 532.433 212.975C530.436 193.828 534.248 175.861 537.243 165.335Z" fill="#FF5757"/>
<path d="M575.093 142.013C587.024 142.013 596.695 132.344 596.695 120.417C596.695 108.489 587.024 98.8196 575.093 98.8196C563.162 98.8196 553.491 108.489 553.491 120.417C553.491 132.344 563.162 142.013 575.093 142.013Z" fill="#A0616A"/>
<path d="M560.298 95.4622C561.841 95.3714 561.297 92.4676 562.567 91.5602V91.6509C562.667 92.0394 562.842 92.4044 563.083 92.7247C563.325 93.0449 563.627 93.3142 563.973 93.5167C564.319 93.7193 564.702 93.8512 565.1 93.9047C565.497 93.9583 565.901 93.9325 566.289 93.8288C566.762 93.697 567.197 93.4559 567.56 93.1249C567.923 92.7939 568.202 92.3822 568.376 91.9232C568.585 91.2175 568.957 90.5707 569.461 90.0348C569.966 89.4989 570.589 89.089 571.281 88.8379C571.372 91.5602 573.368 93.9195 575.819 95.0992C578.317 96.1353 581.015 96.6003 583.716 96.4603C586.425 96.3068 589.142 96.5205 591.794 97.0955C594.426 97.7308 596.968 99.2734 598.057 101.814C599.146 104.355 598.42 107.622 595.969 108.801C596.923 108.874 597.832 109.234 598.577 109.833C599.322 110.433 599.869 111.243 600.144 112.159C600.659 113.987 600.813 115.898 600.598 117.785C600.054 124.772 598.783 132.304 593.7 137.113C589.797 140.743 584.26 142.286 578.905 142.286C573.55 142.286 574.548 141.741 569.375 140.38C569.375 140.38 564.473 126.315 565.744 124.954C567.015 123.593 568.013 121.778 567.741 119.963C567.469 118.148 565.563 116.515 563.838 117.15C564.11 116.424 564.383 116.242 564.473 116.333C564.383 116.152 564.292 115.879 564.201 115.698C563.893 114.588 563.318 113.57 562.527 112.732C561.737 111.894 560.753 111.261 559.663 110.889C558.564 110.525 557.378 110.513 556.272 110.854C555.165 111.196 554.193 111.874 553.491 112.794C547.773 107.259 551.312 95.7344 560.298 95.4622Z" fill="#2F2E41"/>
<path d="M472.981 434.298H406.541C406.162 428.98 406.193 423.641 406.631 418.327C408.066 401.866 413.053 385.911 421.248 371.562C429.443 357.212 440.652 344.809 454.102 335.206C450.653 347.457 452.468 359.707 456.008 371.957C455.505 372.084 455.018 372.266 454.556 372.502C450.926 373.835 447.595 375.87 444.753 378.491C443.936 379.217 443.119 380.306 443.573 381.304C443.936 382.121 445.025 382.484 445.933 382.665C448.202 383.119 450.471 383.482 452.65 383.936C454.465 384.299 456.28 384.661 458.005 385.024C458.822 385.206 459.639 385.297 460.546 385.478L460.819 386.295C464.994 397.91 469.623 409.616 471.801 421.503C472.343 424.473 472.707 427.473 472.891 430.487C472.891 431.757 472.981 433.028 472.981 434.298Z" fill="#F2F2F2"/>
<path d="M169.823 390.741C158.568 397.638 151.307 408.255 145.498 420.142C140.393 421.324 135.674 423.792 131.792 427.311C130.975 428.037 130.158 429.126 130.612 430.124C130.975 430.941 132.064 431.304 132.972 431.485C135.241 431.939 137.51 432.302 139.689 432.755C139.507 433.3 139.235 433.754 139.053 434.298H64.4438C67.8265 429.722 71.5917 425.442 75.6988 421.503C76.6065 420.596 77.5141 419.779 78.4218 418.962C87.9351 410.346 98.867 403.438 110.734 398.545C129.371 390.679 149.783 387.984 169.823 390.741Z" fill="#F2F2F2"/>
<path d="M0 431.939C5.5996 438.535 11.6339 444.75 18.0624 450.541H536.699C543.15 444.773 549.186 438.557 554.761 431.939H0Z" fill="#3F3D56"/>
<path d="M255.052 369.689V435.659H301.252V369.689C301.257 369.22 301.11 368.763 300.831 368.386C300.552 368.01 300.159 367.734 299.709 367.602C299.506 367.527 299.29 367.496 299.074 367.511H257.321C256.732 367.501 256.163 367.725 255.738 368.133C255.313 368.541 255.067 369.1 255.052 369.689ZM273.115 392.375C273.129 391.064 273.662 389.812 274.598 388.894C275.534 387.975 276.796 387.465 278.107 387.475C278.751 387.472 279.39 387.597 279.985 387.843C280.581 388.088 281.122 388.449 281.578 388.904C282.034 389.36 282.394 389.901 282.64 390.497C282.885 391.092 283.011 391.731 283.008 392.375V399.997C282.994 401.308 282.46 402.56 281.525 403.478C280.589 404.397 279.327 404.907 278.016 404.897C277.372 404.9 276.733 404.775 276.138 404.529C275.542 404.284 275 403.923 274.545 403.467C274.089 403.012 273.728 402.471 273.483 401.875C273.237 401.28 273.112 400.641 273.115 399.997V392.375Z" fill="#2F2E41"/>
<path d="M254.961 433.572V439.924C254.958 440.092 254.988 440.259 255.05 440.415C255.113 440.57 255.206 440.712 255.325 440.831C255.444 440.949 255.585 441.043 255.741 441.105C255.897 441.168 256.064 441.198 256.232 441.195H300.253C300.421 441.198 300.588 441.168 300.744 441.105C300.9 441.043 301.042 440.949 301.16 440.831C301.279 440.712 301.372 440.57 301.435 440.415C301.498 440.259 301.528 440.092 301.524 439.924V433.572H254.961Z" fill="#3F3D56"/>
<path d="M182.44 270.415V390.832C182.449 392.369 183.064 393.841 184.152 394.928C185.239 396.015 186.711 396.63 188.249 396.64H366.694C368.232 396.63 369.704 396.015 370.791 394.928C371.879 393.841 372.494 392.369 372.503 390.832V270.415C372.494 268.878 371.879 267.407 370.791 266.319C369.704 265.232 368.232 264.617 366.694 264.608H188.158C186.63 264.622 185.17 265.242 184.098 266.33C183.026 267.419 182.43 268.888 182.44 270.415Z" fill="#3F3D56"/>
<path d="M186.615 271.867V389.289C186.611 389.696 186.689 390.098 186.842 390.474C186.996 390.85 187.223 391.192 187.511 391.479C187.798 391.766 188.14 391.993 188.516 392.147C188.892 392.301 189.295 392.378 189.701 392.375H365.151C365.558 392.378 365.961 392.301 366.337 392.147C366.713 391.993 367.054 391.766 367.342 391.479C367.629 391.192 367.856 390.85 368.01 390.474C368.164 390.098 368.241 389.696 368.238 389.289V271.867C368.241 271.461 368.164 271.058 368.01 270.682C367.856 270.306 367.629 269.965 367.342 269.678C367.054 269.39 366.713 269.163 366.337 269.01C365.961 268.856 365.558 268.778 365.151 268.782H189.701C188.885 268.792 188.106 269.12 187.529 269.696C186.952 270.273 186.624 271.052 186.615 271.867Z" fill="#2F2E41"/>
<path d="M222.376 442.646C222.55 442.867 222.77 443.047 223.021 443.173C223.272 443.298 223.548 443.366 223.829 443.372H328.209C328.714 443.37 329.198 443.168 329.555 442.812C329.912 442.455 330.113 441.971 330.116 441.467V441.104L328.482 433.391C328.421 433.081 328.28 432.792 328.073 432.553C327.866 432.315 327.6 432.134 327.302 432.029C327.068 431.95 326.821 431.919 326.576 431.939H225.462C225.217 431.924 224.971 431.955 224.736 432.029C224.438 432.134 224.172 432.315 223.965 432.553C223.759 432.792 223.618 433.081 223.556 433.391L221.923 441.104C221.885 441.378 221.906 441.658 221.984 441.924C222.062 442.19 222.196 442.436 222.376 442.646Z" fill="#2F2E41"/>
<path d="M325.577 435.115H322.945C322.874 435.111 322.808 435.08 322.757 435.03C322.707 434.98 322.677 434.913 322.673 434.843V433.572C322.677 433.501 322.707 433.435 322.757 433.384C322.808 433.334 322.874 433.304 322.945 433.3H325.577C325.648 433.304 325.715 433.334 325.765 433.384C325.815 433.435 325.845 433.501 325.85 433.572V434.843C325.854 434.879 325.85 434.917 325.838 434.952C325.826 434.987 325.806 435.019 325.78 435.045C325.753 435.071 325.722 435.091 325.687 435.103C325.652 435.115 325.614 435.119 325.577 435.115Z" fill="#3F3D56"/>
<path d="M319.133 435.115H316.501C316.43 435.111 316.363 435.08 316.313 435.03C316.263 434.98 316.233 434.913 316.229 434.843V433.572C316.233 433.501 316.263 433.435 316.313 433.384C316.363 433.334 316.43 433.304 316.501 433.3H319.133C319.204 433.304 319.271 433.334 319.321 433.384C319.371 433.435 319.401 433.501 319.405 433.572V434.843C319.41 434.879 319.406 434.917 319.394 434.952C319.381 434.987 319.361 435.019 319.335 435.045C319.309 435.071 319.277 435.091 319.242 435.103C319.207 435.115 319.17 435.119 319.133 435.115Z" fill="#3F3D56"/>
<path d="M312.689 435.115H310.056C309.986 435.111 309.919 435.08 309.869 435.03C309.819 434.98 309.788 434.913 309.784 434.843V433.572C309.788 433.501 309.819 433.435 309.869 433.384C309.919 433.334 309.986 433.304 310.056 433.3H312.689C312.76 433.304 312.826 433.334 312.876 433.384C312.927 433.435 312.957 433.501 312.961 433.572V434.843C313.052 435.024 312.87 435.115 312.689 435.115Z" fill="#3F3D56"/>
<path d="M306.244 435.115H303.612C303.541 435.111 303.475 435.08 303.424 435.03C303.374 434.98 303.344 434.913 303.34 434.843V433.572C303.344 433.501 303.374 433.435 303.424 433.384C303.475 433.334 303.541 433.304 303.612 433.3H306.244C306.315 433.304 306.382 433.334 306.432 433.384C306.482 433.435 306.512 433.501 306.517 433.572V434.843C306.607 435.024 306.426 435.115 306.244 435.115Z" fill="#3F3D56"/>
<path d="M299.8 435.115H297.168C297.097 435.111 297.03 435.08 296.98 435.03C296.93 434.98 296.9 434.913 296.896 434.843V433.572C296.9 433.501 296.93 433.435 296.98 433.384C297.03 433.334 297.097 433.304 297.168 433.3H299.8C299.871 433.304 299.938 433.334 299.988 433.384C300.038 433.435 300.068 433.501 300.072 433.572V434.843C300.163 435.024 299.982 435.115 299.8 435.115Z" fill="#3F3D56"/>
<path d="M293.446 435.115H290.814C290.743 435.111 290.676 435.08 290.626 435.03C290.576 434.98 290.546 434.913 290.542 434.843V433.572C290.546 433.501 290.576 433.435 290.626 433.384C290.676 433.334 290.743 433.304 290.814 433.3H293.446C293.517 433.304 293.584 433.334 293.634 433.384C293.684 433.435 293.714 433.501 293.718 433.572V434.843C293.714 434.913 293.684 434.98 293.634 435.03C293.584 435.08 293.517 435.111 293.446 435.115Z" fill="#3F3D56"/>
<path d="M287.002 435.115H284.369C284.299 435.111 284.232 435.08 284.182 435.03C284.132 434.98 284.101 434.913 284.097 434.843V433.572C284.101 433.501 284.132 433.435 284.182 433.384C284.232 433.334 284.299 433.304 284.369 433.3H287.002C287.072 433.304 287.139 433.334 287.189 433.384C287.24 433.435 287.27 433.501 287.274 433.572V434.843C287.278 434.879 287.274 434.917 287.262 434.952C287.25 434.987 287.23 435.019 287.204 435.045C287.178 435.071 287.146 435.091 287.111 435.103C287.076 435.115 287.038 435.119 287.002 435.115Z" fill="#3F3D56"/>
<path d="M280.557 435.115H277.925C277.854 435.111 277.788 435.08 277.737 435.03C277.687 434.98 277.657 434.913 277.653 434.843V433.572C277.657 433.501 277.687 433.435 277.737 433.384C277.788 433.334 277.854 433.304 277.925 433.3H280.557C280.628 433.304 280.695 433.334 280.745 433.384C280.795 433.435 280.825 433.501 280.83 433.572V434.843C280.834 434.879 280.83 434.917 280.818 434.952C280.806 434.987 280.786 435.019 280.76 435.045C280.733 435.071 280.702 435.091 280.667 435.103C280.631 435.115 280.594 435.119 280.557 435.115Z" fill="#3F3D56"/>
<path d="M274.113 435.115H271.481C271.41 435.111 271.343 435.08 271.293 435.03C271.243 434.98 271.213 434.913 271.208 434.843V433.572C271.213 433.501 271.243 433.435 271.293 433.384C271.343 433.334 271.41 433.304 271.481 433.3H274.113C274.184 433.304 274.251 433.334 274.301 433.384C274.351 433.435 274.381 433.501 274.385 433.572V434.843C274.39 434.879 274.386 434.917 274.373 434.952C274.361 434.987 274.341 435.019 274.315 435.045C274.289 435.071 274.257 435.091 274.222 435.103C274.187 435.115 274.15 435.119 274.113 435.115Z" fill="#3F3D56"/>
<path d="M267.669 435.115H265.036C264.966 435.111 264.899 435.08 264.849 435.03C264.799 434.98 264.768 434.913 264.764 434.843V433.572C264.768 433.501 264.799 433.435 264.849 433.384C264.899 433.334 264.966 433.304 265.036 433.3H267.669C267.74 433.304 267.806 433.334 267.856 433.384C267.907 433.435 267.937 433.501 267.941 433.572V434.843C268.032 435.024 267.85 435.115 267.669 435.115Z" fill="#3F3D56"/>
<path d="M261.224 435.115H258.592C258.521 435.111 258.455 435.08 258.404 435.03C258.354 434.98 258.324 434.913 258.32 434.843V433.572C258.324 433.501 258.354 433.435 258.404 433.384C258.455 433.334 258.521 433.304 258.592 433.3H261.224C261.295 433.304 261.362 433.334 261.412 433.384C261.462 433.435 261.492 433.501 261.497 433.572V434.843C261.587 435.024 261.406 435.115 261.224 435.115Z" fill="#3F3D56"/>
<path d="M254.871 435.115H252.239C252.168 435.111 252.101 435.08 252.051 435.03C252.001 434.98 251.971 434.913 251.966 434.843V433.572C251.971 433.501 252.001 433.435 252.051 433.384C252.101 433.334 252.168 433.304 252.239 433.3H254.871C254.942 433.304 255.008 433.334 255.059 433.384C255.109 433.435 255.139 433.501 255.143 433.572V434.843C255.139 434.913 255.109 434.98 255.059 435.03C255.008 435.08 254.942 435.111 254.871 435.115Z" fill="#3F3D56"/>
<path d="M248.426 435.115H245.794C245.723 435.111 245.657 435.08 245.606 435.03C245.556 434.98 245.526 434.913 245.522 434.843V433.572C245.526 433.501 245.556 433.435 245.606 433.384C245.657 433.334 245.723 433.304 245.794 433.3H248.426C248.497 433.304 248.564 433.334 248.614 433.384C248.664 433.435 248.694 433.501 248.699 433.572V434.843C248.703 434.879 248.699 434.917 248.687 434.952C248.675 434.987 248.655 435.019 248.629 435.045C248.602 435.071 248.571 435.091 248.536 435.103C248.501 435.115 248.463 435.119 248.426 435.115Z" fill="#3F3D56"/>
<path d="M241.982 435.115H239.35C239.279 435.111 239.212 435.08 239.162 435.03C239.112 434.98 239.082 434.913 239.078 434.843V433.572C239.082 433.501 239.112 433.435 239.162 433.384C239.212 433.334 239.279 433.304 239.35 433.3H241.982C242.053 433.304 242.12 433.334 242.17 433.384C242.22 433.435 242.25 433.501 242.254 433.572V434.843C242.259 434.879 242.255 434.917 242.243 434.952C242.231 434.987 242.211 435.019 242.184 435.045C242.158 435.071 242.126 435.091 242.091 435.103C242.056 435.115 242.019 435.119 241.982 435.115Z" fill="#3F3D56"/>
<path d="M235.537 435.115H232.905C232.834 435.111 232.768 435.08 232.717 435.03C232.667 434.98 232.637 434.913 232.633 434.843V433.572C232.637 433.501 232.667 433.435 232.717 433.384C232.768 433.334 232.834 433.304 232.905 433.3H235.537C235.608 433.304 235.675 433.334 235.725 433.384C235.775 433.435 235.805 433.501 235.81 433.572V434.843C235.814 434.879 235.81 434.917 235.798 434.952C235.786 434.987 235.766 435.019 235.74 435.045C235.713 435.071 235.682 435.091 235.646 435.103C235.611 435.115 235.574 435.119 235.537 435.115Z" fill="#3F3D56"/>
<path d="M229.093 435.115H226.461C226.39 435.111 226.323 435.08 226.273 435.03C226.223 434.98 226.193 434.913 226.188 434.843V433.572C226.193 433.501 226.223 433.435 226.273 433.384C226.323 433.334 226.39 433.304 226.461 433.3H229.093C229.164 433.304 229.231 433.334 229.281 433.384C229.331 433.435 229.361 433.501 229.365 433.572V434.843C229.456 435.024 229.275 435.115 229.093 435.115Z" fill="#3F3D56"/>
<path d="M325.668 438.382H323.036C322.965 438.377 322.898 438.347 322.848 438.297C322.798 438.247 322.768 438.18 322.764 438.109V436.839C322.768 436.768 322.798 436.701 322.848 436.651C322.898 436.601 322.965 436.571 323.036 436.567H325.668C325.739 436.571 325.806 436.601 325.856 436.651C325.906 436.701 325.936 436.768 325.941 436.839V438.109C325.921 438.174 325.886 438.232 325.838 438.28C325.791 438.327 325.733 438.362 325.668 438.382Z" fill="#3F3D56"/>
<path d="M319.224 438.382H316.592C316.521 438.377 316.454 438.347 316.404 438.297C316.354 438.247 316.324 438.18 316.319 438.109V436.839C316.324 436.768 316.354 436.701 316.404 436.651C316.454 436.601 316.521 436.571 316.592 436.567H319.224C319.295 436.571 319.361 436.601 319.412 436.651C319.462 436.701 319.492 436.768 319.496 436.839V438.109C319.492 438.18 319.462 438.247 319.412 438.297C319.361 438.347 319.295 438.377 319.224 438.382Z" fill="#3F3D56"/>
<path d="M312.779 438.382H310.147C310.076 438.377 310.01 438.347 309.96 438.297C309.909 438.247 309.879 438.18 309.875 438.109V436.839C309.879 436.768 309.909 436.701 309.96 436.651C310.01 436.601 310.076 436.571 310.147 436.567H312.779C312.85 436.571 312.917 436.601 312.967 436.651C313.017 436.701 313.047 436.768 313.052 436.839V438.109C313.047 438.18 313.017 438.247 312.967 438.297C312.917 438.347 312.85 438.377 312.779 438.382Z" fill="#3F3D56"/>
<path d="M306.335 438.382H303.703C303.632 438.377 303.565 438.347 303.515 438.297C303.465 438.247 303.435 438.18 303.431 438.109V436.839C303.435 436.768 303.465 436.701 303.515 436.651C303.565 436.601 303.632 436.571 303.703 436.567H306.335C306.406 436.571 306.473 436.601 306.523 436.651C306.573 436.701 306.603 436.768 306.607 436.839V438.109C306.698 438.2 306.517 438.382 306.335 438.382Z" fill="#3F3D56"/>
<path d="M299.891 438.382H297.259C297.188 438.377 297.121 438.347 297.071 438.297C297.021 438.247 296.991 438.18 296.986 438.109V436.839C296.991 436.768 297.021 436.701 297.071 436.651C297.121 436.601 297.188 436.571 297.259 436.567H299.891C299.962 436.571 300.028 436.601 300.079 436.651C300.129 436.701 300.159 436.768 300.163 436.839V438.109C300.254 438.2 300.072 438.382 299.891 438.382Z" fill="#3F3D56"/>
<path d="M293.446 438.382H290.814C290.743 438.377 290.676 438.347 290.626 438.297C290.576 438.247 290.546 438.18 290.542 438.109V436.839C290.546 436.768 290.576 436.701 290.626 436.651C290.676 436.601 290.743 436.571 290.814 436.567H293.446C293.517 436.571 293.584 436.601 293.634 436.651C293.684 436.701 293.714 436.768 293.718 436.839V438.109C293.809 438.2 293.628 438.382 293.446 438.382Z" fill="#3F3D56"/>
<path d="M287.093 438.382H284.46C284.389 438.377 284.323 438.347 284.273 438.297C284.222 438.247 284.192 438.18 284.188 438.109V436.839C284.192 436.768 284.222 436.701 284.273 436.651C284.323 436.601 284.389 436.571 284.46 436.567H287.093C287.163 436.571 287.23 436.601 287.28 436.651C287.33 436.701 287.361 436.768 287.365 436.839V438.109C287.345 438.174 287.31 438.232 287.263 438.28C287.215 438.327 287.157 438.362 287.093 438.382Z" fill="#3F3D56"/>
<path d="M280.648 438.382H278.016C277.945 438.377 277.878 438.347 277.828 438.297C277.778 438.247 277.748 438.18 277.744 438.109V436.839C277.748 436.768 277.778 436.701 277.828 436.651C277.878 436.601 277.945 436.571 278.016 436.567H280.648C280.719 436.571 280.786 436.601 280.836 436.651C280.886 436.701 280.916 436.768 280.92 436.839V438.109C280.916 438.18 280.886 438.247 280.836 438.297C280.786 438.347 280.719 438.377 280.648 438.382Z" fill="#3F3D56"/>
<path d="M274.204 438.382H271.572C271.501 438.377 271.434 438.347 271.384 438.297C271.334 438.247 271.304 438.18 271.299 438.109V436.839C271.304 436.768 271.334 436.701 271.384 436.651C271.434 436.601 271.501 436.571 271.572 436.567H274.204C274.275 436.571 274.341 436.601 274.392 436.651C274.442 436.701 274.472 436.768 274.476 436.839V438.109C274.472 438.18 274.442 438.247 274.392 438.297C274.341 438.347 274.275 438.377 274.204 438.382Z" fill="#3F3D56"/>
<path d="M267.76 438.382H265.127C265.056 438.377 264.99 438.347 264.94 438.297C264.889 438.247 264.859 438.18 264.855 438.109V436.839C264.859 436.768 264.889 436.701 264.94 436.651C264.99 436.601 265.056 436.571 265.127 436.567H267.76C267.83 436.571 267.897 436.601 267.947 436.651C267.997 436.701 268.027 436.768 268.032 436.839V438.109C268.027 438.18 267.997 438.247 267.947 438.297C267.897 438.347 267.83 438.377 267.76 438.382Z" fill="#3F3D56"/>
<path d="M261.315 438.382H258.683C258.612 438.377 258.545 438.347 258.495 438.297C258.445 438.247 258.415 438.18 258.411 438.109V436.839C258.415 436.768 258.445 436.701 258.495 436.651C258.545 436.601 258.612 436.571 258.683 436.567H261.315C261.386 436.571 261.453 436.601 261.503 436.651C261.553 436.701 261.583 436.768 261.587 436.839V438.109C261.678 438.2 261.497 438.382 261.315 438.382Z" fill="#3F3D56"/>
<path d="M254.871 438.382H252.239C252.168 438.377 252.101 438.347 252.051 438.297C252.001 438.247 251.971 438.18 251.966 438.109V436.839C251.971 436.768 252.001 436.701 252.051 436.651C252.101 436.601 252.168 436.571 252.239 436.567H254.871C254.942 436.571 255.008 436.601 255.059 436.651C255.109 436.701 255.139 436.768 255.143 436.839V438.109C255.234 438.2 255.052 438.382 254.871 438.382Z" fill="#3F3D56"/>
<path d="M248.517 438.382H245.885C245.814 438.377 245.747 438.347 245.697 438.297C245.647 438.247 245.617 438.18 245.613 438.109V436.839C245.617 436.768 245.647 436.701 245.697 436.651C245.747 436.601 245.814 436.571 245.885 436.567H248.517C248.588 436.571 248.655 436.601 248.705 436.651C248.755 436.701 248.785 436.768 248.79 436.839V438.109C248.77 438.174 248.735 438.232 248.688 438.28C248.64 438.327 248.582 438.362 248.517 438.382Z" fill="#3F3D56"/>
<path d="M242.072 438.382H239.44C239.369 438.377 239.303 438.347 239.252 438.297C239.202 438.247 239.172 438.18 239.168 438.109V436.839C239.172 436.768 239.202 436.701 239.252 436.651C239.303 436.601 239.369 436.571 239.44 436.567H242.072C242.143 436.571 242.21 436.601 242.26 436.651C242.31 436.701 242.34 436.768 242.345 436.839V438.109C242.34 438.18 242.31 438.247 242.26 438.297C242.21 438.347 242.143 438.377 242.072 438.382Z" fill="#3F3D56"/>
<path d="M235.628 438.382H232.996C232.925 438.377 232.858 438.347 232.808 438.297C232.758 438.247 232.728 438.18 232.724 438.109V436.839C232.728 436.768 232.758 436.701 232.808 436.651C232.858 436.601 232.925 436.571 232.996 436.567H235.628C235.699 436.571 235.766 436.601 235.816 436.651C235.866 436.701 235.896 436.768 235.9 436.839V438.109C235.896 438.18 235.866 438.247 235.816 438.297C235.766 438.347 235.699 438.377 235.628 438.382Z" fill="#3F3D56"/>
<path d="M229.184 438.382H226.552C226.481 438.377 226.414 438.347 226.364 438.297C226.314 438.247 226.284 438.18 226.279 438.109V436.839C226.284 436.768 226.314 436.701 226.364 436.651C226.414 436.601 226.481 436.571 226.552 436.567H229.184C229.255 436.571 229.321 436.601 229.372 436.651C229.422 436.701 229.452 436.768 229.456 436.839V438.109C229.452 438.18 229.422 438.247 229.372 438.297C229.321 438.347 229.255 438.377 229.184 438.382Z" fill="#3F3D56"/>
<path d="M294.808 442.193H269.756C269.685 442.188 269.619 442.158 269.568 442.108C269.518 442.058 269.488 441.991 269.484 441.921V440.65C269.488 440.579 269.518 440.513 269.568 440.462C269.619 440.412 269.685 440.382 269.756 440.378H294.808C294.878 440.382 294.945 440.412 294.995 440.462C295.046 440.513 295.076 440.579 295.08 440.65V441.921C295.076 441.991 295.046 442.058 294.995 442.108C294.945 442.158 294.878 442.188 294.808 442.193Z" fill="#3F3D56"/>
<path d="M198.505 284.934H362.701C362.869 284.934 363.031 284.868 363.15 284.748C363.269 284.629 363.336 284.468 363.336 284.299C363.336 284.131 363.269 283.969 363.15 283.85C363.031 283.731 362.869 283.664 362.701 283.664H198.505C198.336 283.664 198.175 283.731 198.056 283.85C197.937 283.969 197.87 284.131 197.87 284.299C197.87 284.468 197.937 284.629 198.056 284.748C198.175 284.868 198.336 284.934 198.505 284.934Z" fill="#E6E6E6"/>
<path d="M351.445 280.306C353.551 280.306 355.258 278.56 355.258 276.405C355.258 274.25 353.551 272.503 351.445 272.503C349.34 272.503 347.633 274.25 347.633 276.405C347.633 278.56 349.34 280.306 351.445 280.306Z" fill="#E6E6E6"/>
<path d="M338.285 280.306C340.39 280.306 342.097 278.56 342.097 276.405C342.097 274.25 340.39 272.503 338.285 272.503C336.179 272.503 334.473 274.25 334.473 276.405C334.473 278.56 336.179 280.306 338.285 280.306Z" fill="#E6E6E6"/>
<path d="M325.033 280.306C327.138 280.306 328.845 278.56 328.845 276.405C328.845 274.25 327.138 272.503 325.033 272.503C322.927 272.503 321.221 274.25 321.221 276.405C321.221 278.56 322.927 280.306 325.033 280.306Z" fill="#E6E6E6"/>
<path d="M205.767 274.227C205.765 274.322 205.783 274.417 205.819 274.506C205.855 274.595 205.909 274.675 205.977 274.743C206.044 274.81 206.125 274.864 206.213 274.9C206.302 274.936 206.397 274.954 206.493 274.953H215.842C216.03 274.94 216.207 274.859 216.341 274.726C216.474 274.592 216.555 274.415 216.568 274.227C216.569 274.131 216.551 274.036 216.515 273.947C216.479 273.859 216.425 273.778 216.358 273.711C216.29 273.643 216.21 273.59 216.121 273.553C216.032 273.517 215.937 273.499 215.842 273.501H206.493C206.395 273.492 206.297 273.506 206.205 273.539C206.113 273.573 206.03 273.626 205.961 273.695C205.892 273.764 205.839 273.848 205.805 273.939C205.771 274.031 205.758 274.129 205.767 274.227Z" fill="#E6E6E6"/>
<path d="M205.766 276.858C205.765 276.954 205.783 277.049 205.819 277.137C205.855 277.226 205.908 277.307 205.976 277.374C206.044 277.442 206.124 277.495 206.213 277.531C206.302 277.567 206.397 277.585 206.492 277.584H215.841C216.03 277.571 216.207 277.491 216.34 277.357C216.474 277.224 216.555 277.047 216.567 276.858C216.568 276.763 216.551 276.668 216.515 276.579C216.478 276.49 216.425 276.41 216.357 276.342C216.29 276.275 216.209 276.221 216.12 276.185C216.032 276.149 215.937 276.131 215.841 276.132H206.492C206.397 276.131 206.302 276.149 206.213 276.185C206.124 276.221 206.044 276.275 205.976 276.342C205.908 276.41 205.855 276.49 205.819 276.579C205.783 276.668 205.765 276.763 205.766 276.858Z" fill="#E6E6E6"/>
<path d="M205.766 279.49C205.765 279.585 205.783 279.68 205.819 279.769C205.855 279.858 205.908 279.938 205.976 280.006C206.044 280.073 206.124 280.127 206.213 280.163C206.302 280.199 206.397 280.217 206.492 280.216H215.841C216.03 280.203 216.207 280.122 216.34 279.989C216.474 279.855 216.555 279.678 216.567 279.49C216.568 279.394 216.551 279.299 216.515 279.211C216.478 279.122 216.425 279.041 216.357 278.974C216.29 278.906 216.209 278.853 216.12 278.817C216.032 278.781 215.937 278.763 215.841 278.764H206.492C206.038 278.855 205.766 279.127 205.766 279.49Z" fill="#E6E6E6"/>
<path d="M205.313 300.179H208.671C209.152 300.179 209.614 300.371 209.955 300.711C210.295 301.051 210.486 301.513 210.486 301.994C210.486 302.476 210.295 302.937 209.955 303.278C209.614 303.618 209.152 303.809 208.671 303.809H205.313C204.831 303.809 204.369 303.618 204.029 303.278C203.688 302.937 203.497 302.476 203.497 301.994C203.483 301.752 203.52 301.51 203.606 301.283C203.692 301.056 203.825 300.85 203.997 300.679C204.168 300.507 204.374 300.374 204.601 300.288C204.828 300.202 205.07 300.165 205.313 300.179Z" fill="#E6E6E6"/>
<path d="M243.888 300.179H247.247C247.728 300.179 248.19 300.371 248.53 300.711C248.871 301.051 249.062 301.513 249.062 301.994C249.062 302.476 248.871 302.937 248.53 303.278C248.19 303.618 247.728 303.809 247.247 303.809H243.888C243.407 303.809 242.945 303.618 242.605 303.278C242.264 302.937 242.073 302.476 242.073 301.994C242.058 301.752 242.095 301.51 242.181 301.283C242.267 301.056 242.401 300.85 242.572 300.679C242.744 300.507 242.95 300.374 243.177 300.288C243.404 300.202 243.646 300.165 243.888 300.179Z" fill="#E6E6E6"/>
<path d="M254.78 300.179H258.139C258.62 300.179 259.082 300.371 259.422 300.711C259.763 301.051 259.954 301.513 259.954 301.994C259.954 302.476 259.763 302.937 259.422 303.278C259.082 303.618 258.62 303.809 258.139 303.809H254.78C254.299 303.809 253.837 303.618 253.497 303.278C253.156 302.937 252.965 302.476 252.965 301.994C252.965 301.513 253.156 301.051 253.497 300.711C253.837 300.371 254.299 300.179 254.78 300.179Z" fill="#E6E6E6"/>
<path d="M215.75 299.816H236.717C237.199 299.816 237.66 300.008 238.001 300.348C238.341 300.688 238.533 301.15 238.533 301.631C238.533 302.113 238.341 302.574 238.001 302.915C237.66 303.255 237.199 303.446 236.717 303.446H215.75C215.269 303.446 214.807 303.255 214.467 302.915C214.126 302.574 213.935 302.113 213.935 301.631C213.935 301.15 214.126 300.688 214.467 300.348C214.807 300.008 215.269 299.816 215.75 299.816Z" fill="#E6E6E6"/>
<path d="M267.215 299.816H288.182C288.663 299.816 289.125 300.008 289.465 300.348C289.806 300.688 289.997 301.15 289.997 301.631C289.997 302.113 289.806 302.574 289.465 302.915C289.125 303.255 288.663 303.446 288.182 303.446H267.215C266.733 303.446 266.272 303.255 265.931 302.915C265.591 302.574 265.399 302.113 265.399 301.631C265.399 301.15 265.591 300.688 265.931 300.348C266.272 300.008 266.733 299.816 267.215 299.816Z" fill="#E6E6E6"/>
<path d="M215.569 308.528H218.928C219.409 308.528 219.871 308.719 220.211 309.059C220.552 309.4 220.743 309.861 220.743 310.343C220.743 310.824 220.552 311.286 220.211 311.626C219.871 311.966 219.409 312.157 218.928 312.157H215.569C215.088 312.157 214.626 311.966 214.286 311.626C213.945 311.286 213.754 310.824 213.754 310.343C213.754 309.861 213.945 309.4 214.286 309.059C214.626 308.719 215.088 308.528 215.569 308.528Z" fill="#E6E6E6"/>
<path d="M254.144 308.528H257.503C257.984 308.528 258.446 308.719 258.786 309.059C259.127 309.4 259.318 309.861 259.318 310.343C259.318 310.824 259.127 311.286 258.786 311.626C258.446 311.966 257.984 312.157 257.503 312.157H254.144C253.663 312.157 253.201 311.966 252.861 311.626C252.52 311.286 252.329 310.824 252.329 310.343C252.329 309.861 252.52 309.4 252.861 309.059C253.201 308.719 253.663 308.528 254.144 308.528Z" fill="#E6E6E6"/>
<path d="M265.037 308.528H268.395C268.876 308.528 269.338 308.719 269.678 309.059C270.019 309.4 270.21 309.861 270.21 310.343C270.21 310.824 270.019 311.286 269.678 311.626C269.338 311.966 268.876 312.157 268.395 312.157H265.037C264.555 312.157 264.093 311.966 263.753 311.626C263.412 311.286 263.221 310.824 263.221 310.343C263.221 309.861 263.412 309.4 263.753 309.059C264.093 308.719 264.555 308.528 265.037 308.528Z" fill="#E6E6E6"/>
<path d="M226.098 308.165H247.065C247.546 308.165 248.008 308.356 248.348 308.696C248.689 309.037 248.88 309.498 248.88 309.98C248.88 310.461 248.689 310.923 248.348 311.263C248.008 311.603 247.546 311.794 247.065 311.794H226.098C225.616 311.794 225.155 311.603 224.814 311.263C224.474 310.923 224.282 310.461 224.282 309.98C224.268 309.737 224.305 309.495 224.391 309.268C224.477 309.041 224.61 308.835 224.782 308.664C224.953 308.492 225.159 308.359 225.386 308.273C225.613 308.187 225.856 308.15 226.098 308.165Z" fill="#E6E6E6"/>
<path d="M277.472 308.165H298.439C298.92 308.165 299.382 308.356 299.722 308.696C300.063 309.037 300.254 309.498 300.254 309.98C300.254 310.461 300.063 310.923 299.722 311.263C299.382 311.603 298.92 311.795 298.439 311.795H277.472C276.99 311.795 276.528 311.603 276.188 311.263C275.848 310.923 275.656 310.461 275.656 309.98C275.656 309.498 275.848 309.037 276.188 308.696C276.528 308.356 276.99 308.165 277.472 308.165Z" fill="#E6E6E6"/>
<path d="M225.826 316.876H229.184C229.665 316.876 230.127 317.067 230.468 317.408C230.808 317.748 230.999 318.21 230.999 318.691C230.999 319.172 230.808 319.634 230.468 319.974C230.127 320.315 229.665 320.506 229.184 320.506H225.826C225.344 320.506 224.882 320.315 224.542 319.974C224.202 319.634 224.01 319.172 224.01 318.691C224.01 318.21 224.202 317.748 224.542 317.408C224.882 317.067 225.344 316.876 225.826 316.876Z" fill="#E6E6E6"/>
<path d="M264.401 316.876H267.76C268.241 316.876 268.703 317.067 269.043 317.408C269.384 317.748 269.575 318.21 269.575 318.691C269.575 319.172 269.384 319.634 269.043 319.974C268.703 320.315 268.241 320.506 267.76 320.506H264.401C263.92 320.506 263.458 320.315 263.118 319.974C262.777 319.634 262.586 319.172 262.586 318.691C262.586 318.21 262.777 317.748 263.118 317.408C263.458 317.067 263.92 316.876 264.401 316.876Z" fill="#E6E6E6"/>
<path d="M275.384 316.876H278.742C279.224 316.876 279.685 317.067 280.026 317.408C280.366 317.748 280.557 318.21 280.557 318.691C280.557 319.172 280.366 319.634 280.026 319.974C279.685 320.315 279.224 320.506 278.742 320.506H275.384C274.902 320.506 274.441 320.315 274.1 319.974C273.76 319.634 273.569 319.172 273.569 318.691C273.554 318.449 273.591 318.206 273.677 317.98C273.763 317.753 273.896 317.547 274.068 317.375C274.239 317.204 274.445 317.071 274.672 316.985C274.899 316.899 275.142 316.862 275.384 316.876Z" fill="#E6E6E6"/>
<path d="M236.354 316.513H257.321C257.803 316.513 258.264 316.704 258.605 317.045C258.945 317.385 259.137 317.847 259.137 318.328C259.137 318.809 258.945 319.271 258.605 319.611C258.264 319.952 257.803 320.143 257.321 320.143H236.354C235.873 320.143 235.411 319.952 235.071 319.611C234.73 319.271 234.539 318.809 234.539 318.328C234.539 317.847 234.73 317.385 235.071 317.045C235.411 316.704 235.873 316.513 236.354 316.513Z" fill="#E6E6E6"/>
<path d="M287.819 316.513H308.786C309.267 316.513 309.729 316.704 310.069 317.045C310.41 317.385 310.601 317.847 310.601 318.328C310.601 318.809 310.41 319.271 310.069 319.611C309.729 319.952 309.267 320.143 308.786 320.143H287.819C287.337 320.143 286.876 319.952 286.535 319.611C286.195 319.271 286.004 318.809 286.004 318.328C285.989 318.086 286.026 317.843 286.112 317.617C286.198 317.39 286.331 317.184 286.503 317.012C286.675 316.841 286.881 316.708 287.107 316.622C287.334 316.536 287.577 316.499 287.819 316.513Z" fill="#E6E6E6"/>
<path d="M236.173 325.225H239.531C240.013 325.225 240.474 325.416 240.815 325.756C241.155 326.096 241.347 326.558 241.347 327.039C241.347 327.521 241.155 327.982 240.815 328.323C240.474 328.663 240.013 328.854 239.531 328.854H236.173C235.691 328.854 235.23 328.663 234.889 328.323C234.549 327.982 234.358 327.521 234.358 327.039C234.343 326.797 234.38 326.555 234.466 326.328C234.552 326.101 234.685 325.895 234.857 325.724C235.029 325.552 235.235 325.419 235.461 325.333C235.688 325.247 235.931 325.21 236.173 325.225Z" fill="#E6E6E6"/>
<path d="M274.749 325.225H278.107C278.588 325.225 279.05 325.416 279.391 325.756C279.731 326.096 279.922 326.558 279.922 327.039C279.922 327.521 279.731 327.982 279.391 328.323C279.05 328.663 278.588 328.854 278.107 328.854H274.749C274.267 328.854 273.805 328.663 273.465 328.323C273.125 327.982 272.933 327.521 272.933 327.039C272.919 326.797 272.956 326.555 273.042 326.328C273.128 326.101 273.261 325.895 273.433 325.724C273.604 325.552 273.81 325.419 274.037 325.333C274.264 325.247 274.506 325.21 274.749 325.225Z" fill="#E6E6E6"/>
<path d="M285.641 325.224H288.999C289.48 325.224 289.942 325.416 290.283 325.756C290.623 326.096 290.814 326.558 290.814 327.039C290.814 327.521 290.623 327.982 290.283 328.323C289.942 328.663 289.48 328.854 288.999 328.854H285.641C285.159 328.854 284.697 328.663 284.357 328.323C284.016 327.982 283.825 327.521 283.825 327.039C283.825 326.558 284.016 326.096 284.357 325.756C284.697 325.416 285.159 325.224 285.641 325.224Z" fill="#E6E6E6"/>
<path d="M246.611 324.862H267.578C268.06 324.862 268.521 325.053 268.862 325.393C269.202 325.733 269.393 326.195 269.393 326.676C269.393 327.158 269.202 327.619 268.862 327.96C268.521 328.3 268.06 328.491 267.578 328.491H246.611C246.13 328.491 245.668 328.3 245.328 327.96C244.987 327.619 244.796 327.158 244.796 326.676C244.812 326.2 245.008 325.748 245.345 325.411C245.682 325.074 246.135 324.877 246.611 324.862Z" fill="#E6E6E6"/>
<path d="M243.888 358.437H247.247C247.728 358.437 248.19 358.628 248.53 358.968C248.871 359.308 249.062 359.77 249.062 360.251C249.062 360.733 248.871 361.194 248.53 361.535C248.19 361.875 247.728 362.066 247.247 362.066H243.888C243.407 362.066 242.945 361.875 242.605 361.535C242.264 361.194 242.073 360.733 242.073 360.251C242.058 360.009 242.095 359.767 242.181 359.54C242.267 359.313 242.401 359.107 242.572 358.936C242.744 358.764 242.95 358.631 243.177 358.545C243.404 358.459 243.646 358.422 243.888 358.437Z" fill="#E6E6E6"/>
<path d="M254.78 358.437H258.139C258.62 358.437 259.082 358.628 259.422 358.968C259.763 359.308 259.954 359.77 259.954 360.251C259.954 360.733 259.763 361.194 259.422 361.535C259.082 361.875 258.62 362.066 258.139 362.066H254.78C254.299 362.066 253.837 361.875 253.497 361.535C253.156 361.194 252.965 360.733 252.965 360.251C252.965 359.77 253.156 359.308 253.497 358.968C253.837 358.628 254.299 358.437 254.78 358.437Z" fill="#E6E6E6"/>
<path d="M267.215 358.709H288.182C288.663 358.709 289.125 358.9 289.465 359.24C289.806 359.581 289.997 360.042 289.997 360.524C289.997 361.005 289.806 361.467 289.465 361.807C289.125 362.147 288.663 362.339 288.182 362.339H267.215C266.733 362.339 266.272 362.147 265.931 361.807C265.591 361.467 265.399 361.005 265.399 360.524C265.415 360.047 265.612 359.595 265.949 359.258C266.286 358.921 266.738 358.725 267.215 358.709Z" fill="#E6E6E6"/>
<path d="M205.313 358.437H208.671C209.152 358.437 209.614 358.628 209.955 358.968C210.295 359.308 210.486 359.77 210.486 360.251C210.486 360.733 210.295 361.194 209.955 361.535C209.614 361.875 209.152 362.066 208.671 362.066H205.313C204.831 362.066 204.369 361.875 204.029 361.535C203.688 361.194 203.497 360.733 203.497 360.251C203.483 360.009 203.52 359.767 203.606 359.54C203.692 359.313 203.825 359.107 203.997 358.936C204.168 358.764 204.374 358.631 204.601 358.545C204.828 358.459 205.07 358.422 205.313 358.437Z" fill="#E6E6E6"/>
<path d="M215.75 358.709H236.717C237.199 358.709 237.66 358.9 238.001 359.24C238.341 359.581 238.533 360.042 238.533 360.524C238.533 361.005 238.341 361.467 238.001 361.807C237.66 362.147 237.199 362.339 236.717 362.339H215.75C215.269 362.339 214.807 362.147 214.467 361.807C214.126 361.467 213.935 361.005 213.935 360.524C213.951 360.047 214.147 359.595 214.484 359.258C214.821 358.921 215.274 358.725 215.75 358.709Z" fill="#E6E6E6"/>
<path d="M215.569 350.088H218.928C219.409 350.088 219.871 350.279 220.211 350.62C220.552 350.96 220.743 351.422 220.743 351.903C220.743 352.384 220.552 352.846 220.211 353.186C219.871 353.527 219.409 353.718 218.928 353.718H215.569C215.088 353.718 214.626 353.527 214.286 353.186C213.945 352.846 213.754 352.384 213.754 351.903C213.754 351.422 213.945 350.96 214.286 350.62C214.626 350.279 215.088 350.088 215.569 350.088Z" fill="#E6E6E6"/>
<path d="M254.144 350.088H257.503C257.984 350.088 258.446 350.279 258.786 350.62C259.127 350.96 259.318 351.422 259.318 351.903C259.318 352.384 259.127 352.846 258.786 353.186C258.446 353.527 257.984 353.718 257.503 353.718H254.144C253.663 353.718 253.201 353.527 252.861 353.186C252.52 352.846 252.329 352.384 252.329 351.903C252.329 351.422 252.52 350.96 252.861 350.62C253.201 350.279 253.663 350.088 254.144 350.088Z" fill="#E6E6E6"/>
<path d="M265.037 350.088H268.395C268.876 350.088 269.338 350.279 269.678 350.62C270.019 350.96 270.21 351.422 270.21 351.903C270.21 352.384 270.019 352.846 269.678 353.186C269.338 353.527 268.876 353.718 268.395 353.718H265.037C264.555 353.718 264.093 353.527 263.753 353.186C263.412 352.846 263.221 352.384 263.221 351.903C263.221 351.422 263.412 350.96 263.753 350.62C264.093 350.279 264.555 350.088 265.037 350.088Z" fill="#E6E6E6"/>
<path d="M226.098 350.36H247.065C247.546 350.36 248.008 350.552 248.348 350.892C248.689 351.232 248.88 351.694 248.88 352.175C248.88 352.657 248.689 353.118 248.348 353.459C248.008 353.799 247.546 353.99 247.065 353.99H226.098C225.616 353.99 225.155 353.799 224.814 353.459C224.474 353.118 224.282 352.657 224.282 352.175C224.268 351.933 224.305 351.691 224.391 351.464C224.477 351.237 224.61 351.031 224.782 350.86C224.953 350.688 225.159 350.555 225.386 350.469C225.613 350.383 225.856 350.346 226.098 350.36Z" fill="#E6E6E6"/>
<path d="M225.826 341.74H229.184C229.665 341.74 230.127 341.931 230.468 342.271C230.808 342.612 230.999 343.073 230.999 343.555C230.999 344.036 230.808 344.498 230.468 344.838C230.127 345.178 229.665 345.369 229.184 345.369H225.826C225.344 345.369 224.882 345.178 224.542 344.838C224.202 344.498 224.01 344.036 224.01 343.555C224.01 343.073 224.202 342.612 224.542 342.271C224.882 341.931 225.344 341.74 225.826 341.74Z" fill="#E6E6E6"/>
<path d="M264.401 341.74H267.76C268.241 341.74 268.703 341.931 269.043 342.271C269.384 342.612 269.575 343.073 269.575 343.555C269.575 344.036 269.384 344.498 269.043 344.838C268.703 345.178 268.241 345.369 267.76 345.369H264.401C263.92 345.369 263.458 345.178 263.118 344.838C262.777 344.498 262.586 344.036 262.586 343.555C262.586 343.073 262.777 342.612 263.118 342.271C263.458 341.931 263.92 341.74 264.401 341.74Z" fill="#E6E6E6"/>
<path d="M275.384 341.74H278.742C279.224 341.74 279.685 341.931 280.026 342.271C280.366 342.612 280.557 343.073 280.557 343.555C280.557 344.036 280.366 344.498 280.026 344.838C279.685 345.178 279.224 345.37 278.742 345.37H275.384C274.902 345.37 274.441 345.178 274.1 344.838C273.76 344.498 273.569 344.036 273.569 343.555C273.554 343.313 273.591 343.07 273.677 342.843C273.763 342.616 273.896 342.411 274.068 342.239C274.239 342.067 274.445 341.934 274.672 341.848C274.899 341.762 275.142 341.725 275.384 341.74Z" fill="#E6E6E6"/>
<path d="M236.354 342.012H257.321C257.803 342.012 258.264 342.203 258.605 342.544C258.945 342.884 259.137 343.346 259.137 343.827C259.137 344.308 258.945 344.77 258.605 345.11C258.264 345.451 257.803 345.642 257.321 345.642H236.354C235.873 345.642 235.411 345.451 235.071 345.11C234.73 344.77 234.539 344.308 234.539 343.827C234.539 343.346 234.73 342.884 235.071 342.544C235.411 342.203 235.873 342.012 236.354 342.012Z" fill="#E6E6E6"/>
<path d="M236.173 333.391H239.531C240.013 333.391 240.474 333.583 240.815 333.923C241.155 334.263 241.347 334.725 241.347 335.206C241.347 335.688 241.155 336.149 240.815 336.49C240.474 336.83 240.013 337.021 239.531 337.021H236.173C235.691 337.021 235.23 336.83 234.889 336.49C234.549 336.149 234.358 335.688 234.358 335.206C234.343 334.964 234.38 334.722 234.466 334.495C234.552 334.268 234.685 334.062 234.857 333.891C235.029 333.719 235.235 333.586 235.461 333.5C235.688 333.414 235.931 333.377 236.173 333.391Z" fill="#E6E6E6"/>
<path d="M274.749 333.391H278.107C278.588 333.391 279.05 333.583 279.391 333.923C279.731 334.263 279.922 334.725 279.922 335.206C279.922 335.688 279.731 336.149 279.391 336.49C279.05 336.83 278.588 337.021 278.107 337.021H274.749C274.267 337.021 273.805 336.83 273.465 336.49C273.125 336.149 272.933 335.688 272.933 335.206C272.919 334.964 272.956 334.722 273.042 334.495C273.128 334.268 273.261 334.062 273.433 333.891C273.604 333.719 273.81 333.586 274.037 333.5C274.264 333.414 274.506 333.377 274.749 333.391Z" fill="#E6E6E6"/>
<path d="M285.641 333.391H288.999C289.48 333.391 289.942 333.583 290.283 333.923C290.623 334.263 290.814 334.725 290.814 335.206C290.814 335.688 290.623 336.149 290.283 336.49C289.942 336.83 289.48 337.021 288.999 337.021H285.641C285.159 337.021 284.697 336.83 284.357 336.49C284.016 336.149 283.825 335.688 283.825 335.206C283.825 334.725 284.016 334.263 284.357 333.923C284.697 333.583 285.159 333.391 285.641 333.391Z" fill="#E6E6E6"/>
<path d="M246.611 333.664H267.578C268.06 333.664 268.521 333.855 268.862 334.195C269.202 334.535 269.393 334.997 269.393 335.478C269.393 335.96 269.202 336.421 268.862 336.762C268.521 337.102 268.06 337.293 267.578 337.293H246.611C246.13 337.293 245.668 337.102 245.328 336.762C244.987 336.421 244.796 335.96 244.796 335.478C244.796 334.997 244.987 334.535 245.328 334.195C245.668 333.855 246.13 333.664 246.611 333.664Z" fill="#E6E6E6"/>
<path d="M225.009 478.49C224.827 478.581 224.737 478.672 224.555 478.672C223.647 479.125 222.74 479.579 221.832 479.942C219.109 481.213 216.386 482.483 213.572 483.663C206.25 486.733 198.729 489.31 191.062 491.376C189.792 483.39 188.521 464.425 187.341 450.541C187.159 447.91 186.887 445.46 186.706 443.373C186.491 440.537 186.097 437.719 185.526 434.933C185.435 434.752 185.344 434.48 185.253 434.298C185.344 435.387 185.526 438.745 185.616 443.373C185.707 445.55 185.707 448 185.798 450.541C186.07 463.881 186.433 482.12 186.706 492.465C185.798 492.646 184.89 492.918 183.983 493.1C183.438 493.191 182.803 493.372 182.258 493.463C181.532 493.644 180.897 493.735 180.17 493.917C179.444 494.098 178.718 494.189 177.992 494.37C166.125 496.724 154.056 497.909 141.958 497.909H136.694C122.407 497.528 108.212 495.488 94.3966 491.83L94.9412 450.632L95.032 443.463V440.741C94.677 441.605 94.4921 442.529 94.4874 443.463C94.3059 445.187 94.0336 447.728 93.7613 450.632C92.8536 462.066 91.946 480.487 91.0383 490.922C80.8869 488.194 71.0348 484.455 61.6302 479.761C61.2187 479.585 60.8238 479.372 60.4502 479.125C60.5606 478.618 60.6214 478.102 60.6317 477.583C61.8117 469.597 60.4502 459.162 61.7209 450.451C62.7193 443.735 63.7178 437.293 64.7162 431.848C65.8961 425.315 67.1669 420.142 68.4376 417.601C69.8899 414.698 71.2513 411.885 72.6128 409.071C73.2482 407.892 73.7928 406.712 74.3374 405.623C74.6097 404.988 74.9727 404.444 75.245 403.808C76.6065 401.086 77.8772 398.636 79.148 396.458C79.9649 394.916 80.7818 393.464 81.5079 392.284C82.3248 390.832 83.0509 389.652 83.6863 388.745C88.1155 381.969 94.7542 376.935 102.475 374.498L102.656 374.407L102.838 374.498L103.019 374.589L115.273 370.143L120.719 356.985L148.856 355.261L153.395 358.709L155.754 360.433L158.205 362.339L162.743 365.787L164.014 366.15L165.92 366.785L179.081 370.778L179.172 370.687L179.354 370.778C186.369 373.048 192.516 377.42 196.962 383.3C197.416 383.845 197.779 384.48 198.233 385.024C199.775 387.355 201.17 389.779 202.408 392.284C203.134 393.554 203.86 395.006 204.586 396.458C205.04 397.366 209.125 409.979 213.028 422.865C216.749 434.933 220.289 447.274 220.743 450.451C220.834 450.995 220.924 451.63 221.015 452.175C221.56 455.804 222.104 459.525 222.558 463.064C223.284 468.418 224.01 473.499 224.736 478.127C225.009 478.399 225.009 478.4 225.009 478.49Z" fill="#FF5757"/>
<path opacity="0.2" d="M195.237 431.939L189.792 410.886L184.89 429.035L195.237 431.939Z" fill="black"/>
<path d="M504.84 479.125C504.428 479.301 504.034 479.514 503.66 479.761C494.262 484.47 484.408 488.21 474.252 490.922C473.344 480.487 472.437 462.066 471.529 450.632C471.257 447.637 471.075 445.187 470.803 443.463C470.709 442.54 470.527 441.629 470.258 440.741V443.463L470.349 450.632L470.894 491.829C457.076 495.481 442.883 497.521 428.597 497.909H423.332C408.251 497.911 393.225 496.083 378.585 492.465C378.857 482.12 379.22 463.88 379.492 450.541C379.583 447.91 379.583 445.46 379.674 443.372C379.764 438.745 379.946 435.478 380.037 434.298C379.93 434.502 379.839 434.715 379.764 434.933C379.149 437.711 378.755 440.533 378.585 443.372C378.403 445.55 378.131 448 377.949 450.541C376.769 464.425 375.498 483.39 374.228 491.376C366.565 489.296 359.046 486.719 351.718 483.663C347.815 482.029 344.093 480.305 340.372 478.49C341.098 473.862 341.824 468.69 342.55 463.336C343.186 459.162 343.73 454.897 344.366 450.632C345.364 444.098 378.131 373.409 385.846 370.959L386.027 370.868L386.118 370.959L399.279 366.966L401.185 366.331L402.456 365.968L406.994 362.52L409.445 360.614L411.805 358.89L416.343 355.442L444.481 357.166L449.927 370.324L462.271 374.68L462.452 374.589L462.634 374.498L462.815 374.589C470.519 377.059 477.148 382.085 481.604 388.836C482.239 389.743 482.965 390.923 483.782 392.375C484.508 393.645 485.235 395.006 486.142 396.549C487.322 398.727 488.593 401.267 490.045 403.899C490.317 404.534 490.68 405.079 490.953 405.714C491.497 406.803 492.133 407.983 492.677 409.162C494.039 411.884 495.491 414.788 496.853 417.692C498.123 420.233 499.303 425.405 500.574 431.939C501.572 437.383 502.571 443.826 503.569 450.541C504.84 459.253 503.479 469.597 504.658 477.673C504.674 478.162 504.735 478.648 504.84 479.125Z" fill="#E6E6E6"/>
<path d="M422.425 350.542C440.471 350.542 455.1 335.916 455.1 317.874C455.1 299.832 440.471 285.207 422.425 285.207C404.378 285.207 389.749 299.832 389.749 317.874C389.749 335.916 404.378 350.542 422.425 350.542Z" fill="#FFB6B6"/>
<path opacity="0.2" d="M370.144 431.939L375.59 410.886L380.4 429.035L370.144 431.939Z" fill="black"/>
<path d="M515.551 418.237C513.554 445.187 515.642 456.984 504.84 479.216C495.014 484.023 484.777 487.941 474.252 490.922C473.163 491.194 472.074 491.557 470.985 491.829C457.168 495.481 442.974 497.521 428.688 497.909H423.423C408.342 497.911 393.316 496.083 378.676 492.465C377.223 492.102 375.771 491.739 374.319 491.285C366.656 489.205 359.137 486.629 351.809 483.572C347.906 481.938 344.185 480.214 340.463 478.399C339.646 477.946 338.739 477.583 337.922 477.129C333.656 469.597 331.205 460.523 331.205 449.543C334.019 430.759 509.016 401.903 515.551 418.237Z" fill="#2F2E41"/>
<path opacity="0.2" d="M515.55 422.774C515.641 421.14 515.732 419.416 515.913 417.601C509.378 401.358 334.472 430.124 331.477 448.999C331.477 450.723 331.568 452.447 331.659 454.08C338.829 435.478 505.022 408.073 515.55 422.774Z" fill="black"/>
<path d="M326.757 419.507L341.098 412.338L329.117 380.033L325.941 363.7C325.645 362.107 325.036 360.59 324.147 359.236C323.258 357.882 322.108 356.719 320.764 355.815C319.42 354.911 317.91 354.284 316.32 353.97C314.731 353.657 313.095 353.664 311.509 353.99C309.399 354.387 307.429 355.325 305.791 356.712C303.367 358.795 301.844 361.734 301.539 364.914C301.235 368.094 302.173 371.268 304.157 373.772L315.866 388.382L326.757 419.507Z" fill="#FFB6B6"/>
<path d="M341.098 406.349L321.947 415.877L336.469 461.43C337.507 464.701 339.372 467.648 341.885 469.986C344.398 472.323 347.472 473.971 350.81 474.77C354.931 475.738 359.253 475.372 363.152 473.725C367.051 472.077 370.326 469.234 372.503 465.605L410.988 399.543C413.735 395.007 414.589 389.573 413.367 384.413C412.145 379.253 408.943 374.78 404.453 371.957C399.9 369.08 394.393 368.123 389.136 369.296C383.879 370.47 379.302 373.678 376.406 378.219L375.317 380.124L351.809 430.215L341.098 406.349Z" fill="#E6E6E6"/>
<path d="M134.697 348.273C154.548 348.273 170.64 332.185 170.64 312.339C170.64 292.493 154.548 276.405 134.697 276.405C114.846 276.405 98.7534 292.493 98.7534 312.339C98.7534 332.185 114.846 348.273 134.697 348.273Z" fill="#A0616A"/>
<path d="M99.2072 287.566C102.112 283.664 106.378 280.851 109.554 277.13C111.279 275.134 112.822 272.775 114.728 270.96C118.45 267.602 123.532 266.15 128.525 266.06C134.003 265.922 139.437 267.074 144.387 269.423C149.338 271.772 153.667 275.251 157.025 279.581C159.657 278.038 162.289 276.495 164.831 274.953C165.829 277.675 166.919 280.397 167.917 283.12C168.387 282.707 168.934 282.391 169.527 282.19C170.119 281.99 170.745 281.908 171.37 281.95C171.994 281.992 172.604 282.157 173.164 282.436C173.724 282.715 174.223 283.101 174.634 283.573C175.286 284.308 175.691 285.23 175.788 286.207C175.886 287.185 175.673 288.169 175.178 289.018C175.814 287.112 178.627 286.658 180.261 287.929C181.895 289.199 182.258 291.468 181.986 293.464C181.685 295.672 180.715 297.734 179.206 299.373C177.696 301.012 175.72 302.148 173.544 302.629C170.095 303.355 166.192 302.629 163.469 304.807C161.291 306.531 160.656 309.707 158.387 311.431C155.664 313.519 151.761 312.52 148.312 312.974C145.335 313.48 142.656 315.085 140.807 317.471C138.958 319.858 138.073 322.852 138.327 325.86C137.92 323.931 137.116 322.108 135.967 320.506C135.388 319.711 134.592 319.101 133.674 318.747C132.757 318.393 131.757 318.31 130.794 318.509C127.708 319.417 127.163 323.682 127.889 326.858C129.886 335.206 137.51 348.818 137.51 348.818C127.617 352.72 115.908 348.999 108.284 341.649C100.659 334.299 96.7565 323.863 95.0319 313.337C93.6704 304.626 93.852 294.825 99.2072 287.566Z" fill="#2F2E41"/>
<path d="M463.36 335.932C470.167 320.234 466.355 305.805 458.005 298.183C454.737 290.833 450.38 285.207 445.388 283.845C442.937 282.303 440.668 280.488 438.036 279.581C436.823 279.122 435.528 278.917 434.232 278.98C432.936 279.042 431.666 279.37 430.503 279.944L429.141 279.581C428.052 276.677 426.69 276.677 425.238 278.582C420.496 276.21 415.29 274.909 409.989 274.771C395.195 274.771 386.481 287.294 384.212 302.357L396.556 305.624L400.822 298.818L398.825 306.259L405.633 308.074C415.98 321.595 403.636 352.72 387.843 370.052C391.564 369.054 395.285 368.146 399.007 367.42L412.531 347.638L404.18 365.605C408.537 364.97 414.074 365.605 420.064 366.785C422.061 364.153 423.15 360.614 422.152 357.438C423.87 360.775 425.064 364.356 425.692 368.055C438.49 371.141 455.917 372.774 465.266 373.954C472.89 371.322 472.89 343.373 463.36 335.932Z" fill="#2F2E41"/>
<path d="M467.808 282.575C472.8 293.827 462.725 298.637 453.467 298.455C445.116 298.364 437.946 292.466 437.583 284.118C437.473 282.132 437.757 280.143 438.42 278.268C439.082 276.392 440.11 274.666 441.443 273.19C442.777 271.714 444.389 270.516 446.188 269.666C447.987 268.816 449.936 268.33 451.924 268.238C460.274 267.784 464.449 274.953 467.808 282.575Z" fill="#2F2E41"/>
<path d="M235.356 465.151L227.096 451.358L254.508 430.578L265.944 418.509C267.058 417.335 268.393 416.392 269.872 415.734C271.351 415.076 272.945 414.715 274.564 414.673C276.182 414.631 277.793 414.908 279.304 415.488C280.815 416.069 282.197 416.941 283.371 418.055C284.921 419.53 286.076 421.371 286.729 423.409C287.645 426.466 287.344 429.758 285.89 432.599C284.435 435.44 281.939 437.609 278.924 438.654L261.224 444.734L235.356 465.151Z" fill="#A0616A"/>
<path d="M241.256 464.697L228.458 475.405L225.009 478.309L224.645 478.672C223.738 479.125 222.83 479.579 221.923 479.942C219.2 481.213 216.477 482.483 213.663 483.663C206.34 486.733 198.82 489.31 191.153 491.376C189.701 491.739 188.248 492.192 186.796 492.555C185.888 492.737 184.981 493.009 184.073 493.191C183.529 493.281 182.893 493.463 182.349 493.554C181.622 493.735 180.987 493.826 180.261 494.007C179.535 494.189 178.809 494.28 178.083 494.461C176.119 492.608 174.559 490.37 173.497 487.888C172.435 485.406 171.895 482.732 171.91 480.033V479.488L173.998 426.585L174.906 403.173C175.041 397.875 177.243 392.84 181.042 389.143C184.841 385.447 189.936 383.382 195.237 383.391C195.844 383.374 196.451 383.404 197.053 383.482C197.506 384.026 197.87 384.662 198.323 385.206C199.866 387.536 201.26 389.961 202.499 392.465C203.225 393.736 203.951 395.188 204.677 396.64C205.131 397.547 209.215 410.16 213.118 423.046L211.394 436.567L208.217 460.886L221.106 452.447L230.182 446.458L231.271 448.273L234.085 452.901L239.531 461.884L241.256 464.697Z" fill="#FF5757"/>
<path d="M234.267 449.634C234.267 450.723 234.267 451.812 234.176 452.9C234.068 455.826 233.734 458.738 233.178 461.612C232.292 466.446 230.702 471.123 228.458 475.496C228.186 476.04 227.823 476.675 227.55 477.22C226.733 477.673 225.917 478.036 225.009 478.49C224.827 478.581 224.737 478.672 224.555 478.672C221.015 480.486 217.294 482.12 213.572 483.662C206.25 486.733 198.73 489.31 191.062 491.376C189.61 491.739 188.158 492.192 186.706 492.555C183.801 493.281 180.987 493.916 178.083 494.461C166.216 496.815 154.147 498 142.049 498H136.784C122.497 497.619 108.303 495.579 94.4875 491.92C93.3983 491.648 92.3091 491.376 91.2199 491.013C80.7 488.016 70.4644 484.099 60.6318 479.307C49.8306 457.075 51.8275 445.278 49.9214 418.327C53.9151 408.345 121.808 415.423 174.089 426.676C186.749 429.316 199.261 432.618 211.576 436.567C222.195 440.106 229.91 443.735 232.906 447.093C233.601 447.786 234.075 448.671 234.267 449.634Z" fill="#2F2E41"/>
<path opacity="0.2" d="M49.8304 422.774C49.7396 421.14 49.6488 419.416 49.4673 417.601C56.0024 401.358 230.908 430.124 233.904 448.999C233.904 450.723 233.813 452.447 233.722 454.08C226.552 435.478 60.3592 408.073 49.8304 422.774Z" fill="black"/>
<path d="M498.486 34.3918H44.8383C44.6024 34.3975 44.368 34.3538 44.1501 34.2634C43.9322 34.173 43.7356 34.038 43.5732 33.867C43.4107 33.696 43.2858 33.4928 43.2067 33.2706C43.1276 33.0484 43.0959 32.8121 43.1137 32.5769C43.1137 32.1197 43.2954 31.6811 43.6188 31.3578C43.9422 31.0344 44.3809 30.8528 44.8383 30.8528H498.486C498.722 30.847 498.957 30.8908 499.175 30.9812C499.392 31.0716 499.589 31.2066 499.751 31.3776C499.914 31.5486 500.039 31.7518 500.118 31.974C500.197 32.1962 500.229 32.4325 500.211 32.6677C500.211 32.8941 500.166 33.1183 500.08 33.3275C499.993 33.5366 499.866 33.7267 499.706 33.8868C499.546 34.0469 499.356 34.1739 499.146 34.2606C498.937 34.3472 498.713 34.3918 498.486 34.3918Z" fill="#E6E6E6"/>
<path d="M75.6988 21.5969C81.5137 21.5969 86.2276 16.7623 86.2276 10.7985C86.2276 4.83464 81.5137 0 75.6988 0C69.8838 0 65.1699 4.83464 65.1699 10.7985C65.1699 16.7623 69.8838 21.5969 75.6988 21.5969Z" fill="#3F3D56"/>
<path d="M112.277 21.5969C118.092 21.5969 122.806 16.7623 122.806 10.7985C122.806 4.83464 118.092 0 112.277 0C106.462 0 101.749 4.83464 101.749 10.7985C101.749 16.7623 106.462 21.5969 112.277 21.5969Z" fill="#3F3D56"/>
<path d="M148.765 21.5969C154.58 21.5969 159.294 16.7623 159.294 10.7985C159.294 4.83464 154.58 0 148.765 0C142.95 0 138.236 4.83464 138.236 10.7985C138.236 16.7623 142.95 21.5969 148.765 21.5969Z" fill="#3F3D56"/>
<path d="M476.521 2.63153H450.562C450.305 2.63623 450.052 2.69173 449.817 2.79485C449.582 2.89796 449.37 3.04664 449.193 3.23228C449.015 3.41791 448.877 3.63684 448.785 3.87638C448.692 4.11593 448.649 4.37135 448.656 4.62789C448.658 5.13255 448.86 5.61587 449.217 5.97272C449.574 6.32958 450.057 6.53111 450.562 6.5335H476.521C476.778 6.5288 477.031 6.47329 477.266 6.37018C477.501 6.26707 477.713 6.1184 477.891 5.93276C478.068 5.74712 478.207 5.5282 478.299 5.28865C478.391 5.0491 478.435 4.79367 478.427 4.53714C478.409 4.03749 478.203 3.56319 477.849 3.20965C477.495 2.85611 477.021 2.64955 476.521 2.63153Z" fill="#3F3D56"/>
<path d="M476.521 9.98175H450.562C450.305 9.98645 450.052 10.042 449.817 10.1451C449.582 10.2482 449.37 10.3969 449.193 10.5825C449.015 10.7681 448.877 10.9871 448.785 11.2266C448.692 11.4662 448.649 11.7216 448.656 11.9781C448.658 12.4828 448.86 12.9661 449.217 13.3229C449.574 13.6798 450.057 13.8813 450.562 13.8837H476.521C476.778 13.879 477.031 13.8235 477.266 13.7204C477.501 13.6173 477.713 13.4686 477.891 13.283C478.068 13.0973 478.207 12.8784 478.299 12.6389C478.391 12.3993 478.435 12.1439 478.427 11.8874C478.409 11.3877 478.203 10.9134 477.849 10.5599C477.495 10.2063 477.021 9.99977 476.521 9.98175Z" fill="#3F3D56"/>
<path d="M476.521 17.4227H450.562C450.305 17.4274 450.052 17.4829 449.817 17.586C449.582 17.6892 449.37 17.8378 449.193 18.0235C449.015 18.2091 448.877 18.428 448.785 18.6676C448.692 18.9071 448.649 19.1626 448.656 19.4191C448.658 19.9237 448.86 20.4071 449.217 20.7639C449.574 21.1208 450.057 21.3223 450.562 21.3247H476.521C476.778 21.32 477.031 21.2645 477.266 21.1614C477.501 21.0583 477.713 20.9096 477.891 20.724C478.068 20.5383 478.207 20.3194 478.299 20.0798C478.391 19.8403 478.435 19.5849 478.427 19.3283C478.425 18.8237 478.223 18.3404 477.866 17.9835C477.509 17.6267 477.026 17.4251 476.521 17.4227Z" fill="#3F3D56"/>
</g>
<defs>
<clipPath id="clip0_407_645">
<rect width="634" height="498" fill="white"/>
</clipPath>
</defs>
</svg>
