<svg width="113" height="109" viewBox="0 0 113 109" fill="none" xmlns="http://www.w3.org/2000/svg">
<g clip-path="url(#clip0_407_574)">
<path opacity="0.1" d="M93.8407 28.4382H88.3389V33.9437H93.8407V28.4382Z" fill="#E58411"/>
<path opacity="0.1" d="M93.8407 42.0469H88.3389V47.5523H93.8407V42.0469Z" fill="#E58411"/>
<path opacity="0.1" d="M93.8407 55.636H88.3389V61.1414H93.8407V55.636Z" fill="#E58411"/>
<path opacity="0.1" d="M93.8407 69.2251H88.3389V74.7305H93.8407V69.2251Z" fill="#E58411"/>
<path d="M110.675 51.7203C110.675 51.7203 107.478 35.8049 108.699 33.8082C108.699 33.8082 108.738 31.9666 108.66 29.6209V29.3496C108.88 29.4902 109.106 29.6196 109.338 29.7373C110.464 30.3239 111.763 30.4889 113 30.2025L112.031 29.1169C111.779 28.8806 111.598 28.5785 111.508 28.2446C111.45 27.915 111.605 27.6049 111.721 27.2947C112.651 24.9685 112.69 22.0413 110.907 20.2578C109.416 18.7651 109.048 16.846 107.42 15.4696C106.239 14.481 105.58 13.0077 104.96 11.5926C104.437 10.3907 103.914 9.18878 103.623 7.92873C103.391 6.94008 103.294 5.91265 102.984 4.94338C102.674 3.97412 102.074 3.04362 101.124 2.59776C100.795 2.44268 100.427 2.36513 100.117 2.15189C99.7101 1.8805 99.4776 1.45402 99.187 1.06631C97.7147 -0.872222 92.8135 0.271514 90.4888 1.06631C89.8551 1.26151 89.2683 1.58482 88.7646 2.0162L88.784 1.97743C88.8076 1.94786 88.8271 1.91526 88.8421 1.8805C88.5883 2.09307 88.3664 2.34117 88.1834 2.61714C87.8347 3.15993 87.6991 3.78026 87.4279 4.36182C87.0792 5.04031 85.2001 6.97885 86.0137 7.75426C86.0658 7.81081 86.1331 7.85118 86.2074 7.87057C86.5133 7.99912 86.8508 8.03289 87.1761 7.9675L87.1373 8.04504C86.7772 8.92828 86.6421 9.88724 86.7442 10.8357C86.8462 11.7841 87.1823 12.6923 87.7221 13.4785C88.262 14.2648 88.9886 14.9044 89.8367 15.34C90.6849 15.7755 91.6279 15.9933 92.581 15.9737C93.1915 15.9704 93.7983 15.879 94.3826 15.7023C94.402 15.7798 94.402 15.8573 94.4214 15.9155C94.4201 15.9489 94.4267 15.9821 94.4408 16.0124L94.3439 16.1481L94.3245 16.1287L91.283 20.3741C90.8181 20.7037 88.1447 22.6422 87.9897 24.0961C87.8347 25.6857 87.6797 27.5467 87.6797 27.5467L87.6604 27.9538C87.529 28.0678 87.3739 28.1513 87.2065 28.1982C87.039 28.2451 86.8632 28.2543 86.6917 28.2252C85.7425 28.0701 85.7425 31.7146 85.7425 31.7146C85.7425 31.7146 85.1032 32.2961 84.677 31.7921C84.2508 31.2881 83.0884 32.994 83.0884 32.994L75.9012 33.3042H75.7463L75.3588 32.1023C75.3386 32.0386 75.3059 31.9795 75.2628 31.9284C75.2197 31.8773 75.1669 31.8353 75.1075 31.8047C75.0482 31.774 74.9833 31.7555 74.9167 31.75C74.8501 31.7445 74.7831 31.7522 74.7195 31.7727C74.6808 31.7921 74.6614 31.7921 74.6226 31.8115L74.6033 31.8309L74.5452 31.8696L74.5258 31.889L74.487 31.9278L74.4677 31.9472L74.4483 31.9666C74.403 32.0267 74.3725 32.0966 74.359 32.1706C74.3456 32.2447 74.3496 32.3208 74.3708 32.3931L74.7001 33.4205C73.3053 33.6919 71.8911 34.4867 73.0535 36.6578L67.1836 35.5723L69.0821 37.1618L78.8652 39.1779C78.7296 39.4106 78.8265 39.7401 79.2333 40.2247C80.9768 42.2796 84.1539 42.8224 85.4325 42.9775C85.7649 43.7364 86.1877 44.4524 86.6917 45.1098L86.5755 47.1453C86.5755 47.1453 83.3403 62.7118 82.7397 63.4872C83.0385 63.1468 83.3105 62.7838 83.5534 62.4016C82.6235 65.6002 81.3062 69.9813 80.9575 70.621C80.3957 71.6678 79.892 75.9132 80.5119 76.1846C80.7056 76.2621 81.2674 76.2233 82.0423 76.1652V76.5141L82.0036 89.8125C82.0036 89.8125 82.1586 97.9737 81.7324 98.7491C81.3062 99.5245 81.1899 101.153 81.1899 101.153C81.1899 101.153 79.4464 104.371 78.071 105.67C78.071 105.689 78.0516 105.689 78.0322 105.689L77.9935 105.379C77.9935 105.379 76.3274 107.473 72.666 107.356C72.666 107.356 70.4576 108.791 73.7315 108.868C77.0055 108.946 81.1899 108.752 81.1899 108.752C81.1899 108.752 84.1152 104.293 86.5561 104.875V108.248H87.3117V104.894C87.6565 104.663 87.9521 104.366 88.1816 104.02C88.411 103.674 88.5696 103.286 88.6484 102.878C88.7155 102.457 88.6702 102.025 88.5171 101.627C88.3641 101.229 88.1086 100.878 87.7766 100.61C87.6279 100.475 87.5082 100.31 87.425 100.127C87.3417 99.9435 87.2966 99.7452 87.2923 99.5439L87.2729 99.5633C87.2729 99.5052 87.2535 99.4276 87.2535 99.3501C87.0404 97.6054 86.7692 93.9997 87.7185 91.3439C89.0165 87.6995 89.4233 82.6011 88.474 79.577C88.1655 78.6102 87.9133 77.6264 87.7185 76.6304C87.6991 76.4947 87.6797 76.3784 87.6604 76.2815C88.307 76.3715 88.9475 76.501 89.5783 76.6692C91.7673 77.2702 96.5911 77.3865 100.698 77.3477C100.701 77.4649 100.714 77.5816 100.737 77.6966C100.815 78.5172 100.971 79.3286 101.202 80.1198C101.725 81.6706 101.957 88.5137 101.957 88.5137C101.957 88.5137 102.616 94.1354 102.267 96.4229C102.074 97.7023 101.88 98.9818 101.764 100.261V100.281C101.764 100.281 100.679 103.382 99.8844 105.069C99.8616 105.112 99.8421 105.158 99.8263 105.204C99.6143 105.22 99.4055 105.265 99.2064 105.34C99.2064 105.34 98.1409 107.473 97.0754 107.821C96.0099 108.17 96.3586 109.334 98.7802 108.907C101.202 108.481 104.824 108.132 104.824 108.132L104.979 105.96L105.716 105.03L105.522 107.201L106.316 107.046L106.219 104.41L107.42 102.898C107.42 102.898 108.893 101.599 106.704 99.0399V99.0981C106.685 99.0551 106.658 99.0157 106.626 98.9818V98.9624C106.258 98.4002 105.987 97.3534 106.51 95.5118C107.459 92.1775 108.021 89.1534 108.021 89.1534C108.021 89.1534 110.133 81.0309 107.595 77.1926H107.711C107.452 76.6518 107.27 76.0777 107.169 75.4867C107.149 75.4092 107.149 75.351 107.13 75.2735C109.009 75.1572 110.869 74.8276 112.38 74.091C112.322 74.0522 111.43 54.7831 110.675 51.7203ZM86.7305 38.2862V38.325L86.343 38.3444L86.7305 38.2862ZM85.4132 38.4801C85.3517 38.4977 85.293 38.5238 85.2388 38.5576C85.0686 38.7913 84.9618 39.0651 84.9288 39.3524L84.3283 39.2167C84.3283 39.2167 83.9021 39.1198 83.3016 39.0228L83.011 38.7321C83.8052 38.6739 84.6189 38.577 85.4132 38.4801Z" fill="url(#paint0_linear_407_574)"/>
<path d="M105.406 104.409L105.174 107.162L105.949 107.007L105.832 104.022L105.406 104.409Z" fill="#1D2366"/>
<path d="M87.7767 91.3826C86.8468 94.0384 87.0986 97.6247 87.3117 99.3694C87.3892 100.009 87.4667 100.397 87.4667 100.397C87.4667 100.397 86.0719 103.576 85.9557 103.692C85.8394 103.809 81.8487 106.251 81.8487 106.251L79.059 107.88C79.059 107.88 76.2307 106.639 77.5867 106.212C77.8618 106.093 78.1115 105.921 78.3229 105.708C79.679 104.41 81.3837 101.211 81.3837 101.211C81.3837 101.211 81.5 99.5827 81.9262 98.8072C82.3524 98.0318 82.1974 89.9094 82.1974 89.9094L82.2361 76.6692V74.9438L87.5248 74.9826C87.5642 75.5686 87.6418 76.1514 87.7573 76.7273C87.951 77.716 88.2029 78.7046 88.4935 79.6739C89.4427 82.6786 89.0553 87.7382 87.7767 91.3826Z" fill="#FFB0B1"/>
<path opacity="0.1" d="M87.4667 100.397C87.4667 100.397 86.0719 103.576 85.9556 103.692C85.8394 103.809 81.8487 106.251 81.8487 106.251L79.059 107.88C79.059 107.88 76.2307 106.639 77.5867 106.212C77.8617 106.092 78.1115 105.921 78.3229 105.708L78.4391 106.561L79.369 106.523L87.3117 99.3694C87.3892 99.9897 87.4667 100.397 87.4667 100.397Z" fill="black"/>
<path d="M87.3698 99.5437L79.3883 106.736L78.4584 106.774L78.2647 105.417C78.2647 105.417 76.6374 107.511 73.0341 107.395C73.0341 107.395 70.8644 108.829 74.0802 108.907C77.2961 108.984 81.3837 108.79 81.3837 108.79C81.3837 108.79 84.2508 104.332 86.653 104.913V108.286H87.3892V104.894C87.7316 104.664 88.0233 104.367 88.2466 104.02C88.4698 103.674 88.6197 103.285 88.6871 102.878C88.7516 102.458 88.7071 102.029 88.5578 101.632C88.4085 101.235 88.1595 100.883 87.8347 100.61C87.6882 100.474 87.5712 100.309 87.4912 100.125C87.4112 99.9418 87.3699 99.7439 87.3698 99.5437Z" fill="#1D2366"/>
<path d="M106.142 95.5117C105.619 97.3533 105.91 98.3807 106.259 98.9429V98.9623C106.714 99.6502 107.03 100.421 107.189 101.23L107.227 101.405L103.585 106.697L101.609 107.472C101.609 107.472 98.4322 106.387 99.0134 106.077C99.1684 105.999 99.3815 105.592 99.6527 105.049C100.428 103.363 101.493 100.28 101.493 100.28V100.242C101.609 98.9623 101.784 97.6828 101.977 96.4228C102.326 94.1353 101.687 88.533 101.687 88.533C101.687 88.533 101.454 81.7287 100.951 80.1779C100.717 79.3949 100.567 78.589 100.505 77.7741C100.408 76.8048 100.369 76.01 100.369 76.01C100.369 76.01 102.462 73.1022 106.278 76.2427C106.587 76.4899 106.855 76.7843 107.072 77.115C109.726 80.8758 107.595 89.1727 107.595 89.1727C107.595 89.1727 107.072 92.1774 106.142 95.5117Z" fill="#FFB0B1"/>
<path opacity="0.1" d="M107.227 101.405L103.585 106.697L101.609 107.472C101.609 107.472 98.4322 106.387 99.0134 106.077C99.1684 105.999 99.3815 105.592 99.6527 105.049C100.989 105.03 101.687 106.309 101.687 106.309L103.392 106.038C103.392 106.038 105.639 101.618 106.142 101.347C106.646 101.075 106.22 99.3306 106.22 99.3306V98.8848C106.239 98.9042 106.239 98.9235 106.259 98.9429V98.9623C106.714 99.6502 107.03 100.421 107.189 101.23L107.227 101.405Z" fill="black"/>
<path d="M101.822 106.426C101.822 106.426 100.853 104.642 98.9933 105.301C98.9933 105.301 97.9472 107.434 96.9011 107.783C95.8549 108.131 96.2037 109.295 98.5671 108.868C100.931 108.442 104.476 108.093 104.476 108.093L104.631 105.922L107.033 102.859C107.033 102.859 108.466 101.56 106.335 99.001V99.4468C106.335 99.4468 106.762 101.192 106.258 101.463C105.754 101.734 103.526 106.154 103.526 106.154L101.822 106.426Z" fill="#1D2366"/>
<path opacity="0.1" d="M87.5444 74.9631C87.5837 75.5491 87.6614 76.1319 87.7769 76.7078C85.5878 76.3782 83.573 76.5527 82.2363 76.6496V74.9243L87.5444 74.9631Z" fill="black"/>
<path opacity="0.1" d="M107.304 77.5996C107.304 77.5996 104.205 77.7547 100.505 77.7741C100.408 76.8048 100.369 76.01 100.369 76.01C100.369 76.01 102.461 73.1022 106.278 76.2427C106.587 76.4899 106.855 76.7843 107.072 77.115C107.15 77.2701 107.227 77.4446 107.304 77.5996Z" fill="black"/>
<path d="M107.304 77.2508C107.304 77.2508 93.7242 77.9099 89.5979 76.7468C85.4715 75.5836 81.3645 76.5917 80.7446 76.3203C80.1247 76.0489 80.6284 71.8229 81.1708 70.7955C81.7133 69.768 84.6966 59.1836 84.6966 59.1836L87.5638 44.2375L90.5859 43.4039L90.799 43.3458L96.0489 41.8919L99.904 40.8257C99.904 40.8257 107.556 70.7373 106.898 72.9472C106.666 73.7936 106.626 74.6812 106.781 75.5449C106.87 76.1364 107.046 76.7115 107.304 77.2508Z" fill="#1D2366"/>
<path d="M77.5677 34.0212C77.5677 34.0212 74.8556 36.929 76.9091 38.5574C78.9625 40.1858 80.3186 38.7125 80.3186 38.7125L77.5677 34.0212Z" fill="#C7DAF5"/>
<path opacity="0.1" d="M77.5677 34.0212C77.5677 34.0212 74.8556 36.929 76.9091 38.5574C78.9625 40.1858 80.3186 38.7125 80.3186 38.7125L77.5677 34.0212Z" fill="black"/>
<path d="M99.4779 14.9073C99.4779 14.9073 99.1679 15.2175 98.6836 15.6634C98.0056 16.3031 96.9982 17.2336 96.1071 18.009C94.8673 19.0946 93.8405 19.8894 94.2086 19.2109C94.5767 18.5324 94.4992 17.3499 94.3248 16.2449C94.3055 16.1674 94.3055 16.0898 94.2861 16.0317C94.134 15.2192 93.9334 14.4165 93.6855 13.6279C93.6855 13.6279 95.6809 11.0303 96.8045 10.0222C97.2113 9.63452 97.5019 9.47943 97.5213 9.75083C97.5407 10.1191 97.8119 10.914 98.1412 11.7669C98.1461 11.7961 98.1596 11.8231 98.18 11.8444C98.4124 12.426 98.6643 13.027 98.8774 13.531C99.2067 14.3064 99.4779 14.9073 99.4779 14.9073Z" fill="#FFB0B1"/>
<path opacity="0.1" d="M98.1604 11.8251C97.97 12.8389 97.5122 13.7832 96.8344 14.5603C96.1565 15.3375 95.2833 15.9191 94.3053 16.245C94.1518 15.3591 93.9382 14.4848 93.666 13.6279C93.666 13.6279 97.4437 8.76221 97.5018 9.73148C97.5212 10.0998 97.8117 10.9334 98.1604 11.8251Z" fill="black"/>
<path opacity="0.1" d="M93.9375 17.5437L94.4219 16.8652C94.4219 16.8652 94.7512 18.8425 95.9329 17.9702C97.1146 17.0979 97.1728 24.5225 97.1728 24.5225L95.8942 43.617L86.6729 43.0549L86.9247 33.8274L87.9708 29.1749L90.5474 22.4094L92.0778 20.1801L93.9375 17.5437Z" fill="black"/>
<path d="M97.1729 24.6194L96.0106 41.8917L95.8943 43.7139L90.7606 43.4038L90.5669 43.3844L86.6924 43.1518L86.9442 33.9243L87.9903 29.2719L90.5669 22.5064L92.0973 20.2771L93.9183 17.6406L94.4026 16.9622C94.4026 16.9622 94.732 18.9395 95.9137 18.0671L95.9331 18.0477C97.1342 17.3111 97.1729 24.6194 97.1729 24.6194Z" fill="#1D2366"/>
<path d="M88.1257 27.6628C88.1257 27.6628 87.6608 28.6321 86.7309 28.477C85.801 28.3219 85.801 31.9664 85.801 31.9664C85.801 31.9664 85.1811 32.548 84.7549 32.0439C84.3287 31.5399 83.2051 33.2458 83.2051 33.2458L76.1729 33.556C76.1729 33.556 79.3112 34.9905 78.6913 39.3328C78.6913 39.3328 89.3268 38.6737 89.6755 37.6657C90.0242 36.6576 88.1257 27.6628 88.1257 27.6628Z" fill="white"/>
<path opacity="0.03" d="M88.1257 27.6628C88.1257 27.6628 87.6608 28.6321 86.7309 28.477C85.801 28.3219 85.801 31.9664 85.801 31.9664C85.801 31.9664 85.1811 32.548 84.7549 32.0439C84.3287 31.5399 83.2051 33.2458 83.2051 33.2458L76.1729 33.556C76.1729 33.556 79.3112 34.9905 78.6913 39.3328C78.6913 39.3328 89.3268 38.6737 89.6755 37.6657C90.0242 36.6576 88.1257 27.6628 88.1257 27.6628Z" fill="black"/>
<path d="M67.668 35.8435L69.5084 37.4137L84.7933 40.6317L82.8948 38.6932L67.668 35.8435Z" fill="white"/>
<path d="M93.957 18.1446C93.7052 18.5323 92.969 20.5096 92.3685 22.2543C91.8648 23.7082 91.4386 24.9683 91.4386 24.9683C91.4386 24.9683 90.4506 31.3848 89.9469 32.5479C89.4433 33.7111 89.7145 38.2472 89.7145 38.2472L87.8353 49.4326C87.8353 49.4326 86.9829 55.2094 85.6656 58.6406C84.3677 62.0331 82.9341 63.6227 82.876 63.6808C83.4572 62.886 86.6149 47.3971 86.6149 47.3971L87.661 27.8567C87.661 27.8567 87.816 25.9957 87.9709 24.4061C88.1259 22.8165 91.2643 20.6453 91.2643 20.6453L94.2864 16.3418C94.6351 16.7489 94.422 17.4468 93.957 18.1446Z" fill="white"/>
<path d="M86.0719 43.268C86.0719 43.268 81.6162 43.0742 79.4658 40.4765C77.3155 37.8789 84.464 39.4491 84.464 39.4491L86.3237 39.8756L86.0719 43.268Z" fill="#FFB0B1"/>
<path opacity="0.1" d="M106.878 72.9471C106.646 73.7934 106.606 74.681 106.762 75.5447C101.899 75.8937 96.7073 74.5755 96.7073 74.5755C95.7387 75.4672 93.1815 76.7854 93.1815 76.7854L91.7867 59.5324C90.8956 57.2062 90.5469 45.0128 90.5469 45.0128C90.5469 45.0128 90.6244 44.3731 90.7406 43.4232V43.3456C91.0893 40.6705 91.7673 35.669 92.1161 34.9905C92.581 34.0601 90.6825 31.5787 90.6825 31.5787L91.5542 24.2123L91.6511 23.3206C93.4721 22.5064 94.8669 19.9087 94.8669 19.9087L95.9324 18.0284C97.0948 17.2723 97.1529 24.6 97.1529 24.6L95.9906 41.8724L99.8457 40.8062C99.865 40.8449 107.537 70.7372 106.878 72.9471Z" fill="black"/>
<path d="M111.857 74.149C106.569 76.7854 96.9212 74.3428 96.9212 74.3428C95.9526 75.2346 93.3954 76.5528 93.3954 76.5528L92.0006 59.2998C91.1094 56.9735 90.7607 44.7802 90.7607 44.7802C90.7607 44.7802 91.8843 35.6884 92.3493 34.7579C92.4849 34.4865 92.4268 34.0794 92.2524 33.653C91.4588 31.5862 91.1667 29.3606 91.4 27.1589L91.7681 23.9991L91.865 23.1073C93.686 22.2931 95.0808 19.6955 95.0808 19.6955L96.0494 17.9896L97.8317 14.8686L98.6841 13.3953L98.8197 13.531L99.9239 14.5196L101.086 15.4889C102.597 16.7683 105.232 19.017 106.569 20.3934C107.75 21.6147 108.138 26.3253 108.235 29.8728C108.312 32.2184 108.273 34.0407 108.273 34.0407C107.072 36.018 110.211 51.8752 110.211 51.8752C110.986 54.9575 111.857 74.149 111.857 74.149Z" fill="white"/>
<path opacity="0.03" d="M101.705 19.6568C101.705 19.6568 98.0633 26.5773 98.4895 29.2137C98.9157 31.8501 100.117 34.8355 99.5356 35.514C99.3383 35.78 99.0812 35.9959 98.785 36.1441C98.4888 36.2923 98.162 36.3686 97.8309 36.3669C97.2497 36.4057 95.6999 37.4913 95.6999 37.6076C95.6999 37.7239 94.2663 37.7239 92.9877 38.2667C91.7091 38.8095 89.8106 39.1196 89.8106 39.1196C89.8106 39.1196 86.1298 39.0033 85.7811 39.3523C85.4324 39.7012 85.0837 41.7948 85.8199 43.462C86.556 45.1291 87.3697 46.3698 87.9896 46.6024C88.6095 46.835 92.5228 45.5168 95.6805 45.2066C98.8382 44.8965 102.287 42.3764 102.287 42.3764C102.287 42.3764 106.084 41.0194 106.742 38.7319C107.401 36.4445 105.929 23.9021 105.929 23.9021C105.929 23.9021 104.824 18.0672 101.705 19.6568Z" fill="black"/>
<path opacity="0.03" d="M101.241 19.0752C101.241 19.0752 97.5985 25.9958 98.0247 28.6322C98.4509 31.2686 99.652 34.2539 99.0708 34.9324C98.8735 35.1985 98.6163 35.4144 98.3202 35.5625C98.024 35.7107 97.6971 35.7871 97.366 35.7854C96.7848 35.8242 95.235 36.9097 95.235 37.026C95.235 37.1424 93.8015 37.1424 92.5229 37.6851C91.2443 38.2279 89.3458 38.5381 89.3458 38.5381C89.3458 38.5381 85.665 38.4218 85.3163 38.7707C84.9676 39.1197 84.6189 41.2133 85.355 42.8804C86.0912 44.5476 86.9048 45.7882 87.5248 46.0208C88.1447 46.2535 92.0579 44.9353 95.2157 44.6251C98.3734 44.3149 101.822 41.7948 101.822 41.7948C101.822 41.7948 105.619 40.4379 106.258 38.1504C106.897 35.8629 105.444 23.3206 105.444 23.3206C105.444 23.3206 104.359 17.4856 101.241 19.0752Z" fill="black"/>
<path d="M101.589 19.3079C101.589 19.3079 97.9471 26.2284 98.3733 28.8648C98.7995 31.5013 100.001 34.4866 99.4194 35.1651C99.2221 35.4312 98.9649 35.647 98.6688 35.7952C98.3726 35.9434 98.0457 36.0197 97.7146 36.018C97.1335 36.0568 95.5837 37.1424 95.5837 37.2587C95.5837 37.375 94.1501 37.375 92.8715 37.9178C91.5929 38.4606 89.6944 38.7708 89.6944 38.7708C89.6944 38.7708 86.0136 38.6545 85.6649 39.0034C85.3162 39.3523 84.9675 41.4459 85.7037 43.1131C86.4398 44.7802 87.2535 46.0209 87.8734 46.2535C88.4933 46.4861 92.4066 45.1679 95.5643 44.8578C98.722 44.5476 102.17 42.0275 102.17 42.0275C102.17 42.0275 105.967 40.6705 106.626 38.3831C107.285 36.0956 105.832 23.5533 105.832 23.5533C105.832 23.5533 104.708 17.7376 101.589 19.3079Z" fill="white"/>
<path opacity="0.1" d="M101.512 37.8984C101.512 37.8984 98.6062 37.3168 99.6136 38.2861C100.621 39.2553 100.621 40.1083 101.861 40.0695C103.101 40.0308 101.512 37.8984 101.512 37.8984Z" fill="black"/>
<path opacity="0.1" d="M106.414 58.7571C106.414 58.7571 105.096 59.6488 107.615 61.7036C110.133 63.7585 106.414 58.7571 106.414 58.7571Z" fill="black"/>
<path opacity="0.1" d="M103.915 66.0654C103.915 66.1817 103.45 70.3302 105.193 71.3576C106.937 72.3851 103.915 66.0654 103.915 66.0654Z" fill="black"/>
<path d="M76.2889 33.5562C74.8941 33.6143 71.8526 34.0408 73.4218 36.968C74.8166 39.5656 77.1413 37.8209 78.4587 36.5027C78.1414 35.2777 77.3642 34.2223 76.2889 33.5562Z" fill="#FFB0B1"/>
<path d="M78.4785 36.4832L78.5366 36.425L78.4785 36.4832Z" fill="#FFB0B1"/>
<path opacity="0.1" d="M101.125 15.6051L98.1415 17.6599C97.4828 18.1446 96.2042 21.0524 95.3906 22.5451C94.7319 23.7276 92.6203 24.0377 91.8066 24.1153L91.9035 23.2235C93.7245 22.4094 95.1193 19.8117 95.1193 19.8117L98.7226 13.5115L99.9625 14.6358L101.125 15.6051Z" fill="black"/>
<path d="M101.125 15.4889L98.1415 17.5437C97.4828 18.0284 96.2042 20.9362 95.3906 22.4095C94.7319 23.592 92.6203 23.9021 91.8066 23.9797L91.9035 23.0879C93.7245 22.2738 95.1193 19.6761 95.1193 19.6761L98.7226 13.3953L99.9625 14.5196C99.9625 14.5002 100.427 14.8879 101.125 15.4889Z" fill="#DCE7FF"/>
<path d="M98.2576 10.5455C98.2563 11.8281 97.8257 13.0732 97.0344 14.0822C96.2432 15.0912 95.137 15.8058 93.8923 16.112C92.6477 16.4182 91.3364 16.2983 90.1678 15.7714C88.9993 15.2446 88.0408 14.3412 87.4454 13.2054C86.85 12.0697 86.652 10.7671 86.883 9.50553C87.114 8.244 87.7608 7.09628 88.7199 6.2456C89.6791 5.39492 90.8955 4.89033 92.1748 4.81237C93.4541 4.73442 94.7227 5.08759 95.7779 5.81552C96.5445 6.3427 97.171 7.04903 97.6031 7.87328C98.0352 8.69752 98.2599 9.61478 98.2576 10.5455Z" fill="#FFB0B1"/>
<path opacity="0.1" d="M108.273 29.8729C107.484 29.3881 106.841 28.698 106.413 27.8762C106.084 27.2365 105.871 26.4998 105.329 26.0346C104.825 25.6275 104.166 25.5306 103.546 25.3561C101.512 24.7551 99.8073 22.8942 99.7299 20.7618C99.6911 19.7537 100.02 18.7651 99.8655 17.7764C99.7801 17.2155 99.5608 16.6835 99.2262 16.2256C99.0543 16.0114 98.8665 15.8105 98.6644 15.6246C98.3931 15.3726 98.1026 15.1206 97.8507 14.8492C97.6937 14.6784 97.5571 14.4897 97.4439 14.2871C97.347 14.1287 97.269 13.9595 97.2114 13.783C96.824 12.6005 97.1727 11.1854 96.7465 9.9835L96.7271 9.92535C96.5721 9.49887 96.2428 9.07239 95.7778 9.03362C95.3129 8.99485 94.9255 9.38256 94.4993 9.53764C93.5888 9.88658 92.6008 9.28563 91.8452 8.68468C91.0897 8.08374 90.2373 7.36648 89.2687 7.50218C88.6294 7.5991 88.1257 8.02558 87.5445 8.2582C87.4146 8.31474 87.2778 8.35385 87.1377 8.37452C87.6334 7.13391 88.5455 6.1048 89.7171 5.46398C90.8887 4.82317 92.2468 4.61067 93.558 4.86299C94.8692 5.11531 96.0516 5.8167 96.9022 6.84665C97.7527 7.8766 98.2183 9.1708 98.2188 10.5069C98.2227 10.9116 98.1771 11.3152 98.0832 11.7088C98.088 11.7379 98.1015 11.765 98.1219 11.7863C98.3544 12.3679 98.6062 12.9688 98.8193 13.4729L99.9236 14.4615L101.086 15.4308C102.597 16.7102 105.232 18.9589 106.568 20.3353C107.789 21.6147 108.176 26.3254 108.273 29.8729Z" fill="black"/>
<path d="M87.5254 4.74941C87.7966 4.18724 87.9323 3.54752 88.2616 3.02412C88.7459 2.2487 89.5983 1.74468 90.4701 1.4539C92.756 0.678487 97.5604 -0.465249 98.994 1.4539C99.2846 1.84161 99.517 2.26809 99.9045 2.53948C100.223 2.7113 100.553 2.86029 100.892 2.98535C101.803 3.41182 102.404 4.36171 102.713 5.31159C103.023 6.26147 103.12 7.2889 103.353 8.27755C103.643 9.5376 104.166 10.7395 104.67 11.9414C105.271 13.3565 105.91 14.8104 107.072 15.7991C108.661 17.156 109.01 19.0752 110.482 20.5679C112.225 22.3319 112.167 25.2591 111.276 27.566C111.16 27.8761 111.024 28.1863 111.063 28.5159C111.102 28.8454 111.354 29.1362 111.586 29.3882L112.535 30.4544C110.288 30.9972 107.731 29.8147 106.685 27.7598C106.356 27.1201 106.142 26.3835 105.6 25.9182C105.096 25.5111 104.438 25.4142 103.818 25.2397C101.784 24.6388 100.079 22.7778 100.001 20.6454C99.9626 19.6567 100.292 18.6487 100.137 17.6601C100.055 17.0982 99.8356 16.5654 99.4976 16.1092C98.9552 15.4114 98.1609 14.9461 97.7348 14.1707C96.9986 12.8719 97.5604 11.1853 97.0373 9.7896C96.8824 9.36313 96.553 8.93665 96.0881 8.89788C95.6231 8.85911 95.2357 9.24681 94.8095 9.4019C93.899 9.75083 92.9304 9.14989 92.1555 8.54894C91.3806 7.948 90.5475 7.23074 89.5789 7.36643C88.9396 7.46336 88.4359 7.88984 87.8548 8.12246C87.4286 8.29693 86.5374 8.43263 86.1694 8.06431C85.3363 7.34705 87.1767 5.4279 87.5254 4.74941Z" fill="#591D4B"/>
<path opacity="0.1" d="M107.207 27.1201C106.878 26.4804 106.665 25.7437 106.122 25.2979C105.619 24.8908 104.96 24.7939 104.34 24.6194C102.306 24.0184 100.601 22.1575 100.524 20.0251C100.485 19.0364 100.814 18.0284 100.659 17.0397C100.574 16.4788 100.355 15.9468 100.02 15.4889C99.4775 14.791 98.6832 14.3258 98.257 13.5503C97.5209 12.2515 98.0827 10.565 97.5403 9.16925C97.3853 8.74278 97.056 8.3163 96.591 8.27753C96.1261 8.23876 95.7386 8.62647 95.3124 8.80093C94.4019 9.14987 93.4139 8.54892 92.6584 7.94798C91.9029 7.34703 91.0505 6.62977 90.0819 6.76547C89.4426 6.8624 88.9389 7.28887 88.3577 7.5215C87.9315 7.69597 87.0404 7.83166 86.6529 7.46334C85.8586 6.68793 87.7184 4.76878 88.0477 4.09029C88.319 3.52811 88.4546 2.8884 88.8033 2.36499C88.8269 2.33542 88.8464 2.30282 88.8614 2.26807C88.6135 2.47365 88.398 2.71546 88.2221 2.98532C87.8927 3.52811 87.7571 4.14845 87.4859 4.71062C87.1566 5.38911 85.2968 7.30826 86.0911 8.08368C86.4786 8.452 87.3503 8.29691 87.7765 8.14183C88.3577 7.9092 88.8614 7.48273 89.5007 7.3858C90.4693 7.2501 91.3217 7.94798 92.0772 8.56831C92.8327 9.18864 93.8208 9.78959 94.7313 9.42126C95.1575 9.2468 95.5449 8.87847 96.0098 8.91724C96.4748 8.95601 96.7847 9.38249 96.9591 9.80897C97.4822 11.2047 96.9204 12.8912 97.6565 14.1901C98.0827 14.9461 98.8963 15.4307 99.4194 16.1286C99.7651 16.5803 99.9857 17.1152 100.059 17.6794C100.194 18.6681 99.8843 19.6761 99.9231 20.6648C99.9812 22.7972 101.705 24.6582 103.739 25.2591C104.359 25.4336 105.018 25.5305 105.522 25.9376C106.084 26.4028 106.297 27.1201 106.607 27.7792C107.653 29.8534 110.21 31.0359 112.457 30.4738L112.012 29.9698C110.074 29.9891 108.098 28.8648 107.207 27.1201Z" fill="black"/>
<path opacity="0.1" d="M93.8404 18.2609C93.5886 18.6487 92.8524 20.626 92.2518 22.3706C91.69 22.1574 91.167 20.7423 91.167 20.7423L94.1891 16.4387C94.5184 16.8652 94.3053 17.5631 93.8404 18.2609Z" fill="black"/>
<path d="M93.9566 18.1447C93.7048 18.5324 92.9686 20.5097 92.3681 22.2544C91.8063 22.0412 91.2832 20.6261 91.2832 20.6261L94.3053 16.3225C94.6347 16.749 94.4216 17.4469 93.9566 18.1447Z" fill="#DCE7FF"/>
<path d="M76.3663 37.9566L74.6809 32.6644C74.6424 32.541 74.6532 32.4074 74.711 32.2918C74.7688 32.1761 74.8691 32.0873 74.9909 32.0441C75.0532 32.0247 75.1187 32.0178 75.1837 32.0239C75.2487 32.03 75.3118 32.0489 75.3695 32.0795C75.4271 32.1102 75.4781 32.1519 75.5195 32.2024C75.561 32.2529 75.592 32.3111 75.6108 32.3736L77.2962 37.6658L77.1218 38.7708L76.3663 37.9566Z" fill="#BE8B87"/>
<path opacity="0.1" d="M74.8557 32.1991C74.918 32.1797 74.9835 32.1729 75.0485 32.1789C75.1135 32.185 75.1766 32.2039 75.2343 32.2346C75.2919 32.2652 75.3429 32.307 75.3844 32.3575C75.4258 32.4079 75.4568 32.4661 75.4756 32.5287L77.161 37.8209L77.0254 38.6545L77.1416 38.7902L77.316 37.6852L75.6306 32.393C75.5887 32.2693 75.5013 32.1663 75.386 32.105C75.2708 32.0437 75.1365 32.0289 75.0106 32.0634C74.9077 32.0987 74.8192 32.1668 74.7588 32.2573C74.7679 32.2395 74.7818 32.2246 74.7989 32.2143C74.816 32.204 74.8357 32.1988 74.8557 32.1991Z" fill="white"/>
<path d="M76.3662 37.9567L77.3155 37.6465L77.1799 38.5576L77.1411 38.7708L76.8699 38.4801L76.3662 37.9567Z" fill="#EFC8C4"/>
<path d="M76.8701 38.4798L76.9282 38.4217C76.9426 38.4121 76.9594 38.407 76.9767 38.407C76.9939 38.407 77.0108 38.4121 77.0251 38.4217C77.0445 38.4411 77.0445 38.4605 77.0638 38.4798C77.076 38.5008 77.0928 38.5186 77.113 38.5321C77.1331 38.5455 77.1561 38.5542 77.1801 38.5574L77.1413 38.7512L76.8701 38.4798Z" fill="#727A9C"/>
<path d="M74.6807 34.5447C74.6807 34.5447 78.0515 34.5253 77.2572 35.9598C76.4629 37.3943 75.2231 37.5688 75.2231 37.5688L74.6807 34.5447Z" fill="#FFB0B1"/>
<path d="M44.2856 20.1025H44.1306C38.3576 20.1025 33.2433 23.1654 30.2986 27.6822C27.354 23.1654 22.2397 20.1025 16.4667 20.1025H16.3117C11.9736 20.1399 7.82581 21.8901 4.77094 24.9724C1.71607 28.0547 0.00137215 32.2196 0 36.5607C0 41.9498 2.36345 49.607 6.95474 55.8879C15.7305 67.8874 30.2793 78.3749 30.2793 78.3749C30.2793 78.3749 44.8474 67.8874 53.6038 55.8879C58.2145 49.5877 60.5585 41.9498 60.5585 36.5607C60.5725 32.2216 58.868 28.0537 55.8183 24.9692C52.7685 21.8847 48.6217 20.1348 44.2856 20.1025ZM42.2127 56.8184C41.5535 56.819 40.9096 56.6191 40.3664 56.2452C39.8233 55.8713 39.4065 55.3411 39.1713 54.7248H35.7229C35.4972 54.7213 35.2779 54.6489 35.0944 54.5172C34.9109 54.3856 34.772 54.201 34.6962 53.9881L33.6307 50.7896L30.2793 62.5371C30.2128 62.7625 30.0747 62.9601 29.8859 63.1C29.6972 63.2399 29.468 63.3145 29.2332 63.3125H29.175C28.9308 63.3006 28.6979 63.2058 28.5148 63.0437C28.3317 62.8816 28.2092 62.6619 28.1677 62.4208L24.7 41.5815L22.1622 53.9106C22.1063 54.1451 21.9722 54.3535 21.782 54.5015C21.5918 54.6495 21.357 54.7283 21.1161 54.7248H16.2536C15.9753 54.7263 15.7072 54.6199 15.5056 54.4281C15.3039 54.2362 15.1843 53.9737 15.1718 53.6955C15.1592 53.4173 15.2548 53.1451 15.4384 52.9358C15.622 52.7266 15.8794 52.5966 16.1567 52.573H20.2637L23.8476 35.9985C23.9072 35.7535 24.05 35.5367 24.2516 35.3854C24.4533 35.2341 24.7012 35.1577 24.9529 35.1691C25.2047 35.1806 25.4447 35.2792 25.6318 35.4482C25.8189 35.6172 25.9415 35.846 25.9786 36.0955L29.5237 57.3418L32.5265 46.8349C32.5902 46.6153 32.7223 46.4218 32.9034 46.2823C33.0846 46.1429 33.3054 46.0649 33.5339 46.0595H33.5532C33.7799 46.0594 34.0009 46.1303 34.1851 46.2625C34.3693 46.3947 34.5074 46.5813 34.58 46.7962L36.4979 52.573H39.1325C39.3155 51.9999 39.6537 51.4887 40.1096 51.0963C40.5654 50.7039 41.121 50.4456 41.7147 50.3501C42.3084 50.2546 42.9169 50.3257 43.4727 50.5554C44.0284 50.7851 44.5097 51.1645 44.8629 51.6514C45.2162 52.1383 45.4277 52.7137 45.4739 53.3136C45.5201 53.9135 45.3992 54.5145 45.1246 55.0498C44.85 55.5852 44.4326 56.0338 43.9185 56.346C43.4045 56.6582 42.814 56.8217 42.2127 56.8184Z" fill="#FF5757"/>
</g>
<defs>
<linearGradient id="paint0_linear_407_574" x1="90.0916" y1="109" x2="90.0916" y2="0.000119686" gradientUnits="userSpaceOnUse">
<stop stop-color="#808080" stop-opacity="0.25"/>
<stop offset="0.54" stop-color="#808080" stop-opacity="0.12"/>
<stop offset="1" stop-color="#808080" stop-opacity="0.1"/>
</linearGradient>
<clipPath id="clip0_407_574">
<rect width="113" height="109" fill="white"/>
</clipPath>
</defs>
</svg>
