<svg width="316" height="256" viewBox="0 0 316 256" fill="none" xmlns="http://www.w3.org/2000/svg">
<g clip-path="url(#clip0_407_464)">
<path d="M223.98 160.273L219.443 162.061L256.436 255.906L260.973 254.118L223.98 160.273Z" fill="#E6E6E6"/>
<path d="M230.958 160.215L193.966 254.06L198.503 255.847L235.495 162.002L230.958 160.215Z" fill="#E6E6E6"/>
<path d="M225.54 177.442C243.349 177.442 257.786 171.848 257.786 164.948C257.786 158.048 243.349 152.454 225.54 152.454C207.731 152.454 193.294 158.048 193.294 164.948C193.294 171.848 207.731 177.442 225.54 177.442Z" fill="#E6E6E6"/>
<path d="M252.483 170.25L200.853 164.034C198.467 163.746 196.162 162.991 194.068 161.812C191.975 160.633 190.134 159.053 188.651 157.163C185.656 153.346 184.3 148.495 184.882 143.678C185.464 138.861 187.936 134.473 191.754 131.478C195.572 128.484 200.424 127.129 205.241 127.71L256.872 133.927C259.257 134.215 261.563 134.97 263.656 136.149C265.75 137.328 267.591 138.908 269.074 140.798C270.557 142.688 271.653 144.852 272.3 147.165C272.946 149.479 273.131 151.898 272.843 154.283C272.554 156.668 271.799 158.972 270.62 161.066C269.441 163.159 267.861 164.999 265.97 166.482C264.08 167.965 261.916 169.061 259.601 169.707C257.287 170.354 254.868 170.538 252.483 170.25Z" fill="#2F2E41"/>
<path d="M242.364 40.4371L249.923 47.7505L259.615 52.0167C258.762 52.6261 254.312 112.596 260.042 115.095C264.918 117.228 259.92 118.995 260.103 123.932C260.286 128.868 260.895 139.046 260.895 139.046C234.013 149.407 223.59 150.382 207.985 132.647C207.876 131.65 208.113 130.645 208.657 129.802C209.201 128.959 210.018 128.328 210.972 128.015C214.446 126.674 209.143 117.898 211.947 116.862C214.751 115.826 212.434 103.698 212.434 103.698L206.4 76.3338L204.937 72.1895L212.556 48.9084L221.151 46.8973L225.357 39.401L242.364 40.4371Z" fill="#E6E6E6"/>
<path d="M172.203 94.0689C172.737 93.2744 173.424 92.5933 174.222 92.0649C175.021 91.5365 175.916 91.1712 176.857 90.99C177.797 90.8087 178.764 90.8151 179.702 91.0088C180.64 91.2025 181.53 91.5797 182.322 92.1186C182.673 92.3488 183 92.6142 183.297 92.9109L206.339 81.2704L204.815 94.6174L183.175 103.637C182.465 104.282 181.634 104.779 180.73 105.101C179.826 105.422 178.868 105.562 177.91 105.511C176.952 105.46 176.014 105.219 175.149 104.804C174.285 104.388 173.511 103.805 172.874 103.089C171.744 101.89 171.061 100.34 170.939 98.6976C170.817 97.0554 171.263 95.4212 172.203 94.0689Z" fill="#A0616A"/>
<path d="M184.699 102.723C186.833 104.003 188.417 103.393 189.576 101.199L211.947 94.1907L212.008 94.0688C212.069 93.886 214.507 83.6472 216.64 74.0788C216.945 72.6161 217.25 71.1535 217.555 69.7517C217.677 69.1423 217.799 68.5328 217.92 67.9843C218.577 65.0456 219.085 62.0759 219.444 59.0863C219.774 55.3032 218.807 51.5205 216.701 48.36L216.64 48.299H216.579C214.733 47.7914 212.769 47.9249 211.009 48.6777C209.248 49.4304 207.795 50.758 206.887 52.4433C202.547 60.6193 200.188 69.7001 199.999 78.9544L199.877 84.1957L186.65 91.2044C185.004 90.7778 183.846 91.3263 183.236 93.0328L184.699 102.723Z" fill="#E6E6E6"/>
<path d="M196.89 230.708L203.352 236.558L229.015 214.557L219.505 205.903L196.89 230.708Z" fill="#FFB6B6"/>
<path d="M197.195 227.112L199.024 228.758L208.716 232.353L209.874 238.692C212.003 240.647 213.275 243.364 213.411 246.251C213.548 249.138 212.54 251.963 210.606 254.111L210.362 254.355L189.637 235.462L197.195 227.112Z" fill="#2F2E41"/>
<path d="M245.595 162.266L240.048 151.54C240.535 140.692 249.923 132.22 260.712 133.317C266.747 133.927 272.233 137.523 274.184 147.64C279.243 173.663 218.347 225.101 218.347 225.101L207.802 218.031L207.558 210.962L213.775 207.427L214.019 201.393L219.871 198.894L245.595 162.266Z" fill="#2F2E41"/>
<path d="M229.258 36.4757C238.416 36.4757 245.839 29.0539 245.839 19.8986C245.839 10.7433 238.416 3.32153 229.258 3.32153C220.101 3.32153 212.678 10.7433 212.678 19.8986C212.678 29.0539 220.101 36.4757 229.258 36.4757Z" fill="#A0616A"/>
<path d="M242.608 229.062L235.354 233.877L213.41 208.158L224.138 201.089L242.608 229.062Z" fill="#FFB6B6"/>
<path d="M249.069 234.913L225.662 250.332L225.479 250.027C224.69 248.831 224.144 247.491 223.873 246.084C223.602 244.677 223.611 243.23 223.899 241.826C224.188 240.422 224.751 239.089 225.555 237.903C226.36 236.717 227.39 235.701 228.588 234.913L230.721 228.819L240.84 226.807L242.913 225.467L249.069 234.913Z" fill="#2F2E41"/>
<path d="M209.387 161.23L216.275 150.077C217.494 139.29 209.508 129.478 198.719 128.869C192.684 128.503 186.65 131.184 183.175 140.875C174.154 165.74 226.211 226.076 226.211 226.076L237.731 220.713L239.073 213.765L233.525 209.316L234.257 203.343L228.832 199.931L209.387 161.23Z" fill="#2F2E41"/>
<path d="M234.927 23.86C234.917 23.6348 234.938 23.4093 234.988 23.1896C234.88 23.3962 234.859 23.6372 234.927 23.86Z" fill="#2F2E41"/>
<path d="M249.191 16.1809C248.601 13.4561 247.279 10.9438 245.367 8.91425C243.455 6.88467 241.026 5.41463 238.341 4.66226C237.617 3.42615 236.62 2.37178 235.426 1.57961C234.232 0.787438 232.873 0.278404 231.453 0.0913749C228.771 -0.274296 226.089 0.517995 223.529 1.37123C221.944 1.85879 220.359 2.40729 218.774 2.89485C217.494 3.32147 215.909 4.29659 216.336 5.57644C216.14 5.47387 215.926 5.4114 215.706 5.39272C215.486 5.37403 215.264 5.3995 215.054 5.46763C214.844 5.53576 214.65 5.64518 214.482 5.78945C214.315 5.93373 214.178 6.10996 214.08 6.30779C213.939 6.56152 213.87 6.84899 213.881 7.13905C213.892 7.4291 213.982 7.71068 214.141 7.95329C213.532 7.16101 212.191 7.64857 211.825 8.56275C211.717 9.03266 211.71 9.52012 211.805 9.99289C211.899 10.4657 212.093 10.913 212.373 11.3053C213.828 13.6976 216.036 15.5399 218.65 16.5435C221.264 17.5471 224.138 17.6553 226.82 16.8513C228.405 16.3637 229.99 15.5105 231.636 15.8762C233.16 16.2418 234.257 17.6436 234.684 19.1672C235.007 20.4823 235.09 21.8451 234.927 23.1896C235.133 22.7156 235.516 22.3413 235.995 22.1474C236.474 21.9536 237.01 21.9558 237.488 22.1535C238.646 22.702 239.073 24.2257 238.768 25.5055C238.463 26.7854 235.476 31.6 234.684 32.6361C233.808 33.5862 233.18 34.7375 232.855 35.9881L241.328 34.7082L241.511 34.8911C245.9 31.4172 250.289 21.6659 249.191 16.1809Z" fill="#2F2E41"/>
<path d="M208.533 133.013C209.252 131.225 210.648 129.793 212.417 129.028C214.187 128.264 216.186 128.228 217.982 128.929C218.408 129.112 218.774 129.295 219.14 129.478L239.195 113.145L240.536 126.492L221.273 139.9C220.225 141.314 218.702 142.304 216.983 142.686C215.264 143.068 213.465 142.818 211.916 141.98C210.367 141.143 209.172 139.775 208.55 138.128C207.929 136.48 207.923 134.664 208.533 133.013Z" fill="#A0616A"/>
<path d="M240.231 129.051C242.669 129.905 244.498 129.295 245.29 125.577L268.027 110.036V109.854C271.014 109.61 270.282 65.8513 265.772 63.6572C264.928 58.8466 262.478 54.464 258.823 51.2244L258.701 51.1635H258.579C256.107 51.126 253.696 51.9331 251.745 53.4513C249.795 54.9695 248.421 57.1079 247.85 59.513C245.178 71.149 245.219 83.2438 247.972 94.8611L249.557 101.443L239.621 109.854C236.878 109.122 235.659 110.219 235.842 113.023L240.231 129.051Z" fill="#E6E6E6"/>
<path d="M67.0372 166.658L62.7838 168.334L97.2954 255.885L101.549 254.209L67.0372 166.658Z" fill="#E6E6E6"/>
<path d="M73.4704 166.623L38.9587 254.174L43.2121 255.85L77.7237 168.299L73.4704 166.623Z" fill="#E6E6E6"/>
<path d="M68.4545 182.622C85.0852 182.622 98.5671 177.41 98.5671 170.982C98.5671 164.553 85.0852 159.341 68.4545 159.341C51.8237 159.341 38.3418 164.553 38.3418 170.982C38.3418 177.41 51.8237 182.622 68.4545 182.622Z" fill="#E6E6E6"/>
<path d="M50.1674 36.9023C50.502 39.016 51.2501 41.043 52.3689 42.8673C53.4878 44.6916 54.9554 46.2774 56.6879 47.5341C58.4204 48.7908 60.3836 49.6935 62.4654 50.1908C64.5472 50.6881 66.7067 50.7701 68.8202 50.4321C69.2946 50.3661 69.7632 50.2643 70.2222 50.1274C74.1608 49.1271 77.583 46.6905 79.8162 43.2961C82.0495 39.9017 82.9325 35.795 82.2916 31.7829C82.0968 30.5066 81.7488 29.2584 81.2554 28.0653C79.719 24.3929 76.8895 21.4111 73.3023 19.6839C69.7152 17.9568 65.6193 17.6041 61.7896 18.6927C57.96 19.7813 54.6623 22.2357 52.5206 25.5913C50.3788 28.947 49.5416 32.9711 50.1674 36.9023Z" fill="#FFB6B6"/>
<path d="M138.067 242.897L145.382 240.764L140.505 210.84L129.716 214.07L138.067 242.897Z" fill="#FFB6B6"/>
<path d="M93.142 231.134L94.483 232.292C95.3974 233.085 96.3117 233.816 97.2261 234.547C97.7137 234.913 98.1404 235.279 98.6281 235.644L99.3595 235.949L100.944 233.207L101.676 231.927L102.712 230.159L104.602 226.868L114.477 209.621L104.114 205.233L103.444 206.817L103.139 207.61L96.9213 222.297L95.6412 225.284L95.5802 225.345L94.8488 227.112L94.1782 228.697L93.4468 230.464L93.142 231.134Z" fill="#FFB6B6"/>
<path d="M38.9514 156.538C39.439 157.757 39.9876 158.975 40.5363 160.133C41.5116 162.388 42.5478 164.582 43.645 166.715C44.3381 167.581 45.1139 168.377 45.9614 169.092L46.0833 169.214C46.724 169.7 47.4196 170.109 48.1559 170.433C48.3997 170.555 48.7045 170.677 48.9483 170.799C49.9028 171.218 50.8796 171.584 51.8742 171.896C53.581 172.505 55.2878 172.993 56.9946 173.419C57.1165 173.48 57.2994 173.48 57.4213 173.541C64.4923 175.187 71.5633 175.431 79.0609 175.248C82.7793 175.126 86.5586 174.882 90.4599 174.638C91.74 174.577 93.02 174.456 94.3611 174.395H94.6659C96.5555 174.273 98.4452 174.212 100.335 174.09C102.773 173.968 105.272 173.907 107.893 173.846L107.162 177.381C106.568 180.098 105.561 182.709 104.175 185.121C102.59 188.107 101.371 190.484 102.346 195.969L102.834 198.651C102.171 199.824 101.797 201.138 101.744 202.484C101.691 203.83 101.96 205.169 102.529 206.391L102.651 206.695L92.4714 223.821L91.8009 224.918L95.5193 225.527L100.091 226.259L107.833 227.478L122.523 206.817L123.255 205.842V205.781L128.924 162.571C128.974 162.187 128.995 161.8 128.985 161.413C129.106 157.854 127.813 154.392 125.388 151.784C124.237 150.547 122.853 149.55 121.315 148.849C119.777 148.148 118.116 147.758 116.427 147.701L112.526 147.579L104.541 147.335L98.9328 147.152H98.8109L82.2307 146.665L81.804 141.728L81.6211 141.606L75.1597 138.01L52.9714 125.699H52.9105L51.4475 124.907L51.2037 125.151C51.1427 125.212 51.0818 125.334 51.0208 125.395C49.075 127.916 47.3612 130.609 45.9005 133.439C43.5232 138.105 41.4266 142.907 39.6219 147.822C39.5673 148.035 39.4853 148.24 39.3781 148.432V148.493C39.3716 148.539 39.3502 148.582 39.3171 148.615C38.4028 150.809 38.3418 153.612 38.9514 156.538Z" fill="#2F2E41"/>
<path d="M40.4753 140.509C40.5922 140.193 40.7349 139.887 40.902 139.595C42.0615 137.32 43.3646 135.122 44.8032 133.013C46.3881 130.575 48.2777 128.015 50.4112 125.273C51.4475 123.932 52.5447 122.591 53.7639 121.128L55.5926 118.934C55.5926 118.873 55.6535 118.873 55.6535 118.813L55.8364 118.569L78.6952 125.395L85.4004 127.893L87.0463 132.342L86.9853 133.439L86.8634 136.426L86.7415 140.387H86.8024L99.9691 140.753L113.562 141.118L120.877 141.301C122.566 141.359 124.227 141.749 125.765 142.45C127.302 143.15 128.687 144.148 129.838 145.385C131.043 146.673 131.981 148.187 132.599 149.84C133.216 151.493 133.5 153.251 133.434 155.014C133.434 155.38 133.373 155.745 133.373 156.111L137.579 173.176C140.084 183.376 141.05 193.894 140.444 204.379L142.883 220.957L142.151 220.896L131.484 220.225L128.68 220.042L123.986 210.169C123.436 209.059 122.948 207.92 122.523 206.756C121.786 204.848 121.175 202.894 120.694 200.906L112.465 167.447H109.356C104.602 167.447 100.091 167.386 95.7631 167.142C81.6821 166.472 69.6736 164.704 59.25 161.718C56.324 160.865 53.52 159.95 50.777 158.914C49.8017 158.549 48.8264 158.122 47.851 157.756C47.6072 157.635 47.4243 157.574 47.1805 157.452C45.2013 156.586 43.4686 155.241 42.1384 153.539C40.8083 151.836 39.9226 149.83 39.5609 147.7C39.1963 145.265 39.5127 142.776 40.4753 140.509Z" fill="#2F2E41"/>
<path d="M136.604 237.96L144.529 235.583L145.748 235.218L146.845 240.032L159.28 244.908C160.044 245.213 160.657 245.805 160.988 246.557C161.318 247.31 161.34 248.162 161.048 248.93C160.871 249.405 160.577 249.826 160.193 250.157C159.81 250.487 159.349 250.715 158.853 250.82L145.443 253.989L142.029 249.784L142.273 254.781L137.214 255.939L134.654 238.57L136.604 237.96Z" fill="#2F2E41"/>
<path d="M92.4714 223.821L91.8009 224.918L92.2885 224.979L92.4714 223.821Z" fill="#2F2E41"/>
<path d="M94.7878 225.649L102.103 229.55L103.261 230.159L100.701 234.364L106.126 246.553C106.292 246.925 106.382 247.326 106.392 247.734C106.402 248.141 106.332 248.546 106.184 248.925C106.037 249.305 105.816 249.652 105.534 249.945C105.252 250.239 104.914 250.474 104.541 250.637C104.086 250.849 103.586 250.943 103.085 250.911C102.584 250.879 102.1 250.722 101.676 250.454L89.9722 243.262L90.5208 237.838L87.1682 241.556L82.7793 238.874L93.1419 224.735L94.7878 225.649Z" fill="#2F2E41"/>
<path d="M145.809 131.062C144.402 131.499 142.88 131.359 141.577 130.673C140.274 129.987 139.296 128.812 138.86 127.406C138.735 127.096 138.673 126.765 138.677 126.431L119.414 122.286L126.729 115.095L143.919 120.153C144.648 120.111 145.378 120.212 146.068 120.453C146.757 120.694 147.392 121.069 147.936 121.556C148.48 122.043 148.922 122.633 149.237 123.292C149.552 123.951 149.733 124.665 149.771 125.395C149.839 126.646 149.486 127.885 148.768 128.912C148.049 129.939 147.008 130.696 145.809 131.062Z" fill="#FFB6B6"/>
<path d="M89.2408 122.104L53.703 91.7529C52.3061 90.5631 51.1582 89.109 50.3251 87.4743C49.492 85.8395 48.9903 84.0562 48.8487 82.227C48.7071 80.3977 48.9284 78.5585 49.4999 76.8151C50.0714 75.0716 50.9819 73.4582 52.1791 72.0677C53.3691 70.671 54.8235 69.5233 56.4586 68.6904C58.0936 67.8575 59.8772 67.3558 61.7068 67.2143C63.5364 67.0727 65.376 67.294 67.1198 67.8654C68.8636 68.4368 70.4773 69.3471 71.8681 70.544C72.5178 71.092 73.1101 71.7046 73.6359 72.3724L99.7253 104.673L134.775 114.12L133.861 125.699L89.2408 122.104Z" fill="#E58411"/>
<path d="M47.7292 90.8997L46.9977 118.447C36.6351 135.938 35.4769 144.47 38.3419 148.98L86.4368 132.83L87.1682 131.124L83.9375 119.422L87.9607 106.684C88.6922 105.344 98.3233 97.1771 89.3017 81.697L71.1366 57.1971L64.5533 56.6486C62.176 62.804 58.4576 65.8513 54.1297 67.314C44.2547 76.3338 45.7176 77.7965 47.7292 90.8997Z" fill="#FF5757"/>
<path d="M84.4861 25.2008C84.2432 25.9188 83.8517 26.5775 83.337 27.1341C82.8224 27.6906 82.1962 28.1325 81.4993 28.4308C80.3971 27.3786 79.1923 26.4394 77.9028 25.6274C78.4654 26.7585 78.9146 27.9426 79.2439 29.1622H79.1829C76.8666 29.4669 74.5502 28.9184 72.2948 28.309L72.5996 28.6137C72.6262 30.4179 72.1351 32.192 71.1844 33.7258C70.2337 35.2595 68.8632 36.4888 67.2354 37.2679C65.4067 38.1211 63.0294 38.6696 62.6027 40.6199C62.2369 42.3263 63.6999 43.85 65.1019 44.886C66.5039 45.9221 68.2107 47.0191 68.4545 48.7256C68.8203 51.5291 65.2238 53.3574 64.5533 56.1609C64.0047 58.5377 65.8334 60.8536 67.9059 62.1944C69.9784 63.5352 72.2948 64.5104 73.8797 66.3997C76.6837 69.7517 75.7693 75.0539 72.9043 78.284C72.5996 78.6496 72.2338 78.9544 71.929 79.32C71.1402 78.3286 70.2849 77.3919 69.3689 76.5165C68.2668 75.4643 67.0619 74.5251 65.7724 73.7131C66.335 74.8442 66.7842 76.0283 67.1135 77.2479C67.5502 78.8013 67.836 80.3933 67.9668 82.0016C65.8949 82.9699 63.73 83.7255 61.5054 84.2566C55.9001 85.6062 50.1395 86.2006 44.3766 86.024C41.742 85.9626 39.1235 85.5944 36.5741 84.927C37.7501 81.2493 38.0835 77.3542 37.5494 73.5302C36.1031 76.8975 33.8657 79.8662 31.027 82.1845C28.6497 80.2952 26.882 77.6745 26.5772 74.6882C26.2114 71.0315 28.0402 67.4967 30.1127 64.4494C32.1852 61.4022 34.5016 58.4159 35.4159 54.8201C36.757 49.6398 34.7454 44.2156 34.4406 38.8525C34.2815 35.6384 34.7579 32.4245 35.8425 29.3947C36.9271 26.3649 38.5986 23.5787 40.7614 21.1955C42.9243 18.8123 45.5359 16.879 48.4469 15.5061C51.3579 14.1332 54.5111 13.3477 57.7261 13.1946C58.3357 13.1946 58.9452 13.1336 59.5548 13.1946C62.6014 13.3585 65.6238 13.8281 68.5764 14.5963C70.1613 14.962 71.8071 15.2667 73.392 15.6324C75.3705 15.9944 77.3097 16.5455 79.1829 17.2779C80.8354 17.8927 82.2749 18.9721 83.328 20.3861C83.9181 21.0218 84.3346 21.7986 84.5375 22.6418C84.7403 23.4851 84.7226 24.3663 84.4861 25.2008Z" fill="#2F2E41"/>
<path d="M295.701 126.309H20.8472V126.004C20.844 124.37 21.1634 122.752 21.7872 121.242C22.411 119.733 23.3269 118.361 24.4822 117.206C25.6376 116.05 27.0097 115.135 28.5198 114.511C30.03 113.887 31.6485 113.568 33.2824 113.571H283.205C284.839 113.568 286.458 113.887 287.968 114.511C289.478 115.135 290.85 116.05 292.005 117.206C293.161 118.361 294.077 119.733 294.7 121.242C295.324 122.752 295.644 124.37 295.64 126.004V126.309H295.701Z" fill="#CCCCCC"/>
<path d="M316 254.233L311.794 256L277.292 124.359L281.498 122.652L316 254.233Z" fill="#CCCCCC"/>
<path d="M253.458 254.233L257.725 256L292.227 124.359L288.021 122.652L253.458 254.233Z" fill="#CCCCCC"/>
<path d="M62.5417 254.233L58.2747 256L23.7732 124.359L28.0402 122.652L62.5417 254.233Z" fill="#CCCCCC"/>
<path d="M0 254.233L4.20602 256L38.7685 124.359L34.5015 122.652L0 254.233Z" fill="#CCCCCC"/>
<path d="M189.637 103.881C189.713 103.653 189.744 103.412 189.727 103.172C189.71 102.932 189.646 102.698 189.538 102.483C189.431 102.268 189.282 102.076 189.1 101.918C188.918 101.761 188.707 101.641 188.478 101.565C188.417 101.565 188.296 101.504 188.235 101.504C188.174 101.504 188.052 101.443 187.93 101.443L176.226 101.138C175.964 101.142 175.705 101.198 175.464 101.303C175.224 101.408 175.006 101.559 174.824 101.748C174.667 101.698 174.501 101.677 174.336 101.687C173.601 101.663 172.886 101.932 172.348 102.434C171.811 102.937 171.496 103.633 171.471 104.369C171.447 105.104 171.716 105.819 172.219 106.356C172.722 106.893 173.418 107.209 174.154 107.233C174.573 107.246 174.99 107.163 175.373 106.989L176.47 118.508C176.563 118.89 176.782 119.23 177.091 119.474C177.401 119.717 177.783 119.849 178.177 119.849L185.796 120.031C186.182 120.041 186.56 119.928 186.878 119.709C187.195 119.49 187.436 119.176 187.564 118.813L189.637 103.881ZM174.215 106.502C173.689 106.494 173.188 106.277 172.823 105.9C172.457 105.523 172.256 105.016 172.264 104.49C172.272 103.965 172.488 103.464 172.866 103.099C173.243 102.733 173.75 102.532 174.275 102.54H174.397C174.336 102.862 174.336 103.193 174.397 103.515L175.19 106.258C174.895 106.431 174.556 106.515 174.215 106.502Z" fill="#FF5757"/>
<path d="M188.235 101.565C187.991 102.967 185.187 104.003 181.834 103.82C178.725 103.698 176.226 102.601 175.738 101.321C175.917 101.271 176.102 101.25 176.287 101.26L187.991 101.565C188.052 101.504 188.113 101.504 188.235 101.565Z" fill="white"/>
<path d="M150.624 99.3711C150.701 99.143 150.731 98.9021 150.714 98.6622C150.698 98.4222 150.633 98.188 150.526 97.9728C150.418 97.7577 150.269 97.5659 150.087 97.4084C149.906 97.251 149.694 97.1309 149.466 97.0552C149.405 97.0552 149.283 96.9942 149.222 96.9942C149.161 96.9942 149.039 96.9333 148.917 96.9333L137.214 96.6285C136.951 96.6326 136.692 96.6885 136.452 96.7931C136.211 96.8977 135.994 97.0489 135.812 97.238C135.654 97.1878 135.489 97.1672 135.324 97.1771C134.96 97.1651 134.597 97.2249 134.256 97.3532C133.915 97.4814 133.602 97.6756 133.336 97.9246C132.799 98.4275 132.483 99.1232 132.459 99.8586C132.435 100.594 132.704 101.309 133.207 101.846C133.71 102.383 134.406 102.699 135.141 102.723C135.561 102.737 135.978 102.653 136.36 102.479L137.458 113.998C137.551 114.38 137.769 114.72 138.079 114.964C138.388 115.207 138.771 115.339 139.164 115.339L146.784 115.522C147.17 115.531 147.548 115.418 147.866 115.199C148.183 114.98 148.423 114.666 148.552 114.303L150.624 99.3711ZM135.263 101.931C134.738 101.923 134.237 101.706 133.871 101.329C133.505 100.952 133.304 100.445 133.313 99.9196C133.321 99.3943 133.537 98.8937 133.914 98.5279C134.292 98.1622 134.799 97.9613 135.324 97.9693H135.446C135.385 98.2915 135.385 98.6223 135.446 98.9445L136.238 101.687C135.941 101.853 135.604 101.937 135.263 101.931Z" fill="#FF5757"/>
<path d="M149.283 96.9942C149.039 98.3959 146.235 99.432 142.883 99.2491C139.774 99.1272 137.275 98.0302 136.787 96.7504C136.965 96.7001 137.151 96.6795 137.336 96.6894L149.039 96.9942C149.039 96.9332 149.161 96.9942 149.283 96.9942Z" fill="white"/>
<path d="M144.894 118.752C144.227 119.042 143.508 119.196 142.78 119.206C142.052 119.216 141.33 119.081 140.654 118.808C139.979 118.536 139.365 118.132 138.848 117.62C138.33 117.108 137.92 116.498 137.64 115.826C137.512 115.531 137.41 115.225 137.336 114.912L117.769 112.779L124.291 104.917L141.907 108.147C143.256 107.919 144.641 108.197 145.796 108.928C146.952 109.659 147.796 110.791 148.167 112.107C148.538 113.423 148.408 114.83 147.804 116.057C147.2 117.283 146.164 118.243 144.894 118.752Z" fill="#FFB6B6"/>
<path d="M87.7168 115.765L49.1921 89.3151C46.1446 87.2075 44.0556 83.9793 43.3817 80.3363C42.7078 76.6932 43.5038 72.9316 45.5957 69.8736C47.7037 66.8267 50.9325 64.7381 54.5762 64.0643C58.22 63.3905 61.9823 64.1863 65.0409 66.2778C65.7448 66.7593 66.3984 67.3106 66.9915 67.9234L96.3727 97.2989L132.215 103.028L132.52 114.607L87.7168 115.765Z" fill="#FF5757"/>
</g>
<defs>
<clipPath id="clip0_407_464">
<rect width="316" height="256" fill="white"/>
</clipPath>
</defs>
</svg>
