<svg width="397" height="228" viewBox="0 0 397 228" fill="none" xmlns="http://www.w3.org/2000/svg">
<g clip-path="url(#clip0_407_249)">
<path d="M65.2524 103.669V39.5938C65.2524 38.6787 65.6141 37.8011 66.2577 37.1541C66.9014 36.5071 67.7744 36.1436 68.6847 36.1436C69.595 36.1436 70.468 36.5071 71.1117 37.1541C71.7554 37.8011 72.117 38.6787 72.117 39.5938V103.669C72.117 104.584 71.7554 105.462 71.1117 106.109C70.468 106.756 69.595 107.119 68.6847 107.119C67.7744 107.119 66.9014 106.756 66.2577 106.109C65.6141 105.462 65.2524 104.584 65.2524 103.669Z" fill="#F0F0F0"/>
<path d="M57.0391 103.669V39.5938C57.0391 38.6787 57.4007 37.8011 58.0443 37.1541C58.688 36.5071 59.561 36.1436 60.4713 36.1436C61.3816 36.1436 62.2546 36.5071 62.8983 37.1541C63.542 37.8011 63.9036 38.6787 63.9036 39.5938V103.669C63.9036 104.584 63.542 105.462 62.8983 106.109C62.2546 106.756 61.3816 107.119 60.4713 107.119C59.561 107.119 58.688 106.756 58.0443 106.109C57.4007 105.462 57.0391 104.584 57.0391 103.669Z" fill="#F0F0F0"/>
<path d="M48.8262 103.669V39.5938C48.8262 38.6787 49.1878 37.8011 49.8315 37.1541C50.4751 36.5071 51.3481 36.1436 52.2584 36.1436C53.1687 36.1436 54.0417 36.5071 54.6854 37.1541C55.3291 37.8011 55.6907 38.6787 55.6907 39.5938V103.669C55.6907 104.584 55.3291 105.462 54.6854 106.109C54.0417 106.756 53.1687 107.119 52.2584 107.119C51.3481 107.119 50.4751 106.756 49.8315 106.109C49.1878 105.462 48.8262 104.584 48.8262 103.669Z" fill="#F0F0F0"/>
<path d="M358.912 206.027C357.529 206.031 356.157 205.792 354.857 205.322L354.656 205.248L354.749 204.805C352.42 200.068 353.234 193.587 356.833 188.259C360.108 183.413 365.085 179.879 369.478 176.779C370.036 176.395 370.694 176.184 371.371 176.175C372.047 176.165 372.711 176.357 373.28 176.726C373.848 177.094 374.295 177.623 374.566 178.247C374.836 178.87 374.917 179.56 374.798 180.229L373.224 188.332C372.091 194.173 370.743 199.703 366.747 203.154C364.552 205.006 361.778 206.024 358.912 206.027Z" fill="#E6E6E6"/>
<path d="M369.209 220.005C367.688 219.996 366.194 219.605 364.862 218.869C363.529 218.132 362.401 217.072 361.579 215.786L361.461 215.604L361.736 215.367C362.437 211.513 365.742 208.078 370.179 206.604C374.21 205.258 378.662 205.48 382.589 205.672C383.107 205.699 383.606 205.879 384.022 206.19C384.439 206.501 384.754 206.929 384.928 207.42C385.102 207.911 385.128 208.443 385.001 208.949C384.875 209.455 384.602 209.911 384.217 210.261L379.804 214.273C376.593 217.181 373.391 219.813 369.508 220L369.209 220.005Z" fill="#E6E6E6"/>
<path d="M355.48 224.289C354.827 219.409 354.161 214.465 354.617 209.527C355.024 205.145 356.323 200.867 358.971 197.357C360.372 195.506 362.082 193.913 364.026 192.65C364.516 192.32 365.007 193.143 364.516 193.468C361.144 195.67 358.55 198.885 357.103 202.656C355.489 206.875 355.234 211.469 355.509 215.964C355.681 218.675 356.034 221.386 356.392 224.052C356.421 224.172 356.405 224.299 356.346 224.408C356.287 224.517 356.19 224.599 356.073 224.639C355.953 224.665 355.828 224.646 355.722 224.585C355.616 224.524 355.537 224.425 355.499 224.308L355.48 224.289Z" fill="#F2F2F2"/>
<path d="M353.641 227.098C356.784 221.39 360.422 215.042 366.929 213.016C368.736 212.454 370.635 212.253 372.518 212.425C373.112 212.474 372.965 213.411 372.371 213.361C369.208 213.095 366.051 213.953 363.452 215.786C360.937 217.546 358.981 219.991 357.323 222.588C356.308 224.175 355.396 225.831 354.489 227.482C354.2 228.015 353.347 227.63 353.641 227.098Z" fill="#F2F2F2"/>
<path d="M352.228 227.014L355.401 227.088L336.278 124.449L333.106 125.051L338.097 151.666H322.029L327.021 125.051L323.848 124.449L304.897 227.088L307.908 227.014L317.871 173.856H342.265L352.228 227.014ZM318.612 169.913L321.289 155.619H338.847L341.525 169.913H318.612Z" fill="#CACACA"/>
<path d="M213.82 105.3V71.5968C213.82 70.611 215.36 69.783 217.253 69.783C219.145 69.783 220.685 70.5962 220.685 71.5968V105.3C220.685 106.286 219.145 107.119 217.253 107.119C215.36 107.119 213.82 106.301 213.82 105.3Z" fill="#F0F0F0"/>
<path d="M205.607 105.3V71.5968C205.607 70.611 207.147 69.783 209.04 69.783C210.932 69.783 212.472 70.5962 212.472 71.5968V105.3C212.472 106.286 210.932 107.119 209.04 107.119C207.147 107.119 205.607 106.301 205.607 105.3Z" fill="#F0F0F0"/>
<path d="M197.395 105.3V71.5968C197.395 70.611 198.934 69.783 200.827 69.783C202.719 69.783 204.259 70.5962 204.259 71.5968V105.3C204.259 106.286 202.719 107.119 200.827 107.119C198.934 107.119 197.395 106.301 197.395 105.3Z" fill="#F0F0F0"/>
<path d="M266.486 80.5133C266.47 80.4133 266.433 80.3178 266.379 80.2329C266.324 80.148 266.252 80.0756 266.167 80.0204L240.288 62.8482C240.678 62.6837 241.005 62.3966 241.22 62.03C241.349 61.8055 241.432 61.5576 241.466 61.3005C241.5 61.0434 241.483 60.7821 241.416 60.5316C241.349 60.2812 241.233 60.0465 241.076 59.841C240.919 59.6354 240.722 59.4631 240.499 59.3339L238.376 58.1017C237.925 57.8411 237.39 57.7711 236.888 57.907C236.386 58.0428 235.958 58.3735 235.699 58.8263C235.557 59.0739 235.472 59.3499 235.448 59.6346L216.772 47.2286C216.146 45.701 215.195 44.3294 213.987 43.2098C212.778 42.0902 211.341 41.2497 209.775 40.7471V35.281H202.911V40.7471C200.633 41.4787 198.646 42.919 197.235 44.8601C195.825 46.8012 195.065 49.1427 195.065 51.5463V53.025H201.93C201.93 54.2015 202.395 55.3298 203.222 56.1617C204.05 56.9936 205.172 57.461 206.343 57.461C207.513 57.461 208.636 56.9936 209.463 56.1617C210.291 55.3298 210.756 54.2015 210.756 53.025H217.62V51.5463C217.62 50.8367 217.552 50.1287 217.419 49.4318L264.672 80.7893L245.059 104.778H244.603C243.034 104.778 241.519 104.813 240.072 104.877C240.161 104.634 240.199 104.376 240.185 104.118C240.172 103.859 240.108 103.606 239.997 103.372C239.887 103.138 239.731 102.928 239.54 102.755C239.349 102.581 239.126 102.448 238.883 102.361C238.64 102.274 238.383 102.236 238.126 102.25L235.674 102.378C235.417 102.392 235.165 102.456 234.932 102.568C234.7 102.68 234.492 102.837 234.32 103.029C234.148 103.222 234.015 103.447 233.929 103.691C233.844 103.935 233.807 104.194 233.821 104.453C233.837 104.761 233.928 105.06 234.085 105.325C229.756 105.789 226.951 106.424 226.951 106.75C226.951 107.282 234.483 106.75 243.911 106.75C243.943 106.841 243.993 106.925 244.057 106.998C244.122 107.07 244.2 107.128 244.287 107.17C244.374 107.212 244.468 107.236 244.565 107.241C244.661 107.245 244.757 107.231 244.848 107.198C244.97 107.146 245.076 107.062 245.157 106.957L245.338 106.735C254.738 106.735 262.24 107.262 262.24 106.735C262.24 106.208 255.571 104.99 246.927 104.763L266.329 81.0555C266.39 80.9801 266.435 80.8934 266.462 80.8003C266.489 80.7072 266.497 80.6096 266.486 80.5133Z" fill="#CCCCCC"/>
<path d="M267.221 227.261H206.779C205.559 227.259 204.388 226.771 203.525 225.904C202.662 225.036 202.176 223.86 202.175 222.632V122.961C202.174 121.864 201.74 120.813 200.969 120.038C200.198 119.263 199.152 118.827 198.061 118.825H56.7404C55.6493 118.825 54.603 119.261 53.8315 120.037C53.06 120.812 52.6266 121.864 52.6266 122.961V222.632C52.624 223.855 52.1415 225.027 51.2839 225.894C50.4263 226.76 49.263 227.252 48.0469 227.261H45.9533C44.7326 227.259 43.5622 226.771 42.6991 225.904C41.8359 225.036 41.3504 223.86 41.3491 222.632V117.593C41.3517 114.653 42.5149 111.833 44.5833 109.754C46.6517 107.675 49.4563 106.506 52.3814 106.503H260.769C263.694 106.507 266.497 107.677 268.565 109.756C270.634 111.835 271.797 114.653 271.801 117.593V222.632C271.799 223.855 271.316 225.027 270.458 225.894C269.601 226.76 268.437 227.252 267.221 227.261Z" fill="#E4E4E4"/>
<path d="M271.556 132.38H202.42V135.337H271.556V132.38Z" fill="white"/>
<path d="M271.556 172.304H202.42V175.261H271.556V172.304Z" fill="white"/>
<path d="M145.19 106.015L143.204 105.172L141.841 95.1619H123.699L122.228 105.133L120.448 106.025C120.398 106.05 120.354 106.085 120.318 106.127C120.281 106.17 120.254 106.219 120.236 106.272C120.219 106.325 120.212 106.381 120.217 106.437C120.221 106.493 120.236 106.547 120.262 106.597C120.296 106.667 120.349 106.726 120.415 106.767C120.481 106.808 120.557 106.829 120.634 106.829H145.042C145.139 106.827 145.232 106.793 145.307 106.731C145.381 106.669 145.432 106.583 145.451 106.488C145.47 106.392 145.456 106.294 145.411 106.208C145.366 106.122 145.293 106.054 145.204 106.015H145.19Z" fill="#E6E6E6"/>
<path d="M177.448 96.4927H88.2827C87.8146 96.4927 87.3656 96.3057 87.0346 95.9729C86.7035 95.6402 86.5176 95.1889 86.5176 94.7183V82.0757H179.189V94.7183C179.19 95.185 179.008 95.6334 178.682 95.9657C178.356 96.2981 177.912 96.4875 177.448 96.4927Z" fill="#CCCCCC"/>
<path d="M179.301 88.0496H86.4341V33.9699C86.4354 33.4022 86.6607 32.8581 87.0605 32.457C87.4604 32.056 88.0022 31.8308 88.567 31.8308H177.173C177.738 31.8308 178.279 32.0562 178.678 32.4573C179.077 32.8585 179.301 33.4026 179.301 33.9699V88.0496Z" fill="#3F3D56"/>
<path d="M173.756 84.1261H91.9849C91.5492 84.1261 91.1314 83.9522 90.8234 83.6425C90.5153 83.3329 90.3423 82.9129 90.3423 82.475V37.4053C90.3423 36.9674 90.5153 36.5474 90.8234 36.2378C91.1314 35.9281 91.5492 35.7542 91.9849 35.7542H173.756C174.192 35.7542 174.61 35.9281 174.918 36.2378C175.226 36.5474 175.399 36.9674 175.399 37.4053V82.475C175.399 82.9129 175.226 83.3329 174.918 83.6425C174.61 83.9522 174.192 84.1261 173.756 84.1261Z" fill="white"/>
<path d="M265.427 40.9096C266.129 40.8065 266.846 40.8439 267.534 41.0197C268.222 41.1954 268.869 41.5061 269.438 41.9338C270.006 42.3615 270.485 42.8979 270.847 43.5122C271.209 44.1264 271.446 44.8064 271.546 45.5132C271.593 45.8296 271.611 46.1497 271.6 46.4694L289.531 53.4044L281.406 59.2401L265.628 51.7581C264.305 51.6245 263.077 51.008 262.176 50.0254C261.275 49.0427 260.764 47.7621 260.739 46.426C260.714 45.09 261.178 43.7911 262.042 42.7754C262.906 41.7597 264.11 41.0977 265.427 40.9146V40.9096Z" fill="#9E616A"/>
<path d="M333.503 37.5234L336.533 43.0684C335.795 46.5867 333.894 49.7502 331.14 52.0439C326.496 55.987 302.211 70.6406 302.211 70.6406L271.556 55.1737L276.92 48.0121L300.985 56.1152C309.913 47.643 320.685 41.3832 332.444 37.834L333.503 37.5234Z" fill="#E4E4E4"/>
<path d="M327.864 129.255C341.076 129.255 351.787 125.746 351.787 121.418C351.787 117.09 341.076 113.581 327.864 113.581C314.652 113.581 303.941 117.09 303.941 121.418C303.941 125.746 314.652 129.255 327.864 129.255Z" fill="#CACACA"/>
<path d="M274.193 220.375L267.839 218.605L271.59 193.138L280.965 195.74L274.193 220.375Z" fill="#9E616A"/>
<path d="M274.11 227.014L253.625 221.307L253.698 221.045C253.987 219.993 254.479 219.008 255.147 218.146C255.814 217.285 256.644 216.565 257.589 216.026C258.534 215.488 259.576 215.142 260.654 215.009C261.732 214.875 262.826 214.957 263.872 215.249L276.38 218.724L274.11 227.014Z" fill="#2F2E41"/>
<path d="M255.777 220.454L249.746 217.778L257.145 193.128L266.044 197.076L255.777 220.454Z" fill="#9E616A"/>
<path d="M254.733 227.014L235.292 218.384L235.399 218.137C236.29 216.125 237.938 214.55 239.983 213.758C242.027 212.966 244.301 213.022 246.304 213.913L258.175 219.182L254.733 227.014Z" fill="#2F2E41"/>
<path d="M346.482 102.26C346.482 102.26 349.674 112.211 330.066 124.799L304.814 150.094L278.577 213.184L263 206.165L266.054 197.968L268.104 192.468L269.153 189.653L270.281 186.637L286.952 141.888L300.96 117.243L301.367 103.861L304.8 94.4324L329.806 85.5161L346.482 102.26Z" fill="#2F2E41"/>
<path d="M333.733 102.752C333.733 102.752 336.925 112.704 317.317 125.292L292.066 150.587L265.829 213.677L250.251 206.658L253.306 198.461L255.355 192.961L256.405 190.146L257.532 187.13L274.203 142.38L278.891 134.125C285.078 123.234 292.598 113.165 301.274 104.152L305.873 99.3711L306.364 91.9778L317.062 85.999L333.733 102.752Z" fill="#2F2E41"/>
<path d="M318.627 54.0255L326.472 37.2673L340.162 35.3894C340.162 35.3894 350.851 49.0818 348.046 68.3192C346.992 75.5351 346.134 82.7165 346.085 89.0205C346.085 90.6963 347.531 91.4455 347.556 92.9636C347.58 94.4817 344.786 96.8821 345.595 97.8925C346.747 99.2877 347.433 101.012 347.556 102.821C346.575 105.148 317.156 92.5545 304.814 94.4423L318.627 54.0255Z" fill="#E4E4E4"/>
<path d="M327.428 33.0383C334.266 33.0383 339.809 27.4663 339.809 20.5929C339.809 13.7195 334.266 8.14746 327.428 8.14746C320.59 8.14746 315.047 13.7195 315.047 20.5929C315.047 27.4663 320.59 33.0383 327.428 33.0383Z" fill="#9E616A"/>
<path d="M335.342 16.1225C335.342 16.4527 335.288 16.8864 335.249 17.3744C335.209 18.7181 335.586 20.0408 336.328 21.1598C337.019 22.3378 336.195 29.4501 336.195 29.4501C356.46 15.2402 340.451 0.985883 334.18 2.22796C334.312 0.423991 329.198 1.13868 329.198 1.13868C327.237 -1.9123 322.981 2.12445 322.981 2.12445L323.805 0.734511C320.49 1.59214 317.234 11.8886 317.234 11.8886C318.338 16.3344 335.474 14.3185 335.342 16.1225Z" fill="#2F2E41"/>
<path d="M256.655 60.6253C263.626 51.304 269.137 40.9651 272.997 29.9677C273.218 29.3114 273.202 28.5981 272.953 27.9523C272.704 27.3064 272.237 26.769 271.634 26.4337L247.765 13.5841C247.379 13.3748 246.95 13.2567 246.512 13.2387C246.073 13.2208 245.637 13.3035 245.235 13.4806C244.827 13.6607 244.464 13.9318 244.175 14.2733C243.887 14.6149 243.679 15.018 243.568 15.4521C240.789 26.0499 235.57 35.8425 228.333 44.0396C228.039 44.3708 227.823 44.7643 227.701 45.1909C227.579 45.6175 227.554 46.0663 227.627 46.5041C227.701 46.9372 227.871 47.3478 228.126 47.7048C228.381 48.0618 228.714 48.3557 229.098 48.5643L252.953 61.4139C253.563 61.7412 254.269 61.8415 254.946 61.6973C255.624 61.5531 256.228 61.1735 256.655 60.6253Z" fill="#CCCCCC"/>
<path d="M255.027 59.3881C254.899 59.5495 254.72 59.6611 254.519 59.7034C254.319 59.7457 254.11 59.7161 253.928 59.6197L230.074 46.7702C229.959 46.7095 229.859 46.6227 229.782 46.5167C229.705 46.4106 229.654 46.2882 229.633 46.159C229.608 46.0224 229.615 45.8818 229.653 45.7484C229.691 45.615 229.76 45.4923 229.853 45.3901C237.309 36.9573 242.684 26.8786 245.544 15.9696C245.577 15.8346 245.64 15.7091 245.73 15.6031C245.819 15.497 245.932 15.4132 246.059 15.3584C246.178 15.3047 246.309 15.2795 246.44 15.2846C246.571 15.2897 246.699 15.3251 246.814 15.388L270.653 28.2376C270.834 28.3349 270.975 28.4926 271.052 28.6835C271.129 28.8743 271.137 29.0862 271.075 29.2825C267.284 40.0818 261.872 50.2344 255.027 59.3881Z" fill="white"/>
<path d="M246.682 27.6018L263.137 37.292C264.775 38.2778 266.255 35.7 264.608 34.7388L248.167 25.0388C246.53 24.0777 245.049 26.6308 246.696 27.5969L246.682 27.6018Z" fill="#FF5757"/>
<path d="M243.74 33.0235L260.195 42.7136C261.833 43.6994 263.313 41.1216 261.666 40.1605L245.225 30.4604C243.588 29.4993 242.107 32.0525 243.754 33.0185L243.74 33.0235Z" fill="#FF5757"/>
<path d="M240.308 38.9381L256.763 48.6283C258.401 49.6141 259.881 47.0363 258.234 46.0752L241.793 36.3751C240.156 35.3893 238.675 37.9671 240.322 38.9332L240.308 38.9381Z" fill="#FF5757"/>
<path d="M236.875 43.8671L253.33 53.5573C254.968 54.543 256.449 51.9652 254.801 51.0041L238.361 41.3041C236.723 40.3183 235.242 42.8961 236.89 43.8622L236.875 43.8671Z" fill="#FF5757"/>
<path d="M311.875 100.874L318.053 114.843C318.214 115.209 318.274 115.613 318.226 116.01C318.177 116.408 318.023 116.785 317.779 117.101C317.534 117.418 317.209 117.662 316.838 117.807C316.467 117.953 316.063 117.995 315.67 117.928C315.524 117.908 315.381 117.87 315.244 117.815C314.698 117.603 314.258 117.183 314.018 116.647L307.845 102.683C307.633 102.151 307.634 101.558 307.848 101.026C308.062 100.495 308.472 100.068 308.993 99.8342C309.513 99.6004 310.103 99.5781 310.64 99.772C311.176 99.9659 311.617 100.361 311.87 100.874H311.875Z" fill="#E58411"/>
<path d="M317.553 113.714L318.789 116.528L319.421 120.526C319.461 120.788 319.414 121.055 319.288 121.288C319.161 121.52 318.962 121.705 318.722 121.812C318.481 121.92 318.211 121.945 317.955 121.883C317.699 121.822 317.469 121.677 317.303 121.472L314.738 118.268L313.522 115.513L317.553 113.714Z" fill="#3F3D56"/>
<path d="M306.472 96.9905L307.354 102.58C307.409 102.893 307.585 103.172 307.842 103.356C308.1 103.541 308.42 103.616 308.732 103.566C308.835 103.551 308.936 103.521 309.031 103.477L309.909 103.083L311.6 106.912C311.653 107.032 311.751 107.126 311.872 107.173C311.994 107.22 312.129 107.217 312.248 107.164C312.367 107.111 312.46 107.012 312.507 106.89C312.554 106.768 312.55 106.633 312.498 106.513L310.806 102.683L311.684 102.289C311.974 102.159 312.201 101.918 312.316 101.62C312.431 101.322 312.424 100.99 312.297 100.697C312.251 100.601 312.195 100.51 312.13 100.426L308.595 96.0245C308.429 95.8167 308.199 95.6699 307.942 95.6069C307.684 95.544 307.413 95.5684 307.171 95.6764C306.929 95.7844 306.729 95.9699 306.602 96.204C306.476 96.4381 306.43 96.7077 306.472 96.9708V96.9905Z" fill="#3F3D56"/>
<path d="M309.031 107.08C309.168 106.297 309.475 105.554 309.93 104.903C310.385 104.253 310.976 103.711 311.663 103.316C312.349 102.921 313.113 102.682 313.902 102.617C314.69 102.552 315.483 102.662 316.224 102.94L328.418 88.0149L331.36 97.6016L319.328 110.303C318.782 111.518 317.813 112.491 316.603 113.037C315.394 113.584 314.027 113.667 312.761 113.27C311.495 112.874 310.416 112.026 309.729 110.885C309.042 109.745 308.794 108.391 309.031 107.08Z" fill="#9E616A"/>
<path d="M324.383 106.109L318.99 98.3114L334.258 77.8763L326.413 60.9555L326.987 40.8259L333.479 39.6233L333.557 39.6627C336.712 41.4891 339.152 44.3447 340.471 47.7559C342.089 51.8272 345.707 67.1018 347.718 75.8505C348.113 77.545 348.07 79.3129 347.592 80.9859C347.115 82.6588 346.22 84.1811 344.992 85.4076L324.383 106.109Z" fill="#E4E4E4"/>
<path d="M173.182 68.4375C173.138 68.8153 173.123 69.196 173.138 69.5761L145.646 89.7056L138.095 86.3441L131.559 97.0989L144.356 104.354C145.389 104.941 146.583 105.176 147.76 105.023C148.936 104.87 150.032 104.338 150.882 103.506L178.551 76.3385C179.931 76.6913 181.384 76.6248 182.726 76.1475C184.068 75.6701 185.24 74.8034 186.092 73.6569C186.944 72.5103 187.439 71.1355 187.513 69.7063C187.588 68.2771 187.24 66.8577 186.512 65.6276C185.784 64.3975 184.71 63.412 183.425 62.7958C182.14 62.1795 180.702 61.9601 179.293 62.1654C177.884 62.3707 176.567 62.9914 175.509 63.949C174.451 64.9067 173.699 66.1582 173.349 67.5454C173.276 67.8359 173.22 68.1305 173.182 68.4277V68.4375Z" fill="#FFB6B6"/>
<path d="M144.758 90.4203L136.737 103.847C136.528 104.196 136.254 104.5 135.928 104.743C135.603 104.985 135.233 105.161 134.84 105.26C134.447 105.359 134.039 105.379 133.638 105.319C133.237 105.259 132.852 105.121 132.505 104.911C132.376 104.833 132.253 104.746 132.137 104.65L120.124 94.738C118.18 93.5569 116.781 91.6476 116.237 89.4301C115.692 87.2126 116.047 84.8685 117.222 82.9136C118.397 80.9586 120.296 79.5529 122.502 79.0057C124.708 78.4585 127.04 78.8146 128.985 79.9957L143.287 85.9596C143.662 86.1151 144.002 86.3433 144.289 86.6313C144.575 86.9192 144.803 87.2611 144.957 87.6375C145.112 88.0139 145.192 88.4173 145.191 88.8247C145.191 89.232 145.11 89.6352 144.954 90.0112C144.897 90.1522 144.83 90.289 144.753 90.4203H144.758Z" fill="#E58411"/>
<path d="M126.121 180.974H110.406V207.156H126.121V180.974Z" fill="#CACACA"/>
<path d="M125.332 194.828L123.313 197.818L161.03 223.545L163.048 220.556L125.332 194.828Z" fill="#CACACA"/>
<path d="M111.188 194.828L73.4717 220.555L75.4898 223.545L113.206 197.817L111.188 194.828Z" fill="#CACACA"/>
<path d="M162.042 227.009C164.769 227.009 166.98 224.787 166.98 222.046C166.98 219.305 164.769 217.083 162.042 217.083C159.315 217.083 157.104 219.305 157.104 222.046C157.104 224.787 159.315 227.009 162.042 227.009Z" fill="#CACACA"/>
<path d="M118.041 227.009C120.768 227.009 122.978 224.787 122.978 222.046C122.978 219.305 120.768 217.083 118.041 217.083C115.314 217.083 113.103 219.305 113.103 222.046C113.103 224.787 115.314 227.009 118.041 227.009Z" fill="#CACACA"/>
<path d="M74.4849 227.009C77.2119 227.009 79.4225 224.787 79.4225 222.046C79.4225 219.305 77.2119 217.083 74.4849 217.083C71.758 217.083 69.5474 219.305 69.5474 222.046C69.5474 224.787 71.758 227.009 74.4849 227.009Z" fill="#CACACA"/>
<path d="M119.835 196.317H116.241V222.046H119.835V196.317Z" fill="#CACACA"/>
<path d="M121.635 157.951H114.897V192.709H121.635V157.951Z" fill="#CACACA"/>
<path d="M98.9522 163.368V155.26C98.9547 153.764 99.5471 152.33 100.599 151.272C101.652 150.214 103.078 149.619 104.566 149.616H134.653C136.141 149.617 137.567 150.212 138.619 151.271C139.671 152.329 140.262 153.764 140.262 155.26V163.382C140.262 164.878 139.671 166.313 138.619 167.371C137.567 168.429 136.141 169.025 134.653 169.026H104.566C103.076 169.023 101.647 168.426 100.594 167.365C99.5414 166.304 98.9508 164.866 98.9522 163.368Z" fill="#3F3D56"/>
<path d="M153.29 218.906H161.61L165.572 197.214H153.29V218.906Z" fill="#FFB8B8"/>
<path d="M151.167 227.014H177.982V226.669C177.981 223.886 176.88 221.217 174.922 219.249C172.963 217.281 170.307 216.176 167.538 216.176H151.167V227.014Z" fill="#2F2E41"/>
<path d="M165.724 205.455L182.322 168.075C183.707 164.923 183.86 161.362 182.75 158.102C181.641 154.842 179.35 152.122 176.335 150.484L140.36 131.089L123.939 129.684L108.798 128.304L108.685 128.486C108.548 128.723 105.292 134.376 107.493 140.577C109.16 145.279 113.505 148.956 120.399 151.494C136.496 157.409 155.084 162.495 162.331 164.398C162.649 164.482 162.947 164.631 163.204 164.837C163.462 165.042 163.674 165.3 163.828 165.592C163.981 165.884 164.073 166.206 164.096 166.536C164.12 166.865 164.075 167.197 163.964 167.508L148.563 202.301C148.424 202.68 148.361 203.082 148.377 203.485C148.394 203.888 148.489 204.284 148.657 204.65C148.826 205.017 149.064 205.346 149.359 205.619C149.654 205.893 150 206.105 150.377 206.244C150.626 206.333 150.884 206.391 151.147 206.417L162.66 207.259H162.954C163.539 207.257 164.111 207.086 164.602 206.766C165.093 206.446 165.483 205.991 165.724 205.455Z" fill="#2F2E41"/>
<path d="M147.862 218.906H156.183L160.14 197.214H147.862V218.906Z" fill="#FFB8B8"/>
<path d="M145.739 227.014H172.589V226.669C172.588 223.886 171.487 221.217 169.528 219.249C167.57 217.281 164.914 216.176 162.145 216.176H145.739V227.014Z" fill="#2F2E41"/>
<path d="M159.625 207.506L176.212 170.115C177.598 166.964 177.751 163.404 176.643 160.144C175.534 156.884 173.245 154.163 170.23 152.524L134.25 133.129L117.834 131.724L105.973 130.694V130.527C105.831 130.768 102.575 136.441 104.777 142.617C106.449 147.319 107.395 150.996 114.294 153.535C130.387 159.449 148.98 164.536 156.227 166.443C156.547 166.525 156.846 166.674 157.105 166.88C157.363 167.087 157.575 167.346 157.727 167.641C157.881 167.932 157.974 168.253 158 168.581C158.026 168.91 157.985 169.241 157.879 169.553L142.449 204.351C142.31 204.73 142.247 205.132 142.263 205.535C142.279 205.939 142.374 206.335 142.543 206.701C142.711 207.067 142.95 207.396 143.245 207.67C143.54 207.943 143.886 208.155 144.263 208.294C144.511 208.383 144.77 208.441 145.033 208.467L156.55 209.31C156.647 209.315 156.743 209.315 156.84 209.31C157.427 209.311 158.003 209.141 158.497 208.821C158.991 208.501 159.383 208.044 159.625 207.506Z" fill="#2F2E41"/>
<path d="M133.005 59.3289C142.212 59.3289 149.676 51.826 149.676 42.5707C149.676 33.3154 142.212 25.8125 133.005 25.8125C123.798 25.8125 116.334 33.3154 116.334 42.5707C116.334 51.826 123.798 59.3289 133.005 59.3289Z" fill="#FFB8B8"/>
<path d="M190.461 106.957C197.432 97.6368 202.943 87.2996 206.804 76.3039C207.022 75.6453 207.004 74.9304 206.751 74.2843C206.498 73.6382 206.027 73.102 205.421 72.7698L181.572 59.9203C181.185 59.711 180.757 59.5928 180.318 59.5749C179.88 59.557 179.443 59.6397 179.042 59.8168C178.633 59.9969 178.271 60.268 177.982 60.6095C177.693 60.9511 177.486 61.3542 177.374 61.7883C174.596 72.3861 169.377 82.1787 162.14 90.3758C161.846 90.707 161.63 91.1005 161.507 91.5271C161.385 91.9537 161.36 92.4025 161.434 92.8402C161.507 93.2734 161.678 93.684 161.933 94.041C162.188 94.398 162.52 94.6919 162.905 94.9005L186.759 107.75C187.371 108.077 188.077 108.176 188.754 108.031C189.431 107.886 190.036 107.506 190.461 106.957Z" fill="#CCCCCC"/>
<path d="M188.833 105.719C188.706 105.881 188.526 105.992 188.326 106.035C188.125 106.077 187.916 106.047 187.735 105.951L163.881 93.1014C163.765 93.0408 163.665 92.954 163.589 92.848C163.512 92.7419 163.461 92.6195 163.439 92.4903C163.415 92.3537 163.421 92.2131 163.46 92.0797C163.498 91.9463 163.567 91.8236 163.66 91.7214C171.115 83.2886 176.49 73.2099 179.35 62.3009C179.383 62.1659 179.447 62.0404 179.536 61.9343C179.626 61.8283 179.738 61.7445 179.865 61.6897C179.985 61.636 180.115 61.6108 180.246 61.6159C180.377 61.621 180.505 61.6564 180.62 61.7193L204.46 74.5689C204.64 74.6662 204.781 74.8239 204.858 75.0148C204.935 75.2056 204.944 75.4175 204.882 75.6138C201.091 86.413 195.679 96.5657 188.833 105.719Z" fill="white"/>
<path d="M180.488 73.9333L196.943 83.6234C198.581 84.6092 200.061 82.0314 198.414 81.0703L181.973 71.3702C180.336 70.3845 178.855 72.9623 180.503 73.9283L180.488 73.9333Z" fill="#CCCCCC"/>
<path d="M177.546 79.3549L194.001 89.045C195.639 90.0308 197.12 87.453 195.472 86.4919L179.032 76.7919C177.394 75.8061 175.913 78.3839 177.561 79.35L177.546 79.3549Z" fill="#CCCCCC"/>
<path d="M175.237 84.7471L190.197 93.6782C191.668 94.5654 193.281 92.7269 191.795 91.8397L176.83 82.9135C175.345 82.0263 173.751 83.8599 175.237 84.7471Z" fill="#CCCCCC"/>
<path d="M170.682 90.1984L187.137 99.8886C188.775 100.874 190.255 98.2965 188.608 97.3354L172.167 87.6354C170.53 86.6496 169.049 89.2274 170.696 90.1935L170.682 90.1984Z" fill="#CCCCCC"/>
<path d="M142.615 132.434L109.631 132.237V132C109.004 115.365 111.024 100.293 115.814 85.9302C115.883 85.3929 115.957 84.8162 116.03 84.2543C116.844 77.8468 117.501 72.7257 123.576 70.8232C123.069 70.1475 122.77 69.3367 122.718 68.4918C122.679 67.9301 122.751 67.366 122.931 66.8328C123.111 66.2996 123.396 65.8079 123.767 65.3866C124.123 64.9799 124.555 64.6481 125.039 64.4103C125.523 64.1726 126.049 64.0337 126.587 64.0016L138.33 63.5974C138.947 63.5963 139.547 63.8008 140.036 64.179C140.929 64.8476 141.557 65.8135 141.806 66.9042C142.056 67.995 141.912 69.1394 141.399 70.1331C141.262 70.4091 141.208 70.5373 141.189 70.5915C141.605 72.7898 142.846 75.4021 144.155 78.1622C146.033 82.1054 148.156 86.6054 148.705 91.4012C148.999 93.9917 148.877 96.6129 148.342 99.1642C148.096 100.538 148.04 101.94 148.176 103.329C148.279 105.394 148.382 107.336 147.224 109.244C146.925 109.737 146.587 110.299 146.195 110.9L144.562 114.843L142.615 132.434Z" fill="#FF5757"/>
<path d="M93.1172 155.718V87.9658C93.1185 85.7578 93.9913 83.6406 95.5439 82.0789C97.0966 80.5172 99.2023 79.6386 101.399 79.636H103.689C105.885 79.6386 107.992 80.517 109.545 82.0786C111.099 83.6402 111.972 85.7574 111.975 87.9658V155.718C111.972 157.927 111.099 160.044 109.545 161.605C107.992 163.167 105.885 164.045 103.689 164.048H101.399C99.2023 164.045 97.0966 163.167 95.5439 161.605C93.9913 160.043 93.1185 157.926 93.1172 155.718Z" fill="#3F3D56"/>
<path d="M181.572 94.728C181.334 95.0253 181.121 95.3418 180.934 95.6744L147.024 98.1388L142.375 91.2778L131.157 97.0003L138.212 109.953C138.784 111 139.677 111.832 140.758 112.325C141.839 112.818 143.05 112.946 144.209 112.689L181.964 104.31C182.951 105.341 184.22 106.056 185.611 106.362C187.002 106.669 188.451 106.554 189.777 106.032C191.103 105.51 192.245 104.605 193.059 103.43C193.873 102.256 194.322 100.865 194.349 99.4342C194.377 98.0032 193.981 96.5961 193.213 95.391C192.445 94.1859 191.338 93.2369 190.034 92.664C188.729 92.0911 187.284 91.9201 185.883 92.1726C184.481 92.425 183.186 93.0897 182.16 94.0824C181.951 94.285 181.754 94.5006 181.572 94.728Z" fill="#FFB6B6"/>
<path d="M145.886 98.3163L132.019 105.478C131.659 105.664 131.265 105.777 130.861 105.81C130.457 105.843 130.051 105.795 129.665 105.67C129.28 105.545 128.922 105.345 128.614 105.081C128.305 104.817 128.051 104.495 127.866 104.132C127.797 103.997 127.738 103.857 127.69 103.713L122.698 88.9267C121.678 86.8973 121.498 84.5444 122.197 82.3818C122.896 80.2191 124.417 78.4223 126.43 77.3833C120.286 80.5526 133.083 71.5475 137.967 81.1096L146.984 93.7669C147.24 94.13 147.415 94.5439 147.499 94.9808C147.582 95.4178 147.571 95.8676 147.467 96.3C147.363 96.7325 147.168 97.1375 146.895 97.4878C146.623 97.8382 146.278 98.1257 145.886 98.331V98.3163Z" fill="#FF5757"/>
<path d="M125.474 58.8706C124.493 58.8706 123.365 58.3777 122.115 57.392C118.445 54.4936 115.822 50.4656 114.648 45.9253C113.474 41.3849 113.813 36.5827 115.613 32.2547C116.52 30.0761 118.217 27.1139 121.149 25.3543C123.257 24.1072 125.734 23.6538 127.891 23.3285C129.754 23.0475 131.647 22.8356 133.505 22.668C135.726 22.4758 138.296 22.3476 140.639 23.2398C142.351 23.8953 143.812 25.0536 145.224 26.1971C145.714 26.5865 146.229 26.9906 146.739 27.3652C147.971 28.3361 149.396 29.0317 150.917 29.4058C151.238 29.4727 151.541 29.6081 151.806 29.8028C152.07 29.9975 152.291 30.247 152.451 30.5345C152.615 30.8269 152.714 31.1512 152.742 31.4853C152.77 31.8195 152.726 32.1559 152.613 32.4715C152.392 33.0926 152.196 33.6545 152.613 34.2607C152.762 34.4734 152.961 34.6465 153.192 34.765C153.422 34.8835 153.678 34.9438 153.937 34.9409C154.074 34.9382 154.21 34.9702 154.331 35.0339C154.453 35.0977 154.557 35.1911 154.633 35.3057C154.71 35.4191 154.759 35.5496 154.775 35.686C154.792 35.8225 154.775 35.9608 154.726 36.0893L154.663 36.252C154.872 36.2753 155.071 36.3585 155.235 36.4919C155.399 36.6252 155.522 36.8031 155.589 37.0044C155.655 37.2057 155.663 37.422 155.611 37.6276C155.559 37.8332 155.449 38.0195 155.295 38.1644C153.808 39.5879 151.952 40.5631 149.941 40.9788C148.565 41.2548 147.149 41.2548 145.773 40.9788L145.552 40.9394L145.577 40.6929C140.017 38.7214 134.996 42.0829 132.132 45.952L131.72 45.6859C131.791 45.5421 131.832 45.3856 131.841 45.2256C131.851 45.0656 131.828 44.9053 131.774 44.7543C131.717 44.5721 131.625 44.4032 131.502 44.2576C131.379 44.112 131.228 43.9926 131.058 43.9065C130.718 43.7647 130.344 43.7274 129.983 43.7993C129.621 43.8712 129.289 44.0492 129.028 44.3107C128.762 44.5905 128.557 44.9232 128.426 45.2873C128.295 45.6514 128.242 46.039 128.268 46.4252C128.341 47.2425 128.548 48.0419 128.881 48.7911C129.014 49.1509 129.156 49.5255 129.269 49.9001C129.894 52.0239 129.719 54.3048 128.778 56.3076C128.347 57.2244 127.562 58.3925 126.288 58.772C126.022 58.8419 125.748 58.8751 125.474 58.8706Z" fill="#2F2E41"/>
</g>
<defs>
<clipPath id="clip0_407_249">
<rect width="397" height="228" fill="white"/>
</clipPath>
</defs>
</svg>
