<svg width="277" height="126" viewBox="0 0 277 126" fill="none" xmlns="http://www.w3.org/2000/svg">
<g clip-path="url(#clip0_407_849)">
<path d="M1.13269 37.2462L42.0652 37.12L82.7763 36.9938L105.742 36.9307C105.867 36.9307 105.988 36.8808 106.077 36.7921C106.166 36.7033 106.216 36.5829 106.216 36.4574C106.216 36.3319 106.166 36.2115 106.077 36.1227C105.988 36.034 105.867 35.9841 105.742 35.9841L64.809 36.1103L24.0979 36.2365L1.13269 36.2996C1.00685 36.2996 0.886159 36.3495 0.797175 36.4383C0.708191 36.527 0.658203 36.6474 0.658203 36.7729C0.658203 36.8984 0.708191 37.0188 0.797175 37.1076C0.886159 37.1963 1.00685 37.2462 1.13269 37.2462Z" fill="#E6E6E6"/>
<path d="M21.7886 36.489L22.0417 21.5968C22.0417 21.4713 21.9917 21.3509 21.9027 21.2622C21.8137 21.1734 21.693 21.1235 21.5672 21.1235C21.4413 21.1235 21.3207 21.1734 21.2317 21.2622C21.1427 21.3509 21.0927 21.4713 21.0927 21.5968L20.8396 36.489C20.808 37.0885 21.757 37.0885 21.7886 36.489Z" fill="#E6E6E6"/>
<path d="M41.3374 36.6468L41.9385 17.9054L42.1283 12.5416C42.1599 11.9422 41.2109 11.9422 41.1793 12.5416L40.5783 31.2831L40.3885 36.6468C40.3568 37.2463 41.3058 37.2463 41.3374 36.6468Z" fill="#E6E6E6"/>
<path d="M60.8549 3.67568C60.4753 10.3014 59.7794 29.8948 59.4314 36.5205C59.3998 37.12 60.3488 37.12 60.3804 36.5205C60.76 29.8948 61.4559 10.3014 61.8039 3.67568C61.8355 3.07621 60.8865 3.07621 60.8549 3.67568Z" fill="#E6E6E6"/>
<path d="M80.2457 29.8632L80.1191 36.2366C80.1191 36.3621 80.1691 36.4825 80.2581 36.5713C80.3471 36.66 80.4678 36.7099 80.5936 36.7099C80.7195 36.7099 80.8402 36.66 80.9291 36.5713C81.0181 36.4825 81.0681 36.3621 81.0681 36.2366C81.1947 28.6958 81.5426 28.9483 81.6059 26.8343C81.6059 26.7088 81.5559 26.5884 81.4669 26.4997C81.3779 26.4109 81.2572 26.3611 81.1314 26.3611C81.0055 26.3611 80.8849 26.4109 80.7959 26.4997C80.7069 26.5884 80.6569 26.7088 80.6569 26.8343C80.6569 26.8343 80.4038 22.3225 80.2457 29.8632Z" fill="#E6E6E6"/>
<path d="M99.2882 13.1096L99.3831 30.9992L99.4147 36.1105C99.4147 36.236 99.4647 36.3564 99.5537 36.4452C99.6427 36.5339 99.7634 36.5838 99.8892 36.5838C100.015 36.5838 100.136 36.5339 100.225 36.4452C100.314 36.3564 100.364 36.236 100.364 36.1105L100.269 18.2209L100.237 13.1096C100.237 13.0462 100.223 12.9836 100.196 12.926C100.17 12.8683 100.132 12.8169 100.084 12.7752C100.036 12.7334 99.9798 12.7023 99.919 12.6838C99.8581 12.6653 99.7941 12.6599 99.731 12.6679C99.6725 12.6666 99.6144 12.6772 99.5601 12.6989C99.5057 12.7207 99.4564 12.7531 99.415 12.7944C99.3736 12.8357 99.3411 12.8849 99.3193 12.9391C99.2975 12.9933 99.2869 13.0513 99.2882 13.1096Z" fill="#E6E6E6"/>
<path d="M1.19546 36.7098C0.404647 34.5644 2.17607 32.482 4.01076 31.567C6.1934 30.4627 8.69237 30.2103 10.9067 29.1375C14.1964 27.5284 16.5689 24.6573 18.7199 21.7861C20.9025 18.8203 22.927 15.6336 25.7107 13.1726C27.1753 11.8383 28.913 10.8371 30.8035 10.2383C33.176 9.51265 35.7066 9.44954 38.1423 9.7335C43.2035 10.333 47.9168 12.4469 52.7882 13.7721C57.4065 15.0341 62.4677 15.7282 66.9912 13.7721C69.3004 12.794 71.1667 11.1218 73.1912 9.70196C75.145 8.30384 77.3289 7.25739 79.6442 6.60993C84.212 5.30713 89.1014 5.73413 93.3727 7.80888C97.2617 9.74261 100.342 12.9827 102.072 16.9587C104.065 21.723 103.811 27.0867 103.147 32.1034C102.989 33.397 102.768 34.6906 102.578 35.9842C102.483 36.5836 103.4 36.836 103.495 36.2366C104.318 31.0622 105.108 25.6985 104.096 20.4925C103.215 15.9394 100.708 11.8593 97.0421 9.00783C93.3485 6.16644 88.764 4.7242 84.1044 4.93771C81.6587 5.05211 79.2511 5.58577 76.9871 6.51527C74.6463 7.49336 72.6534 8.91317 70.6289 10.4276C68.5412 11.9736 66.4218 13.2672 63.8279 13.7721C61.329 14.2769 58.7351 14.0876 56.2361 13.6143C51.1116 12.6678 46.3035 10.4592 41.2106 9.35489C36.4974 8.3137 31.4046 8.21904 27.1658 10.8694C23.9076 12.9202 21.6301 16.0753 19.4158 19.1673C17.2332 22.1963 15.0189 25.446 11.824 27.5284C9.86278 28.7905 7.68014 29.2637 5.49749 29.9579C3.31484 30.652 1.22709 31.8825 0.309744 34.1226C-0.0689349 35.0478 -0.1026 36.0776 0.21485 37.0254C0.499543 37.5302 1.41689 37.2778 1.19546 36.7098Z" fill="#E6E6E6"/>
<path d="M23.1168 18.6311C22.8972 18.2455 22.549 17.9491 22.1328 17.7934C21.7166 17.6377 21.2588 17.6327 20.8392 17.7792C20.4201 17.94 20.0799 18.2567 19.8902 18.6626C19.8651 18.6996 19.8539 18.7444 19.8586 18.7888C19.827 18.8204 19.827 18.8519 19.7953 18.8835C19.6168 19.2738 19.5764 19.713 19.6808 20.1292C19.7853 20.5454 20.0284 20.9138 20.3703 21.1741C20.7122 21.4345 21.1326 21.5713 21.5626 21.5621C21.9926 21.5529 22.4068 21.3983 22.7372 21.1236C23.0776 20.8147 23.3011 20.3984 23.3702 19.9445C23.4393 19.4907 23.3498 19.0269 23.1168 18.6311ZM21.4402 19.5145C21.5351 19.483 21.4719 19.5145 21.4402 19.5145C21.4086 19.483 21.4086 19.483 21.377 19.483C21.3453 19.483 21.2821 19.3883 21.3453 19.483L21.2821 19.4199L21.2504 19.3883C21.2504 19.3568 21.2188 19.3568 21.2188 19.3252V19.199C21.2188 19.1674 21.2504 19.1674 21.2504 19.1359C21.1872 19.2306 21.2821 19.1359 21.2821 19.1043C21.3137 19.1043 21.3137 19.0728 21.3453 19.0728C21.377 19.0728 21.4719 19.0412 21.377 19.0728C21.4086 19.0728 21.4086 19.0728 21.4402 19.0412H21.5668C21.5351 19.0412 21.63 19.0728 21.6616 19.0728C21.6933 19.0728 21.6933 19.1043 21.7249 19.1043C21.63 19.0412 21.7249 19.1043 21.7566 19.1359L21.7882 19.1675L21.8198 19.199C21.8198 19.2305 21.8514 19.2621 21.8514 19.2937C21.8514 19.3252 21.8831 19.3883 21.8831 19.4199V19.483C21.7357 19.4478 21.5811 19.4588 21.4402 19.5145Z" fill="#E6E6E6"/>
<path d="M43.3619 9.79661C43.1423 9.41106 42.7941 9.1146 42.3779 8.95891C41.9617 8.80323 41.5039 8.79821 41.0843 8.94472C40.6652 9.10549 40.325 9.4222 40.1353 9.82815C40.1102 9.86517 40.099 9.90989 40.1037 9.95436C40.0721 9.98591 40.0721 10.0175 40.0404 10.049C39.8619 10.4393 39.8215 10.8785 39.926 11.2947C40.0304 11.7109 40.2735 12.0793 40.6154 12.3397C40.9573 12.6 41.3777 12.7368 41.8077 12.7276C42.2377 12.7184 42.6519 12.5638 42.9823 12.2892C43.3227 11.9802 43.5462 11.5639 43.6153 11.11C43.6844 10.6562 43.5949 10.1924 43.3619 9.79661ZM41.6853 10.68C41.7802 10.6485 41.717 10.68 41.6853 10.68C41.6537 10.6485 41.6537 10.6485 41.6221 10.6485C41.5904 10.6485 41.5272 10.5538 41.5904 10.6485L41.5272 10.5854L41.4955 10.5538C41.4955 10.5223 41.4639 10.5223 41.4639 10.4907V10.3645C41.4639 10.333 41.4955 10.333 41.4955 10.3014C41.4323 10.3961 41.5272 10.3014 41.5272 10.2699C41.5588 10.2699 41.5588 10.2383 41.5904 10.2383C41.6221 10.2383 41.717 10.2068 41.6221 10.2383C41.6537 10.2383 41.6537 10.2383 41.6853 10.2068H41.8119C41.7802 10.2068 41.8751 10.2383 41.9068 10.2383C41.9384 10.2383 41.9384 10.2699 41.97 10.2699C41.8751 10.2068 41.97 10.2699 42.0017 10.3014L42.0333 10.333L42.0649 10.3645C42.0649 10.3961 42.0966 10.4276 42.0966 10.4592C42.0966 10.4907 42.1282 10.5538 42.1282 10.5854V10.6485C41.9808 10.6134 41.8262 10.6244 41.6853 10.68Z" fill="#E6E6E6"/>
<path d="M62.9742 0.962374C62.7547 0.576827 62.4064 0.280365 61.9902 0.124683C61.574 -0.0309981 61.1162 -0.0360201 60.6966 0.110491C60.2775 0.271261 59.9373 0.587967 59.7477 0.993925C59.7225 1.03095 59.7113 1.07566 59.716 1.12013C59.6844 1.15168 59.6844 1.18323 59.6527 1.21479C59.4742 1.60508 59.4338 2.04431 59.5383 2.46048C59.6427 2.87666 59.8858 3.2451 60.2277 3.50544C60.5696 3.76577 60.99 3.90256 61.42 3.89338C61.85 3.8842 62.2642 3.72961 62.5946 3.45492C62.935 3.14598 63.1585 2.72965 63.2276 2.2758C63.2967 1.82196 63.2072 1.35821 62.9742 0.962374ZM61.2976 1.84581C61.3925 1.81426 61.3293 1.84581 61.2976 1.84581C61.266 1.81426 61.266 1.81426 61.2344 1.81426C61.2027 1.81426 61.1395 1.71961 61.2027 1.81426L61.1395 1.75116L61.1079 1.7196C61.1079 1.68805 61.0762 1.68805 61.0762 1.6565V1.5303C61.0762 1.49875 61.1079 1.49874 61.1079 1.46719C61.0446 1.56185 61.1395 1.46719 61.1395 1.43564C61.1711 1.43564 61.1711 1.40409 61.2027 1.40409C61.2344 1.40409 61.3293 1.37254 61.2344 1.40409C61.266 1.40409 61.266 1.40409 61.2976 1.37254H61.4242C61.3925 1.37254 61.4874 1.40409 61.5191 1.40409C61.5507 1.40409 61.5507 1.43564 61.5823 1.43564C61.4874 1.37254 61.5823 1.43564 61.614 1.46719L61.6456 1.49875L61.6772 1.5303C61.6772 1.56185 61.7089 1.5934 61.7089 1.62495C61.7089 1.6565 61.7405 1.7196 61.7405 1.75116V1.81426C61.5931 1.77912 61.4385 1.79014 61.2976 1.84581Z" fill="#E6E6E6"/>
<path d="M82.9029 25.2568C82.6834 24.8713 82.3351 24.5748 81.9189 24.4191C81.5027 24.2634 81.0449 24.2584 80.6253 24.4049C80.2062 24.5657 79.866 24.8824 79.6764 25.2884C79.6512 25.3254 79.64 25.3701 79.6447 25.4146C79.6131 25.4461 79.6131 25.4777 79.5815 25.5092C79.4029 25.8995 79.3625 26.3387 79.467 26.7549C79.5714 27.1711 79.8145 27.5395 80.1564 27.7999C80.4983 28.0602 80.9187 28.197 81.3487 28.1878C81.7788 28.1786 82.1929 28.024 82.5233 27.7494C82.8637 27.4404 83.0872 27.0241 83.1564 26.5702C83.2255 26.1164 83.136 25.6526 82.9029 25.2568ZM81.2264 26.1402C81.3213 26.1087 81.258 26.1402 81.2264 26.1402C81.1947 26.1087 81.1947 26.1087 81.1631 26.1087C81.1315 26.1087 81.0682 26.014 81.1315 26.1087L81.0682 26.0456L81.0366 26.014C81.0366 25.9825 81.0049 25.9825 81.0049 25.9509V25.8247C81.0049 25.7932 81.0366 25.7932 81.0366 25.7616C80.9733 25.8563 81.0682 25.7616 81.0682 25.7301C81.0998 25.7301 81.0998 25.6985 81.1315 25.6985C81.1631 25.6985 81.258 25.667 81.1631 25.6985C81.1947 25.6985 81.1947 25.6985 81.2264 25.667H81.3529C81.3213 25.667 81.4162 25.6985 81.4478 25.6985C81.4794 25.6985 81.4794 25.7301 81.5111 25.7301C81.4162 25.667 81.5111 25.7301 81.5427 25.7616L81.5743 25.7932L81.606 25.8247C81.606 25.8563 81.6376 25.8878 81.6376 25.9194C81.6376 25.9509 81.6692 26.014 81.6692 26.0456V26.1087C81.5219 26.0736 81.3672 26.0846 81.2264 26.1402Z" fill="#E6E6E6"/>
<path d="M101.566 10.7431C101.346 10.3576 100.998 10.0611 100.582 9.90545C100.166 9.74977 99.708 9.74474 99.2884 9.89125C98.8693 10.052 98.5291 10.3687 98.3394 10.7747C98.3143 10.8117 98.3031 10.8564 98.3078 10.9009C98.2762 10.9324 98.2762 10.964 98.2446 10.9955C98.066 11.3858 98.0256 11.8251 98.1301 12.2412C98.2345 12.6574 98.4776 13.0259 98.8195 13.2862C99.1614 13.5465 99.5818 13.6833 100.012 13.6741C100.442 13.665 100.856 13.5104 101.186 13.2357C101.527 12.9267 101.75 12.5104 101.819 12.0566C101.889 11.6027 101.799 11.139 101.566 10.7431ZM99.8894 11.6266C99.9843 11.595 99.9211 11.6266 99.8894 11.6266C99.8578 11.595 99.8578 11.595 99.8262 11.595C99.7945 11.595 99.7313 11.5004 99.7945 11.595L99.7313 11.5319L99.6996 11.5004C99.6996 11.4688 99.668 11.4688 99.668 11.4373V11.3111C99.668 11.2795 99.6996 11.2795 99.6996 11.248C99.6364 11.3426 99.7313 11.248 99.7313 11.2164C99.7629 11.2164 99.7629 11.1849 99.7945 11.1849C99.8262 11.1849 99.9211 11.1533 99.8262 11.1849C99.8578 11.1849 99.8578 11.1849 99.8894 11.1533H100.016C99.9843 11.1533 100.079 11.1849 100.111 11.1849C100.142 11.1849 100.142 11.2164 100.174 11.2164C100.079 11.1533 100.174 11.2164 100.206 11.248L100.237 11.2795L100.269 11.3111C100.269 11.3426 100.301 11.3742 100.301 11.4057C100.301 11.4373 100.332 11.5004 100.332 11.5319V11.595C100.185 11.5599 100.03 11.5709 99.8894 11.6266Z" fill="#E6E6E6"/>
<path d="M94.7966 26.0771L80.0875 26.8974C80.0002 26.8985 79.9158 26.8666 79.8512 26.808C79.7866 26.7495 79.7467 26.6687 79.7395 26.5819C79.7362 26.4994 79.7633 26.4184 79.8158 26.3544C79.8682 26.2905 79.9424 26.2479 80.0242 26.2349L95.0497 23.8054L94.7966 26.0771Z" fill="#3F3D56"/>
<path d="M113.491 58.7327L119.027 49.425L123.139 51.3497C123.139 51.3497 116.085 60.1525 115.864 60.4049C115.958 60.8233 115.926 61.2602 115.771 61.6602C115.616 62.0603 115.346 62.4055 114.994 62.6523C114.643 62.8991 114.226 63.0363 113.796 63.0467C113.366 63.057 112.943 62.9399 112.58 62.7103C112.217 62.4806 111.93 62.1487 111.756 61.7565C111.582 61.3644 111.529 60.9296 111.603 60.5071C111.677 60.0847 111.874 59.6936 112.171 59.3834C112.468 59.0731 112.85 58.8576 113.27 58.7642C113.345 58.7669 113.42 58.7562 113.491 58.7327Z" fill="#FFB6B6"/>
<path d="M115.801 37.1516L124.785 41.8212C125.848 42.5919 126.563 43.7494 126.776 45.0428C126.99 46.3363 126.683 47.6614 125.923 48.7309C125.836 48.8528 125.741 48.9688 125.639 49.078L119.439 56.1455L116.75 52.4855L118.838 48.163L114.82 47.0903L115.801 37.1516Z" fill="#FF5757"/>
<path d="M90.2095 26.235L89.1973 36.994H84.6738C84.6738 36.994 87.2677 26.0457 87.3626 25.6986C87.0999 25.3617 86.9433 24.9546 86.9126 24.5289C86.8819 24.1032 86.9784 23.678 87.19 23.307C87.4015 22.936 87.7186 22.6359 88.1011 22.4446C88.4837 22.2534 88.9145 22.1795 89.3391 22.2325C89.7637 22.2854 90.163 22.4628 90.4866 22.742C90.8101 23.0213 91.0434 23.3901 91.1569 23.8016C91.2704 24.2131 91.259 24.6489 91.1241 25.054C90.9893 25.4591 90.737 25.8151 90.3993 26.0772C90.3442 26.1389 90.2803 26.192 90.2095 26.235Z" fill="#FFB6B6"/>
<path d="M99.225 48.2576L88.7863 46.3646C84.3894 45.8282 82.5863 42.957 83.3771 40.149L85.9393 31.0938L89.9567 33.2392V38.035L95.5557 37.2778L99.225 48.2576Z" fill="#FF5757"/>
<path d="M94.9546 122.719H92.076L90.7158 111.676H94.9546V122.719Z" fill="#FFB6B6"/>
<path d="M95.0491 125.684H86.2236V125.558C86.2253 124.655 86.5858 123.789 87.2261 123.151C87.8664 122.512 88.7344 122.152 89.6399 122.151L91.2532 120.92L94.2583 122.151H95.0175L95.0491 125.684Z" fill="#2F2E41"/>
<path d="M115.231 122.719H118.11L119.47 111.676H115.231V122.719Z" fill="#FFB6B6"/>
<path d="M115.136 125.684H123.961V125.558C123.96 124.655 123.599 123.789 122.959 123.151C122.318 122.512 121.45 122.152 120.545 122.151L118.932 120.92L115.927 122.151H115.167L115.136 125.684Z" fill="#2F2E41"/>
<path d="M90.589 103.567C90.6207 102.936 90.9686 99.4653 90.9686 99.4653L91.7594 92.0823L93.1829 72.5205L94.4482 67.3777L100.711 69.8071L105.804 67.3777L111.846 69.3023L116.559 71.0692C116.559 71.0692 116.559 71.8264 116.591 72.7414C116.654 73.9404 116.718 75.3917 116.939 75.7703C117.287 76.4329 117.192 80.0613 117.192 80.0613C117.192 80.0613 117.54 87.4127 117.951 88.2015C118.362 88.9903 118.457 90.6941 118.331 91.0096C118.204 91.3251 118.742 100.159 118.742 100.159C118.742 100.159 120.134 115.746 119.28 118.112C118.426 120.478 115.073 118.932 115.073 118.932C115.073 118.932 115.231 118.301 114.282 118.017C113.333 117.734 110.359 95.6161 110.359 95.6161C110.359 95.6161 109.822 91.0727 109.316 89.7791C108.809 88.4855 108.335 84.8255 108.335 84.8255C108.335 84.8255 105.235 78.7992 105.172 77.4425C105.172 77.4425 104.76 76.1805 104.381 77.5687C104.001 78.957 102.862 82.2699 102.862 82.2699L101.755 86.34L100.458 92.4294L99.6043 97.5407C99.6043 97.5407 98.339 104.324 98.1492 104.64C97.9594 104.955 98.1492 111.139 98.1492 111.139C98.1492 111.139 97.1686 116.44 95.8084 117.355C94.4482 118.27 90.7788 117.355 90.7788 117.355C90.7788 117.355 90.5574 104.198 90.589 103.567Z" fill="#2F2E41"/>
<path d="M95.2712 50.8134L94.4804 61.1937L93.2784 62.4242C93.1714 62.5335 93.0873 62.6628 93.0309 62.8048C92.9745 62.9468 92.9469 63.0985 92.9499 63.2512C92.9528 63.4039 92.9862 63.5544 93.048 63.6941C93.1098 63.8338 93.1989 63.9599 93.31 64.0649L93.3417 64.0965L92.6774 65.2323L92.4559 68.7976C92.3951 69.0441 92.3837 69.3003 92.4224 69.5512C92.461 69.8022 92.549 70.0431 92.6813 70.26C92.8136 70.477 92.9875 70.6657 93.1931 70.8154C93.3987 70.9651 93.6319 71.0728 93.8794 71.1324C94.0059 71.1639 94.1325 71.1639 94.2274 71.1955L114.978 72.1736C115.234 72.1867 115.491 72.1487 115.732 72.0618C115.973 71.9749 116.194 71.8408 116.383 71.6674C116.572 71.494 116.724 71.2848 116.83 71.0521C116.936 70.8193 116.995 70.5677 117.003 70.3121V69.965L115.231 56.7135V55.7354L114.441 53.8107L114.852 47.4058L115.801 37.2148L110.297 35.795L107.323 33.7441L102.136 33.8388L99.0039 36.426L94.8284 37.0886L91.6651 37.7196L91.2539 38.603L92.0447 38.4137L94.9549 49.7722L95.2712 50.8134Z" fill="#FF5757"/>
<path d="M104.666 32.3873C108.037 32.3873 110.771 29.661 110.771 26.2979C110.771 22.9348 108.037 20.2085 104.666 20.2085C101.294 20.2085 98.5605 22.9348 98.5605 26.2979C98.5605 29.661 101.294 32.3873 104.666 32.3873Z" fill="#FFB6B6"/>
<path d="M103.179 31.9773L107.576 31.7564C108.145 31.7249 108.746 31.6933 109.158 31.2831C109.373 31.0416 109.545 30.7639 109.664 30.4628C110.075 29.5163 110.486 28.5697 110.866 27.6232C111.403 26.298 111.941 24.9413 111.815 23.5215C111.777 22.8806 111.507 22.2752 111.056 21.8178C110.821 21.5982 110.521 21.461 110.202 21.4268C109.882 21.3926 109.56 21.4634 109.284 21.6285C109.219 21.1808 109.05 20.7543 108.793 20.3821C108.535 20.01 108.194 19.7022 107.797 19.483C106.996 19.0435 106.084 18.8461 105.172 18.915C103.85 19.0002 102.589 19.4968 101.566 20.3349C101.274 20.5939 100.968 20.8362 100.648 21.0605C100.322 21.274 99.9251 21.3531 99.5413 21.2814C99.3532 21.2277 99.19 21.1098 99.0802 20.9483C98.9704 20.7869 98.9208 20.5921 98.9402 20.398C98.6324 20.6307 98.4207 20.9678 98.3449 21.3456C98.2692 21.7234 98.3347 22.1158 98.529 22.4488C98.3026 22.5423 98.0561 22.5769 97.8127 22.5493C97.5692 22.5217 97.3368 22.4328 97.1372 22.291C96.9357 22.3925 96.7563 22.5326 96.6091 22.7033C96.4619 22.874 96.3498 23.072 96.2793 23.2858C96.2088 23.4997 96.1813 23.7253 96.1982 23.9498C96.2151 24.1743 96.2762 24.3933 96.378 24.5943C96.4798 24.7952 96.6202 24.9742 96.7914 25.121C96.9625 25.2678 97.1609 25.3796 97.3754 25.4499C97.5898 25.5202 97.816 25.5477 98.0411 25.5308C98.2662 25.514 98.4857 25.453 98.6872 25.3515C98.7821 25.2884 98.877 25.2569 98.9719 25.1937C99.2249 25.5724 99.13 26.0772 99.0984 26.5189C99.0668 26.9606 99.1933 27.5601 99.6362 27.6863C100.237 27.8441 100.712 27.0553 101.344 27.0553C101.497 27.0624 101.645 27.11 101.773 27.1932C101.901 27.2764 102.004 27.3922 102.072 27.5285C102.223 27.7907 102.32 28.0804 102.357 28.3804L103.179 31.9773Z" fill="#2F2E41"/>
<path d="M277 125.653C276.999 125.745 276.962 125.832 276.897 125.897C276.832 125.962 276.744 125.999 276.652 126H275.229C275.137 125.999 275.049 125.962 274.984 125.897C274.919 125.832 274.882 125.745 274.881 125.653" fill="#E6E6E6"/>
<path d="M167.361 125.369C167.366 125.413 167.361 125.457 167.347 125.499C167.333 125.541 167.311 125.58 167.281 125.613C167.251 125.645 167.214 125.672 167.174 125.689C167.133 125.707 167.089 125.716 167.045 125.716C166.762 125.753 166.477 125.774 166.191 125.779H166.159C166.001 125.779 165.843 125.811 165.685 125.811C165.599 125.67 165.524 125.522 165.463 125.369C165.438 125.32 165.427 125.266 165.432 125.211" fill="#E6E6E6"/>
<path d="M65.2202 52.107H59.811C59.5113 52.1029 59.2228 51.9928 58.9969 51.7963C58.771 51.5999 58.6223 51.3298 58.5774 51.0342C58.2294 48.5749 58.2294 46.079 58.5774 43.6197C58.6241 43.3305 58.7691 43.0662 58.9879 42.8709C59.2067 42.6756 59.4861 42.5613 59.7794 42.5469C61.4876 41.7897 63.3222 41.7897 65.2518 42.5469C65.4282 42.5468 65.6024 42.5865 65.7612 42.663C65.9201 42.7395 66.0595 42.8508 66.1692 42.9886C66.2942 43.1279 66.3828 43.2958 66.4269 43.4775C66.4711 43.6592 66.4695 43.8489 66.4222 44.0298C65.9791 46.1951 65.9791 48.4273 66.4222 50.5925C66.4543 50.7741 66.4483 50.9603 66.4048 51.1395C66.3612 51.3186 66.281 51.4869 66.1692 51.6337C66.0622 51.7843 65.9196 51.9062 65.7541 51.9888C65.5885 52.0713 65.4052 52.1119 65.2202 52.107Z" fill="#FF5757"/>
<path d="M64.6503 45.3865H60.0952C60.0197 45.3865 59.9473 45.3566 59.8939 45.3034C59.8405 45.2501 59.8105 45.1779 59.8105 45.1026C59.8105 45.0273 59.8405 44.955 59.8939 44.9018C59.9473 44.8485 60.0197 44.8186 60.0952 44.8186H64.6503C64.7258 44.8186 64.7982 44.8485 64.8516 44.9018C64.905 44.955 64.935 45.0273 64.935 45.1026C64.935 45.1779 64.905 45.2501 64.8516 45.3034C64.7982 45.3566 64.7258 45.3865 64.6503 45.3865Z" fill="white"/>
<path d="M64.6503 47.6583H60.0952C60.0197 47.6583 59.9473 47.6283 59.8939 47.5751C59.8405 47.5218 59.8105 47.4496 59.8105 47.3743C59.8105 47.299 59.8405 47.2268 59.8939 47.1735C59.9473 47.1202 60.0197 47.0903 60.0952 47.0903H64.6503C64.7258 47.0903 64.7982 47.1202 64.8516 47.1735C64.905 47.2268 64.935 47.299 64.935 47.3743C64.935 47.4496 64.905 47.5218 64.8516 47.5751C64.7982 47.6283 64.7258 47.6583 64.6503 47.6583Z" fill="white"/>
<path d="M64.6503 49.9615H60.0952C60.0197 49.9615 59.9473 49.9316 59.8939 49.8783C59.8405 49.825 59.8105 49.7528 59.8105 49.6775C59.8105 49.6022 59.8405 49.53 59.8939 49.4767C59.9473 49.4235 60.0197 49.3936 60.0952 49.3936H64.6503C64.7258 49.3936 64.7982 49.4235 64.8516 49.4767C64.905 49.53 64.935 49.6022 64.935 49.6775C64.928 49.7505 64.8958 49.8187 64.8438 49.8705C64.7919 49.9223 64.7235 49.9545 64.6503 49.9615Z" fill="white"/>
<path d="M23.4334 74.4136C23.6289 74.219 23.784 73.9878 23.8898 73.7334C23.9956 73.4789 24.0501 73.2061 24.0501 72.9307C24.0501 72.6552 23.9956 72.3824 23.8898 72.1279C23.784 71.8735 23.6289 71.6423 23.4334 71.4477C23.3385 71.3531 23.2436 71.29 23.1487 71.1953L26.5017 54.5994L22.8007 55.7983L20.112 71.8264C19.9676 72.0643 19.8718 72.3284 19.8303 72.6034C19.7887 72.8785 19.8021 73.159 19.8697 73.4288C19.9374 73.6987 20.0579 73.9525 20.2243 74.1756C20.3908 74.3988 20.5998 74.5869 20.8395 74.7291C21.2423 74.9822 21.7202 75.089 22.1927 75.0315C22.6652 74.974 23.1034 74.7558 23.4334 74.4136Z" fill="#9E616A"/>
<path d="M28.3683 39.3286L26.0592 37.5933C26.0592 37.5933 24.0347 37.4355 23.6867 41.0955C23.3388 44.7554 22.5796 51.8229 22.5796 51.8229L19.0684 68.0403L23.9398 69.113L27.704 51.602L29.95 46.3961L28.3683 39.3286Z" fill="#CCCCCC"/>
<path d="M24.6035 65.8003L37.5096 65.5794L38.5851 56.7766H24.6035V65.8003Z" fill="#9E616A"/>
<path d="M36.2129 120.005H39.218L40.6098 108.521H36.2129V120.005Z" fill="#9E616A"/>
<path d="M17.5186 120.289L20.5236 120.258L21.8522 108.773L17.9614 109.656L17.5186 120.289Z" fill="#9E616A"/>
<path d="M26.8498 49.2041L26.1855 50.9394L26.3121 52.7063L39.5661 57.2812L38.9018 49.6143L37.4151 47.8474L26.8498 49.2041Z" fill="#FFB6B6"/>
<path d="M32.5433 33.3969C35.1464 33.3969 37.2566 31.2921 37.2566 28.6958C37.2566 26.0994 35.1464 23.9946 32.5433 23.9946C29.9403 23.9946 27.8301 26.0994 27.8301 28.6958C27.8301 31.2921 29.9403 33.3969 32.5433 33.3969Z" fill="#9E616A"/>
<path d="M35.4852 118.554L40.1984 118.27V120.289L44.6903 123.381C44.8281 123.476 44.9457 123.597 45.0364 123.737C45.127 123.878 45.1888 124.035 45.2182 124.199C45.2476 124.363 45.2441 124.532 45.2078 124.695C45.1714 124.858 45.1031 125.012 45.0066 125.148C44.891 125.317 44.735 125.455 44.5527 125.548C44.3705 125.642 44.1677 125.689 43.9627 125.685H38.3321L37.3515 123.697L36.9719 125.685H34.8525L35.4852 118.554Z" fill="#2F2E41"/>
<path d="M16.5063 118.838L21.2195 118.522V120.542L25.7114 123.602C25.9859 123.788 26.1763 124.074 26.2414 124.399C26.3065 124.723 26.2411 125.061 26.0593 125.338C25.9437 125.506 25.7877 125.644 25.6055 125.738C25.4232 125.831 25.2204 125.878 25.0154 125.874L19.3849 125.905L18.4042 123.918L18.0246 125.905H15.9053L16.5063 118.838Z" fill="#2F2E41"/>
<path d="M16.6008 111.486L18.7834 94.1648L21.3773 75.8967C19.4794 72.3945 23.7498 61.5093 23.7498 61.5093L24.3508 61.5408L37.9844 64.0965C40.7681 71.6688 41.6854 75.4234 41.5273 83.5005L40.9895 112.496H41.1477C41.4329 112.496 41.7065 112.609 41.9082 112.81C42.1099 113.012 42.2232 113.284 42.2232 113.569C42.2232 113.853 42.1099 114.126 41.9082 114.327C41.7065 114.529 41.4329 114.642 41.1477 114.642H35.7701C35.4849 114.642 35.2113 114.529 35.0096 114.327C34.8079 114.126 34.6946 113.853 34.6946 113.569C34.6946 113.284 34.8079 113.012 35.0096 112.81C35.2113 112.609 35.4849 112.496 35.7701 112.496H35.8967L30.962 77.9475L26.7865 92.4611L22.0416 111.36C23.7498 110.919 23.4967 111.928 23.4967 112.496C23.498 112.637 23.471 112.777 23.4174 112.908C23.3638 113.039 23.2846 113.158 23.1845 113.258C23.0844 113.357 22.9653 113.436 22.8343 113.49C22.7032 113.543 22.5628 113.57 22.4212 113.569H17.0437C16.9021 113.57 16.7616 113.543 16.6306 113.49C16.4995 113.436 16.3805 113.357 16.2803 113.258C16.1802 113.158 16.101 113.039 16.0474 112.908C15.9938 112.777 15.9669 112.637 15.9681 112.496C15.9507 112.282 16.0028 112.069 16.1168 111.887C16.2308 111.705 16.4005 111.565 16.6008 111.486Z" fill="#2F2E41"/>
<path d="M22.6746 62.0772L23.1174 57.7862C23.1632 57.6099 23.2649 57.4531 23.4075 57.3394C23.5501 57.2256 23.7258 57.161 23.9083 57.1552C24.0981 55.1044 24.8572 46.27 24.8889 45.8914V45.8598L25.2368 38.5399C25.2586 38.2763 25.3714 38.0284 25.556 37.8385C25.7406 37.6486 25.9856 37.5285 26.2491 37.4987L28.0521 37.3725C28.065 37.3741 28.078 37.3727 28.0902 37.3684C28.1024 37.3642 28.1135 37.3573 28.1226 37.3482C28.1317 37.3391 28.1387 37.328 28.1429 37.3158C28.1471 37.3037 28.1485 37.2907 28.147 37.2779C28.147 37.079 28.1863 36.8821 28.2626 36.6983C28.3389 36.5146 28.4508 36.3476 28.5917 36.207C28.7327 36.0664 28.9001 35.9548 29.0843 35.8787C29.2685 35.8026 29.466 35.7634 29.6654 35.7634H35.0429C35.3938 35.764 35.7323 35.8927 35.9946 36.1252C36.2568 36.3578 36.4247 36.678 36.4664 37.0255C36.4649 37.0383 36.4663 37.0513 36.4705 37.0634C36.4747 37.0756 36.4817 37.0867 36.4908 37.0958C36.4999 37.1049 36.511 37.1118 36.5232 37.116C36.5354 37.1203 36.5484 37.1217 36.5613 37.1201C37.171 37.1097 37.7643 37.317 38.2342 37.7047C38.704 38.0923 39.0195 38.6348 39.1235 39.2341C39.8511 43.4935 41.3378 53.1797 40.6103 58.5434C40.3572 60.405 40.8949 58.9221 40.9898 60.4996C41.0012 60.6485 40.9817 60.7981 40.9328 60.9392C40.8838 61.0803 40.8063 61.2099 40.7051 61.32C40.8078 61.354 40.9025 61.4081 40.9838 61.4793C41.0651 61.5504 41.1312 61.637 41.1784 61.7341C41.2256 61.8311 41.2528 61.9366 41.2584 62.0443C41.2641 62.152 41.248 62.2597 41.2113 62.3612L41.3062 62.3296C41.25 62.5504 41.1091 62.7403 40.9138 62.8584C40.7185 62.9764 40.4845 63.0132 40.2623 62.9606L26.2174 64.8537C25.7113 64.759 22.5481 62.5505 22.6746 62.0772Z" fill="#CCCCCC"/>
<path d="M60.2219 44.5977C60.0551 45.1283 59.6877 45.5733 59.1976 45.8384C58.7075 46.1034 58.1332 46.1677 57.5964 46.0175C57.4699 45.986 57.375 45.9229 57.2484 45.8913L51.8076 50.8449L51.0801 47.0272L56.3627 42.9255C56.6249 42.4803 57.0415 42.1462 57.5337 41.9863C58.0259 41.8264 58.5598 41.8516 59.0346 42.0574C59.5094 42.2631 59.8923 42.6351 60.111 43.1031C60.3297 43.5711 60.3692 44.1027 60.2219 44.5977Z" fill="#9E616A"/>
<path d="M41.3058 40.8117C41.3058 40.8117 39.4079 36.5523 37.0355 37.4041C34.663 38.256 35.8651 42.3892 35.8651 42.3892L44.8487 55.8932C44.8487 55.8932 57.8181 47.5952 56.2364 47.5321C54.6548 47.469 54.1803 44.6294 54.1803 44.6294L47.3477 48.0369L47.1262 46.8064L46.7467 47.185L45.7977 46.4278L41.3058 40.8117Z" fill="#CCCCCC"/>
<path d="M26.9763 25.8246C26.2487 26.1717 25.4263 25.6353 24.8253 25.1305L25.0467 25.3198C23.9396 26.3926 23.4334 27.9386 23.1804 29.453C22.9273 30.9675 22.8957 32.5135 22.5794 34.028C22.263 35.5424 21.5988 37.0569 20.3651 37.9719C18.7202 39.2024 16.4426 39.1393 14.3865 38.7607H14.2916C14.8257 37.1881 15.0512 35.5278 14.9559 33.8702C14.4256 35.5427 13.4914 37.0595 12.2355 38.2874C10.894 37.9136 9.58273 37.439 8.31308 36.8676C7.49063 36.489 6.60492 35.9842 6.38349 35.1007C6.16206 34.2173 6.69982 33.3339 7.39574 32.7659C8.09165 32.198 8.97737 31.9456 9.76818 31.5354C10.559 31.1253 11.3814 30.5889 11.6978 29.7686C12.4569 27.8439 10.3059 25.6353 11.16 23.7738C11.5712 22.8588 12.5518 22.354 13.5008 21.9438C14.9329 21.3555 16.4016 20.8602 17.8977 20.4609C19.2263 20.1139 20.5865 19.8299 21.9467 20.0823C23.3069 20.3347 24.6039 21.1235 25.0783 22.3856C25.8692 22.6695 26.7549 22.9535 27.261 23.6476C27.7987 24.2786 27.7355 25.446 26.9763 25.8246Z" fill="#2F2E41"/>
<path d="M33.4292 23.5845C31.3414 21.9439 29.6649 22.2278 28.3996 23.2375C28.1782 22.9851 27.2608 23.6476 26.9445 23.553L25.8057 25.6669C25.2363 26.7081 24.9833 27.7493 25.0782 28.3172C24.0027 31.3146 26.5333 33.3339 29.57 34.4066C30.7732 34.8375 32.0855 34.8597 33.3026 34.4697L33.3343 33.9649L33.5557 34.3751C33.5557 34.3751 36.3077 40.0227 36.9404 40.2752C36.5608 39.2655 35.5169 34.4066 35.2006 33.397C34.7894 32.0087 35.074 29.8317 35.2955 28.5065C35.4483 27.6835 35.459 26.8406 35.3271 26.014V25.9824L35.9598 27.276L37.4149 26.361C36.8771 24.815 36.8455 22.8904 33.4292 23.5845Z" fill="#2F2E41"/>
</g>
<defs>
<clipPath id="clip0_407_849">
<rect width="277" height="126" fill="white"/>
</clipPath>
</defs>
</svg>
