<svg width="115" height="144" viewBox="0 0 115 144" fill="none" xmlns="http://www.w3.org/2000/svg">
<g clip-path="url(#clip0_407_984)">
<path d="M61.7813 97.8641H0V29.927H61.753V97.8641H61.7813Z" fill="white"/>
<path d="M61.7813 97.8641H0V29.927H61.753V97.8641H61.7813ZM0.510352 97.3803H61.271V30.4393H0.510352V97.3803Z" fill="#3F3D56"/>
<path d="M53.3605 91.4604H40.5166V91.9728H53.3605V91.4604Z" fill="#3F3D56"/>
<path d="M53.3605 93.0259H40.5166V93.5382H53.3605V93.0259Z" fill="#3F3D56"/>
<path d="M53.3605 94.5911H40.5166V95.1034H53.3605V94.5911Z" fill="#3F3D56"/>
<path d="M30.877 42.0801V47.5447C34.1012 47.5481 37.2521 48.5102 39.9322 50.3095C42.6122 52.1088 44.7013 54.6646 45.9358 57.6545C47.1703 60.6444 47.4948 63.9344 46.8685 67.1093C46.2422 70.2841 44.6931 73.2017 42.4166 75.4937L46.2727 79.3644C49.3076 76.306 51.3724 72.414 52.2068 68.1792C53.0411 63.9444 52.6076 59.5564 50.9609 55.5685C49.3142 51.5807 46.5281 48.1716 42.9539 45.7711C39.3796 43.3707 35.1774 42.0863 30.877 42.0801Z" fill="#E6E6E6"/>
<path d="M46.2722 79.3358L42.4162 75.4651C39.624 78.2607 35.9184 79.9477 31.9837 80.2146C28.049 80.4814 24.151 79.3099 21.0097 76.9166L17.7207 81.2712C21.9099 84.4649 27.1092 86.0283 32.3576 85.6726C37.6061 85.3168 42.5488 83.0659 46.2722 79.3358Z" fill="#0E2A47"/>
<path d="M14.5733 63.9099C14.5711 61.7602 14.9912 59.6311 15.8098 57.6445C16.6283 55.658 17.8291 53.853 19.3434 52.3329C20.8577 50.8128 22.6558 49.6074 24.6348 48.7858C26.6138 47.9642 28.7348 47.5424 30.8763 47.5447V42.0801C26.3246 42.077 21.8868 43.5085 18.189 46.1728C14.4913 48.8371 11.7202 52.5996 10.2667 56.9295C8.81323 61.2593 8.75078 65.938 10.0881 70.3054C11.4255 74.6729 14.0952 78.5085 17.7205 81.2713L21.0095 76.9167C19.0071 75.3966 17.3836 73.4306 16.2668 71.1735C15.1499 68.9165 14.5702 66.43 14.5733 63.9099Z" fill="#FF5757"/>
<path d="M87.1006 139.788H83.1028L81.2031 124.333H87.1006V139.788Z" fill="#FFB8B8"/>
<path d="M88.1213 143.658H75.249V143.488C75.2479 142.826 75.3769 142.17 75.6287 141.558C75.8806 140.947 76.2502 140.391 76.7164 139.923C77.1826 139.455 77.7363 139.084 78.3457 138.831C78.9551 138.578 79.6082 138.449 80.2675 138.45H88.1213V143.658Z" fill="#2F2E41"/>
<path d="M104.707 129.94L102.127 132.986L89.1699 124.39L92.9976 119.893L104.707 129.94Z" fill="#FFB8B8"/>
<path d="M108.337 131.676L99.9733 141.495L99.8599 141.382C98.8516 140.515 98.2259 139.284 98.1196 137.956C98.0134 136.628 98.4352 135.311 99.2929 134.295L104.396 128.289L108.337 131.676Z" fill="#2F2E41"/>
<path d="M58.7475 63.7675L57.5283 75.2658L107.742 74.5543L85.853 38.7215L67.9622 38.0669L58.7475 63.7675Z" fill="#2F2E41"/>
<path opacity="0.28" d="M58.7475 63.7675L57.5283 75.2658L107.742 74.5543L85.853 38.7215L67.9622 38.0669L58.7475 63.7675Z" fill="#FF5757"/>
<path d="M68.6427 65.7598L66.8564 76.2905V85.7112L81.1464 90.4073C81.1464 90.4073 79.4736 126.952 81.7135 129.285L81.6568 134.892L87.8944 135.177L87.9511 131.221L90.588 101.65L92.1474 79.9335L89.624 63.4829L68.6427 65.7598Z" fill="#405466"/>
<path d="M79.7 74.8105L66.856 85.6828C66.856 85.6828 66.0905 105.293 68.0185 107.598C69.663 109.562 90.9845 126.61 90.9845 126.61C90.9845 126.61 94.7838 130.111 96.9103 130.168C99.0367 130.225 101.503 125.756 101.503 125.756L96.57 121.999C96.57 121.999 83.8112 110.046 80.0402 105.293C78.5091 103.386 78.5091 103.186 78.5091 103.186L79.0195 95.2173L84.2648 80.4174L79.7 74.8105Z" fill="#405466"/>
<path d="M66.0626 22.7264L60.5338 22.2141L55.5153 23.0395H44.8546L43.9473 30.781L53.6724 32.9725L56.0257 31.8056L65.8925 35.5909L66.0626 22.7264Z" fill="#FF5757"/>
<path d="M72.6971 22.6978C72.6971 22.6978 84.4636 21.5878 87.1288 23.694C89.794 25.8001 95.5213 67.6098 95.5213 67.6098L72.6971 68.8905L68.6143 66.0729L69.7767 45.2107L72.6971 22.6978Z" fill="#CCCCCC"/>
<path d="M76.2702 22.4417L63.3128 22.7263L51.2061 77.5712L60.761 79.6774L76.2702 22.4417Z" fill="#FF5757"/>
<path d="M85.4844 22.2283L95.7199 25.4159L95.1245 47.9573L107.742 74.9101L92.9129 76.4755L81.2031 47.3881L85.4844 22.2283Z" fill="#FF5757"/>
<path d="M102.355 77.4004C102.676 77.1174 102.939 76.7731 103.128 76.3876C103.316 76.0021 103.427 75.583 103.453 75.1543C103.48 74.7257 103.421 74.2961 103.281 73.8902C103.141 73.4844 102.923 73.1103 102.638 72.7897C102.518 72.6358 102.374 72.5014 102.213 72.3912L104.254 65.1905L100.2 62.8567L97.4496 73.0743C96.9897 73.7396 96.7897 74.5514 96.8876 75.3552C96.9855 76.1589 97.3744 76.8985 97.9804 77.4329C98.5864 77.9674 99.3671 78.2594 100.174 78.2534C100.98 78.2475 101.757 77.9438 102.355 77.4004Z" fill="#FFB8B8"/>
<path d="M89.7939 25.8001L95.8331 25.2878C95.8331 25.2878 101.249 30.9801 102.496 35.3916C103.744 39.8031 105.076 53.6068 105.076 53.6068L104.509 73.8144L97.4493 69.0044L96.9673 51.643L89.7939 25.8001Z" fill="#FF5757"/>
<path d="M88.333 15.6523C90.6011 11.4868 89.0758 6.26439 84.9262 3.98765C80.7766 1.71091 75.574 3.24202 73.3059 7.40747C71.0379 11.5729 72.5631 16.7954 76.7128 19.0721C80.8624 21.3489 86.065 19.8177 88.333 15.6523Z" fill="#FFB8B8"/>
<path d="M79.8703 7.95489C78.7362 7.69874 77.5737 7.98336 76.4396 8.18258C75.3055 8.38181 74.0579 8.43874 73.0939 7.78413C72.3851 7.30028 71.9315 6.53183 71.5345 5.79183C71.3634 5.52356 71.2477 5.22353 71.1943 4.90953C71.1376 4.36877 71.5062 3.85646 71.8748 3.42954C73.6043 1.52264 76.1277 0.46957 78.7078 0.128034C80.818 -0.188234 82.9741 0.0773911 84.9455 0.896488C86.8735 1.75033 88.5464 3.3157 89.3119 5.30799C89.6536 6.32154 89.8725 7.37268 89.964 8.43874C90.082 9.23017 90.1011 10.0333 90.0207 10.8295C89.913 11.4188 89.7613 11.9991 89.5671 12.5656L88.2912 16.3794C88.2085 16.7497 88.0328 17.0926 87.7808 17.3756C87.6594 17.5122 87.4986 17.6075 87.3208 17.6483C87.143 17.6891 86.957 17.6734 86.7885 17.6033C86.892 17.1844 86.9113 16.749 86.8452 16.3225C86.8023 16.1122 86.6988 15.9192 86.5476 15.7674C86.3964 15.6156 86.2041 15.5117 85.9946 15.4687C85.5409 15.4118 85.144 15.7818 84.6903 15.9241C84.4893 15.9851 84.2782 16.0055 84.0692 15.9841C83.8603 15.9627 83.6576 15.8999 83.473 15.7993C83.2884 15.6987 83.1256 15.5623 82.9938 15.3981C82.8621 15.2339 82.7641 15.045 82.7056 14.8425C82.7056 14.8141 82.6773 14.7571 82.6773 14.7287C82.6206 14.3018 82.734 13.8179 82.5639 13.4195C82.3654 12.9356 81.855 12.6795 81.4581 12.3379C81.1059 12.0134 80.8544 11.5937 80.7337 11.1293C80.613 10.6649 80.6283 10.1754 80.7776 9.71949C80.891 9.40642 81.1746 9.26411 81.1179 8.89412C80.9761 8.38181 80.2673 8.04028 79.8703 7.95489Z" fill="black"/>
<path d="M44.7979 30.1264C46.6769 30.1264 48.2002 28.5973 48.2002 26.711C48.2002 24.8248 46.6769 23.2957 44.7979 23.2957C42.9188 23.2957 41.3955 24.8248 41.3955 26.711C41.3955 28.5973 42.9188 30.1264 44.7979 30.1264Z" fill="#FFB8B8"/>
<path d="M114.717 144H61.6966C61.6214 144 61.5493 143.97 61.4961 143.917C61.443 143.863 61.4131 143.791 61.4131 143.715C61.4131 143.64 61.443 143.567 61.4961 143.514C61.5493 143.461 61.6214 143.431 61.6966 143.431H114.717C114.755 143.428 114.793 143.434 114.828 143.447C114.864 143.461 114.896 143.482 114.923 143.509C114.95 143.535 114.971 143.568 114.984 143.604C114.997 143.639 115.003 143.677 115 143.715C115 143.791 114.97 143.863 114.917 143.917C114.864 143.97 114.792 144 114.717 144Z" fill="#CCCCCC"/>
</g>
<defs>
<clipPath id="clip0_407_984">
<rect width="115" height="144" fill="white"/>
</clipPath>
</defs>
</svg>
