<svg width="498" height="621" viewBox="0 0 498 621" fill="none" xmlns="http://www.w3.org/2000/svg">
<g clip-path="url(#clip0_407_1012)">
<path d="M137.295 487.918C137.294 487.33 137.177 486.749 136.951 486.207C136.725 485.665 136.394 485.173 135.978 484.758C135.562 484.344 135.069 484.016 134.526 483.792C133.983 483.569 133.402 483.455 132.815 483.456H49.0054C48.5542 483.451 48.1052 483.519 47.6764 483.66C46.7661 483.941 45.9699 484.506 45.4048 485.274C44.8396 486.041 44.5353 486.97 44.5366 487.924V620.46H137.295V487.924V487.918ZM101.098 548.844C101.036 551.432 99.9649 553.893 98.1144 555.701C96.2639 557.509 93.7805 558.521 91.1946 558.521C88.6087 558.521 86.1252 557.509 84.2747 555.701C82.4242 553.893 81.3533 551.432 81.2907 548.844V533.462C81.3533 530.874 82.4242 528.414 84.2747 526.606C86.1252 524.798 88.6087 523.785 91.1946 523.785C93.7805 523.785 96.2639 524.798 98.1144 526.606C99.9649 528.414 101.036 530.874 101.098 533.462V548.844Z" fill="#F2F2F2"/>
<path d="M286.692 610.183C285.344 607.175 284.685 603.904 284.762 600.609C284.84 597.313 285.652 594.076 287.138 591.135C289.135 587.266 292.304 583.99 295.368 580.824C296.256 579.9 297.179 578.947 298.049 578C298.995 576.955 300.231 576.217 301.6 575.88C302.968 575.544 304.405 575.625 305.727 576.112C308.409 577.042 312.587 590.42 312.726 593.255V593.557L301.624 599.82C303.185 599.686 309.03 598.902 312.367 598.304L312.651 598.251V598.536C312.407 601.51 309.453 593.523 308.472 596.34C306.689 601.348 303.838 605.908 300.116 609.702C296.395 613.496 291.893 616.433 286.924 618.31L286.628 618.421L286.692 610.183Z" fill="#F2F2F2"/>
<path d="M135.45 335.979C125.944 300.803 116.151 277.32 106.072 265.531C98.3109 258.138 87.7425 258.239 74.3672 265.833C61.5684 273.428 58.6666 283.919 65.6618 297.307C81.1767 321.489 104.447 334.38 135.473 335.979H135.45ZM184.92 261.622L119.473 244.833C135.761 258.221 148.85 286.105 158.74 328.485L189.278 449.897C193.743 470.484 203.439 486.074 218.366 496.666C245.515 514.051 273.245 514.051 301.554 496.666C322.111 483.886 336.459 463.202 344.6 434.613C337.248 448.199 328.135 456.591 317.259 459.79C303.272 463.388 290.669 459.29 279.449 447.498C272.662 440.101 268.008 431 265.485 420.195L240.448 322.188C233.666 291.012 215.149 270.827 184.896 261.633L184.92 261.622ZM342.545 407.327C363.295 376.55 377.061 344.974 383.843 312.597C385.588 302.803 386.943 293.011 387.906 283.22C392.549 221.465 368.988 193.285 317.224 198.679C316.063 239.653 307.726 284.92 292.211 334.48C279.605 372.251 277.477 399.231 285.827 415.419C289.893 425.411 295.418 432.806 302.402 437.605C311.904 443.197 325.285 433.104 342.545 407.327ZM377.448 113.546C363.098 100.158 339.634 94.2595 307.056 95.8512C231.819 101.444 162.497 116.234 99.0905 140.222C48.0886 158.811 17.3528 181.2 6.88309 207.387C0.487539 224.176 -1.44699 240.163 1.07951 255.348C5.33547 286.524 24.5318 306.71 58.6685 315.908C28.811 291.51 28.811 269.925 58.6685 251.154C139.532 211.787 218.461 188.804 295.455 182.205C298.859 182.217 302.26 182.023 305.64 181.624C313.378 181.236 320.94 180.936 328.326 180.723C367.884 180.925 391.152 196.913 398.132 228.689C405.29 170.311 398.395 131.93 377.448 113.546Z" fill="#98CA3F"/>
<path d="M386.757 289.877C385.898 297.534 385.016 305.202 383.512 312.76C382.009 320.317 379.717 327.596 377.581 334.951L373.954 347.44L374.534 347.528C374.569 347.209 374.537 346.886 374.441 346.581C374.345 346.275 374.187 345.992 373.977 345.75C373.766 345.509 373.508 345.313 373.219 345.176C372.929 345.039 372.614 344.963 372.294 344.954C371.989 344.957 371.687 345.021 371.407 345.143C371.127 345.265 370.875 345.442 370.665 345.664C370.455 345.886 370.291 346.147 370.184 346.434C370.077 346.72 370.029 347.025 370.042 347.33L370.623 347.196C370.042 345.378 369.004 342.991 366.647 342.904C365.545 342.857 364.72 343.537 363.833 344.065C362.862 344.593 361.772 344.859 360.669 344.839C359.565 344.818 358.486 344.512 357.536 343.949C357.216 343.757 356.857 344.182 357.17 344.379C358.012 344.886 358.951 345.212 359.926 345.336C360.902 345.46 361.892 345.379 362.834 345.099C363.302 344.958 363.752 344.763 364.175 344.518C364.622 344.257 365.04 343.938 365.504 343.728C365.985 343.513 366.521 343.449 367.039 343.545C367.558 343.642 368.034 343.894 368.406 344.269C369.323 345.088 369.712 346.308 370.089 347.417C370.193 347.731 370.669 347.592 370.669 347.284C370.669 346.835 370.841 346.404 371.15 346.079C371.459 345.755 371.881 345.562 372.329 345.541C372.57 345.547 372.807 345.604 373.024 345.707C373.242 345.81 373.436 345.957 373.595 346.138C373.753 346.32 373.872 346.533 373.943 346.763C374.015 346.993 374.039 347.236 374.012 347.475C373.954 347.836 374.488 347.894 374.592 347.562C376.746 340.15 378.939 332.749 381.046 325.325C382.085 321.665 383.071 317.988 383.866 314.288C384.662 310.587 385.3 306.736 385.834 302.907C386.414 298.62 386.919 294.321 387.401 290.023C387.442 289.668 386.867 289.575 386.821 289.93L386.757 289.877Z" fill="#006633"/>
<path d="M363.931 206.475C364.705 207.072 365.479 207.691 366.253 208.334C367.616 209.496 368.945 210.693 370.222 211.965C370.524 212.261 370.803 212.546 371.11 212.865C371.226 212.981 371.337 213.103 371.447 213.22L371.789 213.574C372.358 214.19 372.919 214.817 373.472 215.456C373.942 216.002 374.401 216.554 374.854 217.112C375.016 217.321 375.178 217.524 375.341 217.739C375.503 217.954 375.637 218.117 375.782 218.32C376.595 219.389 377.368 220.483 378.104 221.602C385.491 232.802 389.246 246.651 389.339 262.975C389.339 263.701 389.339 264.433 389.339 265.171C389.339 266.914 389.246 268.657 389.142 270.428C388.937 273.937 388.577 277.55 388.062 281.268C387.946 282.116 387.825 282.965 387.685 283.818C387.627 284.196 387.569 284.579 387.505 284.98L386.757 284.789C386.966 283.516 387.157 282.262 387.337 281.013C390.918 255.115 386.902 234.278 375.387 218.965C375.213 218.733 375.039 218.5 374.859 218.274C374.679 218.047 374.383 217.658 374.134 217.356C373.739 216.862 373.333 216.374 372.921 215.898C372.371 215.259 371.809 214.633 371.232 214.021C371.099 213.87 370.953 213.719 370.814 213.58C370.315 213.051 369.81 212.54 369.294 212.046" fill="#006633"/>
<path d="M388.666 278.422L388.748 278.515L388.986 278.794L387.511 279.996L381.569 284.829L381.563 284.835L378.899 287.002V287.008L378.04 287.699L377.727 287.327L378.649 286.572L387.279 279.555L388.666 278.422Z" fill="#3F3D56"/>
<path d="M389.241 277.138C389.368 277.15 389.493 277.179 389.612 277.225C389.833 277.307 390.032 277.441 390.192 277.614C390.373 277.807 390.495 278.047 390.546 278.306C390.599 278.566 390.582 278.835 390.496 279.086C390.411 279.338 390.26 279.561 390.059 279.735C389.829 279.94 389.545 280.073 389.241 280.118C388.995 280.157 388.744 280.134 388.51 280.053C388.275 279.972 388.064 279.835 387.894 279.653L387.836 279.584C387.813 279.558 387.792 279.531 387.772 279.502C387.719 279.427 387.673 279.347 387.633 279.264C387.633 279.235 387.604 279.2 387.592 279.165C387.516 278.964 387.488 278.747 387.511 278.532C387.524 278.402 387.551 278.273 387.592 278.149C387.612 278.086 387.637 278.026 387.668 277.969C387.814 277.695 388.037 277.47 388.309 277.323C388.582 277.175 388.891 277.111 389.2 277.138H389.241Z" fill="#F9A826"/>
<path d="M383.332 281.286H383.361C383.487 281.297 383.61 281.326 383.727 281.373C383.949 281.454 384.148 281.587 384.307 281.762C384.488 281.955 384.613 282.194 384.667 282.453C384.72 282.713 384.703 282.983 384.617 283.234C384.532 283.485 384.381 283.709 384.18 283.882C383.953 284.091 383.667 284.225 383.361 284.266C383.115 284.304 382.864 284.281 382.628 284.2C382.393 284.119 382.18 283.982 382.009 283.801L381.957 283.731L381.893 283.656C381.841 283.58 381.795 283.5 381.754 283.418C381.738 283.384 381.724 283.349 381.713 283.313C381.638 283.113 381.608 282.899 381.626 282.686C381.638 282.553 381.667 282.422 381.713 282.297C381.734 282.237 381.759 282.178 381.789 282.122C381.876 281.954 381.992 281.803 382.131 281.675C382.294 281.531 382.485 281.422 382.691 281.355C382.898 281.288 383.116 281.264 383.332 281.286Z" fill="#F9A826"/>
<path d="M377.216 286.514C377.343 286.525 377.468 286.554 377.587 286.601C377.825 286.685 378.037 286.828 378.204 287.017C378.37 287.206 378.486 287.435 378.539 287.682C378.592 287.942 378.575 288.211 378.489 288.462C378.403 288.714 378.252 288.937 378.051 289.111C377.824 289.319 377.539 289.453 377.233 289.494C376.987 289.533 376.735 289.51 376.499 289.429C376.264 289.348 376.051 289.211 375.881 289.029L375.823 288.96L375.765 288.884C375.709 288.811 375.662 288.731 375.625 288.646C375.609 288.612 375.596 288.577 375.585 288.541C375.51 288.341 375.48 288.127 375.498 287.914C375.509 287.781 375.539 287.65 375.585 287.525C375.605 287.465 375.631 287.407 375.66 287.35C375.747 287.182 375.863 287.031 376.003 286.903C376.167 286.758 376.359 286.648 376.568 286.581C376.777 286.514 376.998 286.491 377.216 286.514Z" fill="#F9A826"/>
<path d="M329.504 90.3732H310.701V92.4936H329.504V90.3732Z" fill="#2F2E41"/>
<path d="M395.335 293.944L394.609 291.179L394.244 289.79C393.66 287.621 392.241 285.773 390.297 284.649L384.256 281.082C384.173 281.032 384.077 281.01 383.981 281.018C383.885 281.026 383.794 281.065 383.722 281.129C383.688 281.162 383.659 281.199 383.635 281.239C383.607 281.286 383.587 281.337 383.577 281.39C383.934 281.525 384.223 281.795 384.382 282.142C384.541 282.489 384.556 282.885 384.424 283.243L384.691 283.789C386.664 284.719 387.424 286.52 387.285 288.977V289.012V288.983C384.813 288.117 383.17 286.659 382.967 284.248C382.77 284.255 382.573 284.223 382.388 284.153C382.203 284.083 382.034 283.976 381.891 283.84C381.748 283.704 381.633 283.54 381.554 283.359C381.475 283.178 381.432 282.982 381.429 282.785V282.732C381.387 282.727 381.344 282.727 381.302 282.732C381.264 282.739 381.226 282.75 381.191 282.767C381.105 282.804 381.034 282.869 380.988 282.951C380.941 283.032 380.923 283.127 380.936 283.22L382.016 290.104C382.186 291.181 382.569 292.213 383.143 293.14C383.717 294.067 384.47 294.869 385.358 295.501L386.061 296L388.962 298.103L391.562 299.98L395.433 297.476L396.153 297.011L395.335 293.944Z" fill="#CCCCCC"/>
<path d="M393.036 303.07C392.767 303.124 392.487 303.097 392.233 302.994C391.978 302.891 391.759 302.715 391.603 302.489C391.372 302.168 391.249 301.781 391.255 301.385L390.802 301.676C390.335 301.982 389.769 302.096 389.221 301.994C388.673 301.892 388.185 301.583 387.859 301.13V301.101C387.717 300.87 387.621 300.612 387.578 300.344C387.536 300.076 387.546 299.802 387.61 299.538C387.674 299.273 387.789 299.024 387.949 298.805C388.11 298.586 388.312 298.401 388.544 298.26C389.363 294.995 391.649 293.346 395.7 293.613C396.149 293.314 396.691 293.19 397.225 293.262C397.759 293.335 398.249 293.6 398.602 294.008C398.776 294.227 398.902 294.48 398.971 294.752C399.04 295.023 399.051 295.306 399.002 295.582C398.95 295.862 398.84 296.128 398.68 296.364C398.521 296.6 398.314 296.8 398.074 296.953L397.621 297.244C397.996 297.392 398.319 297.649 398.55 297.981C398.584 298.027 398.615 298.076 398.642 298.127C398.776 298.36 398.834 298.629 398.81 298.897C398.786 299.165 398.681 299.419 398.509 299.625C398.331 299.851 398.092 300.022 397.821 300.117C397.55 300.213 397.257 300.23 396.977 300.166C396.68 300.105 396.374 300.105 396.077 300.166C395.678 300.242 395.306 300.423 395 300.69C394.694 300.958 394.465 301.302 394.336 301.688C394.307 301.771 394.284 301.856 394.267 301.943C394.204 302.224 394.061 302.48 393.854 302.68C393.648 302.88 393.388 303.016 393.106 303.07H393.036Z" fill="#3F3D56"/>
<path d="M120.929 619.193C119.851 619.501 118.699 619.421 117.673 618.967C115.09 617.752 112.248 617.19 109.397 617.329C108.672 617.394 107.942 617.298 107.258 617.047C106.575 616.796 105.956 616.396 105.445 615.876C104.868 615.264 104.444 614.524 104.209 613.716C103.974 612.908 103.934 612.056 104.093 611.229C107.118 603.124 108.705 594.553 108.782 585.901C108.782 585.779 108.834 585.663 108.863 585.547C109.05 584.817 109.405 584.14 109.9 583.572C110.395 583.004 111.016 582.56 111.713 582.276C112.453 581.97 113.254 581.839 114.053 581.893C114.852 581.946 115.628 582.183 116.321 582.584C118.533 583.861 121.129 584.304 123.639 583.833C124.815 583.638 126.022 583.871 127.041 584.49C128.06 585.11 128.824 586.074 129.193 587.208C129.438 588.028 129.483 588.894 129.327 589.735C126.605 597.913 125.027 606.429 124.638 615.04V615.075C124.464 616.039 124.025 616.935 123.37 617.663C122.715 618.391 121.869 618.921 120.929 619.193Z" fill="#66CC00"/>
<path d="M162.5 505.915C161.999 504.909 161.87 503.759 162.135 502.667C162.852 499.903 162.884 497.006 162.228 494.227C162.033 493.525 161.996 492.789 162.118 492.071C162.24 491.353 162.52 490.671 162.936 490.073C163.43 489.395 164.079 488.844 164.827 488.465C165.576 488.087 166.403 487.891 167.242 487.895C175.754 489.393 184.463 489.393 192.975 487.895H193.341C194.092 487.946 194.821 488.173 195.469 488.558C196.117 488.942 196.666 489.473 197.072 490.108C197.508 490.78 197.783 491.544 197.876 492.34C197.97 493.135 197.88 493.942 197.612 494.697C196.758 497.107 196.795 499.743 197.717 502.127C198.122 503.25 198.111 504.482 197.685 505.597C197.258 506.713 196.446 507.638 195.395 508.203C194.635 508.592 193.793 508.791 192.94 508.784C184.41 507.593 175.755 507.593 167.225 508.784H167.196C166.225 508.785 165.273 508.518 164.444 508.011C163.616 507.505 162.943 506.779 162.5 505.915Z" fill="#66CC00"/>
<path d="M150.65 477.763L175.193 490.747C175.508 491.363 175.979 491.885 176.56 492.261C177.14 492.636 177.809 492.852 178.499 492.887C179.19 492.921 179.877 492.773 180.492 492.458C181.107 492.142 181.628 491.67 182.003 491.088C182.377 490.507 182.593 489.837 182.626 489.146C182.66 488.455 182.511 487.767 182.195 487.152C181.879 486.536 181.407 486.015 180.825 485.641C180.244 485.267 179.575 485.052 178.884 485.019L160.818 472.018C160.818 472.018 152.989 461.248 147.841 458.541L140.981 464.222L150.65 477.763Z" fill="#FFB8B8"/>
<path d="M129.42 442.577C131.316 440.968 133.772 440.179 136.249 440.383C138.727 440.586 141.021 441.766 142.629 443.664C146.993 448.863 151.335 455.863 151.712 458.448C152.321 462.654 158.386 468.393 158.386 468.393L171.566 479.146L165.008 485.728L150.464 478.123C144.8 476.299 133.912 460.615 133.912 460.615L129.548 457.065C129.096 456.699 128.68 456.291 128.306 455.845C127.508 454.903 126.904 453.812 126.527 452.636C126.151 451.46 126.009 450.221 126.111 448.99C126.213 447.759 126.556 446.56 127.121 445.462C127.686 444.363 128.461 443.387 129.403 442.589L129.42 442.577Z" fill="#3F3D56"/>
<path d="M143.505 588.881H152.658L149.704 612.815H143.505V588.881Z" fill="#FFB6B6"/>
<path d="M143.285 611.624H144.95L151.45 608.975L154.932 611.624C156.9 611.624 158.786 612.406 160.177 613.799C161.568 615.191 162.349 617.079 162.349 619.048V619.292H143.285V611.624Z" fill="#2F2E41"/>
<path d="M117.331 568.816L121.661 576.885L99.2008 585.622L96.27 580.156L117.331 568.816Z" fill="#FFB6B6"/>
<path d="M97.2159 579.395L98.0052 580.864L103.408 585.338L102.729 589.66C103.661 591.395 103.866 593.43 103.299 595.317C102.732 597.204 101.439 598.788 99.7056 599.721L99.4967 599.837L90.4663 583.025L97.2159 579.395Z" fill="#2F2E41"/>
<path d="M122.752 508.337C122.531 509.429 124.255 514.483 126.71 520.862C127.499 522.906 128.364 525.096 129.263 527.327C129.681 528.379 129.397 530.017 129.844 531.074C130.093 531.696 131.057 531.736 131.312 532.352C131.765 533.456 131.207 534.536 131.66 535.623C132.008 536.459 133.361 537.307 133.703 538.126C134.196 539.288 133.929 540.624 135.154 541.612C141.23 546.41 140.528 554.183 140.528 554.183C132.049 555.043 118.59 566.713 106.002 574.422L108.736 583.322L157.985 561.723L160.724 547.038L155.252 503.202C155.252 503.202 123.419 504.91 122.752 508.337Z" fill="#2F2E41"/>
<path d="M141.904 559.684C138.63 573.795 138.81 590.473 142.246 603.16H151.822L159.047 565.4L156.186 546.898L141.904 559.684Z" fill="#2F2E41"/>
<path d="M153.441 495.603C159.349 501.517 153.65 508.819 147.533 508.79L123.46 513.798C121.138 513.798 122.665 510.806 123.001 508.79C123.199 507.628 121.841 507.82 122.096 506.519L122.247 504.242L122.357 502.609L122.467 500.988L122.67 497.944L121.185 493.779L121.376 490.927L120.935 488.539L120.245 484.775C117.296 468.792 120.611 452.286 129.501 438.685L131.974 436.786L140.865 438.151L145.6 441.961L150.029 449.664L153.441 495.603Z" fill="#3F3D56"/>
<path d="M138.746 434.648C145.205 434.648 150.441 429.407 150.441 422.942C150.441 416.478 145.205 411.237 138.746 411.237C132.288 411.237 127.052 416.478 127.052 422.942C127.052 429.407 132.288 434.648 138.746 434.648Z" fill="#FFB8B8"/>
<path d="M139.507 434.642L139.565 434.555L139.53 434.468C139.489 434.369 139.426 434.334 138.874 434.276C138.155 434.2 137.377 432.69 136.982 430.605C136.588 428.519 136.657 425.847 137.789 425.26C138.122 425.05 138.385 424.744 138.543 424.383C138.671 424.06 138.907 423.791 139.211 423.622C139.564 423.511 139.938 423.488 140.302 423.553C140.666 423.619 141.008 423.772 141.3 424C141.398 424.069 141.506 424.123 141.619 424.162C141.79 424.224 141.972 424.251 142.154 424.243C142.335 424.234 142.514 424.19 142.678 424.112C142.842 424.034 142.99 423.925 143.112 423.79C143.234 423.655 143.328 423.497 143.389 423.326C143.692 422.461 144.214 421.689 144.904 421.086C145.593 420.484 146.427 420.07 147.324 419.887C147.609 419.834 147.905 419.811 148.177 419.788C148.644 419.758 149.106 419.684 149.559 419.567C150.058 419.415 150.517 419.155 150.905 418.806C151.594 418.177 152.006 417.301 152.051 416.369C152.095 415.437 151.769 414.525 151.143 413.834L150.894 413.555V413.804C150.783 413.677 150.632 413.462 150.505 413.276C149.924 412.468 149.466 411.847 149.019 411.829C148.288 411.825 147.585 411.545 147.052 411.045C147.005 410.991 146.945 410.95 146.878 410.927C146.811 410.904 146.738 410.898 146.668 410.912C145.415 411.185 143.767 411.411 142.293 410.778C139.327 409.506 137.011 409.082 135.415 409.512C134.424 409.744 133.501 410.208 132.722 410.865C132.566 411 132.42 411.148 132.287 411.307C131.602 412.094 130.696 412.657 129.687 412.921L129.496 412.985C128.804 413.311 128.213 413.817 127.784 414.449C126.668 415.964 125.882 417.697 125.477 419.535C125.072 421.374 125.057 423.276 125.433 425.121C125.699 426.71 126.224 428.245 126.989 429.663C128.033 431.319 131.782 434.067 133.454 434.41C135.145 434.675 136.855 434.795 138.567 434.77C138.886 434.792 139.206 434.749 139.507 434.642Z" fill="#2F2E41"/>
<path d="M186.719 427.032C185.658 426.664 184.76 425.934 184.183 424.97C182.759 422.494 180.753 420.404 178.338 418.882C177.067 418.144 168.229 408.762 167.985 407.31C167.862 406.479 167.938 405.631 168.206 404.835C168.475 404.039 168.928 403.319 169.529 402.732C176.654 397.831 182.87 391.723 187.897 384.683C187.98 384.597 188.067 384.516 188.158 384.439C188.733 383.944 189.416 383.593 190.152 383.413C190.889 383.234 191.657 383.231 192.395 383.405C193.979 383.754 203.265 392.938 203.95 394.413C205.026 396.732 206.898 398.588 209.225 399.642C210.3 400.157 211.155 401.041 211.635 402.134C212.114 403.226 212.186 404.455 211.837 405.596C211.571 406.408 211.113 407.143 210.502 407.74C203.585 412.866 197.412 418.926 192.157 425.748C191.462 426.451 190.584 426.945 189.622 427.172C188.66 427.399 187.654 427.35 186.719 427.032Z" fill="#66CC00"/>
<path d="M165.849 446.946L181.594 424.069C182.246 423.833 182.824 423.429 183.269 422.897C183.714 422.366 184.012 421.726 184.131 421.043C184.25 420.359 184.186 419.657 183.947 419.006C183.708 418.355 183.301 417.778 182.767 417.335C182.234 416.892 181.593 416.598 180.91 416.483C180.227 416.367 179.525 416.434 178.876 416.677C178.227 416.92 177.653 417.33 177.214 417.866C176.774 418.402 176.483 419.045 176.371 419.73L161.357 436.17C161.357 436.17 149.75 442.693 146.465 447.492L151.306 454.98L165.849 446.946Z" fill="#FFB8B8"/>
<path d="M128.451 463.938C127.77 462.911 127.298 461.76 127.062 460.55C126.825 459.341 126.829 458.097 127.073 456.889C127.317 455.681 127.797 454.533 128.484 453.511C129.172 452.489 130.054 451.612 131.08 450.931C136.744 447.207 144.207 443.698 146.807 443.629C151.05 443.518 156.993 436.658 156.993 436.658L169.9 424.912L177.305 431.621L166.278 447.306C163.812 452.726 146.906 461.562 146.906 461.562L142.873 465.483C142.455 465.888 142.003 466.256 141.52 466.581C139.442 467.959 136.902 468.455 134.459 467.96C132.016 467.464 129.869 466.017 128.491 463.938H128.451Z" fill="#3F3D56"/>
<path d="M234.041 611.81C233.541 610.805 233.41 609.655 233.67 608.563C234.389 605.797 234.422 602.898 233.769 600.116C233.572 599.416 233.533 598.681 233.654 597.963C233.775 597.246 234.054 596.565 234.471 595.968C234.965 595.29 235.613 594.738 236.362 594.358C237.11 593.978 237.938 593.782 238.777 593.784C247.291 595.283 256.002 595.283 264.516 593.784C264.638 593.784 264.754 593.784 264.876 593.784C265.627 593.835 266.355 594.061 267.003 594.445C267.651 594.828 268.201 595.358 268.608 595.992C269.044 596.665 269.319 597.429 269.413 598.226C269.506 599.023 269.416 599.831 269.147 600.587C268.295 602.997 268.334 605.633 269.258 608.017C269.663 609.14 269.652 610.371 269.226 611.487C268.799 612.602 267.987 613.527 266.936 614.093C266.178 614.484 265.335 614.684 264.481 614.674C255.953 613.483 247.3 613.483 238.771 614.674H238.737C237.767 614.675 236.815 614.408 235.987 613.903C235.158 613.397 234.485 612.673 234.041 611.81Z" fill="#66CC00"/>
<path d="M226.769 592.71C226.271 591.703 226.142 590.554 226.404 589.462C227.121 586.698 227.153 583.801 226.497 581.021C226.301 580.316 226.264 579.576 226.389 578.855C226.513 578.134 226.796 577.449 227.216 576.85C227.711 576.172 228.359 575.621 229.108 575.243C229.856 574.864 230.684 574.668 231.523 574.672C240.035 576.17 248.743 576.17 257.256 574.672H257.621C258.373 574.724 259.102 574.951 259.75 575.335C260.398 575.719 260.947 576.25 261.353 576.885C261.788 577.558 262.063 578.321 262.157 579.117C262.25 579.913 262.16 580.719 261.893 581.475C261.041 583.884 261.078 586.52 261.997 588.904C262.403 590.028 262.391 591.259 261.965 592.375C261.539 593.49 260.726 594.415 259.676 594.981C258.917 595.372 258.074 595.572 257.221 595.562C248.69 594.377 240.036 594.377 231.505 595.562C230.529 595.572 229.57 595.311 228.734 594.807C227.898 594.303 227.218 593.577 226.769 592.71Z" fill="#66CC00"/>
<path d="M295.333 606.332C294.783 607.311 293.906 608.064 292.855 608.458C290.166 609.412 287.75 611.007 285.815 613.105C285.344 613.66 284.756 614.103 284.094 614.404C283.432 614.706 282.712 614.857 281.985 614.848C281.146 614.817 280.327 614.587 279.593 614.178C278.86 613.77 278.234 613.193 277.766 612.495C274.238 604.596 269.357 597.375 263.344 591.158C263.274 591.059 263.211 590.956 263.152 590.85C262.773 590.199 262.552 589.468 262.505 588.715C262.459 587.963 262.589 587.21 262.885 586.517C263.196 585.78 263.672 585.125 264.276 584.601C264.879 584.078 265.595 583.7 266.367 583.496C268.841 582.855 271.001 581.346 272.455 579.244C273.156 578.279 274.179 577.598 275.339 577.324C276.499 577.05 277.718 577.202 278.776 577.751C279.526 578.159 280.167 578.743 280.644 579.453C284.439 587.191 289.287 594.366 295.049 600.773C295.611 601.58 295.935 602.529 295.985 603.512C296.036 604.494 295.81 605.471 295.333 606.332Z" fill="#66CC00"/>
<path d="M330.038 102.555H324.432V103.455H330.038V102.555Z" fill="#2F2E41"/>
<path d="M318.82 102.555H313.214V103.455H318.82V102.555Z" fill="#2F2E41"/>
<path d="M314.694 83.4487L317.398 99.5226L343.108 85.7026L314.694 83.4487Z" fill="#2F2E41"/>
<path d="M311.624 183.424L306.238 183.204L304.52 162.308L312.471 162.628L311.624 183.424Z" fill="#FFB6B6"/>
<path d="M311.989 123.631C321.757 120.645 323.765 107.899 329.127 105.117C329.127 98.3841 329.383 77.5059 322.668 77.9068C318.93 78.1275 298.101 116.294 297.208 122.637C295.548 134.372 304.392 164.312 303.371 166.369L313.643 167.019L313.701 166.212C313.864 164.016 315.501 157.399 313.632 156.238L312.924 155.796C312.924 153.513 313.429 149.627 311.374 148.639C311.349 148.627 311.327 148.611 311.309 148.59C311.29 148.57 311.276 148.546 311.267 148.52C311.258 148.494 311.254 148.467 311.255 148.439C311.257 148.412 311.264 148.385 311.276 148.36L311.989 123.631Z" fill="#2F2E41"/>
<path d="M314.398 188.101L310.794 188.316L309.952 184.946L308.507 188.432L298.954 189.013C298.497 189.038 298.044 188.917 297.66 188.667C297.276 188.417 296.982 188.051 296.82 187.622C296.659 187.194 296.638 186.724 296.761 186.283C296.883 185.841 297.144 185.451 297.503 185.167L304.822 179.439L304.619 176H312.668L314.398 188.101Z" fill="#2F2E41"/>
<path d="M352.672 145.758L358.046 146.194L362.283 125.658L354.355 125.019L352.672 145.758Z" fill="#FFB6B6"/>
<path d="M350.566 93.7135C345.749 102.195 337.131 104.216 328.193 105.698C324.305 100.202 318.379 92.5458 324.084 88.9732C327.259 86.9865 354.785 70.9009 359.033 75.6644C370.124 88.1018 362.214 128.127 362.893 127.238L354.106 127.11L353.59 126.489C352.901 125.658 352.453 124.654 352.293 123.586C352.133 122.518 352.269 121.426 352.684 120.43L353.009 119.657C352.358 118.748 351.978 117.672 351.915 116.555C351.851 115.438 352.106 114.326 352.649 113.348L352.76 113.151L350.566 93.7135Z" fill="#2F2E41"/>
<path d="M352.533 138.258L360.525 139.228L359.909 142.621L366.502 149.203C366.826 149.528 367.038 149.948 367.107 150.402C367.175 150.855 367.097 151.319 366.884 151.726C366.671 152.132 366.334 152.46 365.922 152.661C365.51 152.863 365.044 152.927 364.593 152.845L355.18 151.102L354.17 147.448L352.928 150.69L349.376 150.039L352.533 138.258Z" fill="#2F2E41"/>
<path d="M331.646 26.1064H327.961C327.208 26.1061 326.467 26.2889 325.801 26.639C325.134 26.9892 324.563 27.4962 324.136 28.1164L321.466 31.9795L314.81 33.1878C312.499 34.6172 310.758 36.8082 309.888 39.3837C309.017 41.9592 309.07 44.758 310.039 47.2982C314.746 59.6195 317.003 82.7342 312.442 92.9293C312.442 92.9293 340.2 95.4446 347.176 87.0562C354.152 78.6677 348.511 37.8467 348.511 37.8467L338.134 31.9795L335.465 28.1164C335.038 27.497 334.468 26.9905 333.803 26.6404C333.138 26.2903 332.397 26.107 331.646 26.1064Z" fill="#F9A826"/>
<path d="M348.854 98.2446C349.42 97.6467 349.725 96.8482 349.704 96.0247C349.682 95.2012 349.334 94.4201 348.738 93.8529C348.604 93.7294 348.46 93.6167 348.308 93.516L354.384 73.515L347.623 69.4486L343.868 94.5674C343.487 95.2317 343.364 96.0131 343.521 96.7626C343.679 97.5122 344.106 98.1775 344.722 98.6319C345.338 99.0863 346.1 99.2979 346.862 99.2265C347.624 99.1551 348.333 98.8056 348.854 98.2446Z" fill="#FFB6B6"/>
<path d="M354.837 75.769L346.712 72.6088L347.06 68.5424L337.42 47.4144C336.993 46.48 336.754 45.4704 336.716 44.4434C336.679 43.4163 336.844 42.392 337.202 41.4289C337.561 40.4658 338.105 39.5829 338.805 38.8307C339.505 38.0785 340.346 37.4717 341.28 37.0451C341.715 36.8477 342.168 36.6903 342.632 36.5745C344.644 36.0735 346.772 36.3914 348.549 37.4587C350.327 38.5259 351.609 40.2553 352.115 42.2675L358.453 67.6594C359.19 71.6038 358.377 74.5432 354.837 75.769Z" fill="#F9A826"/>
<path d="M343.607 13.8026C343.533 10.1932 342.049 6.75669 339.472 4.23028C336.896 1.70388 333.433 0.288879 329.827 0.288879C326.22 0.288879 322.757 1.70388 320.181 4.23028C317.604 6.75669 316.12 10.1932 316.046 13.8026V22.4524C316.046 22.6955 316.094 22.9362 316.187 23.1607C316.28 23.3852 316.417 23.5891 316.588 23.7607C316.76 23.9323 316.965 24.0683 317.189 24.1608C317.414 24.2533 317.654 24.3005 317.897 24.2997H318.234C318.624 23.1746 318.862 22.0024 318.942 20.8142C319.656 21.8849 320.199 23.061 320.549 24.2997H341.75C342.241 24.2997 342.711 24.1055 343.059 23.7594C343.407 23.4133 343.604 22.9434 343.607 22.4524C344.721 20.1752 345.221 17.5669 343.607 13.8026Z" fill="#2F2E41"/>
<path d="M329.272 24.2184C334.853 24.2184 339.377 19.6903 339.377 14.1047C339.377 8.51899 334.853 3.99091 329.272 3.99091C323.692 3.99091 319.168 8.51899 319.168 14.1047C319.168 19.6903 323.692 24.2184 329.272 24.2184Z" fill="#FFB8B8"/>
<path d="M318.913 14.064C318.818 13.9519 318.748 13.821 318.707 13.6798C318.666 13.5387 318.655 13.3905 318.675 13.2449L319.87 4.90294C319.894 4.73346 319.96 4.57256 320.061 4.43467C320.162 4.29678 320.296 4.18622 320.451 4.11289C323.316 2.70476 326.466 1.9726 329.658 1.9726C332.85 1.9726 336 2.70476 338.866 4.11289C339.026 4.19221 339.163 4.31121 339.265 4.45863C339.367 4.60604 339.429 4.77697 339.446 4.95522L340.694 11.4963C340.708 11.639 340.691 11.7829 340.647 11.919C340.602 12.055 340.529 12.1802 340.433 12.2864C340.235 12.5013 339.968 17.2068 339.678 17.2068C339.922 14.4009 339.33 13.059 337.194 14.43C337 14.4304 336.809 14.3762 336.644 14.2735C336.479 14.1708 336.346 14.0237 336.26 13.8491L335.389 11.9727C335.355 11.8994 335.307 11.8337 335.247 11.7791C335.187 11.7246 335.117 11.6824 335.041 11.6549C334.965 11.6274 334.885 11.6151 334.804 11.6188C334.723 11.6225 334.644 11.6421 334.571 11.6764C334.474 11.7171 334.389 11.7834 334.327 11.8684C334.265 11.9533 334.227 12.0536 334.217 12.1586L334.043 13.5412C334.013 13.7907 333.892 14.0204 333.704 14.1865C333.515 14.3526 333.272 14.4434 333.021 14.4416C329.452 16.2192 324.774 15.737 319.673 14.4416C319.527 14.4361 319.383 14.3996 319.252 14.3346C319.121 14.2695 319.006 14.1772 318.913 14.064Z" fill="#2F2E41"/>
<path d="M337.328 70.3258H320.77C320.203 70.3258 319.659 70.1007 319.258 69.7C318.856 69.2992 318.63 68.7555 318.628 68.188V50.3713C318.628 49.8017 318.854 49.2552 319.255 48.8514C319.656 48.4476 320.201 48.2191 320.77 48.2161H337.328C337.894 48.2191 338.436 48.4461 338.836 48.8476C339.236 49.2491 339.462 49.7926 339.463 50.3596V68.1764C339.465 68.4581 339.411 68.7373 339.304 68.998C339.197 69.2587 339.04 69.4958 338.842 69.6955C338.643 69.8953 338.407 70.0538 338.148 70.1619C337.888 70.2701 337.609 70.3258 337.328 70.3258Z" fill="#3F3D56"/>
<path d="M321.234 52.0792C321.92 52.0792 322.476 51.5226 322.476 50.836C322.476 50.1494 321.92 49.5928 321.234 49.5928C320.548 49.5928 319.992 50.1494 319.992 50.836C319.992 51.5226 320.548 52.0792 321.234 52.0792Z" fill="#E6E6E6"/>
<path d="M321.234 51.5796C321.644 51.5796 321.977 51.2467 321.977 50.836C321.977 50.4254 321.644 50.0925 321.234 50.0925C320.824 50.0925 320.491 50.4254 320.491 50.836C320.491 51.2467 320.824 51.5796 321.234 51.5796Z" fill="#3F3D56"/>
<path d="M340.264 58.3182C339.934 58.6861 339.535 58.9853 339.089 59.1984C338.643 59.4116 338.16 59.5347 337.667 59.5606C337.173 59.5865 336.68 59.5147 336.214 59.3494C335.749 59.1841 335.32 58.9284 334.954 58.597C334.787 58.4523 334.635 58.2907 334.501 58.1149L319.656 62.2278L317.398 57.2609L335.348 52.6136C336.115 52.0965 337.045 51.8784 337.962 52.0006C338.879 52.1228 339.719 52.5769 340.324 53.2769C340.929 53.977 341.257 54.8746 341.246 55.8002C341.235 56.7258 340.886 57.6154 340.264 58.3008V58.3182Z" fill="#FFB8B8"/>
<path d="M321.42 62.3556L317.253 63.6859C312.726 68.4785 311.119 64.9988 305.78 64.6386C304.776 64.5747 303.992 63.744 303.458 62.1871C302.716 59.9928 302.79 57.604 303.667 55.4601L311.084 36.8708L314.183 34.3264L318.518 39.5546L315.193 53.8452L320.654 56.6336L321.42 62.3556Z" fill="#F9A826"/>
<path d="M388.556 420.584L447.422 413.444" stroke="#B2B2B2" stroke-width="5" stroke-miterlimit="10"/>
<path d="M379.601 389.214L438.467 382.075" stroke="#B2B2B2" stroke-width="5" stroke-miterlimit="10"/>
<path d="M371.645 355.353L430.51 348.219" stroke="#B2B2B2" stroke-width="5" stroke-miterlimit="10"/>
<path d="M402.653 448.055L448.252 442.078" stroke="#B2B2B2" stroke-width="5" stroke-miterlimit="10"/>
<path d="M390.744 300.061C390.817 300.97 391.247 301.813 391.94 302.404C392.633 302.996 393.533 303.288 394.441 303.215C394.637 303.197 394.831 303.162 395.021 303.111L401.817 313.254L404.266 307.404L397.441 298.69C397.138 297.929 396.577 297.3 395.856 296.912C395.135 296.524 394.301 296.403 393.5 296.569C392.699 296.735 391.982 297.179 391.475 297.822C390.967 298.464 390.703 299.265 390.727 300.084L390.744 300.061Z" fill="#FFB6B6"/>
<path d="M438.531 322.618L415.392 313.416L407.772 307.799C407.772 307.799 404.696 307.357 405.677 306.259C406.657 305.161 403.419 304.592 403.419 304.592L399.328 301.577L394.54 305.905L396.333 308.072C396.333 308.072 396.693 311.976 398.73 310.976C400.767 309.977 400.622 313.259 400.622 313.259L415.67 331.448L438.531 322.618Z" fill="#3F3D56"/>
<path d="M456.679 477.409L452.262 477.938L448.13 461.149L454.642 460.371L456.679 477.409Z" fill="#FFB6B6"/>
<path d="M421.381 481.626L416.964 482.155L409.35 463.624L415.862 462.845L421.381 481.626Z" fill="#FFB6B6"/>
<path d="M437.011 349.03L414.738 351.693L417.767 377.079L440.04 374.416L437.011 349.03Z" fill="#FFB6B6"/>
<path d="M416.732 364.177L413.511 369.085L408.636 383.608L396.872 424.65L390.906 431.586L395.45 445.859C395.45 445.859 397.128 456.095 397.331 457.78C397.743 461.213 400.813 462.77 400.813 462.77L407.708 475.19L428.02 471.896C428.02 471.896 422.385 458.152 417.754 455.63C413.122 453.109 409.251 437.43 409.251 437.43L406.094 430.663L428.989 402.866L430.255 412.224L430.87 416.761C430.87 416.761 431.079 446.69 435.623 451.959C440.167 457.228 436.302 457.007 436.302 457.007L437.886 468.8L462.842 466.581L453.434 433.19C453.434 433.19 449.726 430.866 450.921 428.542C452.117 426.219 448.948 423.93 448.948 423.93L447.056 397.208C447.056 397.208 445.094 392.787 446.685 391.979C448.275 391.172 446.365 387.413 446.365 387.413L446.011 382.243L439.14 366.89L416.732 364.177Z" fill="#2F2E41"/>
<path d="M437.341 349.015L438.885 341.527L440.312 338.919L440.208 331.977C437.997 313.451 434.236 317.03 434.236 317.03L431.05 310.791L420.023 311.755L413.796 319.307L408.213 322.06L407.348 334.201L413.024 346.366L414.87 353.105C413.343 356.962 413.303 355.225 415.253 357.752L435.263 360.749C442.408 362.335 441.647 356.16 440.109 354.778C438.571 353.395 437.341 349.015 437.341 349.015Z" fill="#3F3D56"/>
<path d="M422.617 309.054C428.271 309.054 432.855 304.466 432.855 298.806C432.855 293.147 428.271 288.559 422.617 288.559C416.963 288.559 412.38 293.147 412.38 298.806C412.38 304.466 416.963 309.054 422.617 309.054Z" fill="#FFB6B6"/>
<path d="M437.811 310.79C438.006 311.054 438.092 311.384 438.048 311.709C438.005 312.035 437.836 312.33 437.579 312.533C437.503 312.59 437.421 312.639 437.335 312.678C436.023 313.294 435.338 314.712 434.485 315.885C433.632 317.059 432.164 318.122 430.835 317.552C429.506 316.983 429.204 315.176 428.043 314.311C426.883 313.445 425.24 313.794 424.137 314.665H424.103C423.846 314.881 423.513 314.985 423.179 314.956C422.845 314.927 422.537 314.766 422.321 314.508C422.113 314.26 422.008 313.943 422.025 313.62C422.184 311.342 422.336 309.067 422.483 306.794C421.705 309.571 420.401 312.172 418.642 314.456C418.164 315.159 417.523 315.736 416.773 316.135C416.088 316.443 415.31 315.792 414.631 316.007C416.175 314.293 420.806 303.953 419.001 297.621L415.403 298.469C415.201 297.91 414.857 297.414 414.405 297.029C414.524 297.582 414.524 298.154 414.405 298.707L412.896 299.062C412.212 299.291 411.473 299.291 410.789 299.062C409.71 298.562 409.501 297.104 409.629 295.919C409.903 294.2 410.548 292.561 411.519 291.116C412.49 289.671 413.764 288.456 415.252 287.554C418.206 285.718 419.524 288.872 422.692 287.432C428.96 284.597 434.369 287.519 436.905 293.822C439.047 299.172 438.664 305.097 437.811 310.79Z" fill="#2F2E41"/>
<path d="M366.537 318.557C366.987 318.569 367.431 318.67 367.843 318.854C368.254 319.038 368.626 319.301 368.935 319.628C369.245 319.956 369.488 320.341 369.649 320.762C369.81 321.184 369.886 321.633 369.874 322.084C369.867 322.279 369.844 322.473 369.804 322.664L380.286 328.921L374.575 331.704L365.498 325.313C364.723 325.05 364.066 324.522 363.641 323.822C363.216 323.122 363.051 322.295 363.175 321.485C363.299 320.675 363.704 319.935 364.319 319.395C364.934 318.854 365.719 318.547 366.537 318.528V318.557Z" fill="#FFB6B6"/>
<path d="M416.941 316.245L394.168 334.306C394.168 334.306 383.826 331.82 385.561 329.891C387.296 327.962 380.994 327.567 380.994 327.567L373.635 323.791L370.234 328.863C370.234 328.863 371.841 336.24 372.915 334.806C373.989 333.371 376.235 336.676 376.235 336.676C376.235 336.676 377.25 340.557 380.617 339.145C383.983 337.733 394.586 347.022 394.586 347.022L423.476 332.116L416.941 316.245Z" fill="#3F3D56"/>
<path d="M366.171 324.151L433.325 619.92" stroke="#B2B2B2" stroke-width="5" stroke-miterlimit="10"/>
<path d="M460.19 466.557L496.584 620.669" stroke="#B2B2B2" stroke-width="5" stroke-miterlimit="10"/>
<path d="M428.27 600.168L490.618 593.035" stroke="#B2B2B2" stroke-width="5" stroke-miterlimit="10"/>
<path d="M419.977 559.01L481.164 551.702" stroke="#B2B2B2" stroke-width="5" stroke-miterlimit="10"/>
<path d="M411.689 522.163L471.216 514.861" stroke="#B2B2B2" stroke-width="5" stroke-miterlimit="10"/>
<path d="M402.734 489.3L465.743 481.911" stroke="#B2B2B2" stroke-width="5" stroke-miterlimit="10"/>
<path d="M425.182 487.209L406.762 492.391L406.692 492.141C405.474 487.802 407.69 483.381 411.654 482.265L414.231 478.519L421.294 479.547L422.902 479.099L425.182 487.209Z" fill="#2F2E41"/>
<path d="M407.029 446.789L407.951 448.532L414.289 453.76L413.511 458.82C414.6 460.853 414.839 463.236 414.176 465.446C413.512 467.655 412 469.511 409.971 470.606L409.722 470.74L399.142 451.041L407.029 446.789Z" fill="#2F2E41"/>
<path d="M459.424 485.1L440.272 485.257V484.996C440.231 480.488 443.533 476.805 447.648 476.776L451.13 473.836L457.677 476.689H459.348L459.424 485.1Z" fill="#2F2E41"/>
</g>
<defs>
<clipPath id="clip0_407_1012">
<rect width="498" height="621" fill="white"/>
</clipPath>
</defs>
</svg>
